<svg height="512pt" viewBox="0 -2 512 512" width="512pt" xmlns="http://www.w3.org/2000/svg"><g fill-rule="evenodd"><path d="m64.308594 10h273.960937l109.421875 109.425781v164.09375h-383.382812zm0 0" fill="#b5f2ff"/><path d="m338.269531 10v109.425781h109.421875zm0 0" fill="#00d8ff"/><path d="m502 273.519531h-44.308594v-154.09375c0-.113281-.011718-.222656-.015625-.335937-.003906-.113282-.011719-.226563-.019531-.339844-.027344-.425781-.074219-.847656-.15625-1.261719 0-.003906 0-.011719-.003906-.019531-.082032-.421875-.203125-.835938-.339844-1.242188-.035156-.105468-.074219-.207031-.113281-.308593-.144531-.386719-.304688-.765625-.496094-1.128907-.011719-.023437-.019531-.042968-.027344-.0625-.203125-.382812-.441406-.746093-.695312-1.101562-.0625-.089844-.128907-.175781-.195313-.265625-.265625-.351563-.550781-.691406-.867187-1.007813l-109.421875-109.421874c-.316406-.316407-.660156-.601563-1.011719-.867188-.085937-.066406-.175781-.132812-.265625-.199219-.351562-.25-.714844-.484375-1.097656-.6875-.019532-.011719-.042969-.019531-.066406-.03125-.363282-.191406-.742188-.355469-1.125-.496093-.101563-.039063-.207032-.078126-.308594-.113282-.40625-.136718-.820313-.257812-1.246094-.34375-.003906 0-.011719 0-.019531 0-.414063-.082031-.835938-.128906-1.257813-.1562498-.113281-.0078124-.226562-.015625-.339844-.0195312-.109374-.0039062-.222656-.015625-.335937-.015625h-273.957031c-5.523438 0-10 4.476562-10 10v263.519531h-44.308594c-5.523438 0-10 4.476563-10 10 0 5.523438 4.476562 10 10 10h492c5.523438 0 10-4.476562 10-10 0-5.523437-4.476562-10-10-10zm-153.730469-239.375 75.28125 75.28125h-75.28125zm-273.960937 239.375v-253.519531h253.960937v99.425781c0 5.523438 4.476563 10 10 10h99.421875v144.09375zm0 0"/><path d="m64.308594 321.914062c-5.523438 0-10 4.476563-10 10v165.425782c0 5.523437 4.476562 10 10 10 5.519531 0 10-4.476563 10-10v-165.425782c0-5.523437-4.480469-10-10-10zm0 0"/><path d="m170.152344 457.339844v-125.425782c0-5.523437-4.476563-10-10-10-5.523438 0-10 4.476563-10 10v125.425782c0 5.523437 4.476562 10 10 10 5.523437 0 10-4.476563 10-10zm0 0"/><path d="m256 321.914062c-5.523438 0-10 4.476563-10 10v165.425782c0 5.523437 4.476562 10 10 10s10-4.476563 10-10v-165.425782c0-5.523437-4.476562-10-10-10zm0 0"/><path d="m351.847656 321.914062c-5.523437 0-10 4.476563-10 10v125.425782c0 5.523437 4.476563 10 10 10 5.519532 0 10-4.476563 10-10v-125.425782c0-5.523437-4.480468-10-10-10zm0 0"/><path d="m447.691406 321.914062c-5.523437 0-10 4.476563-10 10v165.425782c0 5.523437 4.476563 10 10 10 5.523438 0 10-4.476563 10-10v-165.425782c0-5.523437-4.476562-10-10-10zm0 0"/><path d="m388.386719 220.925781h-264.773438c-5.523437 0-10 4.476563-10 10 0 5.523438 4.476563 10 10 10h264.773438c5.523437 0 10-4.476562 10-10 0-5.523437-4.476563-10-10-10zm0 0"/><path d="m173.730469 196.742188h164.535156c5.523437 0 10-4.476563 10-10 0-5.523438-4.476563-10-10-10h-164.535156c-5.519531 0-10 4.476562-10 10 0 5.523437 4.480469 10 10 10zm0 0"/><path d="m160.152344 487.339844c-5.507813 0-10 4.492187-10 10 0 5.507812 4.492187 10 10 10 5.507812 0 10-4.492188 10-10 0-5.507813-4.492188-10-10-10zm0 0"/><path d="m351.847656 487.339844c-5.507812 0-10 4.492187-10 10 0 5.507812 4.492188 10 10 10 5.507813 0 10-4.492188 10-10 0-5.507813-4.496094-10-10-10zm0 0"/></g></svg>