<?xml version="1.0" standalone="no"?>
<!DOCTYPE svg PUBLIC "-//W3C//DTD SVG 20010904//EN"
 "http://www.w3.org/TR/2001/REC-SVG-20010904/DTD/svg10.dtd">
<svg version="1.0" xmlns="http://www.w3.org/2000/svg"
 width="934.000000pt" height="894.000000pt" viewBox="0 0 934.000000 894.000000"
 preserveAspectRatio="xMidYMid meet">

<g transform="translate(0.000000,894.000000) scale(0.100000,-0.100000)"
fill="#000000" stroke="none">
<path d="M4604 8229 c-347 -243 -1226 -1161 -2644 -2764 -272 -307 -627 -707
-788 -889 l-292 -329 5 -121 c3 -67 12 -391 20 -721 28 -1121 66 -1857 111
-2164 32 -219 105 -324 246 -352 77 -16 122 6 160 76 68 128 74 246 89 1760
l12 1210 26 31 c14 17 330 372 701 790 372 417 985 1109 1364 1537 664 751
909 1021 955 1054 15 10 33 13 54 9 106 -21 568 -434 706 -630 58 -84 67 -124
42 -182 -48 -108 -251 -352 -780 -939 -338 -375 -654 -709 -1598 -1694 l-243
-253 0 -91 c0 -51 7 -288 15 -527 21 -610 65 -2002 65 -2059 l0 -48 323 -7
c1038 -22 3419 -57 4240 -63 l957 -6 0 1723 0 1723 -68 76 c-38 42 -451 508
-917 1036 -1231 1392 -1557 1753 -2076 2300 -415 437 -543 555 -604 555 -12 0
-48 -19 -81 -41z m1517 -2466 c151 -144 511 -545 1232 -1373 l397 -455 0
-1237 0 -1238 -82 0 c-332 1 -3889 84 -4104 96 l-100 6 -17 291 c-15 244 -38
736 -61 1299 l-5 116 202 219 c111 120 460 495 777 833 1105 1182 1293 1366
1500 1475 65 34 96 44 133 45 45 0 50 -3 128 -77z" fill="#009a40" />
</g>
</svg>
