<?xml version="1.0" encoding="utf-8"?>
<!-- Generator: Adobe Illustrator 23.0.3, SVG Export Plug-In . SVG Version: 6.00 Build 0)  -->
<svg version="1.1" id="Layer_1" xmlns="http://www.w3.org/2000/svg" xmlns:xlink="http://www.w3.org/1999/xlink" x="0px" y="0px"
	 viewBox="0 0 500 500" style="enable-background:new 0 0 500 500;" xml:space="preserve">
<style type="text/css">
	.st0{fill:#043A16;}
	.st1{fill:#008A37;}
</style>
<g>
	<path class="st0" d="M222.81,197.06h20.77c13.41,0,22.47,0.62,27.2,1.85c4.72,1.23,8.32,3.25,10.78,6.07c2.46,2.81,4,5.95,4.62,9.4
		c0.62,3.45,0.92,10.23,0.92,20.34v37.39c0,9.58-0.45,15.99-1.35,19.22c-0.9,3.23-2.47,5.76-4.71,7.58
		c-2.24,1.82-5.01,3.1-8.31,3.82c-3.3,0.73-8.27,1.09-14.9,1.09h-35.01V197.06z M250.57,215.32v70.22c4,0,6.46-0.8,7.38-2.41
		c0.92-1.6,1.39-5.97,1.39-13.09v-41.47c0-4.83-0.15-7.93-0.46-9.3c-0.31-1.36-1.01-2.36-2.11-3
		C255.67,215.64,253.6,215.32,250.57,215.32z"/>
	<path class="st0" d="M356.27,229.37h-25.78v-7.91c0-3.69-0.33-6.04-0.99-7.06c-0.66-1.01-1.76-1.52-3.3-1.52
		c-1.67,0-2.93,0.68-3.79,2.05c-0.86,1.36-1.29,3.43-1.29,6.2c0,3.56,0.48,6.25,1.45,8.05c0.92,1.8,3.54,3.98,7.85,6.53
		c12.36,7.33,20.14,13.35,23.35,18.06c3.21,4.7,4.81,12.29,4.81,22.75c0,7.61-0.89,13.21-2.67,16.81
		c-1.78,3.61-5.22,6.63-10.32,9.07c-5.1,2.44-11.03,3.66-17.8,3.66c-7.43,0-13.77-1.41-19.02-4.22c-5.25-2.81-8.69-6.4-10.32-10.75
		c-1.63-4.35-2.44-10.53-2.44-18.53v-6.99h25.78v12.99c0,4,0.36,6.57,1.09,7.71c0.73,1.14,2.01,1.71,3.86,1.71
		c1.85,0,3.22-0.73,4.12-2.18c0.9-1.45,1.35-3.6,1.35-6.46c0-6.29-0.86-10.4-2.57-12.33c-1.76-1.93-6.09-5.17-12.99-9.69
		c-6.9-4.57-11.47-7.89-13.71-9.96c-2.24-2.07-4.1-4.92-5.57-8.57c-1.47-3.65-2.21-8.31-2.21-13.98c0-8.18,1.04-14.15,3.13-17.94
		c2.09-3.78,5.46-6.74,10.12-8.87c4.66-2.13,10.29-3.2,16.88-3.2c7.21,0,13.35,1.17,18.43,3.49c5.08,2.33,8.44,5.26,10.09,8.8
		s2.47,9.55,2.47,18.03V229.37z"/>
	<path class="st0" d="M367.28,197.06h46.29v21.36h-18.53v20.24h17.34v20.31h-17.34v23.47h20.37v21.36h-48.13V197.06z"/>
	<path class="st0" d="M486.49,197.06v71.34c0,8.09-0.26,13.77-0.79,17.05c-0.52,3.28-2.09,6.64-4.68,10.09
		c-2.59,3.45-6.01,6.07-10.25,7.85c-4.24,1.78-9.24,2.67-15,2.67c-6.37,0-12-1.05-16.88-3.16c-4.88-2.11-8.53-4.86-10.95-8.24
		c-2.42-3.38-3.85-6.96-4.29-10.72c-0.44-3.76-0.66-11.66-0.66-23.7v-63.17h27.76v80.05c0,4.66,0.25,7.64,0.76,8.94
		c0.5,1.3,1.53,1.95,3.07,1.95c1.76,0,2.89-0.71,3.4-2.14c0.5-1.43,0.76-4.8,0.76-10.12v-78.66H486.49z"/>
</g>
<g>
	<polygon class="st1" points="192.55,187.41 109.33,235.4 51.47,201.99 109.33,168.59 155.75,195.37 181.1,180.78 109.34,139.36 
		26.36,187.26 13.51,194.71 13.51,209.26 53.16,232.2 60.26,236.2 109.33,264.53 158.38,236.22 158.38,236.31 179.85,223.92 
		179.85,290.73 109.33,331.45 60.28,303.13 13.51,276.18 13.51,305.34 96.92,353.5 109.42,360.64 205.16,305.34 205.16,194.69 	"/>
	<polygon class="st1" points="167.88,278.8 167.87,249.58 109.33,283.38 50.79,249.58 50.79,278.8 109.33,312.61 	"/>
</g>
</svg>
