<?xml version="1.0" encoding="utf-8"?>
<!-- Generator: Adobe Illustrator 23.0.3, SVG Export Plug-In . SVG Version: 6.00 Build 0)  -->
<svg version="1.1" id="Layer_1" xmlns="http://www.w3.org/2000/svg" xmlns:xlink="http://www.w3.org/1999/xlink" x="0px" y="0px"
	 viewBox="0 0 500 500" style="enable-background:new 0 0 500 500;" xml:space="preserve">
<style type="text/css">
	.st0{fill:#043A16;}
</style>
<g>
	<path class="st0" d="M225.6,0c2.8,2.5,5.7,4.8,8.4,7.4c12.7,12.6,25.3,25.3,37.9,38c0.6,0.6,1,1.2,1.6,2
		c-11.1,17.4-22,34.7-33.1,51.9c-3.3,5.1-8.5,6.3-13,3.4c-4.5-2.8-5.6-8.2-2.5-13.2c5.7-9.3,11.7-18.4,17.5-27.6
		c0.9-1.3,1.6-2.7,3.1-5.3c-9.8,0.8-18.7,0.8-27.4,2.2C129.6,73.6,70.7,123.4,42.5,208.4c-11.8,35.6-12,72.3-3.6,108.9
		c0.2,1,0.4,1.9,0.6,2.9c1,5.4-1.8,10-6.8,11.2c-5,1.2-9.9-1.6-11-7c-1.9-8.6-3.8-17.2-4.8-25.9c-5.6-46.8,1.3-91.6,23.2-133.4
		C74.4,99.3,128.2,58.6,200.7,43.2c11.2-2.4,22.9-2.9,34.3-4.2c0.9-0.1,1.8-0.2,3.9-0.4c-5-5-9.3-9.4-13.6-13.7
		c-2.2-2.2-4.4-4.4-6.6-6.6c-7.4-7.4-7.1-12.1,0.9-18.3C221.7,0,223.6,0,225.6,0z"/>
	<path class="st0" d="M230.5,500c-8.5-1.2-17.1-2.1-25.5-3.7c-67.8-13-119.8-49.1-156.4-107.4c-0.6-1-1.2-1.9-2.2-3.4
		c-0.6,1.5-1.2,2.6-1.5,3.7c-2.6,8.6-5,17.1-7.7,25.7c-1.9,6-6.5,8.7-11.9,7c-4.9-1.5-7.4-6.4-5.7-12.2
		c5.4-18.7,10.9-37.4,16.6-56.1c0.4-1.3,2.6-2.9,3.9-2.8c19.8,1.1,39.6,2.4,59.4,3.9c5.2,0.4,8.7,4.8,8.4,9.6
		c-0.3,5.1-4.4,8.9-9.9,8.7c-11.5-0.5-23.1-1.4-34.6-2.1c-1.1-0.1-2.2-0.1-4.3-0.2c1.1,2,1.8,3.6,2.7,5
		c35.9,59.1,87.7,94.8,156.4,104c62.2,8.2,117.5-8.9,165.6-49.2c1.1-0.9,2.2-1.9,3.4-2.8c4.6-3.5,9.7-3.1,13.1,0.8
		c3.3,3.8,3.2,9.6-1.2,13c-10.7,8.4-21.3,17.2-32.9,24.4c-31.4,19.7-65.8,30.7-102.8,33.4c-1.3,0.1-2.5,0.5-3.8,0.8
		C250,500,240.3,500,230.5,500z"/>
	<path class="st0" d="M241,381c-6.7-1-14.1-1.8-21.4-3.5c-2.5-0.6-4.5-3.4-6.5-5.4c-0.7-0.7-0.8-2.1-1.2-3.2
		c-6.3-18.9-16.3-25.3-35.9-21.9c-6.3,1.1-10.7-0.5-14.2-5.7c-3-4.4-6.3-8.7-9.6-13c-2.9-3.9-3.4-8-1.1-12.3
		c0.4-0.7,0.8-1.4,1.1-2.2c8.3-17,5.6-28.8-10-39.6c-5.6-3.9-7.6-8.5-6.3-15c1-5.3,1.8-10.6,2.6-15.9c0.7-4.7,3.4-7.6,7.8-9
		c0.9-0.3,1.9-0.6,2.8-0.9c17.5-6.1,24-16.9,20.4-35c-1.3-6.5,0.3-11,5.8-14.6c4.4-3,8.7-6.3,13-9.5c3.9-3,8-3.1,12.4-1
		c3.7,1.7,7.4,3.4,11.3,4.5c9.2,2.8,17.4,0.6,24.1-6.2c2.7-2.8,5.1-5.9,7.5-9c3-4,6.8-5.8,11.9-4.9c5.6,1,11.2,1.8,16.9,2.6
		c5,0.7,8.3,3.3,9.9,8.1c0.5,1.4,0.8,2.8,1.4,4.2c6.1,16.1,16.1,22.1,33.1,19.1c7.8-1.4,13.3,0.4,17.3,7.3c2,3.5,4.6,6.7,7.2,9.8
		c4.1,4.8,4.5,9.7,1.5,15.3c-1.7,3.1-2.9,6.5-3.9,9.9c-2.5,8.6-1,16.5,5.3,23c3,3.1,6.5,5.9,9.9,8.6c3.8,3,5.6,6.5,4.8,11.4
		c-1,5.6-1.7,11.3-2.4,16.9c-0.7,5.4-3.5,8.9-8.8,10.5c-1.4,0.4-2.8,0.9-4.1,1.4c-15.5,6-21.7,16.6-18.6,33c1.5,7.6-0.3,12.9-6.9,17
		c-4,2.4-7.6,5.5-11.4,8.4c-4.1,3.1-8.3,3.3-12.8,1c-0.4-0.2-0.9-0.5-1.3-0.7c-17.9-8.7-29.2-5.9-40.7,10.4
		C249.1,378.3,246.3,380.8,241,381z M324.4,218.5c0.1-3.3-5.6-8.1-8.7-8.2c-6-0.1-12.1,0.1-17.9-1.1c-15.6-3.2-24.6-14.1-30.7-28
		c-2.1-4.8-9.5-5.9-13-2C238,197.6,221.6,201.7,199,193c-1.4-0.5-3.3-0.9-4.4-0.3c-3.8,2.2-6.6,4.5-6.2,10.1
		c1.4,22.7-7.5,36.9-27.9,46.1c-6.5,2.9-7.6,9.6-2.3,14.3c16.9,15,21.3,32,13.4,52.7c-2.8,7.3,1.1,12.6,8.9,12.1
		c22.4-1.4,37.2,7.6,46.4,28.2c2.9,6.4,9.6,7.4,14.4,2c15.1-17.1,32.5-21.3,53.6-12.8c5.5,2.2,11.4-2,11-8
		c-1.5-23.8,7.4-38.4,29.3-48.2c5.1-2.3,6-9.5,1.7-13.2c-17.8-15.5-22-32.3-13.6-54.3C323.7,220.5,324.1,219.4,324.4,218.5z"/>
	<path class="st0" d="M440.7,393.8c9.1-0.9,17.9-1.8,26.6-2.7c2.9-0.3,5.8-0.6,8.8-0.6c4.8,0,8.3,3.4,8.9,8c0.5,4.5-2.2,8.9-7,9.8
		c-6.9,1.2-13.9,1.8-20.8,2.5c-14.1,1.4-28.1,2.8-42.7,4.2c-1.7-4.9-3.4-9.8-5-14.7c-4.8-14.3-9.5-28.7-14.2-43
		c-2.1-6.4,0-11.6,5.1-13.3c5.3-1.8,10.1,1,12.3,7.3c3.6,10.7,7.2,21.5,11.1,33.1c1.5-2.2,2.6-3.7,3.6-5.2
		c72.9-119.5,10.3-277.4-124.7-314.6c-1.7-0.5-3.5-0.8-5.1-1.7c-4.1-2.2-5.6-5.7-4.7-10.2c0.9-4.2,4.4-7,8.8-6.9
		c1.4,0,2.9,0.3,4.3,0.7c92.6,28.4,149.2,90.1,167.2,185.2c10.6,56.1-1.2,109.3-30.8,158.3c-0.4,0.7-0.8,1.4-1.2,2.1
		C441,392.4,441,392.7,440.7,393.8z"/>
	<path class="st0" d="M247.4,312.8c-24.1,0.1-43.8-19.4-43.9-43.6c-0.1-23.9,19.4-43.5,43.3-43.7c24.3-0.1,44,19.2,44.1,43.4
		C291.1,293.1,271.6,312.7,247.4,312.8z M247.4,244c-13.9-0.1-25.3,11.1-25.4,24.9c-0.2,14,11.4,25.5,25.4,25.4
		c13.9-0.1,25.1-11.3,25.1-25.2C272.4,255.3,261.3,244.1,247.4,244z"/>
</g>
</svg>
