<?xml version="1.0" encoding="utf-8"?>
<!-- Generator: Adobe Illustrator 23.0.3, SVG Export Plug-In . SVG Version: 6.00 Build 0)  -->
<svg version="1.1" id="Layer_1" xmlns="http://www.w3.org/2000/svg" xmlns:xlink="http://www.w3.org/1999/xlink" x="0px" y="0px"
	 viewBox="0 0 500 500" style="enable-background:new 0 0 500 500;" xml:space="preserve">
<style type="text/css">
	.st0{fill:#043A16;}
</style>
<g>
	<g>
		<path class="st0" d="M235.3,500c-9.2-1.2-18.4-2.2-27.5-3.7c-42.3-7-80-24.3-113.6-50.8c-1.3-1-2.5-1.9-5.1-3.9
			c0,5.9,0,10.6,0,15.4c-0.1,7.3-0.1,14.6-0.4,22c-0.3,5.5-4.6,9.4-9.9,9.4c-5.2,0-9.6-3.7-9.7-9c-0.2-22.8-0.1-45.5-0.1-68.4
			c14.5-3,27.7-5.8,40.8-8.5c8.6-1.8,17.2-3.6,25.8-5.3c6.1-1.2,11,1.8,12.4,7.4c1.3,5.3-2,10.5-8.1,11.9
			c-11.6,2.6-23.2,4.9-34.8,7.3c-1.2,0.3-2.4,0.6-3.6,1c-0.2,0.5-0.4,1-0.6,1.4c10.8,7.4,21.2,15.5,32.5,22
			c91.4,53.1,203.6,39.3,278.6-35.2c47.6-47.4,70-105.6,67.6-172.8c-1.6-44.2-15.5-84.4-40.3-120.9c-1.8-2.7-3.3-6.2-3.3-9.3
			c-0.1-4.2,2.8-7.3,7-8.3c4.8-1.2,8.9,0.3,11.3,4.6c8.1,14,17.4,27.6,23.9,42.4c42.2,95.5,22.3,203.4-51.2,277.8
			c-40.6,41-90,64.9-147.5,71.9c-4.6,0.6-9.3,1.2-13.9,1.8C255.5,500,245.4,500,235.3,500z"/>
		<path class="st0" d="M264.6,0c9.3,1.2,18.7,2.2,28,3.8c42.4,7.2,80.3,24.5,113.9,51.3c1,0.8,2,1.6,3.1,2.4
			c0.2,0.2,0.6,0.1,1.8,0.3c0-7.7-0.1-15.3,0-22.8c0.1-5.5,0.1-11.1,0.5-16.6c0.4-5.6,4.7-9.5,9.9-9.4c5.2,0.1,9.7,4.2,9.7,9.7
			c0.1,22.6,0.1,45.2,0.1,67.9c-15.3,3.2-29.3,6.1-43.3,9c-7.5,1.6-15,3.1-22.4,4.6c-6.8,1.4-12.1-1.6-13.3-7.3
			c-1.2-6,2.1-10.6,9-12.1c10.5-2.3,21-4.4,31.5-6.6c1.1-0.2,2.1-0.6,3.8-2.2c-10.8-7.2-21.1-15-32.3-21.4
			C240.6-20.4,82.8,36.7,34.2,170.8c-25.8,71-17.5,139.4,22.4,203.8c0.8,1.2,1.6,2.4,2.3,3.7c2.9,5.3,1.8,10.7-2.8,13.8
			c-4.8,3.1-10.5,1.9-14-3.3c-3.2-4.7-6.2-9.6-9-14.5C14.5,341.9,3.7,307.1,0.8,269.9c-0.1-1.4-0.6-2.8-0.8-4.3
			c0-10.4,0-20.8,0-31.3c1.2-8.7,2-17.4,3.5-26c9.6-55.9,35.3-103.3,76.8-141.8c35.9-33.4,78.2-54.4,126.6-62.7
			c9.1-1.6,18.3-2.6,27.4-3.8C244.4,0,254.5,0,264.6,0z"/>
	</g>
	<path class="st0" d="M266.3,363.3c-1.8,18.1-4.2,22.6-12.3,22.7c-8,0.1-10.6-4.4-12.7-21.7c-8.1-1.7-16.3-2.8-24.1-5.2
		c-26.3-8-43.3-30.2-42.9-55.3c0.1-7,3.9-11.5,10.1-11.9c6.6-0.5,11.1,3.5,11.9,10.8c3,24.5,18.8,37.9,44.9,37.7
		c0.2-1.6,0.5-3.3,0.5-5c0-24.4-0.1-48.8,0.1-73.2c0-4-0.9-5.8-5.1-6.9c-8.6-2.2-17.3-4.6-25.6-7.9c-25.5-10.3-37.4-27.4-36.8-51.9
		c0.6-24.6,15.5-45.4,39.4-53.8c8.8-3.1,18.1-4.4,26.1-6.3c2.1-6.4,3.8-12.9,6.7-18.8c0.9-1.8,5.3-3.1,7.8-2.7
		c14.4,2.1,10.8,13.9,11.7,23.2c6.6,1.9,13.1,3.3,19.4,5.5c25.1,8.9,40.7,30.1,39.8,53.9c-0.3,6.5-4.1,10.8-10.1,11.3
		c-6.4,0.5-10.9-3.4-11.9-10.1c-3.3-22.8-13.2-32.8-36.9-36.9c-0.2,1-0.5,2-0.5,3c0,23.7,0.1,47.4-0.1,71.2c0,3.9,1.7,5,5,6.4
		c11.4,5,23.4,9.2,33.6,16.1c29.9,20.3,30.9,80.7-12.6,98C283.6,358.6,275.1,360.6,266.3,363.3z M241.4,234.2c0-26.1,0-50.3,0-75.1
		c-14.2,0.3-26.8,3.9-36.3,14.6C190,191,195,215.4,215.7,224.9C223.7,228.6,232.4,231,241.4,234.2z M266.2,339
		c21.2-0.4,35.7-13.8,36.9-33.9c1.3-21.1-13.8-37.9-36.9-40.8C266.2,289.2,266.2,314,266.2,339z"/>
</g>
</svg>
