<?xml version="1.0" encoding="utf-8"?>
<!-- Generator: Adobe Illustrator 23.0.3, SVG Export Plug-In . SVG Version: 6.00 Build 0)  -->
<svg version="1.1" id="Layer_1" xmlns="http://www.w3.org/2000/svg" xmlns:xlink="http://www.w3.org/1999/xlink" x="0px" y="0px"
	 viewBox="0 0 500 500" style="enable-background:new 0 0 500 500;" xml:space="preserve">
<style type="text/css">
	.st0{fill:#043A16;}
</style>
<g>
	<path class="st0" d="M149.4,0c67.1,0,134.1,0,201.1,0c0.3,0.2,0.5,0.5,0.8,0.6c30,7.2,44.4,25.4,44.4,56.4c0,20.8,0,41.7,0,62.5
		c0,1.7,0,3.5,0,5.6c2.4,0,4.2,0,6,0c15.1,0,30.3-0.1,45.4,0c30.1,0.2,52.8,22.8,52.9,52.9c0.1,48,0.1,96,0,144
		c-0.1,30.4-22.8,52.9-53.1,53.1c-15.1,0.1-30.3,0-45.4,0c-1.7,0-3.5,0-5.7,0c0,2.3,0,4.1,0,5.8c0,21.6,0.1,43.3,0,64.9
		c-0.1,32.1-22.3,54.3-54.4,54.3c-60.8,0-121.7,0-182.5,0c-32.3,0-54.5-22.2-54.6-54.6c-0.1-21.6,0-43.3,0-64.9c0-1.7,0-3.5,0-5.5
		c-2.5,0-4.2,0-6,0c-15.6,0-31.2,0.1-46.8-0.1c-22.5-0.3-41.8-14.8-48.8-36.1c-0.9-2.9-1.7-5.8-2.5-8.8c0-53.4,0-106.8,0-160.1
		c0.3-0.4,0.7-0.8,0.7-1.2c3-22.5,24-44.6,54.1-43.8c14.6,0.4,29.3,0.1,43.9,0.1c1.7,0,3.4,0,5.5,0c0-2.6,0-4.6,0-6.5
		c0-22.9-0.1-45.9,0.2-68.8c0.2-14,6.1-25.7,16.2-35.4C128.7,6.4,138.7,2.5,149.4,0z M395.7,354.2c2.4,0,4,0,5.6,0
		c14.5,0,29,0,43.4,0c21.4,0,34.5-13,34.5-34.3c0-46.5,0-93.1,0-139.6c0-21.7-12.9-34.6-34.6-34.6c-21.5,0-42.9,0-64.4,0
		c-108.7,0-217.4,0-326,0c-20.1,0-33.3,13.3-33.3,33.4c-0.1,47.2-0.1,94.4,0,141.6c0,20.1,13.2,33.3,33.3,33.5
		c15.1,0.1,30.3,0,45.4,0c1.4,0,2.8-0.2,4.8-0.3c0-2,0-3.8,0-5.5c0-21.5,0-43,0-64.4c0-9.5,3.6-13.1,12.9-13.1c88.5,0,177,0,265.5,0
		c9.4,0,13,3.6,13,13c0,21.5,0,43,0,64.4C395.7,349.9,395.7,351.7,395.7,354.2z M125,291.9c0,2,0,3.5,0,4.9c0,49.6,0,99.3,0,148.9
		c0,20.4,13.2,33.5,33.7,33.5c60.9,0,121.7,0,182.6,0c20.7,0,33.7-13.1,33.7-34c0-49.3,0-98.6,0-147.9c0-1.7,0-3.5,0-5.4
		C291.4,291.9,208.5,291.9,125,291.9z M375,124.9c0-1.9,0-3.3,0-4.7c0-22.1,0-44.3,0-66.4c0-19.5-13.2-33-32.7-33
		c-61.5-0.1-123-0.1-184.5,0c-19.5,0-32.7,13.5-32.7,33c0,22.1,0,44.3,0,66.4c0,1.5,0,3.1,0,4.7C208.6,124.9,291.4,124.9,375,124.9z
		"/>
	<path class="st0" d="M239.4,395.7c-19.5,0-39,0-58.5,0c-1.6,0-3.3,0-4.9-0.1c-5.5-0.5-9.2-4.7-9.3-10.1c-0.1-5.3,3.6-9.7,9-10.4
		c1.4-0.2,2.9-0.1,4.4-0.1c39.7,0,79.3,0,119,0c1.5,0,3-0.1,4.4,0.1c5.3,0.8,9.1,5.4,8.9,10.6c-0.2,5.3-4.1,9.5-9.6,9.9
		c-2.8,0.2-5.5,0.1-8.3,0.1C276.2,395.7,257.8,395.7,239.4,395.7z"/>
	<path class="st0" d="M239.7,416.7c19.3,0,38.7,0,58,0c1.6,0,3.3,0,4.9,0.1c5.7,0.4,9.8,4.7,9.8,10.1c0,5.4-4,10-9.6,10.4
		c-3.2,0.3-6.5,0.1-9.8,0.1c-37.2,0-74.4,0-111.7,0c-1.6,0-3.3,0.1-4.9-0.1c-5.9-0.5-9.9-5-9.7-10.7c0.2-5.6,4.1-9.7,10-9.9
		c6.5-0.2,13-0.1,19.5-0.1C210.8,416.7,225.2,416.7,239.7,416.7z"/>
	<path class="st0" d="M197.8,354.2c-6.4,0-12.7,0.1-19,0c-7.5-0.1-12-4.2-11.9-10.6c0.1-6.2,4.5-10.3,11.7-10.3
		c12.9-0.1,25.7-0.1,38.6,0c7.4,0,12.1,4.4,12.1,10.6c-0.1,6.2-4.8,10.3-12.3,10.4C210.5,354.3,204.1,354.2,197.8,354.2z"/>
</g>
</svg>
