<?xml version="1.0" encoding="utf-8"?>
<!-- Generator: Adobe Illustrator 23.0.3, SVG Export Plug-In . SVG Version: 6.00 Build 0)  -->
<svg version="1.1" id="Layer_1" xmlns="http://www.w3.org/2000/svg" xmlns:xlink="http://www.w3.org/1999/xlink" x="0px" y="0px"
	 viewBox="0 0 500 500" style="enable-background:new 0 0 500 500;" xml:space="preserve">
<style type="text/css">
	.st0{fill:#043A16;}
</style>
<g>
	<g>
		<path class="st0" d="M235.3,500c-9.2-1.2-18.4-2.2-27.5-3.7c-42.1-7-79.7-24.1-113.1-50.5c-1.4-1.1-2.8-2.1-4.7-3.6
			c-0.2,1.9-0.4,3.2-0.5,4.6c-0.2,10.3-0.4,20.5-0.6,30.7c-0.2,6.6-4.2,10.9-10,10.8c-5.9,0-9.8-4.3-9.8-11
			c0.3-21.1,0.7-42.3,1-63.4c0-2.7,1-3.5,3.6-4c20.5-4.1,41-8.5,61.6-12.7c6.5-1.3,11.4,1.6,12.8,7.3c1.3,5.5-2.2,10.6-8.6,12.1
			c-11.4,2.5-22.9,4.8-34.3,7.2c-1.2,0.3-2.4,0.6-3.6,1c-0.2,0.5-0.4,1-0.6,1.4c10.8,7.4,21.2,15.5,32.5,22
			c91.5,53.1,203.6,39.3,278.5-35.2c47.6-47.4,70-105.5,67.6-172.8c-1.6-44.2-15.5-84.4-40.3-120.9c-1.8-2.7-3.3-6.2-3.3-9.3
			c-0.1-4.2,2.8-7.2,7-8.3c4.8-1.2,8.9,0.3,11.3,4.6c8.1,14,17.4,27.6,23.9,42.4c42.2,95.5,22.3,203.4-51.2,277.7
			c-40.6,41-90,64.9-147.4,71.9c-4.6,0.6-9.3,1.2-13.9,1.8C255.5,500,245.4,500,235.3,500z"/>
		<path class="st0" d="M0,234.5c1.2-9,2.2-18,3.7-27C21,108.6,94.5,29.6,192.2,7.1c78.6-18.1,150.2-1.4,214,48
			c1.3,1,2.5,1.9,4.4,3.3c0.2-1.9,0.4-3.3,0.4-4.6c0.2-11.2,0.3-22.5,0.6-33.7c0.2-6.7,4.3-11,10-10.9c5.9,0,9.9,4.7,9.9,11.5
			c0,22,0,43.9,0,66c-13.7,2.9-26,5.5-38.4,8.1c-9.2,1.9-18.4,3.9-27.7,5.7c-7.7,1.5-13.5-3-13.1-10.2c0.2-4.6,3-8,8.1-9.1
			c10.8-2.4,21.6-4.5,32.4-6.8c1.1-0.2,2.1-0.6,4.6-1.3c-8.8-6.2-16.4-12.2-24.6-17.3C241-27.8,64.9,42.2,27.1,193.6
			C11,258,21.4,318.7,56.8,375c5,7.9,4.8,13.4-0.7,17.1c-5.5,3.7-11,1.6-15.9-6.1c-22.8-35.4-36-74-39.3-116
			c-0.1-1.4-0.6-2.8-0.8-4.3C0,255.3,0,244.9,0,234.5z"/>
	</g>
	<g>
		<path class="st0" d="M130.9,373.9l-4.8-4.8c-2.9-2.9-2.9-7.6,0-10.5l232.5-232.5c2.9-2.9,7.6-2.9,10.5,0l4.8,4.8
			c2.9,2.9,2.9,7.6,0,10.5L141.4,373.9C138.5,376.8,133.8,376.8,130.9,373.9z"/>
		<path class="st0" d="M373.9,369.1l-4.8,4.8c-2.9,2.9-7.6,2.9-10.5,0L126.1,141.4c-2.9-2.9-2.9-7.6,0-10.5l4.8-4.8
			c2.9-2.9,7.6-2.9,10.5,0l232.5,232.5C376.8,361.5,376.8,366.2,373.9,369.1z"/>
	</g>
</g>
</svg>
