<?xml version="1.0" encoding="utf-8"?>
<!-- Generator: Adobe Illustrator 23.0.3, SVG Export Plug-In . SVG Version: 6.00 Build 0)  -->
<svg version="1.1" id="Layer_1" xmlns="http://www.w3.org/2000/svg" xmlns:xlink="http://www.w3.org/1999/xlink" x="0px" y="0px"
	 viewBox="0 0 500 500" style="enable-background:new 0 0 500 500;" xml:space="preserve">
<style type="text/css">
	.st0{fill:#043A16;}
</style>
<g>
	<path class="st0" d="M323.2,0c9,3.2,18.2,5.9,26.8,9.8c5.1,2.3,9.7,5.9,13.9,9.8C388,41.9,412,64.4,435.8,87.1
		c13.5,12.9,20.8,29.2,20.8,47.9c0.2,112.1,0.1,224.3,0.1,336.4c0,17.5-11.3,28.5-28.9,28.5c-118.5,0-237,0-355.5,0
		c-17.9,0-29.1-11-29.1-28.8c0-147.5,0-294.9,0-442.4c0-14.9,6.1-22.6,22.2-28.8C151.4,0,237.3,0,323.2,0z M316.6,20
		c-2.3,0-4.1,0-5.8,0c-78.9,0-157.8,0-236.8,0c-9,0-10.6,1.5-10.6,10.4c0,146.4,0,292.9,0,439.3c0,8.6,1.7,10.3,10.2,10.3
		c117.6,0,235.3,0,352.9,0c8.3,0,10-1.8,10-10c0-110.3,0-220.6,0-331c0-1.7,0-3.5,0-5.7c-2.5,0-4.4,0-6.3,0
		c-24.2,0-48.5-0.5-72.7,0.1c-25.4,0.7-41.8-17.7-41.1-40.9c0.7-22.3,0.1-44.6,0.1-66.9C316.6,24,316.6,22.2,316.6,20z M431.5,113.3
		c-3.5-4.5-5.8-8.2-8.8-11c-24.3-23.1-48.7-46-73.2-68.8c-3.5-3.2-7.8-5.5-12.5-8.7c-0.2,2.4-0.3,3.7-0.3,4.9c0,22-0.1,43.9,0,65.9
		c0,11.2,6.8,17.8,18,17.8c18.5,0.1,37.1,0,55.6,0C416.9,113.3,423.4,113.3,431.5,113.3z"/>
	<path class="st0" d="M304.3,411.8c0.7,2.8,1.6,5.1,1.8,7.5c0.6,5.6-2.9,10.2-9,12.4c-72.9,26.5-153.7-14.9-175.1-89.5
		c-7.2-25.1-6.8-50.1,0.3-75c2.6-9,8.4-12.2,17.5-9.7c0.9,0.3,1.9,0.4,2.7,0.5c18.6-56.6,74.8-90.3,130.9-83.8
		c53.1,6.1,95.4,44,106.9,96.2c6.5,29.7,2.5,58.2-12,85.1C353.9,381.9,332.2,400.5,304.3,411.8z M283.3,415
		c-14.3-31.6-28.2-62.6-42.6-93.4c-1.8-3.8-6.3-7.1-10.4-8.7c-28.4-11.1-57.1-21.7-85.7-32.5c-1.4-0.5-2.9-0.9-5-1.5
		c-8.7,44,2.8,81.2,35.3,110.8C205.8,417.7,242.1,426.4,283.3,415z M325.4,217.1c-24.7-22.9-66.9-30.3-101-17.4
		c-31.2,11.8-51.8,33.9-62.9,65.7c2.3,0.9,3.9,1.6,5.6,2.2c24.3,9.1,48.7,18.1,72.9,27.6c4.3,1.7,6.4,1.2,9.4-1.9
		c14.1-14.4,28.4-28.6,42.7-42.9C303.1,239.4,314.2,228.4,325.4,217.1z M295.4,393.3c69.2-25.5,88.3-110.8,44.5-161.3
		c-26.9,26.8-53.7,53.7-80.9,80.9C270.9,339.3,283.1,366.1,295.4,393.3z"/>
	<path class="st0" d="M193.1,113.3c-19.5,0-39,0.1-58.5,0c-8.3,0-13.4-7-10.3-14c2-4.4,5.6-5.9,10.3-5.9c13,0.1,26,0,39,0
		c25.9,0,51.7,0,77.6,0c4.3,0,8.6,0.5,10.4,4.7c1.2,2.8,1.4,6.7,0.5,9.6c-1.3,4.1-5.1,5.6-9.4,5.6c-17.4,0-34.8,0-52.2,0
		C197.9,113.3,195.5,113.3,193.1,113.3z"/>
</g>
</svg>
