<?xml version="1.0" encoding="utf-8"?>
<!-- Generator: Adobe Illustrator 23.0.3, SVG Export Plug-In . SVG Version: 6.00 Build 0)  -->
<svg version="1.1" id="Layer_1" xmlns="http://www.w3.org/2000/svg" xmlns:xlink="http://www.w3.org/1999/xlink" x="0px" y="0px"
	 viewBox="0 0 500 500" style="enable-background:new 0 0 500 500;" xml:space="preserve">
<style type="text/css">
	.st0{fill:#043A16;}
</style>
<g>
	<path class="st0" d="M500,264.6c-1.2,9.1-2.2,18.4-3.7,27.4c-7.1,42.4-24.4,80.3-51.1,113.9c-0.9,1.1-1.7,2.3-2.9,4
		c1.7,0.2,2.8,0.5,4,0.5c10.4,0.2,20.8,0.4,31.2,0.6c6.6,0.2,10.9,4.2,10.8,10c0,5.9-4.3,9.9-11,9.8c-21.1-0.3-42.3-0.8-63.4-1
		c-2.7,0-3.5-1.1-4-3.6c-4.1-20.5-8.5-41-12.6-61.6c-1.4-6.7,1.8-11.8,7.8-12.9c5.5-1,10.4,2.6,11.7,9.1c2.4,11.4,4.7,22.9,7.1,34.4
		c0.2,1.1,0.6,2.1,1.5,4.9c8.1-12,16.2-22.4,22.8-33.6c70.2-119.9,20.3-273.6-107.7-327.6C264.1,6.5,190,14.8,120.3,60.1
		c-1.2,0.8-2.4,1.7-3.7,2.4c-5.1,2.9-10.8,1.7-13.8-2.8c-2.9-4.5-2-10.6,2.9-13.7c10.5-6.7,21-13.6,32.1-19.3
		c29.3-15,60.4-23.5,93.3-25.9c1.4-0.1,2.9-0.5,4.3-0.8c10.1,0,20.2,0,30.3,0c1.3,0.3,2.5,0.6,3.8,0.8C285,3.6,300.8,5.1,315.9,9
		C408.4,33.3,480.7,113,496.2,206.9c1.5,9.1,2.5,18.3,3.8,27.4C500,244.4,500,254.5,500,264.6z"/>
	<path class="st0" d="M73.3,103.1c-17.7,21.3-31.4,44-39.6,69.4C4.5,262.7,21.6,343.5,87.3,411.8c46.4,48.3,105.1,70,172.1,67.8
		c42.3-1.4,81-14.1,116.5-37.1c2-1.3,4.3-2.5,6.6-3c4.5-0.9,8.8,1.9,10.5,6.1c1.7,4.4,0.5,9.3-3.9,12c-10.3,6.2-20.5,12.7-31.3,17.8
		c-146.3,69.8-320-16-352.3-174.8C-10,224.4,7.3,155.2,55.2,93.7c1-1.3,1.9-2.6,3.3-4.4c-1.9-0.2-3.2-0.4-4.6-0.4
		c-11.2-0.2-22.5-0.3-33.7-0.6c-6.7-0.2-11-4.3-11-9.9c0-5.8,4.7-9.9,11.5-9.9c21.9,0,43.9,0,66,0c2.9,13.7,5.5,26,8.1,38.4
		c1.8,8.9,3.7,17.8,5.5,26.7c1.5,7.3-1.2,12.6-7.1,13.9c-6.1,1.3-10.7-2.1-12.3-9.3c-2.3-10.3-4.3-20.7-6.5-31
		C74.2,106,73.8,105,73.3,103.1z"/>
	<path class="st0" d="M153.5,249.7c0-31.4,0-62.8,0-94.1c0-17.6,10.9-28.7,28.5-28.7c45.4-0.1,90.7-0.1,136.1,0
		c17.9,0,28.7,11,28.7,29c0,42.9,0.1,85.9-0.1,128.8c-0.1,18.7-7,34.9-19.8,48.4c-6.7,7.1-13.6,14-20.7,20.7
		c-13.2,12.3-29,19.1-47.1,19.3c-25.9,0.3-51.7,0.1-77.6,0.1c-16.8,0-28-11.3-28-28.2C153.4,313.1,153.5,281.4,153.5,249.7z
		 M326.5,289c0.1-2.1,0.3-3.8,0.3-5.6c0-42.3,0-84.6,0-126.8c0-8-2-10-10.2-10c-44.4,0-88.8,0-133.2,0c-8,0-10,2-10,10.2
		c0,62.1,0,124.2,0,186.4c0,8.2,1.9,10.1,10,10.1c23.4,0,46.8,0,70.3,0c1.6,0,3.2-0.1,5.4-0.2c0-8.7,0-17.1,0-25.5
		c0.1-22.9,15.8-38.5,38.7-38.5C307.2,289,316.6,289,326.5,289z M279.4,348.8c16.6-11,28.7-24.5,39.9-39c-7.3-0.7-14.1-0.8-20.9-0.7
		c-1.6,0-3.3,0.1-4.9,0.3c-7.4,1-13.7,6.9-14.1,14C279,331.3,279.4,339.2,279.4,348.8z"/>
	<path class="st0" d="M250.2,200.1c-11.9,0-23.7,0-35.6,0c-4.2,0-7.6-1.4-9.8-5.2c-1.9-3.4-2.3-7.3,0.4-10c2.3-2.3,5.9-4.6,9-4.7
		c23.9-0.4,47.8-0.3,71.7-0.2c6.5,0,11,4.4,10.9,10.1c0,5.7-4.5,9.9-11,10C273.9,200.1,262.1,200.1,250.2,200.1z"/>
	<path class="st0" d="M232.3,246.7c-5.9,0-11.7,0.1-17.5,0c-6.9-0.2-11.4-4.3-11.3-10.1c0.1-5.8,4.7-9.9,11.5-9.9
		c11.9-0.1,23.7-0.1,35.6,0c6.6,0,11,3.9,11.3,9.6c0.2,6-4.1,10.2-11,10.4C244.7,246.9,238.5,246.7,232.3,246.7z"/>
</g>
</svg>
