<?xml version="1.0" encoding="utf-8"?>
<!-- Generator: Adobe Illustrator 23.0.3, SVG Export Plug-In . SVG Version: 6.00 Build 0)  -->
<svg version="1.1" id="Layer_1" xmlns="http://www.w3.org/2000/svg" xmlns:xlink="http://www.w3.org/1999/xlink" x="0px" y="0px"
	 viewBox="0 0 500 500" style="enable-background:new 0 0 500 500;" xml:space="preserve">
<style type="text/css">
	.st0{fill:#BDD29A;}
	.st1{fill:#83951D;}
	.st2{fill:#465E14;}
</style>
<path class="st0" d="M111.8,440.6c-17.6-17.6-34.8-34.8-52.3-52.3c0.8-0.9,1.8-2.1,3-3.2c9.5-9.5,18.9-18.9,28.4-28.4
	c5.1-5.1,5.7-9.4,2.1-15.7c-8.1-14-14.2-28.8-18.4-44.5c-1.9-7-5.6-9.6-13.1-9.7c-12.9-0.1-25.8,0-38.7,0c-1.7,0-3.5,0-5.5,0
	c0-24.7,0-48.9,0-73.8c4,0,8,0,11.9,0c10.5,0,21,0,31.4,0c8.6,0,12.1-2.6,14.2-10.7c4-14.8,9.9-28.9,17.5-42.3
	c4.4-7.8,3.9-11.4-2.6-17.9C79.6,132,69.5,121.9,59.6,112c17.6-17.5,34.9-34.8,52.5-52.4c5.3,5.3,10.9,11.1,16.6,16.8
	c5,5,10,10.1,15.1,15c4.3,4.2,8.6,5.2,13.6,2.4c15.1-8.5,30.9-15.1,47.6-19.7c5.6-1.6,8-5.6,8-12.3c0.1-12.9,0-25.8,0-38.7
	c0-1.8,0-3.5,0-5.6c24.6,0,49,0,73.9,0c0,5.4,0,10.7,0,16c0,9.5-0.1,19,0,28.5c0.1,7.1,2.8,10.8,9.6,12.7
	c15.6,4.2,30.4,10.3,44.5,18.4c6.4,3.7,10.6,3,16-2.4c10.4-10.3,20.7-20.7,30.7-30.7c17.5,17.5,34.7,34.8,52.3,52.4
	c-0.5,0.5-1.6,1.8-2.9,3c-9.3,9.3-18.7,18.7-28,28c-5.1,5.1-5.7,9.4-2.1,15.6c7.9,13.9,14.1,28.5,18.3,44c2,7.3,5.6,10.1,13.3,10.1
	c12.9,0.1,25.8,0,38.7,0c1.7,0,3.5,0,5.5,0c0,24.7,0,48.9,0,73.8c-1.8,0-3.5,0-5.2,0c-12.9,0-25.8,0-38.7,0c-8,0-11.6,2.7-13.6,10.3
	c-4,15.2-10.1,29.5-17.8,43.2c-4.1,7.4-3.6,11.1,2.5,17.1c10.2,10.2,20.5,20.4,30.6,30.5c-17.6,17.6-34.9,34.8-52.6,52.4
	c-8.5-8.5-17.4-17.4-26.2-26.3c-1.8-1.8-3.6-3.7-5.5-5.5c-4.7-4.4-8.9-5.1-14.5-1.9c-14.5,8.3-29.7,14.5-45.8,19
	c-6.4,1.8-9,5.5-9,12.6c-0.1,14.6,0,29.3,0,44.3c-24.6,0-49,0-73.9,0c0-3.6,0-7.1,0-10.6c0-11.3,0.1-22.6,0-33.8
	c-0.1-7-2.6-10.7-9.1-12.5c-16.1-4.5-31.3-10.8-45.8-19c-5.7-3.2-9.9-2.4-14.8,2.4C132.9,419.5,122.4,430,111.8,440.6z M219.7,261.1
	c-18.8,11.6-29.6,28-31.2,49.8c-0.8,10.7-0.2,21.6-0.3,32.4c0,1.7-0.1,3.3-0.2,5.5c-2-1.2-3.3-2-4.6-2.9
	c-45.1-31-62.6-90.5-41.1-140.9c3.3-7.8,8.1-15,12.3-22.4c1.8-3.1,2.7-6.3,0.1-8.9c-1.7-1.7-4.9-3.1-7.1-2.7c-2.3,0.4-4.6,2.8-6,4.9
	c-22.6,33.6-28.8,70.3-18.1,109.3c25.3,92,139.2,127,211.1,65.3c4.9-4.2,6-8.4,3-12c-3-3.6-7.3-3.3-12.3,0.7
	c-4.2,3.3-8.6,6.5-13.7,10.3c0-12.1,0-22.9,0-33.6c0-10.5-2.3-20.4-7.2-29.7c-5.6-10.6-13.9-18.8-24.2-25
	c23-24.3,14.5-52.8-0.3-66.1c-17.3-15.5-43.1-15.4-60.2,0.3C204.8,209,197.2,237.4,219.7,261.1z M381.5,246.4
	c-0.5-4.4-0.9-12.6-2.5-20.6c-15.3-77.7-91.6-123.8-167.6-101.4c-15.7,4.7-30.1,12.2-42.8,22.6c-1.9,1.6-3.3,4.9-3.2,7.4
	c0.1,1.9,2.8,5,4.6,5.3c2.6,0.4,6.1-0.6,8.3-2.2c27.2-20.4,57.5-28.1,91-22.6c64.9,10.4,108.6,74.5,94.9,138.8
	c-2.9,13.9-8.1,26.7-15.6,38.7c-3,4.9-1.8,10.1,2.8,11.7c4.6,1.6,7.5-0.8,9.9-4.6C374.7,298.2,381.1,275.1,381.5,246.4z"/>
<path class="st1" d="M297.2,333.6c0,6.6-0.1,13.2,0.1,19.8c0.1,2.7-0.9,4-3.4,5c-29.2,11.4-58.3,11.5-87.5-0.1
	c-1.4-0.6-3.4-2.4-3.4-3.7c0-15.4-0.8-31,0.8-46.3c1.8-17.7,12.4-29.9,28.7-36.9c1.7-0.7,4-0.4,6-0.4c7.6,0,15.3,0,22.9,0.1
	c2.3,0,4.9-0.3,6.9,0.6c18.6,8.5,28.1,23.2,28.9,43.6C297.4,321.3,297.1,327.5,297.2,333.6z"/>
<path class="st1" d="M250,257.9c-16.7,0-30.1-13.4-29.9-30.2c0.1-16.4,13.6-29.8,30-29.8c16.5,0,30.1,13.7,29.9,30.3
	C279.9,244.7,266.5,257.9,250,257.9z"/>
<path class="st2" d="M383.9,247.5c0-73.8-60.1-133.9-133.9-133.9c-43.3,0-81.9,20.7-106.4,52.7c-2.6,1.6-4.4,4.1-5.1,5.1
	c-23.3,34.8-29.6,72.6-18.6,112.3c12.3,44.6,46.3,79.3,91,93c13.1,4,26.5,6,40,6c31.7,0,62.3-11.3,86.2-31.9c2.5-2.1,4-4.2,4.9-6.1
	C367.8,320.3,383.9,285.7,383.9,247.5z M250,133.5c62.9,0,114,51.1,114,114c0,33-14.1,62.7-36.6,83.6c-1.4,0.6-2.8,1.5-4.3,2.7
	c-2.4,1.9-5,3.8-7.6,5.8V336c0-7.8,0-15.2,0-22.6c-0.1-11.4-2.6-22-7.7-31.5c-5-9.5-12.4-17.5-21.8-24c8.5-10.3,12.7-22.1,12.2-34.3
	c-0.5-12.8-6.4-25.5-15.7-33.8c-18.7-16.8-46.7-16.6-65.2,0.3c-9.2,8.4-15,21-15.4,33.8c-0.4,12.1,3.8,23.8,12.3,34
	c-17.9,12.3-27.7,29.2-29.2,50.3c-0.5,7.5-0.4,15-0.4,22.3c0,3,0.1,6.1,0.1,9.1c-43.2-30.3-59.5-87.2-38.8-135.7
	c2.4-5.7,5.7-11.2,8.9-16.6l0.1-0.2c1-1.7,2-3.4,3-5.1c0.8-1.3,1.2-2.5,1.6-3.6C180.3,151.1,213.1,133.5,250,133.5z M233.9,272.3
	c0.5-0.2,1.7-0.1,2.8-0.1c0.6,0,1.2,0,1.8,0c7.6,0,15.3,0,22.9,0.1c0.6,0,1.2,0,1.8,0c1.2,0,2.8-0.1,3.6,0.3
	c17,7.8,26,21.3,26.7,40.3c0.1,4.1,0.1,8.3,0.1,12.4c0,1.9,0,3.9,0,5.8c0,2,0,4.1,0,6.1c0,4.5,0,9.2,0.1,13.8c0,1,0,1-1,1.4
	c-28.4,11-56.9,11-84.7-0.1c-0.3-0.1-0.8-0.5-1.1-0.8c0-3.5-0.1-7-0.1-10.5c-0.1-11.5-0.3-23.3,0.8-34.8
	C209,290.5,217.9,279.2,233.9,272.3z M223.8,225.3c0.1-14.4,11.8-26.1,26.2-26.1c7,0,13.5,2.8,18.5,7.8c5,5,7.7,11.7,7.7,18.8
	c-0.1,14.3-11.9,25.9-26.2,25.9v1.3l0-1.3c-7.1,0-13.7-2.7-18.6-7.7C226.4,239,223.7,232.3,223.8,225.3z"/>
<path class="st2" d="M484,196l-8.2,0c-10.2-0.1-20.7-0.1-31,0.1c-3.2,0.1-4-0.5-5-3.6c-3-9-6.4-17.5-10.6-27.6
	c-1.3-3.2-3-6.4-4.6-9.4c-0.5-0.9-0.9-1.7-1.3-2.6l8.3-8.3c7-7,14-14,21-20.9c9-9,8.9-15.7-0.1-24.7c-17.1-17.1-34.2-34.2-51.3-51.3
	c-5-5-8.9-7.2-12.8-7.2c0,0,0,0,0,0c-3.9,0-7.7,2.1-12.6,7.1c-7,7-13.9,14-20.5,20.6l-7.6,7.6c-3.4-1.3-6.8-2.7-10.1-4
	c-11.2-4.4-21.7-8.5-32.5-12.5c-1.2-0.5-1.3-0.5-1.3-2.3c0-4.4,0-8.8,0-13.1c0-8.8-0.1-18,0.1-26.9c0.2-8.1-2.9-13.6-9.5-16.8
	L294.1,0h-88.2l-0.5,0.3c-6.6,3.2-9.7,8.7-9.5,16.8c0.4,13.8,0.2,27.9,0,40c0,0.6-0.8,1.9-1.3,2.2c-11.2,4.5-22.3,8.8-34.1,13.4
	l-8.3,3.2l-26.1-26.1l-1.2-1.2c-1.1-1.1-2.2-2.2-3.3-3.3c-6.5-6.1-14.1-6.2-20.2-0.1c-18.6,18.5-37.6,37.4-56.4,56.4
	c-6.2,6.3-6,13.9,0.5,20.5c7.6,7.7,15.2,15.2,22.8,22.8l8,8c-0.9,1.9-1.8,3.8-2.7,5.6c-2.6,5.4-5.3,11-7.6,16.6
	c-2.5,6-4.6,12.1-6.3,18.1c-0.7,2.6-1.3,3-4.3,2.9c-6-0.1-12.1-0.1-18-0.1c-6.8,0-13.8,0.1-20.6-0.1c-8.1-0.2-13.6,2.9-16.8,9.5
	L0,205.9v88.2l0.3,0.5c3.2,6.6,8.7,9.7,16.8,9.5c6.5-0.2,13.1-0.1,19.5-0.1c6.1,0,12.5,0,18.7-0.1c3.3-0.1,4.1,0.5,4.9,3.5
	c1.8,6.3,4.2,13,7.6,21.1c2,4.8,4.3,9.5,6.6,14c0.8,1.5,1.5,3.1,2.3,4.6l-8.1,8.1c-7.6,7.6-15.3,15.2-22.8,22.8
	c-6.7,6.7-6.7,14.3-0.2,20.9c18.9,19.1,37.7,37.8,55.7,55.7c6.5,6.4,14.1,6.4,20.9-0.1c1.1-1,2.1-2,3.1-3.1l27.9-27.9
	c1.7,0.8,3.4,1.7,5.1,2.5c5,2.5,9.8,4.8,14.8,6.9c3.8,1.6,7.7,2.9,11.5,4.2c3.4,1.2,6.9,2.4,10.2,3.7c0.5,0.3,1.3,1.6,1.3,2.2
	c0.1,9.2,0.1,18.6,0.1,27.7c0,4.5,0,8.9,0,13.4c0,10.9,5.1,15.9,16,16c12.6,0,25.3,0,37.9,0c12.6,0,25.3,0,37.9,0
	c10.9,0,16-5.1,16-16c0-13.7,0-27.4,0-41.1c0-1.8,0-1.8,1.3-2.3c10.7-4,21.5-8.2,32-12.3c3.6-1.4,7.2-2.8,10.7-4.2
	c0.4,0.5,0.8,1.1,1.3,1.6c10.5,10.6,19.9,20,28.7,28.7c6.5,6.4,14.2,6.7,20.2,0.8c18.6-18.4,37.8-37.6,57.1-57.1
	c5.7-5.7,5.6-13.4-0.1-19.5c-3.6-3.8-7.3-7.5-10.9-11c-1.5-1.5-3-3-4.5-4.4L423.5,347c0.8-1.6,1.6-3.3,2.4-4.9
	c2.4-4.8,4.6-9.4,6.6-14.2c3-7.2,5.6-14.4,7.7-21.6c0.7-2.2,1.1-2.6,3.7-2.5c12,0.1,24.1,0.1,35.8,0.1l4.3,0
	c10.9,0,15.9-5.1,15.9-16c0-25.3,0-50.6,0-75.9C500,201.1,494.9,196.1,484,196z M405.3,339.1c-4.7,8.4-4,13.2,2.9,20.1
	c7.1,7.1,14.2,14.2,21.3,21.2l7.5,7.5l-49,48.8l-26-26c-1.3-1.3-2.6-2.7-4-3.9c-5.6-5.2-11.1-5.9-17.5-2.3
	c-13.8,8-29,14.3-45.2,18.8c-7.4,2.1-10.8,6.7-10.8,15c0,10.4,0,20.7,0,31.2l0,10.7h-68.9l0-18.2c0-7.9,0-15.9,0-23.8
	c-0.1-8.2-3.4-12.8-10.9-14.9c-15.8-4.4-31-10.7-45.2-18.8c-6.6-3.7-12.1-2.9-17.8,2.8c-7.4,7.4-14.8,14.8-22.2,22.2l-7.6,7.6
	L63,388.2c0.4-0.5,0.8-0.9,1.3-1.4c3.5-3.5,7-7,10.5-10.5c6-6,12-11.9,17.9-17.9c5.9-5.9,6.6-11.5,2.5-18.7
	C87.2,326,81.1,311.3,77,296c-2.2-8-6.8-11.5-15.5-11.5c-9.2,0-18.3,0-27.5,0l-14.2,0v-68.8h18.7c7.4,0,14.8,0,22.2,0
	c9.8,0,14.2-3.3,16.6-12.6c3.9-14.4,9.7-28.4,17.2-41.7c5-8.8,4.3-13.6-3-20.9c-7.3-7.4-14.7-14.7-22-22l-6.4-6.4l49-48.9l3.2,3.2
	c3.8,3.9,7.8,7.8,11.7,11.8l3,3.1c4,4,8,8,12.1,12c5.2,5.1,10.8,6,16.6,2.7c14.8-8.4,30.6-14.9,47-19.5c6.6-1.8,9.8-6.6,9.9-14.7
	c0.1-9.1,0-18.1,0-27.2l0-14.6h68.9l0,22.1c0,6.7,0,13.3,0,20c0.1,8.3,3.6,12.9,11.4,15c15.5,4.2,30.2,10.3,43.9,18.2
	c7.3,4.2,12.8,3.4,19-2.8c7.4-7.4,14.8-14.7,22-22l7-7l48.8,49c-0.4,0.4-0.8,0.8-1.1,1.2l-9.6,9.6c-6.1,6.1-12.3,12.3-18.4,18.5
	c-5.9,6-6.6,11.4-2.5,18.6c8,14,14,28.6,18,43.4c2.2,8.3,6.9,11.9,15.6,12c9,0.1,17.9,0,26.9,0l14.8,0v68.8l-14.1,0
	c-9.1,0-18.2,0-27.3,0c-9.2,0-13.7,3.4-16,12.1C419,311,413.1,325.3,405.3,339.1z"/>
<rect x="-185.3" y="107.6" class="st1" width="88.9" height="88.9"/>
<rect x="-185.3" y="204.8" class="st0" width="88.9" height="88.9"/>
<rect x="-185.3" y="302" class="st2" width="88.9" height="88.9"/>
</svg>
