<?xml version="1.0" encoding="utf-8"?>
<!-- Generator: Adobe Illustrator 23.0.3, SVG Export Plug-In . SVG Version: 6.00 Build 0)  -->
<svg version="1.1" id="Layer_1" xmlns="http://www.w3.org/2000/svg" xmlns:xlink="http://www.w3.org/1999/xlink" x="0px" y="0px"
	 viewBox="0 0 500 500" style="enable-background:new 0 0 500 500;" xml:space="preserve">
<style type="text/css">
	.st0{fill:#BDD29A;}
	.st1{fill:#83951D;}
	.st2{fill:#465E14;}}
	
</style>
<g>
	<rect x="12.2" y="224.7" class="st0" width="475.7" height="261.4"/>
	<rect x="206.2" y="372.6" class="st1" width="87.6" height="113.5"/>
	<rect x="347.3" y="372.6" class="st1" width="87.6" height="72.3"/>
	<rect x="347.3" y="269.8" class="st1" width="87.6" height="72.3"/>
	<rect x="206.3" y="269.8" class="st1" width="87.6" height="72.3"/>
	<rect x="65.4" y="269.8" class="st1" width="87.6" height="72.3"/>
	<rect x="65.1" y="372.4" class="st1" width="87.6" height="72.3"/>
	<rect x="12.2" y="154.1" class="st1" width="237.8" height="70.6"/>
	<polygon class="st0" points="400.3,38.3 250,38.3 250,224.7 487.8,224.7 487.8,125.8 	"/>
	<rect x="293.3" y="108.9" class="st1" width="87.6" height="113.4"/>
	<path class="st0" d="M260.4,430.8c0.3,0.4,0.8,0.7,1.2,1c0.4,0.3,0.9,0.6,1.4,0.8c0.5,0.2,1,0.3,1.5,0.4c0.5,0.2,1,0.2,1.5,0.2
		c2.2,0,4.3-0.8,5.8-2.4c0.7-0.7,1.4-1.6,1.8-2.6c0.4-1.1,0.6-2.1,0.6-3.2c0-1-0.2-2.1-0.6-3.1c-0.4-1-1-1.9-1.8-2.7
		c-3-3-8.4-3-11.4,0c-0.7,0.8-1.4,1.7-1.8,2.7c-0.4,1-0.6,2-0.6,3.1s0.3,2.1,0.6,3.2C259,429.2,259.6,430.1,260.4,430.8z"/>
	<path class="st2" d="M347.3,453h87.6c4.5,0,8.1-3.6,8.1-8.1v-72.3c0-1-0.2-2-0.5-2.9c0-0.1,0-0.1-0.1-0.2c-0.2-0.5-0.4-0.9-0.7-1.3
		c0,0,0,0,0-0.1c-0.6-0.9-1.4-1.7-2.3-2.3c-0.1-0.1-0.2-0.1-0.3-0.1c-0.4-0.2-0.7-0.4-1.1-0.6c-0.2-0.1-0.4-0.1-0.6-0.2
		c-0.3-0.1-0.6-0.2-0.9-0.3c-0.5-0.1-0.9-0.1-1.4-0.1c0,0-0.1,0-0.1,0h-87.6c-4.5,0-8.1,3.6-8.1,8.1V445
		C339.2,449.4,342.8,453,347.3,453z M355.4,380.7h59.9l-6.6,6.6c-3.2,3.2-3.2,8.3,0,11.5c1.6,1.6,3.7,2.4,5.7,2.4s4.1-0.8,5.7-2.4
		l6.6-6.6v44.6h-34.2c3.1-3.2,3.1-8.2-0.1-11.4c-3.2-3.2-8.3-3.2-11.5,0l-11.4,11.4h-14.2L355.4,380.7L355.4,380.7z"/>
	<path class="st2" d="M152.7,364.3H65.1c-4.5,0-8.1,3.6-8.1,8.1v72.3c0,4.5,3.6,8.1,8.1,8.1h23.8c0.6,0.1,1.2,0.2,1.9,0.2
		s1.3-0.1,1.9-0.2h60c4.5,0,8.1-3.6,8.1-8.1v-72.3C160.8,367.9,157.2,364.3,152.7,364.3z M110.5,436.6c2.9-3.2,2.8-8.1-0.3-11.1
		c-3.2-3.2-8.3-3.2-11.5,0l-11.1,11.1H73.2v-56.1h60.1l-6.9,6.9c-3.2,3.2-3.2,8.3,0,11.5c1.6,1.6,3.7,2.4,5.7,2.4
		c2.1,0,4.1-0.8,5.7-2.4l6.6-6.6v44.4H110.5z"/>
	<path class="st2" d="M496.4,117.3l-87.6-87.6c-2.3-2.3-5.4-3.6-8.6-3.6H250c-6.7,0-12.2,5.4-12.2,12.2V146h-19.4v-14.6
		c0-4.5-3.6-8.1-8.1-8.1s-8.1,3.6-8.1,8.1V146h-23.4v-14.6c0-4.5-3.6-8.1-8.1-8.1s-8.1,3.6-8.1,8.1V146h-23.4v-14.6
		c0-4.5-3.6-8.1-8.1-8.1c-4.5,0-8.1,3.6-8.1,8.1V146H99.6v-14.6c0-4.5-3.6-8.1-8.1-8.1s-8.1,3.6-8.1,8.1V146H59.9v-14.6
		c0-4.5-3.6-8.1-8.1-8.1s-8.1,3.6-8.1,8.1V146H12.2c-4.5,0-8.1,3.6-8.1,8.1v61.6c-2.5,2.2-4.1,5.4-4.1,9v261.4
		c0,6.7,5.4,12.2,12.2,12.2h475.7c6.7,0,12.2-5.4,12.2-12.2V224.7v-98.8C500,122.6,498.7,119.5,496.4,117.3z M262.2,50.4h133.1
		l80.4,80.5v81.6H443v-46.9c0-4.5-3.6-8.1-8.1-8.1c-4.5,0-8.1,3.6-8.1,8.1v46.9h-37.8V108.9c0-4.5-3.6-8.1-8.1-8.1h-87.6
		c-4.5,0-8.1,3.6-8.1,8.1v103.6h-23L262.2,50.4L262.2,50.4z M372.7,212.5h-71.4V117h71.4L372.7,212.5L372.7,212.5z M237.8,162.2
		v50.3h-19.4v-50.3L237.8,162.2L237.8,162.2z M202.3,162.2v50.3h-23.4v-50.3L202.3,162.2L202.3,162.2z M162.6,162.2v50.3h-23.4
		v-50.3L162.6,162.2L162.6,162.2z M123,162.2v50.3H99.6v-50.3L123,162.2L123,162.2z M83.3,162.2v50.3H59.9v-50.3L83.3,162.2
		L83.3,162.2z M43.7,162.2v50.3H20.3v-50.3L43.7,162.2L43.7,162.2z M285.7,473.9h-71.4v-93.2h71.4V473.9z M475.7,473.9H301.9V372.6
		c0-4.5-3.6-8.1-8.1-8.1h-87.6c-4.5,0-8.1,3.6-8.1,8.1v101.3H24.3v-237H250h225.7V473.9z"/>
	<path class="st0" d="M353.1,169.5c0.6,0,1-0.1,1.6-0.2c0.5-0.1,1-0.2,1.5-0.5c0.5-0.2,1-0.4,1.4-0.7c0.5-0.3,0.9-0.6,1.3-1.1
		c1.5-1.5,2.4-3.6,2.4-5.7c0-2.1-0.9-4.2-2.4-5.8c-3-3-8.5-3-11.5,0c-1.5,1.5-2.4,3.6-2.4,5.8s0.9,4.2,2.4,5.7
		C348.9,168.6,351,169.5,353.1,169.5z"/>
	<path class="st2" d="M160.9,268.2c-0.1-0.3-0.1-0.5-0.2-0.7c-0.1-0.3-0.1-0.5-0.2-0.8c-0.1-0.3-0.3-0.6-0.4-0.9
		c-0.1-0.2-0.2-0.4-0.3-0.5c-0.6-0.9-1.4-1.7-2.3-2.3c-0.2-0.1-0.4-0.2-0.6-0.3c-0.3-0.2-0.6-0.3-0.9-0.5c-0.3-0.1-0.5-0.2-0.8-0.2
		c-0.2-0.1-0.5-0.2-0.7-0.2c-0.5-0.1-1.1-0.2-1.6-0.2H65.3c-4.5,0-8.1,3.6-8.1,8.1v72.3c0,4.5,3.6,8.1,8.1,8.1h87.6
		c4.5,0,8.1-3.6,8.1-8.1v-72.3c0,0,0,0,0,0C161,269.2,161,268.7,160.9,268.2z M144.8,334h-34.2c3.1-3.2,3.1-8.2-0.1-11.4
		c-3.2-3.2-8.3-3.2-11.5,0L87.7,334H73.5v-56.1h59.9l-6.6,6.6c-3.2,3.2-3.2,8.3,0,11.5c1.6,1.6,3.7,2.4,5.7,2.4
		c2.1,0,4.1-0.8,5.7-2.4l6.6-6.6L144.8,334L144.8,334z"/>
	<path class="st2" d="M198.2,269.8v72.3c0,4.5,3.6,8.1,8.1,8.1h87.6c4.5,0,8.1-3.6,8.1-8.1v-72.3c0-4.5-3.6-8.1-8.1-8.1h-87.6
		C201.9,261.7,198.2,265.3,198.2,269.8z M214.4,277.9h59.2l-6.6,6.6c-3.2,3.2-3.2,8.3,0,11.5c1.6,1.6,3.7,2.4,5.7,2.4
		s4.1-0.8,5.7-2.4l7.3-7.3V334h-34.9c3.1-3.2,3.1-8.2-0.1-11.4c-3.2-3.2-8.3-3.2-11.5,0L228,334h-13.6L214.4,277.9L214.4,277.9z"/>
	<path class="st2" d="M347.3,350.2h87.6c4.5,0,8.1-3.6,8.1-8.1v-72.3c0-1-0.2-2-0.5-2.9c0-0.1,0-0.1-0.1-0.2
		c-0.2-0.5-0.4-0.9-0.7-1.3c0,0,0,0,0-0.1c-0.6-0.9-1.4-1.7-2.3-2.3c-0.1-0.1-0.2-0.1-0.3-0.1c-0.4-0.2-0.7-0.4-1.1-0.6
		c-0.2-0.1-0.4-0.1-0.6-0.2c-0.3-0.1-0.6-0.2-0.9-0.3c-0.5-0.1-0.9-0.1-1.4-0.1c0,0-0.1,0-0.1,0h-87.6c-4.5,0-8.1,3.6-8.1,8.1v72.3
		C339.2,346.6,342.8,350.2,347.3,350.2z M355.4,277.9h59.9l-6.6,6.6c-3.2,3.2-3.2,8.3,0,11.5c1.6,1.6,3.7,2.4,5.7,2.4
		s4.1-0.8,5.7-2.4l6.6-6.6V334h-34.2c3.1-3.2,3.1-8.2-0.1-11.4c-3.2-3.2-8.3-3.2-11.5,0L369.6,334h-14.2L355.4,277.9L355.4,277.9z"
		/>
	<path class="st0" d="M293.8,79.1h91.3l21.5,21.5c0.8,0.8,1.8,1.2,2.9,1.2s2.1-0.4,2.9-1.2c1.6-1.6,1.6-4.2,0-5.7l-22.7-22.7
		c-0.8-0.8-1.8-1.2-2.9-1.2h-93c-2.2,0-4,1.8-4,4.1C289.7,77.3,291.5,79.1,293.8,79.1z"/>
</g>
</svg>
