<?xml version="1.0" encoding="utf-8"?>
<!-- Generator: Adobe Illustrator 23.0.3, SVG Export Plug-In . SVG Version: 6.00 Build 0)  -->
<svg version="1.1" id="Layer_1" xmlns="http://www.w3.org/2000/svg" xmlns:xlink="http://www.w3.org/1999/xlink" x="0px" y="0px"
	 viewBox="0 0 500 500" style="enable-background:new 0 0 500 500;" xml:space="preserve">
<style type="text/css">
	.st0{fill:#BDD29A;}
	.st1{fill:#83951D;}
	.st2{fill:#465E14;}
</style>
<g>
	<path class="st0" d="M-0.9,489.1c0-159.4,0-318.9,0-478.3C2.3,4.5,6.7,0,14.4,0c52.1,0.1,104.2,0,156.3,0.1
		c8.2,0,13.5,4.4,15.4,12.3c1,4.1,2.2,8.2,2.7,12.4c0.5,4.1,2.5,4.7,6.1,4.7c36.8-0.1,73.5-0.1,110.2-0.1c1.6,0,3.1-0.2,4.9-0.3
		c1.2-5.1,2.3-9.8,3.4-14.6C316,3.4,320.3,0,331.9,0C382,0,432.2,0,482.3,0c13.5,0,18.6,5.1,18.6,18.6c0,154.2,0,308.4,0,462.5
		c0,13.5-5.1,18.7-18.5,18.7c-154.5,0-309,0-463.5,0.1C9.7,500,3,497.6-0.9,489.1z M310,186.2c1.2-5,2.3-9.9,3.4-14.8
		c2.6-11.2,6.9-14.6,18.5-14.6c44.6,0,89.2,0,133.8,0c1.9,0,3.8,0,5.6,0c0-42.8,0-84.9,0-127.2c-43.8,0-87.3,0-131,0
		c-0.4,1.5-0.8,3-1.1,4.4c-5.2,23.4-10.4,46.8-15.6,70.2c-2.1,9.2-7.1,13.4-16.5,13.4c-38.1,0-76.1,0-114.2,0
		c-9.1,0-14.4-4.2-16.4-13c-2-8.9-3.9-17.8-5.9-26.8c-3.6-16.1-7.2-32.1-10.8-48.2c-43.8,0-87.4,0-131,0c0,42.5,0,84.6,0,127.1
		c2.1,0,3.9,0,5.6,0c45.1,0,90.2,0,135.2,0c9.5,0,14.5,4.1,16.6,13.3c0.9,4.1,2.1,8.2,2.7,12.4c0.4,2.8,1.5,3.8,4.4,3.8
		C232,186.2,270.5,186.2,310,186.2z M471.3,186.4c-44,0-87.4,0-131,0c-0.4,1.6-0.8,3-1.1,4.4c-5.2,23.6-10.5,47.1-15.7,70.7
		c-1.9,8.6-7.2,12.9-15.9,12.9c-38.4,0-76.8,0-115.1,0c-8.7,0-14-4.3-15.9-12.9c-3.6-16.2-7.2-32.5-10.8-48.7
		c-2-8.8-4-17.7-5.9-26.3c-44,0-87.4,0-131,0c0,42.4,0,84.6,0,127.2c2.2,0,4.2,0,6.1,0c44.7,0,89.5,0,134.3,0
		c10.2,0,15,3.9,17.2,13.7c0.8,3.7,2,7.3,2.4,11c0.4,4,2.3,4.8,6.1,4.8c33.3-0.1,66.6-0.1,100-0.1c5,0,11.4,1.4,14.6-1.1
		c3-2.3,2.8-8.9,3.9-13.7c2.6-11.2,6.9-14.7,18.4-14.7c44.6,0,89.2,0,133.8,0c1.9,0,3.8,0,5.7,0
		C471.3,270.9,471.3,228.8,471.3,186.4z M471.1,470.3c0-42.6,0-84.8,0-127c-43.8,0-87.2,0-130.8,0c-0.4,1.7-0.8,3.2-1.2,4.8
		c-5.2,23.4-10.4,46.8-15.6,70.2c-2,8.8-7.2,13-16.3,13c-38.2,0-76.4,0-114.7,0c-8.8,0-14.1-4.3-16-12.8
		c-3.3-14.8-6.6-29.6-9.9-44.4c-2.3-10.3-4.6-20.6-6.8-30.5c-44.1,0-87.6,0-131.1,0c0,42.5,0,84.5,0,126.8
		C176.3,470.3,323.6,470.3,471.1,470.3z M202.9,88c31.7,0,62.8,0,94.1,0c2.1-9.7,4.2-19.2,6.3-28.8c-35.9,0-71.2,0-106.9,0
		C198.7,69,200.8,78.4,202.9,88z M202.9,244.8c31.7,0,62.8,0,94.1,0c2.1-9.7,4.2-19.2,6.3-28.8c-35.9,0-71.2,0-106.9,0
		C198.7,225.8,200.8,235.2,202.9,244.8z M202.9,401.6c31.6,0,62.8,0,94.1,0c2.1-9.7,4.2-19.2,6.3-28.8c-35.9,0-71.2,0-106.9,0
		C198.7,382.6,200.8,392,202.9,401.6z"/>
	<path class="st1" d="M310,186.2c-39.4,0-78,0-116.5,0.1c-2.9,0-3.9-1-4.4-3.8c-0.7-4.2-1.8-8.3-2.7-12.4
		c-2.1-9.1-7.2-13.2-16.6-13.3c-45.1,0-90.2,0-135.2,0c-1.8,0-3.5,0-5.6,0c0-42.5,0-84.7,0-127.2c43.7,0,87.2,0,131,0
		c3.6,16.1,7.2,32.1,10.8,48.2c2,8.9,3.9,17.8,5.9,26.8c2,8.8,7.2,13,16.4,13c38.1,0,76.1,0,114.2,0c9.4,0,14.5-4.2,16.5-13.4
		c5.2-23.4,10.4-46.8,15.6-70.2c0.3-1.4,0.7-2.8,1.1-4.4c43.7,0,87.2,0,131,0c0,42.3,0,84.4,0,127.2c-1.9,0-3.7,0-5.6,0
		c-44.6,0-89.2,0-133.8,0c-11.5,0-15.9,3.4-18.5,14.6C312.3,176.3,311.1,181.2,310,186.2z"/>
	<path class="st1" d="M471.3,186.4c0,42.4,0,84.5,0,127.2c-1.9,0-3.8,0-5.7,0c-44.6,0-89.2,0-133.8,0c-11.5,0-15.8,3.5-18.4,14.7
		c-1.1,4.7-0.9,11.4-3.9,13.7c-3.3,2.5-9.6,1-14.6,1.1c-33.3,0-66.6,0-100,0.1c-3.8,0-5.6-0.9-6.1-4.8c-0.4-3.7-1.6-7.3-2.4-11
		c-2.2-9.8-7.1-13.7-17.2-13.7c-44.8,0-89.5,0-134.3,0c-1.9,0-3.9,0-6.1,0c0-42.5,0-84.7,0-127.2c43.5,0,86.9,0,131,0
		c1.9,8.6,3.9,17.5,5.9,26.3c3.6,16.2,7.2,32.5,10.8,48.7c1.9,8.6,7.2,12.9,15.9,12.9c38.4,0,76.8,0,115.1,0c8.7,0,14-4.3,15.9-12.9
		c5.3-23.6,10.5-47.1,15.7-70.7c0.3-1.4,0.7-2.8,1.1-4.4C383.9,186.4,427.3,186.4,471.3,186.4z"/>
	<path class="st1" d="M471.1,470.3c-147.6,0-294.8,0-442.4,0c0-42.3,0-84.4,0-126.8c43.4,0,86.9,0,131.1,0c2.2,10,4.6,20.3,6.8,30.5
		c3.3,14.8,6.5,29.6,9.9,44.4c1.9,8.5,7.2,12.8,16,12.8c38.2,0,76.4,0,114.7,0c9.1,0,14.3-4.2,16.3-13c5.2-23.4,10.4-46.8,15.6-70.2
		c0.4-1.6,0.8-3.1,1.2-4.8c43.6,0,87.1,0,130.8,0C471.1,385.5,471.1,427.6,471.1,470.3z"/>
	<path class="st2" d="M202.9,88c-2.1-9.6-4.2-19-6.4-28.8c35.7,0,71,0,106.8,0c-2.1,9.6-4.2,19.1-6.3,28.8
		C265.7,88,234.6,88,202.9,88z"/>
	<path class="st2" d="M202.9,244.8c-2.1-9.6-4.2-19-6.4-28.8c35.7,0,71,0,106.8,0c-2.1,9.6-4.2,19.1-6.3,28.8
		C265.7,244.8,234.6,244.8,202.9,244.8z"/>
	<path class="st2" d="M202.9,401.6c-2.1-9.6-4.2-19-6.4-28.8c35.7,0,71,0,106.9,0c-2.1,9.6-4.2,19.1-6.3,28.8
		C265.7,401.6,234.6,401.6,202.9,401.6z"/>
</g>
</svg>
