<?xml version="1.0" encoding="utf-8"?>
<!-- Generator: Adobe Illustrator 23.0.3, SVG Export Plug-In . SVG Version: 6.00 Build 0)  -->
<svg version="1.1" id="Layer_1" xmlns="http://www.w3.org/2000/svg" xmlns:xlink="http://www.w3.org/1999/xlink" x="0px" y="0px"
	 viewBox="0 0 500 500" style="enable-background:new 0 0 500 500;" xml:space="preserve">
<style type="text/css">
	.st0{fill:#043A16;}
</style>
<g>
	<path class="st0" d="M340.2,0c9.7,2.4,16.7,8.7,23.5,15.6c22.3,22.6,44.7,45,67.3,67.3c8,7.9,11.9,17.1,11.7,28.3
		c-0.3,12.2-0.1,24.4-0.1,36.7c3,0.7,5.9,1.1,8.6,1.9c14.2,4.3,23.3,16.8,23.4,32.4c0.1,17.7,0,35.5,0,53.2c0,76.3,0,152.7,0,229
		c0,16.6-8.5,29.2-23,33.7c-3.5,1.1-7.3,1.6-11,1.6C319,500,197.3,500,75.5,500c-20,0-33.9-14.3-34-34.9c0-69.8,0-139.6,0-209.5
		c0-23.4,0-46.9,0-70.3c0-21.5,10.4-33.7,32.1-37.1c0-1.6,0-3.4,0-5.1c0-33,0-66.1,0-99.1c0-23.5,10.6-37.3,33.3-43.4
		c0.3-0.1,0.5-0.4,0.8-0.5C185.2,0,262.7,0,340.2,0z M258.2,485.4c60.1,0,120.1,0,180.2,0c14.8,0,21.8-7,21.8-21.8
		c0-52.9,0-105.8,0-158.7c0-4.7,0.1-9.4,0-14.2c-0.4-11-7.6-18.1-18.6-18.5c-1.8-0.1-3.6,0-5.4,0c-71.6,0-143.2,0-214.8,0
		c-15.2,0-26.2-6.5-32.7-20.3c-1.9-4-3.5-8-5.2-12.1c-3.9-9.2-10.5-13.6-20.9-13.5c-28.3,0.4-56.6,0.1-85,0.1
		c-14.3,0-21.2,7-21.2,21.3c0,72.1,0,144.2,0,216.3c0,14.2,7.1,21.3,21.3,21.3C137.7,485.4,197.9,485.4,258.2,485.4z M56.2,215.8
		c6-1.4,11.6-3.7,17.2-3.8c31.1-0.4,62.2-0.2,93.2-0.1c9.7,0,18,3.8,23.5,11.7c4,5.6,7,12,9.8,18.4c5.2,12,10,15.5,23,15.5
		c64.9,0,129.8-0.1,194.8,0.1c14.1,0.1,28.6-2.9,42.2,5c0-27.8,0.2-54.8-0.1-81.8c-0.1-9.9-7.3-16.7-17.3-17.4c0,1.8,0,3.6,0,5.3
		c0,19.4,0,67.9,0,87.3c0,1.6,0.2,3.3-0.2,4.9c-0.9,4-3.5,6.3-7.7,5.9c-3.9-0.3-6.2-2.7-6.6-6.6c-0.2-1.6-0.1-3.3-0.1-4.9
		c0-38.4-0.1-106,0.1-144.4c0-4.6-1-6.2-5.9-6.1c-14,0.3-28,0.2-42,0.1c-26-0.2-42.6-16.9-42.7-42.9c0-14,0-28,0-42
		c0-1.7-0.2-3.4-0.3-5.5c-2.5,0-4.4,0-6.3,0c-71.4,0-142.9,0-214.3,0c-18.2,0-28.3,10.2-28.3,28.4c0,46,0,121.2,0,167.2
		c0,7.4-2.5,11-7.4,10.9c-4.9-0.1-7.2-3.7-7.2-11.2c0-5.8,0-40.7,0-46.6c-10.3,0.8-17.1,7.8-17.3,17.9
		C56,192.9,56.2,204.5,56.2,215.8z M415.3,90.2c-20.8-20.9-41.9-42.1-63.1-63.3c0,0.8,0,2.1,0,3.3c0.1,12.5-0.4,25,0.4,37.5
		c0.9,12.5,10.4,21.7,23,22.3C389.1,90.6,402.6,90.2,415.3,90.2z"/>
	<path class="st0" d="M162.4,90.5c11.5,0,23.1,0,34.6,0c5.7,0,9.1,2.8,9.1,7.2c0,4.4-3.4,7.3-9.1,7.4c-23.1,0.1-46.1,0.1-69.2,0
		c-5.7,0-8.8-3-8.7-7.6c0.1-4.4,3.1-6.9,8.7-7C139.4,90.4,150.9,90.5,162.4,90.5z"/>
	<path class="st0" d="M162.5,61c-11.4,0-22.7,0-34.1,0c-6,0-9.1-2.5-9.2-7c-0.2-4.8,3.1-7.6,9.2-7.6c22.9-0.1,45.8-0.1,68.7,0
		c5.7,0,9.1,2.9,9.1,7.3c0,4.4-3.4,7.3-9,7.3C185.5,61,174,61,162.5,61z"/>
</g>
</svg>
