<?xml version="1.0" encoding="utf-8"?>
<!-- Generator: Adobe Illustrator 23.0.3, SVG Export Plug-In . SVG Version: 6.00 Build 0)  -->
<svg version="1.1" id="Layer_1" xmlns="http://www.w3.org/2000/svg" xmlns:xlink="http://www.w3.org/1999/xlink" x="0px" y="0px"
	 viewBox="0 0 500 500" style="enable-background:new 0 0 500 500;" xml:space="preserve">
<style type="text/css">
	.st0{fill:#043A16;}
</style>
<g>
	<path class="st0" d="M270,147c0,2.1,0,4.2,0,6.3c0,104.1,0,208.2-0.1,312.3c0,4.2-0.3,8.6-1.5,12.6c-3.1,10-12.2,16.7-22.6,16.7
		c-31.5,0.1-62.9,0.3-94.4-0.2c-5.4-0.1-10.9-3-17.7-5c-5.7,5.6-14.8,5.3-23.8,5.3c-27.7-0.1-55.5,0-83.2,0
		C10.3,494.9,0,484.6,0,468.1C0,329.4,0,190.8,0,52.2c0-16.8,10.3-27,27-27c29.3,0,58.5,0.1,87.8-0.1c7.4,0,14.2,1.3,20.4,6.6
		c7-6.7,15.8-6.6,24.7-6.6c27.1,0.1,54.1,0,81.1,0c15.9,0,22.8,4.7,28.8,19.9c3.8-1,7.7-1.8,11.6-2.9c25.1-6.8,50.1-13.7,75.2-20.6
		c17.7-4.9,30,2.1,34.8,20c35.8,133.5,71.6,267,107.4,400.5c4.4,16.2-2.8,28.8-18.9,33.3c-28.5,7.8-57,15.6-85.5,23.3
		c-16.6,4.5-29.8-3.2-34.2-19.9c-29.2-109.1-58.4-218.2-87.6-327.3c-0.4-1.6-0.9-3.1-1.3-4.7C270.8,146.9,270.4,146.9,270,147z
		 M126.7,260.3c0-69.2,0-138.4,0-207.7c0-8.6-2.6-11.1-11.3-11.1c-29.3,0-58.5,0-87.8,0c-8.5,0-11.3,2.8-11.3,11.3
		c0,138.1,0,276.2,0,414.3c0,8.5,2.8,11.4,11.2,11.4c28.7,0,57.5,0,86.2,0c10.9,0,12.9-2,12.9-12.6
		C126.7,397.4,126.7,328.9,126.7,260.3z M143.6,259.5c0,69.2,0,138.4,0,207.7c0,9,2.4,11.4,11.5,11.4c28.6,0,57.1,0,85.7,0
		c10.6,0,12.8-2.2,12.8-12.9c0-52.4,0-104.8,0-157.1c0-84.9,0-169.7,0-254.6c0-10-2.4-12.5-12.2-12.5c-28.1,0-56.1,0-84.2,0
		c-12,0-13.6,1.6-13.6,13.4C143.6,123.1,143.6,191.3,143.6,259.5z M269.9,72.8c0.7,4.5,1.1,9.1,2.2,13.5
		c14.4,54,28.9,108,43.3,161.9c20.2,75.3,40.3,150.6,60.5,225.9c2.4,8.8,5.8,10.8,14.5,8.4c28-7.6,56-15.3,84-23
		c8.5-2.4,10.4-5.7,8.1-14.2c-35.6-133.2-71.3-266.4-107-399.6c-2.2-8.2-5.7-10.3-13.9-8c-27.2,7.4-54.4,14.9-81.6,22.3
		C268.1,63.2,270.8,62.1,269.9,72.8z"/>
	<path class="st0" d="M71.8,104c-8.3,0-16.7,0.1-25,0c-5.8-0.1-9.2-2.9-9.4-7.8c-0.2-5.1,3.4-8.5,9.3-8.5c16.5-0.1,33-0.1,49.5,0
		c5.9,0,9.7,3.3,9.8,8.1c0.1,4.9-3.7,8.1-9.6,8.2C88.1,104,80,104,71.8,104z"/>
	<path class="st0" d="M71.3,432.5c-8,0-16,0-24,0c-6.3-0.1-10-3.3-9.9-8.4c0.1-5,3.6-7.9,9.8-7.9c16.3,0,32.7,0,49,0
		c6,0,9.7,3.2,9.8,8c0,4.8-3.8,8.2-9.7,8.3C87.9,432.5,79.6,432.5,71.3,432.5z"/>
	<path class="st0" d="M71.5,150c-8.3,0-16.7,0.1-25,0c-5.7-0.1-9.1-3.2-9.1-8c0-4.9,3.4-8.2,9-8.2c16.8-0.1,33.7-0.1,50.5,0
		c5.4,0,9.1,3.8,9,8.4c-0.1,4.6-3.6,7.8-8.9,7.9C88.5,150.1,80,150,71.5,150z"/>
	<path class="st0" d="M71.4,370.1c8.3,0,16.7-0.1,25,0c5.9,0.1,9.7,3.4,9.5,8.3c-0.1,4.6-3.8,8-9.4,8c-16.7,0.1-33.3,0.1-50,0
		c-5.7,0-9.1-3.3-9.1-8.1c0-4.9,3.3-8,9-8.1C54.8,370,63.1,370.1,71.4,370.1z"/>
	<path class="st0" d="M198.6,150c-8.3,0-16.7,0.1-25,0c-6.1-0.1-9.5-3.2-9.4-8.3c0.1-4.9,3.5-7.9,9.3-7.9c16.7-0.1,33.3-0.1,50,0
		c5.6,0,9.2,3.4,9.2,8.1c0,4.8-3.5,8-9.1,8.1C215.3,150.1,206.9,150,198.6,150z"/>
	<path class="st0" d="M198.2,104c-8.2,0-16.3,0.1-24.5,0c-6.1-0.1-9.6-3.1-9.5-8.2c0.1-5.1,3.5-8.1,9.7-8.1c16.3-0.1,32.7-0.1,49,0
		c6.1,0,9.7,3.1,9.8,8c0.1,5.2-3.6,8.2-10,8.3C214.6,104,206.4,104,198.2,104z"/>
	<path class="st0" d="M198.7,370.1c8,0,16,0,24,0c6.5,0,10.1,3.1,10,8.2c-0.1,4.9-3.7,8-9.8,8.1c-16.3,0.1-32.6,0.1-49,0
		c-6.1,0-9.6-3-9.7-8.1c-0.1-5.1,3.3-8.1,9.5-8.2C182,370.1,190.4,370.1,198.7,370.1z"/>
	<path class="st0" d="M198.4,432.5c-8.2,0-16.3,0.1-24.5,0c-6.1-0.1-9.6-3.1-9.6-8.2c0-5.1,3.4-8.1,9.5-8.1c16.5,0,33,0,49.5,0
		c5.8,0,9.3,3,9.4,7.8c0.2,4.9-3.5,8.4-9.4,8.5C215,432.5,206.7,432.5,198.4,432.5z"/>
	<path class="st0" d="M380.3,389c-4.7,0-8.1-2.7-8.7-6.9c-0.6-4.2,1.6-7.9,6.3-9.1c17.4-4.6,34.8-9.1,52.3-13.5
		c4.4-1.1,8.6,1.4,9.7,5.4c1.1,4.3,0,8.5-4.4,9.7c-18,5.1-36,9.7-54.1,14.4C381,389.1,380.7,389,380.3,389z"/>
	<path class="st0" d="M378.7,139.5c-0.2,3.3-2,6.3-5.9,7.4c-17.2,4.7-34.4,9.4-51.6,13.9c-4.9,1.3-9-1.5-10.2-6
		c-1.2-4.5,1.3-8.6,6.3-9.9c16.7-4.5,33.4-9,50.2-13.4C373.6,129.8,378.5,133.2,378.7,139.5z"/>
	<path class="st0" d="M392.5,433.5c-4.5,0.1-8-2.9-8.6-6.9c-0.7-4.2,1.7-8,6.2-9.2c10.3-2.9,20.6-5.5,30.9-8.3
		c6.7-1.8,13.4-3.6,20.1-5.3c5.4-1.3,9.5,1.1,10.6,5.8c1.1,4.4-1.4,8.3-6.6,9.8c-17,4.7-34,9.2-51,13.8
		C393.5,433.4,392.8,433.5,392.5,433.5z"/>
	<path class="st0" d="M307.1,116.4c-4.3-0.1-7.6-2.8-8.1-6.9c-0.6-4.6,1.7-7.9,6.7-9.3c14.8-4,29.5-7.8,44.3-11.7
		c2.5-0.7,4.9-1.5,7.4-1.9c4.1-0.6,8.1,1.9,9,5.8c0.9,4.3-0.3,8.3-4.7,9.5c-17.6,5-35.4,9.6-53.1,14.3
		C308.2,116.4,307.6,116.4,307.1,116.4z"/>
</g>
</svg>
