<?xml version="1.0" encoding="utf-8"?>
<!-- Generator: Adobe Illustrator 23.0.3, SVG Export Plug-In . SVG Version: 6.00 Build 0)  -->
<svg version="1.1" id="Layer_1" xmlns="http://www.w3.org/2000/svg" xmlns:xlink="http://www.w3.org/1999/xlink" x="0px" y="0px"
	 viewBox="0 0 500 500" style="enable-background:new 0 0 500 500;" xml:space="preserve">
<style type="text/css">
	.st0{fill:#BDD29A;}
	.st1{fill:#83951D;}
	.st2{fill:#465E14;}
</style>
<g>
	<path class="st0" d="M209,478.6c-59.1,0-118.3,0-177.4,0c-1.1,0-2.2,0-3.4,0c-6-0.2-7.7-2.6-5.6-8.2c11.7-32.1,23.5-64.3,35.2-96.4
		c15.3-41.9,30.6-83.7,45.7-125.6c1.8-4.9,4.2-6.6,9.3-6.6c119.2,0.1,238.5,0.1,357.7,0.1c7.2,0,9.4,3.1,6.9,10
		c-26.8,73.6-53.7,147.1-80.4,220.7c-1.7,4.8-4.3,6.2-9.2,6.2C328.2,478.6,268.6,478.6,209,478.6z"/>
	<path class="st0" d="M87.1,21.6c57.2,0,113.9,0,171,0c0,40.6,0,81.1,0,122.1c41,0,81.5,0,122.3,0c0,27.4,0,54.3,0,81.8
		c-2.2,0-4.2,0-6.3,0c-85.4,0-170.8,0.1-256.3-0.1c-14.4-0.1-26.1,2.6-30.8,18.4C87.1,169.8,87.1,95.9,87.1,21.6z M233.9,184.8
		c-31.3,0-62.5,0-93.7,0c-1.8,0-3.5-0.1-5.3,0.2c-4.1,0.5-7.2,3.7-7.2,7.6c0,4.1,2.1,7,6.2,8c1.5,0.4,3.1,0.5,4.7,0.5
		c63.4,0,126.9,0,190.3,0c6.9,0,10.8-3.1,10.9-8.2c0-5.1-3.8-8.1-10.7-8.2c-1.1,0-2.2,0-3.4,0C295.2,184.8,264.5,184.8,233.9,184.8z
		 M176.4,86.7c10.7,0,21.4,0,32,0c3,0,6.1,0.1,9.1-0.1c4.7-0.3,7.6-3.2,7.9-7.4c0.3-4.5-2.4-7.7-7.2-8.6c-1.4-0.3-2.9-0.2-4.3-0.2
		c-24.9,0-49.7,0-74.6,0c-1.6,0-3.2,0.1-4.7,0.4c-4.4,0.8-6.7,3.6-6.8,8c-0.1,4.1,3.1,7.3,7.5,7.8c1.6,0.2,3.2,0.1,4.8,0.1
		C152.1,86.7,164.3,86.7,176.4,86.7z M176.9,143.8c12.8,0,25.5,0,38.3,0c6.6,0,10.2-2.9,10.3-8.1c0-5.2-3.6-8.2-10.1-8.2
		c-11.3,0-22.6,0-33.9,0c-14.7,0-29.3,0-44,0c-5.6,0-9.1,2.8-9.6,7.4c-0.5,5,3.4,8.9,9.5,8.9C150.4,143.9,163.7,143.8,176.9,143.8z"
		/>
	<path class="st1" d="M21.5,421.9c0-1.5,0-3.1,0-4.6c0-98.5,0-197,0-295.5c0-9.2,1.3-10.5,10.5-10.5c12.6,0,25.2,0,38.5,0
		c0,1.9,0,3.6,0,5.3c0,56.9,0,113.8,0,170.7c0,2.2-0.2,4.5-0.9,6.5c-15.4,42.2-30.8,84.3-46.3,126.4c-0.2,0.6-0.6,1.1-0.9,1.7
		C22,421.9,21.8,421.9,21.5,421.9z"/>
	<path class="st1" d="M275,34.8c30.8,30.9,61.6,61.7,92.3,92.4c-30.1,0-61.1,0-92.3,0C275,96.3,275,65.4,275,34.8z"/>
	<path class="st1" d="M397.4,168.5c9.1,0,17.8-0.1,26.5,0c3.7,0.1,5.6,2.6,5.7,5.9c0.1,16.7,0.1,33.4,0.1,50.6
		c-10.9,0-21.4,0-32.3,0C397.4,206.4,397.4,187.8,397.4,168.5z"/>
	<path class="st2" d="M233.9,184.8c30.6,0,61.2,0,91.8,0c1.1,0,2.2,0,3.4,0c6.9,0.1,10.8,3,10.7,8.2c0,5.1-4,8.2-10.9,8.2
		c-63.5,0-126.9,0-190.4,0c-1.6,0-3.2-0.1-4.7-0.5c-4.1-1-6.2-3.9-6.2-8c0-3.9,3.1-7.1,7.2-7.6c1.7-0.2,3.5-0.2,5.3-0.2
		C171.4,184.8,202.7,184.8,233.9,184.8z"/>
	<path class="st2" d="M176.4,86.7c-12.1,0-24.2,0-36.4,0c-1.6,0-3.2,0-4.8-0.1c-4.4-0.5-7.6-3.7-7.5-7.8c0.1-4.3,2.4-7.2,6.8-8
		c1.6-0.3,3.2-0.4,4.7-0.4c24.9,0,49.7,0,74.6,0c1.4,0,2.9,0,4.3,0.2c4.8,0.8,7.5,4.1,7.2,8.6c-0.3,4.2-3.2,7.1-7.9,7.4
		c-3,0.2-6.1,0.1-9.1,0.1C197.7,86.7,187.1,86.7,176.4,86.7z"/>
	<path class="st2" d="M176.9,143.8c-13.2,0-26.5,0.1-39.7,0c-6.1,0-10-3.9-9.5-8.9c0.5-4.5,4-7.3,9.6-7.4c14.7-0.1,29.3,0,44,0
		c11.3,0,22.6,0,33.9,0c6.5,0,10.2,3,10.1,8.2c0,5.2-3.6,8-10.3,8.1C202.4,143.9,189.7,143.8,176.9,143.8z"/>
	<path class="st2" d="M499.3,241.4c-0.2-0.4-0.3-0.7-0.5-1.1c-3.9-13-12.6-19.7-26.1-19.9c-5.9-0.1-11.8-0.1-17.9,0l-3.6,0l0-13.1
		c0-10,0-20.1,0-30.1c0-18.7-11.2-30-29.8-30.1c-5.5,0-10.9,0-16.5,0h-2.6c0.1-3.7,0.1-7.3-0.2-10.8c-0.4-4.1-2.1-8-4.5-10.5
		c-31.5-31.7-63.2-63.4-94.8-95L276.9,5c-0.7-0.7-1.3-1.4-1.9-2.1L272.5,0H65.1l0.2,89.8l-22.2,0c-5.4,0-10.7-0.1-16.1,0.1
		c-14.8,0.4-26.1,11.5-26.8,26.4c-0.1,1.5-0.1,3.1-0.1,4.7l0,79.4c0,88.9,0,177.8-0.2,266.6c0,10.8,2,26,19.7,32.7l376.6,0.3
		l0.7-0.2c13.1-4,18.1-14.2,20.8-21.6c21.1-58.4,42.4-116.7,63.7-175l16.2-44.4c0.3-0.8,0.7-1.5,1.1-2.2l1.3-2.5v-9.8L499.3,241.4z
		 M402.5,219.9v-46.3l2.8,0c6.3,0,12.4,0,18.6,0.1l0.6,0.9c0.1,12.4,0.1,24.7,0.1,37.3l0,8.1H402.5z M247.9,473.5H30.5l-2.2,0
		c-0.6,0-1-0.1-1.4-0.1c0.1-0.3,0.2-0.8,0.4-1.3l44.8-122.6c12.1-33.1,24.2-66.2,36.1-99.4c1-2.8,1.6-3.2,4.5-3.2c0,0,0,0,0.1,0
		c92.7,0.1,185.5,0.1,278.2,0.1h79.5c1.7,0,2.6,0.3,2.8,0.2c0,0.4-0.1,1.3-0.7,3l-18.5,50.7c-20.7,56.6-41.3,113.3-61.9,169.9
		c-0.9,2.4-0.9,2.6-4.4,2.8c-33.7-0.1-67.4-0.1-101.1-0.1C273.8,473.5,260.8,473.5,247.9,473.5z M375.3,148.8v71.6l-66.3,0
		c-63.7,0-127.4,0.1-191.1-0.2c-0.1,0-0.2,0-0.3,0c-8.9,0-18.2,1.1-25.4,6.5v-200H253v122.1H375.3z M26.7,116.8L26.7,116.8
		c0.3-0.2,1.4-0.4,5.3-0.4h33.4v24.6c0,48.8,0,97.6,0,146.3c0,2-0.2,3.6-0.7,4.8c-12.4,34-24.9,68.1-37.3,102.1l-0.7,2V121.7
		C26.6,117.9,26.9,116.8,26.7,116.8z M280.1,122V47.1L355,122H280.1z"/>
</g>
</svg>
