<?xml version="1.0" encoding="utf-8"?>
<!-- Generator: Adobe Illustrator 23.0.3, SVG Export Plug-In . SVG Version: 6.00 Build 0)  -->
<svg version="1.1" id="Layer_1" xmlns="http://www.w3.org/2000/svg" xmlns:xlink="http://www.w3.org/1999/xlink" x="0px" y="0px"
	 viewBox="0 0 500 500" style="enable-background:new 0 0 500 500;" xml:space="preserve">
<style type="text/css">
	.st0{fill:#BDD29A;}
	.st1{fill:#83951D;}
	.st2{fill:#465E14;}
</style>
<g>
	<circle class="st0" cx="247.2" cy="269.3" r="223.1"/>
	<g>
		<path class="st1" d="M230.5,500c-8.5-1.2-17.1-2.1-25.5-3.7c-67.8-13-119.8-49.1-156.4-107.4c-0.5-0.8-1-1.6-1.6-2.5
			c-0.1-0.1-0.3-0.2-0.8-0.6c-0.5,1.1-1,2.2-1.3,3.3c-2.6,8.6-5,17.1-7.7,25.7c-1.9,6-6.5,8.7-11.9,7c-4.9-1.5-7.4-6.4-5.7-12.2
			c5.4-18.7,10.9-37.4,16.6-56.1c0.4-1.3,2.6-2.9,3.9-2.8c19.8,1.1,39.6,2.4,59.4,3.9c5.2,0.4,8.7,4.8,8.4,9.6
			c-0.3,5.1-4.4,8.9-9.9,8.7c-11.5-0.5-23.1-1.4-34.6-2.1c-1.1-0.1-2.2-0.1-4.3-0.2c1.1,2,1.8,3.6,2.7,5
			c35.9,59.1,87.7,94.8,156.4,103.9c62.1,8.2,117.5-8.9,165.6-49.2c1.1-0.9,2.2-1.9,3.4-2.8c4.6-3.5,9.7-3.1,13.1,0.8
			c3.3,3.8,3.2,9.6-1.2,13c-10.7,8.4-21.3,17.2-32.9,24.4c-31.4,19.7-65.8,30.7-102.8,33.4c-1.3,0.1-2.5,0.5-3.8,0.8
			C250,500,240.2,500,230.5,500z"/>
		<path class="st1" d="M299.7,367c-2.2-0.7-4-1.1-5.6-1.8c-1.4-0.5-2.6-1.3-4-1.9c-15.8-7.1-26.9-4.6-37,9.5
			c-4.7,6.6-9.8,9.4-17.7,7.2c-4.4-1.2-9-1.5-13.5-2.1c-4.9-0.6-8-3.3-9.6-7.8c-0.2-0.5-0.3-0.9-0.4-1.4
			c-6.2-18.9-16.3-25.3-35.8-21.9c-6.3,1.1-10.7-0.5-14.2-5.7c-3-4.4-6.3-8.7-9.6-13c-2.9-3.9-3.4-8-1.1-12.3
			c0.4-0.7,0.8-1.4,1.1-2.2c8.3-17,5.6-28.8-10-39.6c-5.6-3.9-7.6-8.5-6.3-15c1-5.3,1.8-10.6,2.6-15.9c0.7-4.7,3.4-7.6,7.8-9
			c0.9-0.3,1.9-0.6,2.8-0.9c17.5-6.1,24-16.9,20.4-35c-1.3-6.5,0.3-11,5.8-14.6c4.4-3,8.7-6.3,13-9.5c3.9-3,8-3.1,12.4-1
			c3.7,1.7,7.4,3.4,11.3,4.5c9.2,2.8,17.4,0.6,24.2-6.2c2.7-2.8,5.1-5.9,7.5-9c3-4,6.8-5.8,11.9-4.9c5.6,1,11.2,1.8,16.9,2.6
			c5,0.7,8.3,3.3,9.9,8.1c0.5,1.4,0.8,2.8,1.4,4.2c6.1,16.1,16.1,22.1,33.1,19.1c7.8-1.4,13.3,0.4,17.3,7.3c2,3.5,4.6,6.7,7.2,9.8
			c4.1,4.8,4.5,9.7,1.5,15.3c-1.7,3.1-2.9,6.5-3.9,9.9c-2.5,8.6-1,16.5,5.3,23c3,3.1,6.5,5.9,9.9,8.6c3.8,3,5.6,6.5,4.8,11.4
			c-1,5.6-1.7,11.3-2.4,16.9c-0.7,5.4-3.5,9-8.8,10.5c-1.4,0.4-2.8,0.9-4.1,1.4c-15.5,6-21.7,16.6-18.6,33c1.5,7.6-0.3,12.9-6.9,17
			c-4.1,2.5-7.8,5.9-11.9,8.6C304,365.5,301.6,366.2,299.7,367z M324.4,218.4c-0.1-3.5-5.6-8.3-8.9-8c-22.4,2.3-38.6-7.2-47.9-28.1
			c-2.9-6.5-9.6-7.6-14.3-2.2c-14.6,16.8-32,21.3-52.7,13.4c-7.3-2.8-12.4,1.1-12.1,8.9c0.9,22.9-7.6,37-27.8,46.2
			c-7.1,3.2-8,9.5-2,14.9c16.5,14.8,20.7,31.8,12.8,52.4c-2.6,6.9,1.3,12.4,8.7,11.9c22.8-1.4,37.5,7.5,46.8,28.4
			c2.7,6,9.7,7,14.1,2c15.1-17.2,32.6-21.5,53.6-13.1c5.9,2.4,11.6-1.8,11.2-8.1c-1.5-23.5,7.6-38.4,29-47.9
			c5.5-2.4,6.4-9.5,1.8-13.5c-17.6-15.3-21.8-32.2-13.5-53.9C323.6,220.6,324,219.4,324.4,218.4z"/>
		<path class="st1" d="M440.1,393.9c9.7-1,18.4-1.9,27.1-2.7c2.8-0.3,5.5-0.6,8.3-0.6c5.1,0,8.8,3.2,9.4,8c0.6,4.6-2.4,9.1-7.4,9.9
			c-6.7,1.1-13.5,1.7-20.3,2.4c-14.1,1.4-28.1,2.8-42.8,4.2c-1.8-5.5-3.7-11-5.5-16.5c-4.6-13.9-9.3-27.7-13.8-41.6
			c-2.5-7.8,2.2-14.2,9.6-13.2c4.2,0.6,6.5,3.3,7.8,7.1c3.1,9.4,6.3,18.8,9.4,28.2c0.5,1.5,1.1,3,1.9,5.2c1.1-1.5,2-2.5,2.7-3.7
			c55.6-88.7,35.7-208.7-45.4-274.8c-23.8-19.4-50.3-33.4-79.9-41.4c-4.6-1.2-8.1-3.5-8.6-8.7c-0.3-3.9,1.1-7.4,4.8-8.7
			c2.5-0.9,5.8-1.1,8.4-0.3c50.3,13.7,91.5,41.3,123.2,82.8c32.8,42.9,48.4,91.6,47.3,145.5c-0.8,40.8-12.1,78.8-33.2,113.8
			C442.3,390.1,441.5,391.5,440.1,393.9z"/>
		<path class="st1" d="M238.4,37.2c-7.2-7-14.6-13.9-21.7-21c-5.5-5.6-3.4-14,3.8-15.9c4.1-1.1,7.2,0.8,10,3.6
			c11.1,11.2,22.2,22.4,33.4,33.5c3.1,3.1,6.5,5.8,10,8.9c-3.9,6.2-7.3,11.5-10.6,16.8c-7.5,11.8-15,23.6-22.5,35.4
			c-3.6,5.7-8.9,7.2-13.6,4.2c-4.7-3.1-5.5-8.3-1.9-14.1c5.6-8.9,11.3-17.8,17-26.8c0.9-1.3,1.6-2.7,3.2-5.5
			c-12.3,1.2-23.4,1.7-34.3,3.5c-54.8,9.4-99.6,36-133.6,80C45.3,181.6,30.8,229.4,34,282.1c0.8,12.4,3.3,24.8,5.3,37.1
			c1,6.3-1.3,10.8-6.7,12.1c-5.4,1.2-9.9-1.8-11.2-8C5,248.7,20,181.1,68.4,121.9c35.2-43,81-69.1,135.6-79.5
			c9.6-1.8,19.4-2.3,29-3.4c1.6-0.2,3.1-0.3,4.7-0.4C238,38.2,238.2,37.7,238.4,37.2z"/>
	</g>
	<path class="st2" d="M324.4,218.4c-0.4,1-0.8,2.2-1.3,3.4c-8.3,21.7-4.1,38.5,13.5,53.9c4.6,4,3.7,11-1.8,13.5
		c-21.5,9.5-30.5,24.4-29,47.9c0.4,6.3-5.3,10.5-11.2,8.1c-20.9-8.4-38.5-4-53.6,13.1c-4.4,5-11.4,4-14.1-2
		c-9.3-20.8-24-29.8-46.8-28.4c-7.3,0.5-11.3-5-8.7-11.9c7.9-20.6,3.7-37.6-12.8-52.4c-5.9-5.3-5.1-11.6,2-14.9
		c20.3-9.2,28.8-23.3,27.8-46.2c-0.3-7.9,4.9-11.7,12.1-8.9c20.6,7.9,38.1,3.4,52.7-13.4c4.6-5.3,11.4-4.3,14.3,2.2
		c9.3,20.8,25.5,30.3,47.9,28.1C318.8,210.1,324.3,214.9,324.4,218.4z M246.9,312.8c24.2,0.1,43.9-19.4,44-43.5
		c0-23.9-19.4-43.6-43.2-43.8c-24.4-0.1-43.9,19-44.2,43.3C203.2,292.9,222.8,312.7,246.9,312.8z"/>
	<path class="st1" d="M246.9,312.8c-24.1-0.1-43.7-20-43.5-44c0.3-24.3,19.9-43.4,44.2-43.3c23.8,0.1,43.3,19.8,43.2,43.8
		C290.9,293.4,271.2,312.9,246.9,312.8z M247.2,244c-13.9,0-25.2,11.2-25.3,25c-0.1,13.8,11.1,25.2,25,25.3
		c14.1,0.2,25.5-11.2,25.5-25.2C272.4,255.2,261.2,244.1,247.2,244z"/>
	<path class="st0" d="M247.2,244c13.9,0,25.1,11.2,25.2,25.1c0,14.1-11.4,25.4-25.5,25.2c-13.9-0.2-25.1-11.5-25-25.3
		C222,255.2,233.4,244,247.2,244z"/>
</g>
</svg>
