<?xml version="1.0" encoding="utf-8"?>
<!-- Generator: Adobe Illustrator 23.0.3, SVG Export Plug-In . SVG Version: 6.00 Build 0)  -->
<svg version="1.1" id="Layer_1" xmlns="http://www.w3.org/2000/svg" xmlns:xlink="http://www.w3.org/1999/xlink" x="0px" y="0px"
	 viewBox="0 0 500 500" style="enable-background:new 0 0 500 500;" xml:space="preserve">
<style type="text/css">
	.st0{fill:#BDD29A;}
	.st1{fill:#83951D;}
	.st2{fill:#465E14;}
</style>
<g>
	<path class="st0" d="M500,226.2c-2.1,2.7-3.9,5.6-6.3,8c-10.3,10.4-20.6,20.8-31.1,31c-2.6,2.5-3.5,5-3.5,8.6
		c0.1,43,0.1,85.9,0.1,128.9c0,12.8-6.4,21.7-17.6,24.2c-2.8,0.6-5.8,0.6-8.7,0.6c-42.6,0-85.3,0-127.9,0.2c-2.5,0-5.7,1.3-7.5,3.1
		c-12.6,12.2-25,24.7-37.4,37.2c-6.8,6.9-14.7,11.8-23.8,14.8c-16.8,5.6-33.6,11.3-50.4,16.6c-2.5,0.8-6.6,1.1-7.9-0.3
		c-1.4-1.4-1.1-5.5-0.3-8c5.5-17.3,11.3-34.6,17.2-51.8c1.3-3.8,3.1-7.4,5-11.8c-2.2,0-4,0-5.9,0c-56.5,0-112.9,0-169.4,0
		c-12.8,0-21.8-6.8-24.2-18.3C0,407.1,0,405,0,402.9c0-89.4,0-178.7,0-268C0,119.2,9.3,110,24.9,110c136.5,0,273,0,409.5,0
		c15.7,0,24.8,9.1,24.8,24.8c0,13.2-0.1,26.4,0.1,39.5c0,2.1,1.2,4.6,2.7,6.2c11.1,11.4,22.5,22.6,33.7,33.9
		c1.7,1.7,2.8,3.9,4.2,5.9C500,222.3,500,224.2,500,226.2z M428.9,197.4c3.9-4,7-7.4,10.3-10.5c2.4-2.1,3.2-4.5,3.2-7.7
		c-0.1-14.3-0.1-28.6-0.1-43c0-7.9-1.5-9.4-9.4-9.4c-135.6,0-271.1,0-406.7,0c-7.9,0-9.3,1.4-9.3,9.5c0,88.2,0,176.4,0,264.6
		c0,8.2,1.4,9.6,9.7,9.6c61.2,0,122.4,0,183.6,0.1c3.7,0,6.3-1,8.9-3.7C284,342,349,277.1,413.9,212.2c1-1,2-2.1,3.1-3.3
		c-1-1.1-1.8-2.1-2.7-3c-6.3-6.4-6.3-6.4-12.7,0c-21.1,21.1-42.1,42.1-63.2,63.1c-4.3,4.2-9.4,4.4-12.9,0.8
		c-3.4-3.5-3.2-8.6,0.8-12.6c22.5-22.6,45-45.2,67.7-67.6c8.1-8.1,19.8-7.9,28.1,0C424.3,191.9,426.3,194.5,428.9,197.4z
		 M254.4,448.9c58.3-58.3,116.9-116.9,175.3-175.3c-8.7-8.7-17.5-17.5-26-26c-58.3,58.3-117,117-175.3,175.3
		C236.9,431.5,245.8,440.3,254.4,448.9z M442.3,288.1c-40.7,40.7-81.7,81.7-122.4,122.4c-0.3,0,0.3,0.1,1,0.1c37.9,0,75.8,0,113.7,0
		c5.9,0,7.7-2,7.8-8c0-37.6,0-75.2,0-112.8C442.4,288.8,442.3,287.9,442.3,288.1z M416.8,234c8.9,8.9,17.7,17.7,25.8,25.8
		c12.1-12.1,24.6-24.6,36.5-36.4c-8.4-8.5-17.2-17.3-25.9-26C441.2,209.5,428.8,221.9,416.8,234z M200.6,475.5
		c0.4,0.3,0.7,0.6,1.1,0.9c13-5.3,27.1-7.6,38.8-14.3c-8.7-8.8-17.1-17.1-26.1-26.2C209.8,449.1,205.2,462.3,200.6,475.5z"/>
	<path class="st1" d="M428.9,197.4c-2.6-2.9-4.6-5.5-7-7.7c-8.3-7.9-19.9-8.1-28.1,0c-22.7,22.4-45.2,45-67.7,67.6
		c-4,4-4.2,9.1-0.8,12.6c3.5,3.6,8.7,3.5,12.9-0.8c21.1-21,42.1-42.1,63.2-63.1c6.4-6.4,6.4-6.4,12.7,0c0.9,0.9,1.7,1.9,2.7,3
		c-1.1,1.2-2,2.2-3.1,3.3C349,277.1,284,342,219.2,407c-2.6,2.6-5.2,3.7-8.9,3.7c-61.2-0.1-122.4-0.1-183.6-0.1
		c-8.3,0-9.7-1.4-9.7-9.6c0-88.2,0-176.4,0-264.6c0-8,1.4-9.5,9.3-9.5c135.6,0,271.1,0,406.7,0c7.9,0,9.4,1.5,9.4,9.4
		c0,14.3-0.1,28.6,0.1,43c0,3.2-0.8,5.5-3.2,7.7C435.9,190,432.9,193.4,428.9,197.4z M195.7,203.6c35.6,0,71.3,0,106.9,0
		c1.8,0,3.6,0.1,5.3-0.3c4.3-1.1,6.7-3.9,6.6-8.4c-0.1-4.5-2.6-7.2-7-8.1c-1.7-0.3-3.6-0.3-5.3-0.3c-71.1,0-142.2,0-213.3,0
		c-1.3,0-2.6-0.1-3.9,0.1c-5,0.5-8.4,3.9-8.4,8.4c0,4.6,3.3,8.1,8.3,8.6c1.4,0.1,2.9,0.1,4.4,0.1
		C124.8,203.6,160.2,203.6,195.7,203.6z M176.1,243.2c-29.1,0-58.2,0-87.3,0c-1.9,0-3.9,0-5.8,0.4c-4,0.9-6.1,3.7-6.3,7.7
		c-0.2,3.7,1.4,6.8,5.1,8.1c2.1,0.7,4.4,0.9,6.7,0.9c58.2,0,116.4,0,174.6,0c1.5,0,3,0.1,4.4-0.1c4.6-0.7,7.8-4.4,7.6-8.7
		c-0.2-4.2-3.2-7.5-7.7-8.1c-1.6-0.2-3.2-0.1-4.9-0.1C233.7,243.2,204.9,243.2,176.1,243.2z M130.3,317c14.5,0,28.9,0,43.4,0
		c6.5,0,10.4-3.2,10.6-8.3c0.2-5.3-3.9-8.6-10.6-8.7c-14.3,0-28.6,0-42.9,0c-14.8,0-29.6,0-44.4,0c-5.6,0-8.8,2.5-9.6,7
		c-1,5.6,3,9.9,9.7,9.9C101.1,317,115.7,317,130.3,317z"/>
	<path class="st2" d="M254.4,448.9c-8.7-8.6-17.5-17.5-26.1-26c58.3-58.3,117.1-117,175.3-175.3c8.5,8.5,17.4,17.3,26,26
		C371.4,332,312.8,390.6,254.4,448.9z"/>
	<path class="st1" d="M442.3,288.1c0-0.2,0.1,0.7,0.1,1.6c0,37.6,0,75.2,0,112.8c0,6-1.9,8-7.8,8c-37.9,0-75.8,0-113.7,0
		c-0.6,0-1.2-0.1-1-0.1C360.6,369.8,401.6,328.8,442.3,288.1z"/>
	<path class="st2" d="M416.8,234c12-12,24.4-24.5,36.4-36.5c8.7,8.7,17.4,17.5,25.9,26c-11.8,11.8-24.3,24.3-36.5,36.4
		C434.5,251.6,425.7,242.9,416.8,234z"/>
	<path class="st1" d="M200.6,475.5c4.6-13.2,9.2-26.4,13.7-39.6c9.1,9.1,17.4,17.4,26.1,26.2c-11.6,6.7-25.8,9-38.8,14.3
		C201.3,476.1,200.9,475.8,200.6,475.5z"/>
	<path class="st0" d="M195.7,203.6c-35.5,0-70.9,0-106.4,0c-1.5,0-2.9,0.1-4.4-0.1c-5-0.5-8.3-4-8.3-8.6c0-4.6,3.4-8,8.4-8.4
		c1.3-0.1,2.6-0.1,3.9-0.1c71.1,0,142.2,0,213.3,0c1.8,0,3.6-0.1,5.3,0.3c4.4,0.9,6.9,3.5,7,8.1c0.1,4.6-2.4,7.3-6.6,8.4
		c-1.7,0.4-3.5,0.3-5.3,0.3C267,203.6,231.3,203.6,195.7,203.6z"/>
	<path class="st0" d="M176.1,243.2c28.8,0,57.6,0,86.3,0c1.6,0,3.3-0.1,4.9,0.1c4.5,0.6,7.5,3.9,7.7,8.1c0.2,4.3-3,8-7.6,8.7
		c-1.4,0.2-2.9,0.1-4.4,0.1c-58.2,0-116.4,0-174.6,0c-2.2,0-4.6-0.2-6.7-0.9c-3.6-1.3-5.3-4.3-5.1-8.1c0.2-3.9,2.3-6.8,6.3-7.7
		c1.9-0.4,3.9-0.4,5.8-0.4C117.9,243.2,147,243.2,176.1,243.2z"/>
	<path class="st0" d="M130.3,317c-14.6,0-29.3,0-43.9,0c-6.6,0-10.7-4.3-9.7-9.9c0.8-4.5,4-7,9.6-7c14.8-0.1,29.6,0,44.4,0
		c14.3,0,28.6,0,42.9,0c6.8,0,10.8,3.4,10.6,8.7c-0.2,5.1-4.1,8.3-10.6,8.3C159.3,317,144.8,317,130.3,317z"/>
</g>
</svg>
