<?xml version="1.0" encoding="utf-8"?>
<!-- Generator: Adobe Illustrator 23.0.3, SVG Export Plug-In . SVG Version: 6.00 Build 0)  -->
<svg version="1.1" id="Layer_1" xmlns="http://www.w3.org/2000/svg" xmlns:xlink="http://www.w3.org/1999/xlink" x="0px" y="0px"
	 viewBox="0 0 500 500" style="enable-background:new 0 0 500 500;" xml:space="preserve">
<style type="text/css">
	.st0{fill:#BDD29A;}
	.st1{fill:#83951D;}
	.st2{fill:#465E14;}
</style>
<path class="st0" d="M476.3,430.3l-56.9-56.9c-12.3-12.3-33.7-12.3-46,0c-6.1,6.1-9.5,14.3-9.5,23s3.4,16.9,9.5,23l56.9,56.9
	c6.1,6.1,14.3,9.5,23,9.5s16.9-3.4,23-9.5s9.5-14.3,9.5-23C485.8,444.6,482.4,436.4,476.3,430.3z"/>
<circle class="st1" cx="201.2" cy="201.2" r="187"/>
<path class="st2" d="M486.3,420.2l-56.9-56.9c-13.4-13.4-36.4-16.6-54.2-8.2l-22-22c31.8-36.6,49.3-83.2,49.3-131.8
	C402.4,90.3,312.2,0,201.2,0S0,90.3,0,201.2s90.3,201.2,201.2,201.2c48.6,0,95.1-17.5,131.8-49.3l21.8,21.8
	c-3.4,6.6-5.2,13.9-5.2,21.4c0,12.5,4.9,24.2,13.7,33l56.9,56.9c8.8,8.8,20.6,13.7,33,13.7c12.5,0,24.3-4.9,33.1-13.7
	c8.8-8.8,13.7-20.6,13.7-33C500,440.8,495.1,429,486.3,420.2z M374,201.2c0,95.3-77.5,172.8-172.8,172.8S28.4,296.5,28.4,201.2
	S105.9,28.4,201.2,28.4S374,105.9,374,201.2z M471.6,453.3c0,4.9-1.9,9.5-5.4,12.9c-6.9,6.9-19,6.9-25.9,0l-56.9-56.9
	c-3.5-3.5-5.4-8.1-5.4-13c0-2,0.3-4,1-5.9c2.8-0.5,5.5-1.9,7.5-3.9c2-2,3.3-4.5,3.9-7.3c6.5-2.1,14.4-0.4,18.9,4.1l56.9,56.9
	C469.6,443.8,471.6,448.4,471.6,453.3z"/>
<path class="st2" d="M311.9,223.8c-17.1,55.6-67.9,93-126.4,93c-7.8,0-14.2,6.4-14.2,14.2s6.4,14.2,14.2,14.2
	c71.1,0,132.9-45.4,153.6-113.1c1.1-3.6,0.8-7.5-1-10.8c-1.8-3.3-4.8-5.8-8.4-6.9c-3.6-1.1-7.4-0.8-10.8,1
	C315.5,217.1,313,220.1,311.9,223.8z"/>
</svg>
