<?xml version="1.0" encoding="utf-8"?>
<!-- Generator: Adobe Illustrator 23.0.3, SVG Export Plug-In . SVG Version: 6.00 Build 0)  -->
<svg version="1.1" id="Layer_1" xmlns="http://www.w3.org/2000/svg" xmlns:xlink="http://www.w3.org/1999/xlink" x="0px" y="0px"
	 viewBox="0 0 500 500" style="enable-background:new 0 0 500 500;" xml:space="preserve">
<style type="text/css">
	.st0{fill:#BDD29A;}
	.st1{fill:#83951D;}
	.st2{fill:#465E14;}
</style>
<g>
	<path class="st0" d="M474.6,500c-149.7,0-299.5,0-449.2,0c-0.5-0.3-1-0.7-1.6-0.9c-13.3-4.4-20.3-13.7-20.3-27.7
		c-0.1-92.8-0.1-185.5,0-278.3c0-17.3,11.6-28.6,28.9-28.8c11.4-0.1,22.8,0,34.2,0c1.7,0,3.4-0.2,5.4-0.3c0-2.5,0-4.4,0-6.3
		c0-42.8,0-85.6,0-128.4C72,11.3,83.4,0,101.3,0c99.1,0,198.2,0,297.3,0c2.3,0,4.6,0,6.8,0.5C419.4,3.2,428,14,428,29.2
		c0,43,0,85.9,0,128.9c0,1.9,0,3.8,0,6.2c2.4,0,4.1,0,5.9,0c11.4,0,22.8-0.1,34.2,0c10.3,0.1,18.5,4.2,24.3,13
		c3.5,5.4,4.2,11.5,4.2,17.8c0,91.5,0,182.9,0,274.4c0,1.8,0,3.6-0.2,5.4c-1.2,11.5-7.3,19.2-17.9,23.5
		C477.2,498.8,475.9,499.4,474.6,500z M475.6,198.8c-1.9,1.5-3.4,2.4-4.7,3.5c-63.9,52.2-127.7,104.5-191.6,156.7
		c-18.1,14.8-40.9,14.6-59-0.2c-64-52.3-128-104.7-191.9-157c-1.2-0.9-2.4-1.8-4-3c0,88.1,0,175.4,0,263.5c1.5-1.8,2.5-2.8,3.4-3.9
		c26-32.1,52-64.3,78-96.4c8.7-10.8,17.4-21.5,26.1-32.2c3.6-4.3,8.1-5.5,12.6-3.5c4.3,1.9,6.9,6.5,5.7,11.2
		c-0.6,2.4-2.1,4.7-3.7,6.7C111.4,387.8,76.2,431.3,41,474.8c-1,1.3-2,2.6-3.3,4.4c141.9,0,282.9,0,424.6,0
		c-1.1-1.6-1.9-2.8-2.8-3.9c-28.6-35.4-57.3-70.8-86-106.3c-7.2-8.9-14.4-17.7-21.5-26.6c-2.7-3.3-3.4-7-1.7-11
		c1.6-3.8,4.7-5.9,8.7-6.2c4.5-0.3,7.5,2.3,10.2,5.6C401,370.5,433,410,464.9,449.4c3.3,4.1,6.7,8.1,10.7,13.1
		C475.6,374,475.6,286.8,475.6,198.8z M250,20.5c-49.1,0-98.3,0-147.5,0c-7.9,0-10,1.9-10,9.6c0,64.4,0,128.9-0.1,193.4
		c0,3.1,0.9,5,3.3,7c45.5,37.1,91,74.3,136.4,111.6c12.1,9.9,23.5,9.9,35.6,0c45.3-37.1,90.6-74.2,136.1-111.2
		c2.7-2.2,3.7-4.4,3.7-7.8c-0.1-64.1-0.1-128.3-0.1-192.4c0-8.2-1.9-10.1-10-10.1C348.3,20.5,299.1,20.5,250,20.5z M40.5,185.2
		c10.8,8.8,20.7,16.9,31.1,25.4c0-9.1,0-17.1,0-25.4C61.5,185.2,51.7,185.2,40.5,185.2z M428.2,210.8c10.7-8.7,20.5-16.8,31.1-25.4
		c-11.2,0-21.1,0-31.1,0C428.2,193.7,428.2,201.6,428.2,210.8z"/>
	<path class="st1" d="M475.6,198.8c0,88,0,175.2,0,263.6c-4-4.9-7.4-9-10.7-13.1C433,410,401,370.5,369.1,331
		c-2.7-3.3-5.7-6-10.2-5.6c-4,0.3-7.1,2.4-8.7,6.2c-1.7,4-0.9,7.7,1.7,11c7.1,8.9,14.3,17.7,21.5,26.6c28.7,35.4,57.3,70.8,86,106.3
		c0.9,1.1,1.6,2.2,2.8,3.9c-141.7,0-282.7,0-424.6,0c1.3-1.8,2.3-3.1,3.3-4.4c35.2-43.5,70.4-87,105.6-130.6c1.6-2,3.1-4.3,3.7-6.7
		c1.2-4.7-1.4-9.3-5.7-11.2c-4.4-2-9.1-0.9-12.6,3.5c-8.8,10.7-17.4,21.5-26.1,32.2c-26,32.1-52,64.3-78,96.4
		c-0.9,1.1-1.9,2.1-3.4,3.9c0-88.1,0-175.4,0-263.5c1.6,1.2,2.8,2.1,4,3c64,52.3,128,104.7,191.9,157c18.2,14.9,40.9,15,59,0.2
		c63.9-52.2,127.7-104.4,191.6-156.7C472.3,201.3,473.7,200.3,475.6,198.8z"/>
	<path class="st2" d="M428.2,210.8c0-9.2,0-17.1,0-25.4c10,0,19.9,0,31.1,0C448.7,194,438.9,202,428.2,210.8z"/>
	<path class="st2" d="M40.6,185.4c11.2,0,21.1,0,31.1,0c0,8.3,0,16.2,0,25.4C61,202,51.2,194,40.6,185.4z"/>
	<path class="st2" d="M407.5,30.6c0-8.2-1.9-10.1-10-10.1c-49.1,0-98.3,0-147.5,0s-98.3,0-147.5,0c-7.9,0-10,1.9-10,9.6
		c0,64.4,0,128.9-0.1,193.4c0,3.1,0.9,5,3.3,7c45.5,37.1,91,74.3,136.4,111.6c12.1,9.9,23.5,9.9,35.6,0
		c45.3-37.1,90.6-74.2,136.1-111.2c2.7-2.2,3.7-4.4,3.6-7.8C407.4,158.9,407.5,94.8,407.5,30.6z"/>
	<path class="st1" d="M250.1,79.5c-48.6,0-88.1,39.5-88.1,88.1s39.5,88.1,88.1,88.1s88.1-39.5,88.1-88.1S298.6,79.5,250.1,79.5z"/>
	<path class="st0" d="M250.1,57.5c-60.7,0-110.2,49.4-110.2,110.2s49.4,110.2,110.2,110.2s110.2-49.4,110.2-110.2
		S310.8,57.5,250.1,57.5z M250.1,255.8c-48.6,0-88.1-39.5-88.1-88.1s39.5-88.1,88.1-88.1s88.1,39.5,88.1,88.1
		S298.6,255.8,250.1,255.8z"/>
	<path class="st2" d="M266,167.7l30.4-30.4c4.4-4.4,4.4-11.5,0-15.9s-11.5-4.4-15.9,0L250,151.7l-30.4-30.4
		c-4.4-4.4-11.5-4.4-15.9,0c-4.4,4.4-4.4,11.5,0,15.9l30.4,30.4l-30.4,30.4c-4.4,4.4-4.4,11.5,0,15.9c4.4,4.4,11.5,4.4,15.9,0
		l30.4-30.4l30.4,30.4c4.4,4.4,11.5,4.4,15.9,0s4.4-11.5,0-15.9L266,167.7z"/>
</g>
</svg>
