<?xml version="1.0" encoding="utf-8"?>
<!-- Generator: Adobe Illustrator 23.0.3, SVG Export Plug-In . SVG Version: 6.00 Build 0)  -->
<svg version="1.1" id="Layer_1" xmlns="http://www.w3.org/2000/svg" xmlns:xlink="http://www.w3.org/1999/xlink" x="0px" y="0px"
	 viewBox="0 0 500 500" style="enable-background:new 0 0 500 500;" xml:space="preserve">
<style type="text/css">
	.st0{fill:#043A16;}
	.st1{fill:#fff;}
	.st2{fill:#fff;}
</style>
<g>
	<path class="st0" d="M477.7,503.5c-151.8,0-303.6,0-455.4,0c-0.5-0.3-1-0.8-1.6-1C7.2,498,0.1,488.6,0.1,474.4
		C0,380.4,0,286.4,0.1,192.3c0-17.6,11.8-29,29.3-29.2c11.5-0.1,23.1,0,34.7,0c1.7,0,3.5-0.2,5.5-0.3c0-2.5,0-4.5,0-6.4
		c0-43.4,0-86.8,0-130.2C69.6,8,81.1-3.5,99.3-3.5c100.5,0,201,0,301.4,0c2.3,0,4.6,0,6.9,0.5c14.1,2.7,22.8,13.7,22.8,29.2
		c0,43.6,0,87.1,0,130.7c0,1.9,0,3.9,0,6.3c2.4,0,4.2,0,6,0c11.5,0,23.1-0.1,34.6,0c10.5,0.1,18.8,4.3,24.6,13.2
		c3.6,5.5,4.3,11.6,4.3,18c0,92.7,0,185.4,0,278.2c0,1.8,0,3.6-0.2,5.4c-1.2,11.6-7.4,19.4-18.1,23.8
		C480.3,502.3,479,502.9,477.7,503.5z M478.8,198.1c-2,1.5-3.4,2.5-4.8,3.6c-64.7,52.9-129.4,105.9-194.2,158.9
		c-18.4,15-41.4,14.8-59.8-0.2C155.1,307.3,90.2,254.2,25.3,201.2c-1.2-1-2.4-1.9-4-3.1c0,89.3,0,177.8,0,267.1
		c1.6-1.8,2.5-2.9,3.4-4c26.4-32.6,52.7-65.1,79.1-97.7c8.8-10.9,17.6-21.8,26.5-32.7c3.6-4.4,8.3-5.5,12.8-3.5
		c4.3,2,7,6.6,5.8,11.4c-0.6,2.4-2.1,4.8-3.8,6.8c-35.6,44.2-71.4,88.3-107.1,132.4c-1.1,1.3-2,2.7-3.4,4.5c143.9,0,286.8,0,430.5,0
		c-1.2-1.6-1.9-2.8-2.8-3.9c-29-35.9-58.1-71.8-87.2-107.7c-7.3-9-14.5-17.9-21.8-26.9c-2.7-3.4-3.5-7.1-1.7-11.1
		c1.6-3.8,4.7-6,8.8-6.3c4.6-0.4,7.6,2.3,10.3,5.7c32.3,40,64.7,80,97.1,120c3.4,4.1,6.8,8.3,10.9,13.3
		C478.8,375.8,478.8,287.3,478.8,198.1z M250,17.4c-49.8,0-99.7,0-149.5,0c-8,0-10.1,2-10.1,9.7c0,65.3,0,130.7-0.1,196
		c0,3.1,0.9,5.1,3.3,7.1c46.2,37.6,92.2,75.4,138.3,113.1c12.2,10,23.9,10,36.1,0c46-37.6,91.9-75.3,137.9-112.8
		c2.7-2.2,3.7-4.5,3.7-7.9c-0.1-65-0.1-130-0.1-195.1c0-8.3-1.9-10.2-10.1-10.2C349.7,17.4,299.8,17.4,250,17.4z M37.6,184.3
		c11,9,21,17.1,31.5,25.7c0-9.3,0-17.4,0-25.7C58.9,184.3,49,184.3,37.6,184.3z M430.7,210.2c10.8-8.9,20.8-17,31.5-25.8
		c-11.3,0-21.4,0-31.5,0C430.7,192.9,430.7,200.9,430.7,210.2z"/>
	<path class="st1" d="M478.8,198.1c0,89.2,0,177.6,0,267.3c-4.1-5-7.5-9.1-10.9-13.3c-32.4-40-64.8-80-97.1-120
		c-2.7-3.4-5.8-6.1-10.3-5.7c-4.1,0.3-7.2,2.4-8.8,6.3c-1.7,4-1,7.8,1.7,11.1c7.2,9,14.5,18,21.8,26.9
		c29.1,35.9,58.1,71.8,87.2,107.7c0.9,1.1,1.6,2.3,2.8,3.9c-143.6,0-286.6,0-430.5,0c1.4-1.8,2.3-3.2,3.4-4.5
		c35.7-44.1,71.4-88.2,107.1-132.4c1.6-2,3.1-4.4,3.8-6.8c1.2-4.7-1.5-9.4-5.8-11.4c-4.5-2-9.2-0.9-12.8,3.5
		c-8.9,10.9-17.7,21.8-26.5,32.7c-26.4,32.6-52.7,65.1-79.1,97.7c-0.9,1.1-1.9,2.2-3.4,4c0-89.4,0-177.8,0-267.1
		c1.6,1.2,2.9,2.1,4,3.1C90.2,254.2,155.1,307.3,220,360.4c18.4,15.1,41.5,15.2,59.8,0.2c64.8-52.9,129.5-105.9,194.2-158.9
		C475.4,200.6,476.8,199.6,478.8,198.1z"/>
	<path class="st2" d="M250,17.4c49.8,0,99.7,0,149.5,0c8.2,0,10.1,2,10.1,10.2c0,65,0,130,0.1,195.1c0,3.4-1,5.7-3.7,7.9
		c-46,37.5-92,75.2-137.9,112.8c-12.2,10-23.9,10-36.1,0c-46.1-37.7-92.2-75.5-138.3-113.1c-2.4-2-3.3-4-3.3-7.1
		c0.1-65.4,0.1-130.7,0.1-196c0-7.8,2.1-9.7,10.1-9.7C150.3,17.4,200.2,17.4,250,17.4z M249.5,114.5c18.3,0,36.6,0,54.9,0
		c10.9,0,21.8,0.1,32.6-0.1c6.1-0.1,10.5-4.4,10.5-10.2c0.1-5.4-4-9.8-9.8-10.5c-1.5-0.2-3-0.1-4.5-0.1c-55.6,0-111.1,0-166.7,0
		c-2.4,0-5,0.1-7.3,0.8c-4.7,1.4-7.4,6-6.8,10.8c0.6,4.9,4.2,8.5,9,9.1c1.6,0.2,3.3,0.1,4.9,0.1
		C194.1,114.5,221.8,114.5,249.5,114.5z M250.1,184.1c28.2,0,56.4,0,84.6,0c8.2,0,12.9-3.9,13-10.4c0-6.4-4.8-10.4-12.9-10.5
		c-1.3,0-2.6,0-4,0c-52.6,0-105.2,0-157.8,0c-3.1,0-6.3-0.1-9.4,0c-6.8,0.3-11.4,4.6-11.2,10.6c0.1,5.8,4.5,9.8,11.1,10.2
		c1.5,0.1,3,0,4.4,0C195.3,184.1,222.7,184.1,250.1,184.1z M250.4,232.7c-23.6,0-47.1,0-70.7,0c-8.6,0-13.4,3.8-13.4,10.4
		c0,6.6,4.9,10.4,13.4,10.5c0.3,0,0.7,0,1,0c46.3,0,92.6,0,138.9,0c2.3,0,4.6-0.1,6.9-0.7c4.4-1.1,7.4-5.5,7.3-10
		c-0.1-4.8-3.5-8.9-8.2-9.8c-2.1-0.4-4.3-0.3-6.4-0.4C296.2,232.7,273.3,232.7,250.4,232.7z"/>
	<path class="st2" d="M37.6,184.3c11.3,0,21.3,0,31.5,0c0,8.4,0,16.5,0,25.7C58.6,201.4,48.6,193.3,37.6,184.3z"/>
	<path class="st2" d="M430.7,210.2c0-9.3,0-17.3,0-25.8c10.1,0,20.2,0,31.5,0C451.5,193.2,441.5,201.4,430.7,210.2z"/>
	<path class="st0" d="M249.5,114.5c-27.7,0-55.4,0-83.1,0c-1.6,0-3.3,0.1-4.9-0.1c-4.8-0.5-8.4-4.2-9-9.1c-0.6-4.7,2.2-9.4,6.8-10.8
		c2.3-0.7,4.9-0.8,7.3-0.8c55.6,0,111.1,0,166.7,0c1.5,0,3-0.1,4.5,0.1c5.8,0.7,9.9,5.1,9.8,10.5c-0.1,5.7-4.4,10.1-10.5,10.2
		c-10.9,0.1-21.8,0.1-32.6,0.1C286.1,114.5,267.8,114.5,249.5,114.5z"/>
	<path class="st0" d="M250.1,184.1c-27.4,0-54.7,0-82.1,0c-1.5,0-3,0-4.4,0c-6.6-0.4-11-4.4-11.1-10.2c-0.1-6,4.4-10.3,11.2-10.6
		c3.1-0.1,6.3,0,9.4,0c52.6,0,105.2,0,157.8,0c1.3,0,2.6,0,4,0c8,0.1,12.9,4.1,12.9,10.5c0,6.4-4.8,10.3-13,10.4
		C306.5,184.1,278.3,184.1,250.1,184.1z"/>
	<path class="st0" d="M250.4,232.7c22.9,0,45.8,0,68.7,0c2.1,0,4.3,0,6.4,0.4c4.7,0.8,8.1,5,8.2,9.8c0.1,4.6-2.9,8.9-7.3,10
		c-2.2,0.6-4.6,0.7-6.9,0.7c-46.3,0-92.6,0-138.9,0c-0.3,0-0.7,0-1,0c-8.5-0.1-13.4-3.9-13.4-10.5c0-6.6,4.8-10.4,13.4-10.4
		C203.2,232.7,226.8,232.7,250.4,232.7z"/>
</g>
</svg>
