<?xml version="1.0" encoding="utf-8"?>
<!-- Generator: Adobe Illustrator 23.0.3, SVG Export Plug-In . SVG Version: 6.00 Build 0)  -->
<svg version="1.1" id="Layer_1" xmlns="http://www.w3.org/2000/svg" xmlns:xlink="http://www.w3.org/1999/xlink" x="0px" y="0px"
	 viewBox="0 0 500 500" style="enable-background:new 0 0 500 500;" xml:space="preserve">
<style type="text/css">
	.st0{fill:#BDD29A;}
	.st1{fill:#83951D;}
	.st2{fill:#465E14;}
</style>
<g>
	<path d="M400.4,284.6c0.1-5.4,4.2-9.5,9.6-9.5c5.5,0,10,4.6,9.8,10c-0.2,5.2-4.7,9.4-10,9.3C404.4,294.3,400.3,289.9,400.4,284.6z"
		/>
	<path class="st0" d="M288.9,40.8c-12.5,17.6-19.5,36.1-20.6,57.5c-2.2,0-4.3,0-6.3,0c-51.9,0-103.8,0-155.7,0
		c-11.3,0-14.1,2.8-14.1,14.2c0,11.4,0,22.8,0,34.2c0,8.9,3.6,12.4,12.4,12.4c57,0,113.9,0,170.9,0c2.8,0,5.7-0.8,8.8-1.2
		c11.7,17.7,27.3,31.2,47.3,39.6c1,0.4,1.6,2.1,2.1,3.3c0.3,0.9,0.1,1.9,0.1,2.9c0,68.2,0,136.4,0,204.5c0,2.9-0.1,5.9-0.9,8.7
		c-1.9,6.7-8,10.9-15.6,11c-84.8,0-169.6,0-254.3,0c-9.5,0-15.9-6.2-16.6-15.6c-0.1-1.3,0-2.6,0-3.9c0-116,0-232,0-348
		c0-3,0.2-6.3,1.2-9.1c2.2-6.8,8.3-10.3,17-10.3c57.8,0,115.5,0,173.3,0c15,0,29.9,0,44.9,0C284.4,40.8,286.1,40.8,288.9,40.8z
		 M190,305.1c28,0,56,0,83.9,0c9.3,0,13.9-3.3,13.8-9.9c-0.2-6.4-4.7-9.6-13.7-9.6c-56,0-111.9,0-167.9,0c-1.9,0-3.9,0-5.8,0.4
		c-4.8,0.9-8.1,4.9-7.9,9.7c0.1,4.8,3.6,8.6,8.4,9.3c1.8,0.2,3.6,0.2,5.4,0.2C134,305.1,162,305.1,190,305.1z M190.5,193.1
		c-28,0-56,0-83.9,0c-1.9,0-3.9,0-5.8,0.2c-4.8,0.6-8.3,4.5-8.4,9.2c-0.1,4.5,2.9,8.6,7.4,9.6c1.9,0.4,3.9,0.5,5.8,0.5
		c56.3,0,112.6,0,168.9,0c2.3,0,4.6-0.1,6.8-0.7c4.2-1.2,6.8-5.4,6.5-9.8c-0.3-4.4-3.5-8.1-7.8-8.8c-2.1-0.3-4.2-0.3-6.3-0.3
		C245.9,193.1,218.2,193.1,190.5,193.1z M190,332c-8.1,0-16.3,0-24.4,0c-20.8,0-41.7,0-62.5,0c-6.3,0-10.7,3.9-10.8,9.5
		c-0.2,5.7,4.3,9.9,10.8,10c1,0,1.9,0,2.9,0c56,0,111.9,0,167.9,0c1.8,0,3.6,0.1,5.4-0.2c7.1-1.2,10.7-9,6.8-14.9
		c-2.4-3.7-6-4.5-10.2-4.5C247.3,332,218.7,332,190,332z M189.6,258.8c28.1,0,56.3,0,84.4,0c1.5,0,2.9,0.1,4.4,0
		c5.4-0.4,9.2-4.4,9.3-9.5c0.1-5.1-3.6-9.3-8.9-9.9c-1.5-0.2-2.9-0.1-4.4-0.1c-56.3,0-112.6,0-168.9,0c-1.6,0-3.3-0.1-4.9,0.2
		c-5,0.8-8.5,5.1-8.4,9.9c0.2,4.9,3.9,8.9,8.9,9.4c1.4,0.1,2.9,0.1,4.4,0.1C133.6,258.8,161.6,258.8,189.6,258.8z"/>
	<path class="st0" d="M370.5,185.6c-45.7-0.1-82.7-37.3-82.7-83c0-46,37.3-83.2,83.2-83c45.6,0.1,82.9,37.5,82.8,83.1
		C453.9,148.5,416.4,185.7,370.5,185.6z M361.2,123.1c0,10.6-0.1,21.1,0.1,31.7c0,2.5,0.5,5.3,1.8,7.4c2.4,3.9,6.4,4.8,10.7,3.7
		c4.3-1.1,6.9-5,6.9-10.6c0.1-21.3,0.1-42.6,0-63.9c0-7-4.1-11.4-10-11.3c-5.8,0.1-9.4,4.3-9.4,11.3
		C361.1,101.9,361.2,112.5,361.2,123.1z M361.2,58.3c0,5.4,4.1,9.7,9.4,9.9c5.3,0.2,10-4.5,10-9.9c0-5.3-4.4-9.5-9.7-9.5
		C365.4,48.8,361.2,52.9,361.2,58.3z"/>
	<path class="st1" d="M268,118.2c0,7.1,0,14,0,21.1c-52,0-103.8,0-155.9,0c0-7,0-13.9,0-21.1C164.1,118.2,215.9,118.2,268,118.2z"/>
	<path class="st2" d="M190,305.1c-28,0-56,0-83.9,0c-1.8,0-3.6,0-5.4-0.2c-4.8-0.6-8.3-4.5-8.4-9.3c-0.1-4.7,3.2-8.8,7.9-9.7
		c1.9-0.3,3.9-0.4,5.8-0.4c56,0,111.9,0,167.9,0c9,0,13.6,3.2,13.7,9.6c0.2,6.6-4.4,9.9-13.8,9.9C246,305.1,218,305.1,190,305.1z"/>
	<path class="st2" d="M190.5,193.1c27.7,0,55.3,0,83,0c2.1,0,4.3,0,6.3,0.3c4.4,0.7,7.5,4.3,7.8,8.8c0.3,4.4-2.3,8.6-6.5,9.8
		c-2.1,0.6-4.5,0.7-6.8,0.7c-56.3,0-112.6,0-168.9,0c-1.9,0-3.9,0-5.8-0.5c-4.6-1-7.6-5.1-7.4-9.6c0.1-4.7,3.6-8.6,8.4-9.2
		c1.9-0.2,3.9-0.2,5.8-0.2C134.6,193.1,162.6,193.1,190.5,193.1z"/>
	<path class="st2" d="M190,332c28.6,0,57.3,0,85.9,0c4.2,0,7.8,0.8,10.2,4.5c3.9,5.9,0.4,13.7-6.8,14.9c-1.8,0.3-3.6,0.2-5.4,0.2
		c-56,0-111.9,0-167.9,0c-1,0-1.9,0-2.9,0c-6.5-0.2-11-4.3-10.8-10c0.2-5.5,4.5-9.4,10.8-9.5c20.8,0,41.6,0,62.5,0
		C173.8,332,181.9,332,190,332z"/>
	<path class="st2" d="M189.6,258.8c-28,0-56,0-83.9,0c-1.5,0-2.9,0.1-4.4-0.1c-5-0.5-8.8-4.5-8.9-9.4c-0.2-4.8,3.4-9.1,8.4-9.9
		c1.6-0.3,3.3-0.2,4.9-0.2c56.3,0,112.6,0,168.9,0c1.5,0,2.9-0.1,4.4,0.1c5.3,0.6,9,4.8,8.9,9.9c-0.1,5.1-4,9.1-9.3,9.5
		c-1.5,0.1-2.9,0-4.4,0C245.9,258.8,217.7,258.8,189.6,258.8z"/>
	<path class="st2" d="M361.2,123.1c0-10.6,0-21.1,0-31.7c0-6.9,3.6-11.1,9.4-11.3c5.9-0.1,10,4.3,10,11.3c0.1,21.3,0.1,42.6,0,63.9
		c0,5.6-2.7,9.5-6.9,10.6c-4.3,1.1-8.3,0.2-10.7-3.7c-1.3-2.1-1.8-4.9-1.8-7.4C361.1,144.2,361.2,133.6,361.2,123.1z"/>
	<path class="st2" d="M361.2,58.3c0-5.4,4.2-9.5,9.6-9.5c5.3,0,9.7,4.3,9.7,9.5c0,5.4-4.6,10-10,9.9C365.3,68,361.1,63.7,361.2,58.3
		z"/>
	<polygon class="st1" points="106,438.4 101.9,459.4 116.2,485.3 215.7,491.5 364.3,489.3 410,480.5 410,449.6 410,185.6 
		380.7,194.9 342.9,198.4 342.9,336.3 342.9,421.5 342.9,431.8 339.7,434.9 325,437.1 	"/>
	<path class="st2" d="M472.3,89.3C462.8,12.8,375.4-25.3,312,18.5c-2.5,1.7-5.9,2.7-8.9,2.7c-79.3,0.1-158.5,0.1-237.8,0.2
		c-4.8,0-9.8,0.4-14.4,1.9c-15.5,4.9-24.2,18.5-24.2,36.6c0,98.4,0,196.9,0,295.4c0,18.4,0,36.8,0,55.2c0,12.5,4.6,22.8,14.9,30.3
		c6.4,4.7,13.6,6.8,21.5,6.7c9.9-0.1,19.8,0,30.5,0c0,7.2-0.5,13.9,0.1,20.5c1.1,13,7.9,22.5,19.5,28.4c3.1,1.6,6.6,2.5,9.9,3.8
		c88.9,0,177.7,0,266.6,0c23.8-8.7,30.1-17.9,30.1-43.7c0-41.2,0-82.3,0-123.5c0-0.5,0-1-0.1-1.5v-91c0.1-1,0.1-2,0.1-2.9
		c0-13,0.2-26-0.1-39.1c-0.1-4,1.1-6.2,4.6-8.5C460.5,166.1,477.6,132.3,472.3,89.3z M62.9,427.8c-9.5,0-15.9-6.2-16.6-15.6
		c-0.1-1.3,0-2.6,0-3.9c0-116,0-232,0-348c0-3,0.2-6.3,1.1-9.1c2.2-6.8,8.3-10.3,17-10.3c57.8,0,115.5,0,173.3,0c15,0,29.9,0,44.9,0
		c1.7,0,3.4,0,6.2,0c-12.5,17.6-19.5,36.2-20.6,57.5c-2.2,0-4.3,0-6.3,0c-51.9,0-103.8,0-155.7,0c-11.3,0-14.1,2.8-14.1,14.2
		c0,11.4,0,22.8,0,34.2c0,8.9,3.6,12.4,12.4,12.4c57,0,113.9,0,170.9,0c2.8,0,5.7-0.8,8.8-1.2c11.7,17.7,27.3,31.2,47.3,39.6
		c1,0.4,1.6,2.1,2.1,3.3c0.3,0.9,0.1,1.9,0.1,2.9c0,68.2,0,136.4,0,204.5c0,2.9-0.1,5.9-0.9,8.7c-1.9,6.7-8,10.9-15.6,11
		C232.4,427.9,147.7,427.9,62.9,427.8z M268,118.2c0,7.1,0,14,0,21.1c-52,0-103.8,0-155.9,0c0-7,0-13.9,0-21.1
		C164.1,118.2,215.9,118.2,268,118.2z M380.9,480.5c-83,0-166,0-249,0c-1.5,0-2.9,0.1-4.4-0.1c-6.6-0.6-13.1-5.5-13.9-11.8
		c-0.8-6.8-0.2-13.9-0.2-21.2c2,0,3.9,0,5.8,0c65.1,0,130.2,0,195.3-0.1c4.7,0,9.5-0.4,13.9-1.7c15.7-4.8,24.8-18.4,24.8-36.7
		c0-66.1,0-132.1,0-198.2c0-2.1,0-4.1,0-6.8c16.1,2.5,31.5,1.4,47-2.8c0,2.7,0,4.6,0,6.6c0,5.8,0,11.7,0,17.5v152h0c0,28,0,56,0,84
		C400.3,474.5,394.3,480.5,380.9,480.5z M370.5,185.6c-45.7-0.1-82.7-37.3-82.7-83c0-46,37.3-83.2,83.2-83
		c45.6,0.1,82.9,37.5,82.8,83.1C453.9,148.5,416.4,185.7,370.5,185.6z"/>
</g>
</svg>
