<?xml version="1.0" encoding="utf-8"?>
<!-- Generator: Adobe Illustrator 23.0.3, SVG Export Plug-In . SVG Version: 6.00 Build 0)  -->
<svg version="1.1" id="Layer_1" xmlns="http://www.w3.org/2000/svg" xmlns:xlink="http://www.w3.org/1999/xlink" x="0px" y="0px"
	 viewBox="0 0 500 500" style="enable-background:new 0 0 500 500;" xml:space="preserve">
<style type="text/css">
	.st0{fill:#043A16;}
</style>
<g>
	<path class="st0" d="M500,302.6c-2.7,13.8-11.7,22.4-23,30c-47.1,32-93.6,64.8-142.8,93.5c-9.4,5.5-19.2,10.2-28.7,15.5
		c-14.3,7.9-29.2,9.5-45.3,6.2c-49.4-10.1-98.8-19.7-148.2-29.5c-1.7-0.3-3.4-0.6-5.8-1.1c0,4.3,0.1,8.2,0,12
		C106,443,97,452.5,83.3,452.7c-20.2,0.3-40.4,0.3-60.5,0C9.1,452.5,0.1,442.9,0,429.2c0-56.6,0-113.3,0-169.9
		c0-13.9,9.4-23.1,23.4-23.2c19.9-0.1,39.7-0.1,59.6,0c13.6,0.1,22.9,9.2,23.2,22.9c0.1,4.7,0,9.4,0,14.5
		c12.7-3.2,24.8-6.3,36.9-9.4c4.7-1.2,9.6-2,14.2-3.5c14.2-4.5,27.7-0.4,41.2,3.3c26.6,7.3,53.2,14.9,79.9,22.1
		c2.3,0.6,5.5,0.2,7.6-1c15.7-9.3,31.5-18.3,46.7-28.4c17.5-11.6,37.2-10.6,52.6,5.2c4.2-2.4,8.5-4.9,12.8-7.4
		c16.1-9.4,33.8-7.1,47,5.9c1.1,1.1,3.5,2.1,4.7,1.6c21-8,45.3,5.5,49.5,27.8c0.1,0.4,0.5,0.8,0.8,1.2
		C500,294.8,500,298.7,500,302.6z M106.4,399.7c0.7,0.3,1,0.5,1.3,0.5c49.8,10.1,99.8,19.9,149.5,30.3c16.7,3.5,32.2,2.6,46.7-6.8
		c0.1-0.1,0.3-0.1,0.4-0.2c60-32.2,115.2-72.1,171.1-110.6c3.2-2.2,5.6-6.5,6.8-10.3c2.8-8.6,0-16.1-7-21.8
		c-7-5.7-15.4-6.1-23.7-1.3c-22.7,13.3-45.4,26.7-68.1,40.1c-1.7,1-3.5,2.6-5.2,2.5c-3-0.3-6.8-0.8-8.5-2.8
		c-1.6-1.8-1.7-5.8-1.1-8.5c0.5-1.9,3.1-3.6,5.1-4.8c17.9-10.7,35.8-21.2,53.7-31.8c1.5-0.9,2.9-1.8,4.4-2.8
		c-7.3-7.2-16.3-8.2-25.4-2.9c-16,9.4-31.9,18.9-47.9,28.2c-2.2,1.3-4.8,2.4-7.2,2.5c-3.7,0-6.4-2.3-7.4-6c-1.1-4.1,0.5-7.4,4.1-9.5
		c7.2-4.3,14.4-8.6,21.7-12.9c-6.6-6.2-15.5-7.5-23.2-3c-13.7,8.1-27.2,16.5-40.8,24.9c-0.3,0.2-0.5,0.6-0.9,1.4
		c2.2,0.6,4.1,1,5.8,1.8c8.2,3.4,16.9,6,24.5,10.6c16.9,10.2,22.8,28.2,16.3,46c-6.5,17.5-24.3,28.1-43,25.8
		c-18.4-2.3-36.8-4.3-55.2-6.5c-12.3-1.5-24.5-3.1-36.8-4.8c-4.9-0.7-8-4.6-7.5-9.1c0.5-4.5,4.3-7.6,9.3-7.4c1.1,0,2.3,0.3,3.4,0.4
		c30.2,3.7,60.3,7.4,90.6,11c9.9,1.1,19.8-5.5,23.5-14.9c3.8-9.7,1.2-19-7.8-25.4c-4.3-3-9.2-5.7-14.3-7.2
		c-43.4-12.5-86.9-24.7-130.3-37.1c-8.4-2.4-16.6-2-24.9,0.3c-14.1,3.7-28.3,7.2-42.5,10.8c-3.2,0.8-6.4,1.8-9.6,2.6
		C106.4,327.6,106.4,363.6,106.4,399.7z M89.4,344.2c0-27.5,0-55,0-82.5c0-7.6-1.3-8.9-8.7-8.9c-18.5,0-37.1,0-55.7,0
		c-6.8,0-8.4,1.6-8.4,8.3c0,55.5,0,111,0,166.5c0,6.9,1.7,8.6,8.7,8.6c18.2,0,36.5,0,54.7,0c8,0,9.3-1.4,9.3-9.4
		C89.4,399.2,89.4,371.7,89.4,344.2z"/>
	<path class="st0" d="M194.3,196.9c0.1-30.6,25-55.3,55.7-55.4c30.9-0.1,55.9,24.9,55.9,55.7c-0.1,30.7-25.3,55.6-56.2,55.4
		C219,252.5,194.2,227.5,194.3,196.9z M289.1,197.4c0.1-21.5-17.5-39.2-39.1-39.2c-21.4,0-39,17.4-39.1,38.7
		c-0.1,21.5,17.5,39.2,39.1,39.2C271.4,236.1,289,218.6,289.1,197.4z"/>
	<path class="st0" d="M322.3,135.9c-24.8,0-45-20-44.8-44.5c0.2-24.3,20.2-44.2,44.7-44.3c24.6,0,44.9,20.2,44.8,44.6
		C366.9,116.2,347,135.9,322.3,135.9z M322.4,119.2c15.5-0.1,28-12.6,27.8-27.9c-0.2-15.2-12.6-27.4-27.8-27.5
		c-15.4-0.1-28,12.5-28,27.8C294.4,106.9,306.9,119.3,322.4,119.2z"/>
</g>
</svg>
