<?xml version="1.0" encoding="utf-8"?>
<!-- Generator: Adobe Illustrator 23.0.3, SVG Export Plug-In . SVG Version: 6.00 Build 0)  -->
<svg version="1.1" id="Layer_1" xmlns="http://www.w3.org/2000/svg" xmlns:xlink="http://www.w3.org/1999/xlink" x="0px" y="0px"
	 viewBox="0 0 500 500" style="enable-background:new 0 0 500 500;" xml:space="preserve">
<style type="text/css">
	.st0{fill:#BDD29A;}
	.st1{fill:#83951D;}
	.st2{fill:#465E14;}
	.st3{fill:#465E14;}
</style>
<rect x="47.7" y="19.1" class="st0" width="336.6" height="469.1"/>
<path class="st1" d="M396,399.1h-23.8v-51.6c0-0.1,0-0.2,0-0.3c-0.1-5.4-4.5-9.8-10-9.7c-5.4,0.1-9.8,4.5-9.7,10v61.4
	c0,5.4,4.4,9.8,9.8,9.8H396c0.1,0,0.2,0,0.3,0c5.4-0.1,9.8-4.5,9.7-10C405.9,403.4,401.4,399,396,399.1z"/>
<path class="st2" d="M420.1,340.3c-15.8-15.8-37.1-24.6-59.4-24.6c-12.3,0-24.4,2.7-35.4,7.8h12.2c5.4-0.1,9.9,4.3,10,9.7
	s-4.3,9.9-9.7,10c-0.1,0-0.2,0-0.3,0h-43.2c-1.5,0-2.9-0.3-4.2-1c0,0,0,0,0,0c0,0-0.1,0-0.1,0c-1.6-0.7-3-1.8-4-3.1
	c-11.5,14.6-18.5,32.3-20.2,50.8c5.4-0.6,10.3,3.3,10.8,8.7c0,0.4,0.1,0.8,0.1,1.2c0,22.3,8.9,43.6,24.6,59.4
	c15.8,15.8,37.1,24.6,59.4,24.6c22.3,0,43.6-8.9,59.4-24.6c15.8-15.8,24.6-37.1,24.6-59.4C444.7,377.4,435.8,356,420.1,340.3z
	 M396.3,418.8c-0.1,0-0.2,0-0.3,0h-33.6c-5.4,0-9.8-4.4-9.8-9.8v-61.4c-0.1-5.4,4.3-9.9,9.7-10c5.4-0.1,9.9,4.3,10,9.7
	c0,0.1,0,0.2,0,0.3v51.6H396c5.4-0.1,9.9,4.3,10,9.7S401.7,418.7,396.3,418.8z"/>
<path class="st3" d="M436.8,323.5c-13.4-13.4-30.1-23-48.4-27.9V13.8c0-7.6-6.2-13.8-13.8-13.8H45.5c-7.6,0-13.8,6.2-13.8,13.8
	v472.8c0,7.6,6.2,13.8,13.8,13.8h277.2c12.2,4.6,25,7,38,7c28.3,0,56.1-11.5,76.1-31.5c20-20,31.5-47.8,31.5-76.1
	C468.3,370.9,457.1,343.9,436.8,323.5z M266.8,385.7c-3.7,0-7.2,1.5-9.8,4.1c-2.6,2.6-4,6.2-4,9.8c0,26.9,10.4,53.3,28.6,73.1H59.3
	V27.6h301.4V292c0,0-0.1,0-0.1,0c-18.7,0-36.9,4.8-53.1,14v-11.5c0-3.8-1.4-7.3-4-10c-2.7-2.7-6.3-4.1-10-4
	c-7.6,0.1-13.7,6.4-13.6,14v38.5c-0.1,5.4,3,10.3,7.8,12.6l0.8,0.4c1.8,0.8,3.8,1.3,5.7,1.3h43.1c0.1,0,0.1,0,0.2,0
	c3.7,0,7.1-1.4,9.7-4c2.7-2.6,4.1-6.1,4.1-9.8c0-3.7-1.5-7.2-4.1-9.8c-0.9-0.9-1.8-1.6-2.9-2.2c5.3-1.1,10.7-1.7,16.2-1.7
	c21.4,0,41.5,8.3,56.6,23.4c15.1,15.1,23.4,35.2,23.4,56.6s-8.3,41.5-23.4,56.6c-15.1,15.1-35.2,23.4-56.6,23.4
	c-21.4,0-41.5-8.3-56.6-23.4c-15.1-15.1-23.4-35.2-23.4-56.5c0-3.7-1.4-7.3-4-9.9C274,387.2,270.5,385.7,266.8,385.7z"/>
<g>
	<path class="st3" d="M101.9,184.5c0,0,0.1,0,0.2,0h216.2c0.1,0,0.1,0,0.2,0c3.6,0,7.1-1.4,9.7-4c2.7-2.6,4.1-6.1,4.1-9.9
		s-1.5-7.2-4.1-9.8c-2.7-2.6-6.3-4-9.8-4H102.1c-3.9,0-7.3,1.4-9.9,4c-2.7,2.6-4.1,6.1-4.1,9.8s1.5,7.2,4.1,9.8
		C94.8,183.1,98.2,184.5,101.9,184.5z"/>
	<path class="st3" d="M101.9,121.4c0.1,0,0.1,0,0.2,0h216.2c0.1,0,0.1,0,0.2,0c3.7,0,7.1-1.4,9.7-4c2.6-2.6,4.1-6.1,4.1-9.8
		c0-3.7-1.5-7.2-4.1-9.8c-2.7-2.6-6.3-4-9.8-4H102.1c-0.1,0-0.1,0-0.2,0c-3.7,0-7.1,1.4-9.7,4c-2.7,2.6-4.1,6.1-4.1,9.8
		c0,3.7,1.5,7.2,4.1,9.8C94.8,120,98.2,121.4,101.9,121.4z"/>
	<path class="st3" d="M202.1,342.9c0,0-0.1,0-0.2,0h-99.9c-0.1,0-0.1,0-0.2,0c-3.6,0-7.1,1.4-9.7,4c-2.6,2.6-4.1,6.1-4.1,9.8
		c0,3.7,1.5,7.2,4.1,9.8c2.6,2.6,6,4,9.6,4c0.1,0,0.1,0,0.2,0h99.9c0.1,0,0.1,0,0.2,0c3.7,0,7.1-1.4,9.7-4c2.7-2.6,4.1-6.1,4.1-9.8
		c0-3.7-1.5-7.2-4.1-9.8C209.2,344.3,205.8,342.9,202.1,342.9z"/>
	<path class="st3" d="M318.3,218.9H102.1c-3.9,0-7.3,1.4-9.9,4c-2.7,2.6-4.1,6.1-4.1,9.8s1.5,7.2,4.1,9.8c2.6,2.6,6.1,4,9.7,4
		c0.1,0,0.1,0,0.2,0h216.3c0.1,0,0.1,0,0.2,0c3.7,0,7.1-1.4,9.7-4c2.6-2.6,4.1-6.1,4.1-9.8s-1.5-7.2-4.1-9.8
		C325.5,220.2,321.9,218.8,318.3,218.9z"/>
	<path class="st3" d="M252.9,280.9c0,0-0.1,0-0.2,0H102.1c-3.9,0-7.3,1.4-9.9,4c-2.7,2.6-4.1,6.1-4.1,9.8c0,3.7,1.5,7.2,4.1,9.8
		c2.6,2.6,6.1,4,9.7,4c0.1,0,0.1,0,0.2,0h150.7c0.1,0,0.1,0,0.2,0c3.7,0,7.1-1.4,9.7-4c2.7-2.6,4.1-6.1,4.1-9.8
		c0-3.7-1.5-7.2-4.1-9.9C260,282.3,256.6,280.9,252.9,280.9z"/>
</g>
</svg>
