<?xml version="1.0" encoding="utf-8"?>
<!-- Generator: Adobe Illustrator 23.0.3, SVG Export Plug-In . SVG Version: 6.00 Build 0)  -->
<svg version="1.1" id="Layer_1" xmlns="http://www.w3.org/2000/svg" xmlns:xlink="http://www.w3.org/1999/xlink" x="0px" y="0px"
	 viewBox="0 0 500 500" style="enable-background:new 0 0 500 500;" xml:space="preserve">
<style type="text/css">
	.st0{fill:#BDD29A;}
	.st1{fill:#83951D;}
	.st2{fill:#465E14;}
</style>
<g>
	<path class="st0" d="M500,314.2c-0.8,3.9-1.5,7.9-2.5,11.8c-10.8,39.3-36.9,62.6-76,71.6c-41.9,9.7-86.7-9.4-108.5-45.4
		c-7.9-13.1-12.2-27.3-13-42.5c-0.1-2.6,0.5-5.5,1.5-8c22.6-53.8,45.4-107.6,68.1-161.3c1.5-3.6,1.3-6.5,0.2-10.4
		c-1.9-7.5-6.2-8.2-12.6-8c-13,0.4-26,0.3-39.1,0c-4.4-0.1-6.4,1-6.9,5.6c-1,8.3-4.1,15.7-10.9,21.1c-6.4,5.2-13.8,6.9-22.4,6.4
		c0,90.8,0,181.2,0,272.1c1.6,0.1,3.3,0.2,5.1,0.2c15.8,0,31.6,0,47.4,0c16,0,27.5,8.6,32.3,23.9c2.7,8.7,5.5,17.4,8,26.1
		c4,13.4-2.6,22.2-16.6,22.3c-69.5,0-139.1,0-208.6,0c-14.3,0-20.8-8.8-16.7-22.5c2.7-9,5.5-18,8.4-27c4.4-13.8,16.2-22.6,30.7-22.7
		c16-0.1,31.9,0,47.9,0c1.8,0,3.6,0,5.8,0c0-90.7,0-181.1,0-272c-1.6-0.1-3.1-0.2-4.7-0.3c-14-0.6-24.7-9.5-27.7-23.1
		c-2.1-9.9-2.1-9.9-12.5-9.9c-13.4,0-26.7,0.1-40.1-0.1c-2.9,0-3.7,1.2-5.2,3.6c-4.7,7.5-1.9,13.8,1.1,20.8
		c21,49.4,41.5,98.9,62.8,148.1c4.5,10.3,4.9,20,2.2,30.3c-10.4,39.8-36.7,63.4-76.2,72.6c-41.9,9.7-86.7-9.4-108.5-45.4
		C5.4,339.9,1,326.5,0,312.2c-0.2-3.6,0.3-7.5,1.7-10.8C24.3,247.5,47,193.8,69.8,140c1.4-3.3,1.7-5.9-0.1-9.5
		c-8-16.3-0.9-36,15.4-44c16.3-8,36.1-1.5,44.2,14.8c1.7,3.3,3.5,4.3,7,4.3c14-0.2,28-0.1,42-0.1c1.6,0,3.2-0.2,5-0.2
		c-0.4-2.3-0.7-4.2-1-6.1c-2.2-12.6,5-21.4,17.9-21.5c16.4-0.1,32.9,0,49.3-0.1c15.8,0,31.6,0,47.4,0c16.3,0,23.2,8.4,19.9,24.4
		c-0.2,0.9-0.3,1.9-0.5,3.5c3.1,0,6,0,8.9,0c12.9,0,25.7-0.1,38.6,0.1c3.1,0,4.8-0.8,6.3-3.8c8.3-16.9,28.3-23.5,44.9-15.1
		c16.3,8.3,22.9,28.1,14.6,44.7c-1.3,2.6-1.3,4.6-0.2,7.2c22.9,54,45.7,108.1,68.5,162.2c0.5,1.3,1.4,2.4,2.1,3.6
		C500,307.7,500,311,500,314.2z M84.9,146.9c-22.3,52.6-44.5,105.4-67,158.4c54.9,0,108.9,0,163.5,0c-22.4-53-44.6-105.7-66.8-158.3
		C97.9,151.2,99.3,150.6,84.9,146.9z M481.6,305.3c-22.5-53.3-44.7-105.9-67-158.9c-10.1,4.6-19.7,4.2-29.5,0.1
		c-22.5,53.2-44.7,105.8-67.1,158.8C372.8,305.3,426.9,305.3,481.6,305.3z M144.7,482.9c70.5,0,140.2,0,210.3,0
		c-2.6-8.7-5.1-16.9-7.6-25.1c-3.1-10-7.7-13.5-18.1-13.5c-33.4,0-66.7,0-100.1,0c-20,0-40.1,0-60.1,0c-6.8,0-12.5,2.6-14.9,9
		C150.5,462.9,147.9,472.8,144.7,482.9z M18.8,322.3c5.3,30,38.4,63.1,84.7,60.9c38.2-1.8,76.9-33,76.8-60.9
		C126.5,322.3,72.7,322.3,18.8,322.3z M318.9,322.3c5.5,29.2,36.6,61.8,82.7,61c38.3-0.6,76.3-30.1,79.1-61
		C426.9,322.3,373.1,322.3,318.9,322.3z M260.5,427.4c0-90.8,0-181.2,0-271.8c-7.3,0-14.3,0-21.4,0c0,90.7,0,181.1,0,271.8
		C246.3,427.4,253.2,427.4,260.5,427.4z M198.3,94.5c2.6,12.3,5.1,24.1,7.8,35.8c1.1,4.8,5.7,8.3,10.9,8.3c22,0.1,44,0.1,65.9,0
		c5.6,0,9.7-3.7,11-9.3c1.1-4.4,2-8.9,2.9-13.3c1.5-7.1,3-14.1,4.5-21.4C266.7,94.5,232.9,94.5,198.3,94.5z M116.3,116.4
		c0-9.3-7.4-16.6-16.8-16.5c-9.1,0.1-16.4,7.4-16.5,16.4c-0.1,9.1,7.6,16.8,16.7,16.9C108.9,133.3,116.4,125.7,116.3,116.4z
		 M383.3,116.6c0.1,9.2,7.7,16.8,16.9,16.6c9-0.2,16.4-7.7,16.5-16.6c0.1-9.2-7.4-16.7-16.7-16.7
		C390.6,99.9,383.2,107.3,383.3,116.6z"/>
	<path class="st1" d="M144.7,482.9c3.2-10.2,5.8-20.1,9.4-29.6c2.4-6.4,8.1-9,14.9-9c20,0,40.1,0,60.1,0c33.4,0,66.7,0,100.1,0
		c10.4,0,15,3.5,18.1,13.5c2.5,8.2,5,16.5,7.6,25.1C284.8,482.9,215.1,482.9,144.7,482.9z"/>
	<path class="st2" d="M18.8,322.3c53.9,0,107.7,0,161.5,0c0.1,27.9-38.7,59.1-76.8,60.9C57.2,385.4,24.2,352.3,18.8,322.3z"/>
	<path class="st2" d="M318.9,322.3c54.1,0,108,0,161.8,0c-2.8,30.9-40.8,60.4-79.1,61C355.5,384,324.4,351.4,318.9,322.3z"/>
	<path class="st1" d="M260.5,427.4c-7.3,0-14.2,0-21.4,0c0-90.6,0-181.1,0-271.8c7.1,0,14.1,0,21.4,0
		C260.5,246.2,260.5,336.6,260.5,427.4z"/>
	<path class="st1" d="M198.3,94.5c34.6,0,68.4,0,103.1,0c-1.5,7.3-3,14.4-4.5,21.4c-1,4.4-1.8,8.9-2.9,13.3c-1.4,5.6-5.5,9.3-11,9.3
		c-22,0.1-44,0.1-65.9,0c-5.2,0-9.8-3.5-10.9-8.3C203.3,118.6,200.9,106.8,198.3,94.5z"/>
	<path class="st1" d="M116.3,116.4c0,9.2-7.5,16.8-16.6,16.8c-9.1,0-16.8-7.8-16.7-16.9c0.1-9,7.4-16.3,16.5-16.4
		C108.9,99.8,116.3,107.1,116.3,116.4z"/>
	<path class="st1" d="M383.3,116.6c-0.1-9.3,7.3-16.7,16.6-16.7c9.3,0,16.8,7.5,16.7,16.7c-0.1,8.9-7.5,16.4-16.5,16.6
		C391,133.4,383.4,125.9,383.3,116.6z"/>
</g>
</svg>
