<?xml version="1.0" encoding="utf-8"?>
<!-- Generator: Adobe Illustrator 23.0.3, SVG Export Plug-In . SVG Version: 6.00 Build 0)  -->
<svg version="1.1" id="Layer_1" xmlns="http://www.w3.org/2000/svg" xmlns:xlink="http://www.w3.org/1999/xlink" x="0px" y="0px"
	 viewBox="0 0 500 500" style="enable-background:new 0 0 500 500;" xml:space="preserve">
<style type="text/css">
	.st0{fill:#25D865;}
	.st1{fill:#008A37;}
	.st2{fill:#043A16;}
</style>
<path class="st0" d="M-1072.59-370.45c67.46,0,134.66,0,202.04,0c0,97.86,0,195.55,0,293.53c-67.22,0-134.5,0-202.04,0
	C-1072.59-174.6-1072.59-272.38-1072.59-370.45z M-971.63-279.87c-22.1,0-44.21,0.03-66.31-0.02c-5.27-0.01-9.27,2.02-11.45,6.85
	c-3.47,7.68,2.3,15.65,11.31,15.66c26.72,0.04,53.45,0.01,80.17,0.01c17.61,0,35.22-0.02,52.82,0.01c5.1,0.01,9-2.01,11.18-6.68
	c3.57-7.68-2.09-15.8-11.04-15.82C-927.17-279.9-949.4-279.87-971.63-279.87z M-971.54-212.37c22.1,0,44.21-0.02,66.31,0.02
	c5.26,0.01,9.27-2.04,11.43-6.88c3.37-7.57-2.27-15.6-10.98-15.61c-26.85-0.05-53.7-0.02-80.55-0.02c-17.61,0-35.22,0.02-52.82-0.01
	c-5.12-0.01-9,2.05-11.16,6.7c-3.56,7.66,2.14,15.77,11.09,15.79C-1016-212.33-993.77-212.37-971.54-212.37z M-971.56-189.87
	c-22.1,0-44.21,0.03-66.31-0.02c-5.26-0.01-9.28,1.97-11.49,6.79c-3.45,7.53,2.16,15.68,10.84,15.71
	c21.73,0.07,43.46,0.03,65.19,0.03c22.73,0,45.46-0.02,68.18,0.01c5.1,0.01,9.01-1.95,11.21-6.62c3.61-7.67-2.01-15.85-10.94-15.87
	C-927.11-189.9-949.33-189.87-971.56-189.87z M-1005.37-302.37c10.98,0,21.96,0.04,32.95-0.01c6.99-0.03,11.99-4.71,12.06-11.13
	c0.07-6.56-5.01-11.33-12.21-11.34c-21.84-0.03-43.68-0.03-65.52,0c-7.2,0.01-12.29,4.77-12.24,11.31
	c0.05,6.54,5.12,11.14,12.4,11.17C-1027.08-302.34-1016.23-302.37-1005.37-302.37z M-926.22-144.87c-7.36,0-14.72-0.04-22.08,0.01
	c-6.95,0.05-11.98,4.74-12.04,11.13c-0.06,6.41,4.95,11.31,11.83,11.34c14.59,0.06,29.19,0.06,43.78,0
	c6.91-0.03,11.9-4.89,11.85-11.32c-0.05-6.41-5.06-11.1-12.02-11.15C-912-144.91-919.11-144.87-926.22-144.87z"/>
<path class="st1" d="M-847.85-324.71c7.7,0,14.89,0,22.3,0c0,97.68,0,195.2,0,292.9c-67.34,0-134.52,0-202,0c0-7.23,0-14.52,0-22.31
	c1.38,0,2.83,0,4.28,0c53.86,0,107.72,0,161.57,0c9.78,0,13.85-4.08,13.85-13.88c0-83.85,0-167.7,0-251.55
	C-847.85-321.15-847.85-322.76-847.85-324.71z"/>
<g>
	<path class="st2" d="M-1042.1-9.12c-6.5-2.99-8.62-8.13-8.35-15.11c0.39-9.82,0.1-19.68,0.1-29.89c-10.82,0-21.28,0.02-31.74-0.02
		c-1.73-0.01-3.52-0.1-5.17-0.57c-4.72-1.35-7.75-5.27-8.06-10.14c-0.07-1.12-0.03-2.25-0.03-3.37c0-103.62,0-207.24,0-310.85
		c0-10.05,4-14.04,14.07-14.04c73.24,0,146.49,0,219.73,0c9.55,0,13.69,4.13,13.7,13.66c0.01,10.5,0,20.99,0,32.08
		c1.31,0,2.49,0,3.68,0c9.37,0,18.75-0.01,28.12,0c8.83,0.01,13.2,4.31,13.2,13.03c0.01,103.99-0.03,207.99,0.08,311.98
		c0.01,6.48-2.86,10.51-8.32,13.24C-888.1-9.12-965.1-9.12-1042.1-9.12z M-1072.59-370.45c0,98.07,0,195.84,0,293.53
		c67.54,0,134.82,0,202.04,0c0-97.99,0-195.67,0-293.53C-937.93-370.45-1005.13-370.45-1072.59-370.45z M-847.85-324.71
		c0,1.94,0,3.55,0,5.16c0,83.85,0,167.7,0,251.55c0,9.8-4.08,13.88-13.85,13.88c-53.86,0-107.72,0-161.57,0c-1.45,0-2.9,0-4.28,0
		c0,7.79,0,15.08,0,22.31c67.48,0,134.67,0,202,0c0-97.7,0-195.22,0-292.9C-832.96-324.71-840.16-324.71-847.85-324.71z"/>
	<path class="st2" d="M-971.63-279.87c22.23,0,44.46-0.03,66.68,0.02c8.95,0.02,14.61,8.14,11.04,15.82
		c-2.17,4.67-6.07,6.69-11.18,6.68c-17.61-0.03-35.22-0.01-52.82-0.01c-26.72,0-53.45,0.02-80.17-0.01
		c-9.01-0.01-14.78-7.98-11.31-15.66c2.18-4.83,6.18-6.86,11.45-6.85C-1015.83-279.84-993.73-279.87-971.63-279.87z"/>
	<path class="st2" d="M-971.54-212.37c-22.23,0-44.46,0.03-66.68-0.02c-8.95-0.02-14.65-8.13-11.09-15.79
		c2.16-4.66,6.04-6.71,11.16-6.7c17.61,0.03,35.22,0.01,52.82,0.01c26.85,0,53.7-0.03,80.55,0.02c8.72,0.02,14.36,8.04,10.98,15.61
		c-2.16,4.85-6.16,6.89-11.43,6.88C-927.34-212.39-949.44-212.37-971.54-212.37z"/>
	<path class="st2" d="M-971.56-189.87c22.23,0,44.46-0.04,66.68,0.02c8.93,0.02,14.55,8.21,10.94,15.87
		c-2.2,4.67-6.12,6.63-11.21,6.62c-22.73-0.03-45.46-0.01-68.18-0.01c-21.73,0-43.46,0.05-65.19-0.03
		c-8.69-0.03-14.29-8.18-10.84-15.71c2.21-4.82,6.23-6.8,11.49-6.79C-1015.77-189.84-993.66-189.87-971.56-189.87z"/>
	<path class="st2" d="M-1005.37-302.37c-10.86,0-21.71,0.02-32.57-0.01c-7.28-0.02-12.35-4.63-12.4-11.17
		c-0.05-6.54,5.04-11.31,12.24-11.31c21.84-0.03,43.68-0.03,65.52,0c7.2,0.01,12.28,4.79,12.21,11.34
		c-0.07,6.42-5.07,11.1-12.06,11.13C-983.41-302.33-994.39-302.37-1005.37-302.37z"/>
	<path class="st2" d="M-926.22-144.87c7.11,0,14.22-0.04,21.33,0.01c6.97,0.05,11.98,4.74,12.02,11.15
		c0.05,6.43-4.95,11.29-11.85,11.32c-14.59,0.06-29.19,0.06-43.78,0c-6.88-0.03-11.89-4.92-11.83-11.34
		c0.06-6.39,5.09-11.09,12.04-11.13C-940.94-144.9-933.58-144.87-926.22-144.87z"/>
</g>
<path class="st2" d="M-682.84,579.84c-89.07,0-178.13,0-267.2,0c-7.14-2.86-9.84-8.25-9.51-15.75c0.29-6.52,0.06-13.06,0.06-19.6
	c0-2.2,0-4.4,0-6.87c-10.79,0-20.9,0.01-31.01,0c-10.49-0.02-14.85-4.34-14.85-14.74c-0.01-112.65-0.01-225.31,0-337.96
	c0-10.16,4.49-14.67,14.57-14.67c31.6-0.01,63.19,0,94.79,0c53.99,0,107.99-0.01,161.98,0.01c9.28,0,14.08,4.75,14.2,13.96
	c0.04,3.07,0.01,6.13,0.01,9.2c0,6.22,0,12.44,0,19.05c1.96,0,3.4,0,4.83,0c9.47,0,18.93-0.09,28.4,0.04
	c7.68,0.11,12.4,4.92,12.62,12.52c0.03,1.07,0.02,2.13,0.02,3.2c0,111.85-0.05,223.71,0.11,335.56
	C-673.8,571.28-675.96,576.66-682.84,579.84z M-698.57,555.11c0-106.1,0-212.01,0-318.04c-78.86,0-157.44,0-236.03,0
	c0,106.19,0,212.1,0,318.04C-855.8,555.11-777.31,555.11-698.57,555.11z M-959.49,513.08c0-2.21,0-3.93,0-5.66
	c0-92.93,0.07-185.85-0.1-278.78c-0.02-9.35,3.45-16.39,16.44-16.33c64.53,0.31,129.06,0.14,193.58,0.14c1.66,0,3.31,0,4.93,0
	c0-6.24,0-11.79,0-17.39c-78.82,0-157.39,0-236.01,0c0,106.19,0,212.09,0,318.01C-973.52,513.08-966.76,513.08-959.49,513.08z"/>
<path class="st0" d="M-698.57,555.11c-78.74,0-157.24,0-236.03,0c0-105.94,0-211.85,0-318.04c78.59,0,157.17,0,236.03,0
	C-698.57,343.11-698.57,449.01-698.57,555.11z M-821.27,345.75c0-1.69,0-2.74,0-3.79c0-13.73,0.04-27.47-0.02-41.2
	c-0.04-8.91-5.68-14.04-14.6-13.45c-1.73,0.11-3.46,0.26-5.18,0.42c-36.05,3.22-64.82,36.45-63.26,72.63
	c1.85,42.86,40.05,73.88,81.82,67.63c33.37-4.99,60.33-35.97,59.7-69.76c-0.12-6.76-4.41-11.65-11.23-12.25
	c-4.37-0.38-8.79-0.21-13.19-0.22C-798.4,345.74-809.58,345.75-821.27,345.75z M-811.94,294.8c0,9.59-0.12,19.19,0.04,28.78
	c0.13,8.07,5.03,12.92,13.08,12.96c18.92,0.09,37.85,0.1,56.77,0c8.2-0.04,13.12-5.31,12.98-13.43
	c-0.66-37.67-30.47-68.09-68.16-69.56c-9.68-0.38-14.65,4.32-14.71,14.07C-812,276.67-811.95,285.73-811.94,294.8z M-818.28,480.53
	c27.31,0,54.62,0.01,81.93-0.03c2.11,0,4.29-0.13,6.32-0.65c5.26-1.36,8.77-6.08,8.83-11.46c0.06-5.41-3.3-10.24-8.5-11.71
	c-2.14-0.6-4.46-0.73-6.7-0.74c-54.49-0.04-108.98-0.03-163.46-0.02c-1.46,0-2.95-0.05-4.39,0.16c-6.47,0.93-10.81,5.98-10.72,12.36
	c0.1,7.29,5.54,12.07,13.96,12.08C-873.43,480.55-845.86,480.53-818.28,480.53z M-818.39,527.23c27.17,0,54.35,0,81.52,0
	c1.6,0,3.2,0.02,4.79-0.13c5.84-0.54,10.39-5.18,10.84-10.96c0.46-6.02-3.36-11.58-9.1-12.87c-1.92-0.43-3.97-0.36-5.96-0.36
	c-54.48-0.02-108.96-0.01-163.45-0.01c-1.46,0-2.94-0.02-4.39,0.12c-6,0.55-10.56,5.38-10.81,11.37
	c-0.32,7.71,4.91,12.81,13.44,12.83C-873.8,527.26-846.1,527.23-818.39,527.23z"/>
<path class="st1" d="M-959.49,513.08c-7.28,0-14.03,0-21.15,0c0-105.92,0-211.81,0-318.01c78.61,0,157.19,0,236.01,0
	c0,5.6,0,11.14,0,17.39c-1.62,0-3.28,0-4.93,0c-64.53,0-129.06,0.17-193.58-0.14c-12.99-0.06-16.46,6.98-16.44,16.33
	c0.17,92.93,0.1,185.85,0.1,278.78C-959.49,509.15-959.49,510.87-959.49,513.08z"/>
<path class="st2" d="M-821.27,345.75c11.68,0,22.86-0.02,34.04,0.01c4.4,0.01,8.82-0.16,13.19,0.22c6.82,0.6,11.1,5.49,11.23,12.25
	c0.62,33.79-26.34,64.77-59.7,69.76c-41.76,6.25-79.97-24.77-81.82-67.63c-1.56-36.18,27.21-69.41,63.26-72.63
	c1.73-0.15,3.45-0.3,5.18-0.42c8.92-0.59,14.56,4.54,14.6,13.45c0.06,13.73,0.02,27.47,0.02,41.2
	C-821.27,343.02-821.27,344.07-821.27,345.75z M-845.83,313.89c-20.4,3.89-35.5,25.84-33.79,48.67c1.7,22.62,21.47,41,44.95,41.79
	c20.65,0.69,42.51-15.65,45.24-34.09c-1.48,0-2.92,0-4.36,0c-12.65,0-25.3,0.02-37.95-0.01c-9.24-0.02-14.01-4.75-14.07-14.03
	c-0.06-9.32-0.02-18.64-0.02-27.96C-845.83,323.5-845.83,318.73-845.83,313.89z"/>
<path class="st2" d="M-811.95,294.8c-0.01-9.06-0.05-18.12,0.01-27.18c0.06-9.75,5.02-14.45,14.71-14.07
	c37.69,1.47,67.5,31.89,68.16,69.56c0.14,8.13-4.77,13.39-12.98,13.43c-18.92,0.1-37.85,0.1-56.77,0
	c-8.05-0.04-12.95-4.89-13.08-12.96C-812.06,313.99-811.94,304.39-811.95,294.8z M-755.8,311.71c-1.25-12.95-17.44-29.18-31.57-31.6
	c0,10.47,0,20.91,0,31.6C-776.72,311.71-766.26,311.71-755.8,311.71z"/>
<path class="st2" d="M-818.28,480.53c-27.58,0-55.15,0.02-82.73-0.01c-8.43-0.01-13.86-4.78-13.96-12.08
	c-0.09-6.38,4.24-11.43,10.72-12.36c1.44-0.21,2.92-0.16,4.39-0.16c54.49-0.01,108.98-0.01,163.46,0.02c2.24,0,4.56,0.13,6.7,0.74
	c5.21,1.47,8.57,6.3,8.5,11.71c-0.06,5.38-3.57,10.1-8.83,11.46c-2.03,0.53-4.21,0.65-6.32,0.65
	C-763.66,480.55-790.97,480.53-818.28,480.53z"/>
<path class="st2" d="M-818.39,527.23c-27.71,0-55.41,0.03-83.12-0.02c-8.53-0.02-13.76-5.12-13.44-12.83
	c0.25-5.99,4.81-10.82,10.81-11.37c1.46-0.13,2.93-0.12,4.39-0.12c54.48-0.01,108.96-0.01,163.45,0.01c1.99,0,4.04-0.07,5.96,0.36
	c5.73,1.29,9.56,6.85,9.1,12.87c-0.44,5.78-5,10.42-10.84,10.96c-1.59,0.15-3.19,0.13-4.79,0.13
	C-764.04,527.23-791.22,527.23-818.39,527.23z"/>
<path class="st1" d="M-845.83,313.89c0,4.84,0,9.61,0,14.38c0,9.32-0.05,18.64,0.02,27.96c0.06,9.28,4.83,14.01,14.07,14.03
	c12.65,0.03,25.3,0.01,37.95,0.01c1.44,0,2.88,0,4.36,0c-2.73,18.44-24.59,34.78-45.24,34.09c-23.49-0.79-43.26-19.17-44.95-41.79
	C-881.33,339.74-866.24,317.78-845.83,313.89z"/>
<path class="st1" d="M-755.8,311.71c-10.47,0-20.92,0-31.57,0c0-10.68,0-21.13,0-31.6C-773.23,282.53-757.04,298.77-755.8,311.71z"
	/>
<path class="st2" d="M454.71,431.26c-1.01-22.62-11.26-40.01-30.17-52.23c-3.15-2.03-4.26-4.08-4.25-7.78
	c0.13-49.15,0.29-98.31-0.06-147.46c-0.08-11.98-0.68-24.21-3.21-35.86C402.95,123.1,364.25,79.56,301.8,57.19
	c-7.75-2.78-7.87-2.56-7.9-10.82c-0.05-15.37-4.97-28.75-17.98-37.51c-6.13-4.13-13.8-5.98-20.77-8.86c-3.26,0-6.51,0-9.77,0
	c-7.65,1.66-15.08,3.78-21.45,8.67c-13.09,10.07-18.36,23.63-17.56,39.74c0.21,4.18-1.17,5.87-5.19,6.95
	c-21.81,5.86-41.62,15.98-59.07,30.18c-43.73,35.58-65.58,81.8-65.67,138.19c-0.09,49.97-0.05,99.93,0.06,149.9
	c0.01,3.3-1.03,5.25-3.71,7.14c-16.24,11.42-25.28,27.19-27.32,46.9c-1.15,11.14,2.39,14.88,13.57,14.88c44.43,0,88.86,0,133.3,0
	c1.89,0,3.77,0,6.2,0c-1.09,15.46,2.98,28.65,12.9,39.78c10.03,11.24,22.59,17.33,37.71,17.65c13.45,0.29,25.19-4.34,35.17-13.27
	c12.98-11.6,18.2-26.5,17.52-44.16c2.39,0,4.3,0,6.21,0c44.92,0,89.84,0.01,134.76-0.01C451.08,442.54,455.04,438.78,454.71,431.26z
	 M237.35,23.2c8.71-5.3,17.77-5.06,26.24,0.52c8.57,5.64,11.3,14.16,10.56,24.47c-16.03,0-31.86,0-48.13,0
	C225.06,37.42,228.19,28.77,237.35,23.2z M96.01,223.5c0.22-54.07,22.13-97.44,66.37-128.5c32.64-22.92,69.47-31.35,108.96-24.89
	c55.11,9.02,93.92,39.96,117.11,90.41c9.08,19.76,12.47,40.92,12.42,62.68c-0.1,50.34,0.07,100.68-0.15,151.02H269.28
	c-0.79-0.06-1.61-0.1-2.48-0.1c-54.84,0-109.69,0-164.53,0c-1.92,0-3.83,0-6.3,0c0-2.14,0-3.88,0-5.61
	C95.97,320.17,95.81,271.84,96.01,223.5z M267.99,474.84c-11.31,7.53-23.38,7.82-34.94,0.59c-11.76-7.35-16.08-18.59-14.92-32.53
	c21.19,0,42.26,0,64.01,0C282.94,456.25,279.17,467.4,267.99,474.84z M66.05,422.72c3.43-12.89,10.63-22.27,21.89-28.41
	c1.55-0.85,3.78-0.63,5.69-0.63c57.77-0.03,115.55-0.02,173.32-0.02c0.76,0,1.47-0.03,2.16-0.07h141.56
	c12.17,5.7,19.71,15.69,23.39,29.13C311.34,422.72,189.05,422.72,66.05,422.72z"/>
</svg>
