<?xml version="1.0" encoding="utf-8"?>
<!-- Generator: Adobe Illustrator 23.0.3, SVG Export Plug-In . SVG Version: 6.00 Build 0)  -->
<svg version="1.1" id="Layer_1" xmlns="http://www.w3.org/2000/svg" xmlns:xlink="http://www.w3.org/1999/xlink" x="0px" y="0px"
	 viewBox="0 0 500 500" style="enable-background:new 0 0 500 500;" xml:space="preserve">
<style type="text/css">
	.st0{fill:#043A16;}
</style>
<path class="st0" d="M500,446.3c-3.1,8.3-8,14.9-17.2,16.9c-2.2,0.5-4.5,0.6-6.8,0.6c-61.8,0-123.7,0-185.5,0
	c-14.5,0-23.9-9.3-23.9-23.7c0-43.3,0-86.6,0-129.9c0-14.9,9.2-24.1,24-24.1c26.2,0,52.4,0,78.6,0c1.8,0,3.5,0,5.5,0
	c0-8.5,0-16.5,0-24.8c-83.2,0-166.1,0-249.4,0c0,8.2,0,16.2,0,24.8c1.7,0,3.5,0,5.2,0c26.2,0,52.4,0,78.6,0
	c15.1,0,24.2,9.2,24.2,24.4c0,43,0,85.9,0,128.9c0,15.4-9.1,24.4-24.7,24.5c-61.4,0-122.7,0-184.1,0c-15.6,0-24.6-9-24.6-24.4
	c0-43,0-85.9,0-128.9c0-15.5,9.1-24.4,24.7-24.4c25.9,0,51.8,0,77.6,0c1.8,0,3.6,0,6.1,0c0-6,0-11.8,0-17.6c0-2.6,0-5.2,0-7.8
	c0.1-11.1,5.3-16.3,16.5-16.4c22.5,0,44.9,0,67.4,0c14.5,0,29,0,43.4,0c1.8,0,3.5,0,5.6,0c0-8.4,0-16.3,0-24.8c-2,0-3.9,0-5.7,0
	c-29.1,0-58.3,0-87.4,0c-17.4,0-26-8.7-26-26.2c0-43.9,0-87.9,0-131.8c0-16.6,8.8-25.4,25.2-25.4c68.5,0,137,0,205.5,0
	c16.1,0,25,8.9,25,25.2c0,44.4,0,88.8,0,133.3c0,15.8-9.1,24.9-24.8,25c-29.5,0.1-58.9,0-88.4,0c-1.9,0-3.8,0-6,0
	c0,8.4,0,16.3,0,24.8c2,0,3.9,0,5.8,0c36.5,0,72.9,0,109.4,0c12.9,0,17.8,4.8,17.8,17.6c0,7.5,0,15,0,22.5c0,0.3,0.1,0.6,0.3,1.7
	c1.5,0,3.3,0,5,0c25.1,0,50.1,0.4,75.2-0.2c13.8-0.3,23.2,4.5,27.9,17.7C500,351.2,500,398.8,500,446.3z M138.8,91.9
	c0,1.9,0,3.2,0,4.4c0,32.6,0,65.1,0,97.6c0,7.2,1.7,8.8,9,8.8c68.2,0,136.4,0,204.6,0c7.2,0,8.8-1.7,8.8-9c0-32.4,0-64.8,0-97.2
	c0-1.6,0-3.1,0-4.7C286.8,91.9,213.1,91.9,138.8,91.9z M16.6,342.1c0,1.8,0,3.2,0,4.6c0,30.6,0,61.1,0,91.7c0,7.3,1.5,8.8,8.8,8.8
	c60.8,0,121.6,0,182.5,0c7.2,0,8.8-1.6,8.8-8.9c0-30.4,0-60.8,0-91.2c0-1.6,0-3.2,0-5C150,342.1,83.7,342.1,16.6,342.1z
	 M483.4,342.2c-67.1,0-133.5,0-200.1,0c0,1.9,0,3.3,0,4.8c0,30.4,0,60.8,0,91.2c0,7.6,1.5,9,9.1,9c60.7,0,121.3,0,182,0
	c7.6,0,9-1.4,9-9.2c0-23.1,0-46.2,0-69.3C483.4,360,483.4,351.2,483.4,342.2z M361.2,74.9c0-4.6,0-8.6,0-12.7c0-8-1.4-9.4-9.2-9.4
	c-68,0-136,0-204,0c-1.3,0-2.9-0.4-3.8,0.2c-1.9,1.2-4.7,2.8-4.9,4.5c-0.6,5.7-0.2,11.5-0.2,17.5C213.2,74.9,286.8,74.9,361.2,74.9z
	 M16.7,324.8c67.1,0,133.4,0,200,0c0-4.6,0-8.8,0-13c0-7.6-1.5-9-9.1-9c-60.5,0-121.1,0-181.6,0c-1.3,0-3-0.5-3.8,0.1
	c-2,1.5-4.9,3.3-5.2,5.3C16.2,313.6,16.7,319.2,16.7,324.8z M283.3,324.8c67,0,133.4,0,200.1,0c0-4.8,0-9.1,0-13.5
	c0-6.9-1.6-8.5-8.7-8.5c-25.7,0-51.4,0-77.1,0c-35.3,0-70.6,0-105.9,0c-6.6,0-8.3,1.7-8.3,8.4C283.3,315.6,283.3,320,283.3,324.8z"
	/>
</svg>
