<?xml version="1.0" encoding="utf-8"?>
<!-- Generator: Adobe Illustrator 23.0.3, SVG Export Plug-In . SVG Version: 6.00 Build 0)  -->
<svg version="1.1" id="Layer_1" xmlns="http://www.w3.org/2000/svg" xmlns:xlink="http://www.w3.org/1999/xlink" x="0px" y="0px"
	 viewBox="0 0 500 500" style="enable-background:new 0 0 500 500;" xml:space="preserve">
<style type="text/css">
	.st0{fill:#BDD29A;}
	.st1{fill:#83951D;}
	.st2{fill:#465E14;}
</style>
<g>
	<path class="st0" d="M500,278.3c0,26.7,0,53.4,0,80.1c-0.5,1.3-1.2,2.6-1.6,3.9c-2.9,9.1-8.7,16-17.3,20.1
		c-3.1,1.5-3.8,3.1-3.8,6.3c0.1,20.8,0.1,41.7,0,62.5c0,4.7-0.3,9.5-1.5,14c-6,22.1-23,34.8-46.4,34.8c-127.1,0-254.2,0-381.3,0
		c-4.5,0-9.2-0.4-13.5-1.5C12.8,492.5,0,475.3,0,452.2c0-89.4,0-178.7,0-268c0-4.5,0.4-9.2,1.6-13.5c6-21.5,22.5-33.9,45.4-34.2
		c10.9-0.1,21.8,0.1,32.7-0.1c3.1-0.1,6.4-0.9,9.1-2.5c50.8-29.4,101.3-59.3,152.3-88.3c27.4-15.6,53.2-34.4,83.1-45.5
		c3.9,0,7.8,0,11.7,0c19.8,3.1,31,16.1,40.2,32.7c18.5,33.6,38,66.6,56.9,100c1.7,3,3.7,4.5,7.1,5c7.8,1,14.5,4.5,20.5,9.4
		c11.8,9.7,16.7,22.5,16.7,37.4c0,21.1,0.1,42.3,0,63.4c0,3,1.1,4.3,3.5,6c4.8,3.2,9.5,6.9,13,11.3C496.8,268.9,498,273.9,500,278.3
		z M454.2,386.4c-3,0-5.7,0-8.4,0c-22.1-0.2-44.3,0.6-66.4-0.7c-37-2.3-65.9-38.8-60.8-75.2c5-35.9,33-60.3,69.4-60.4
		c20.3-0.1,40.7,0,61,0c1.7,0,3.4,0,5.2,0c0-24,0-47.3,0-70.5c0-1.3-0.3-2.6-0.6-3.8c-3-10.7-11.7-16.5-24.6-16.5
		c-126.6,0-253.2,0-379.8,0c-17.6,0-26.5,8.9-26.5,26.4c0,88.4,0,176.7,0,265.1c0,17.8,8.9,26.8,26.7,26.8c126.3,0,252.5,0,378.8,0
		c17.3,0,26.3-8.8,26.3-26c0-19.9,0-39.7,0-59.6C454.5,390.2,454.3,388.6,454.2,386.4z M423.7,363.4c0,0.1,0,0.1,0,0.2
		c13,0,26,0,39,0c10.3,0,14.5-4.2,14.5-14.5c0-20.7,0-41.3,0-62c0-10.1-4.4-14.4-14.6-14.5c-24.6,0-49.1-0.3-73.7,0.2
		c-7,0.1-14.5,1.3-20.8,4c-19.8,8.4-30.1,29-26.3,50.3c3.5,19.7,21.2,35.1,42.4,36.1C397.4,363.9,410.6,363.4,423.7,363.4z
		 M131.9,135.3c0.1,0.4,0.1,0.8,0.2,1.2c12.8,0,25.6,0.1,38.3-0.1c2.6,0,5.5-0.8,7.8-2.1c56.1-32.5,112.1-65.2,168.1-97.8
		c1.3-0.8,2.6-1.6,3.9-2.5c-7.6-11.8-19.7-14.4-32.2-7.1c-46.6,27.1-93.2,54.3-139.9,81.4C162.7,117.3,147.3,126.3,131.9,135.3z
		 M221.7,135.4c0.1,0.4,0.3,0.7,0.5,1.1c12.5,0,25,0.2,37.5-0.1c3.1-0.1,6.5-0.9,9.1-2.4c33.4-19.2,66.6-38.6,99.9-58
		c1.4-0.8,2.6-1.7,4.2-2.7c-3.8-6.6-7.4-12.8-11.2-19.4C314.7,81.2,268.2,108.3,221.7,135.4z M384.3,93.1
		c-24.6,14.3-48.6,28.3-73.7,42.9c33.5,0,65.5,0,98.2,0C400.5,121.5,392.5,107.6,384.3,93.1z"/>
	<path class="st1" d="M454.2,386.4c0.1,2.2,0.3,3.8,0.3,5.3c0,19.9,0,39.7,0,59.6c0,17.2-9,26-26.3,26c-126.3,0-252.6,0-378.8,0
		c-17.8,0-26.7-8.9-26.7-26.8c0-88.4,0-176.7,0-265.1c0-17.5,8.9-26.4,26.5-26.4c126.6,0,253.2,0,379.8,0c12.9,0,21.6,5.9,24.6,16.5
		c0.4,1.2,0.6,2.6,0.6,3.8c0,23.3,0,46.5,0,70.5c-1.7,0-3.5,0-5.2,0c-20.3,0-40.7-0.1-61,0c-36.4,0.1-64.4,24.5-69.4,60.4
		c-5.1,36.4,23.9,73,60.8,75.2c22,1.4,44.2,0.6,66.4,0.7C448.5,386.4,451.2,386.4,454.2,386.4z"/>
	<path class="st2" d="M423.7,363.4c-13.2,0-26.4,0.5-39.5-0.1c-21.2-1-38.8-16.4-42.4-36.1c-3.8-21.3,6.5-41.9,26.3-50.3
		c6.4-2.7,13.8-3.9,20.8-4c24.6-0.5,49.1-0.2,73.7-0.2c10.2,0,14.6,4.3,14.6,14.5c0,20.7,0,41.3,0,62c0,10.3-4.2,14.4-14.5,14.5
		c-13,0-26,0-39,0C423.7,363.5,423.7,363.4,423.7,363.4z M386.1,340.8c12.5,0.1,22.8-10,22.9-22.4c0.2-12.4-10-22.7-22.5-22.8
		c-12.5-0.1-22.7,9.8-22.9,22.4C363.5,330.3,373.8,340.7,386.1,340.8z"/>
	<path class="st2" d="M131.9,135.3c15.4-9,30.9-17.9,46.3-26.9C224.8,81.2,271.4,54,318,26.9c12.5-7.3,24.5-4.7,32.2,7.1
		c-1.3,0.8-2.5,1.7-3.9,2.5c-56,32.6-112.1,65.3-168.1,97.8c-2.3,1.3-5.1,2-7.8,2.1c-12.8,0.2-25.6,0.1-38.3,0.1
		C132,136.1,131.9,135.7,131.9,135.3z"/>
	<path class="st2" d="M221.7,135.4c46.5-27.1,93-54.2,140-81.5c3.8,6.5,7.4,12.8,11.2,19.4c-1.6,1-2.8,1.9-4.2,2.7
		c-33.3,19.4-66.5,38.8-99.9,58c-2.6,1.5-6,2.4-9.1,2.4c-12.5,0.3-25,0.1-37.5,0.1C222,136.1,221.9,135.7,221.7,135.4z"/>
	<path class="st2" d="M384.3,93.1c8.3,14.4,16.2,28.4,24.5,42.9c-32.7,0-64.8,0-98.2,0C335.7,121.4,359.7,107.4,384.3,93.1z"/>
	<path class="st1" d="M386.1,340.8c-12.4-0.1-22.6-10.5-22.5-22.9c0.2-12.5,10.4-22.5,22.9-22.4c12.5,0.1,22.7,10.4,22.5,22.8
		C408.9,330.8,398.6,340.9,386.1,340.8z"/>
</g>
</svg>
