<?xml version="1.0" encoding="utf-8"?>
<!-- Generator: Adobe Illustrator 23.0.3, SVG Export Plug-In . SVG Version: 6.00 Build 0)  -->
<svg version="1.1" id="Layer_1" xmlns="http://www.w3.org/2000/svg" xmlns:xlink="http://www.w3.org/1999/xlink" x="0px" y="0px"
	 viewBox="0 0 500 500" style="enable-background:new 0 0 500 500;" xml:space="preserve">
<style type="text/css">
	.st0{fill:#043A16;}
</style>
<g>
	<path class="st0" d="M0,223.5c0.9-2.1,1.6-4.2,2.6-6.2c5.1-10.4,13.4-16.2,25.1-16.4c11-0.2,22.1-0.1,33.4-0.1
		c2.4-13.8,4.8-27.2,7.2-40.6c5.3-30.4,10.5-60.9,15.9-91.3c2.9-16.3,17-26.8,33.4-24.2c25,4,50,8.7,74.9,13.2
		C251.9,68.4,311.3,79,370.6,89.6c35.1,6.3,70.1,12.4,105.2,18.8c17.3,3.2,26.7,17.7,23.6,36c-10.8,62.8-21.7,125.6-32.8,188.4
		c-3.6,20.5-17.3,29.7-37.7,26c-2.1-0.4-4.2-0.6-6.9-1c0,2,0,3.8,0,5.5c0,20.5,0,41,0,61.5c0,19.1-11.6,30.9-30.7,30.9
		c-120.1,0.1-240.3,0-360.4,0c-16.2,0-26.1-8.1-30.9-23.1C0,362.9,0,293.2,0,223.5z M211.1,439.5c59.8,0,119.5,0,179.3,0
		c11.3,0,15.4-4,15.4-15.2c0-64,0-128,0-191.9c0-11.4-4.2-15.5-15.6-15.5c-119.5,0-239,0-358.5,0c-11.1,0-15.4,4.2-15.4,15.3
		c0,64,0,128,0,192c0,11.4,4.1,15.4,15.7,15.4C91.6,439.5,151.4,439.5,211.1,439.5z M77.6,200.8c2.8,0,4.9,0,7,0
		c102.1,0,204.1,0.2,306.2-0.2c18.6-0.1,31.7,13.4,31.4,31.3c-0.5,32.4-0.1,64.8-0.1,97.2c0,13.5,0,13.5,13.7,14
		c9,0.3,13.3-3.1,14.8-11.9c6.4-36.7,12.9-73.4,19.3-110c2-11.1,3.8-22.3,5.8-33.8C347.5,164.6,220,141.8,91.8,119
		C87.1,146.2,82.4,173.2,77.6,200.8z M478.4,171.5c1.9-10.8,3.9-21.2,5.3-31.6c1.2-8.8-3.1-14.3-11.9-15.9
		c-29.6-5.3-59.2-10.5-88.8-15.8c-56-10-112-20-168.1-30c-32.8-5.9-65.6-11.7-98.4-17.5c-7.5-1.3-14.1,2.1-15.7,9
		c-2.4,10.9-4.1,22-6.2,33.4C222.6,125.9,350.3,148.6,478.4,171.5z"/>
	<path class="st0" d="M93.7,365.3c-9.6,0-19.2,0.1-28.8,0c-11.9-0.1-20.3-8.3-20.7-20.1c-0.2-7.6-0.2-15.3,0-22.9
		c0.3-11.8,8.8-20.3,20.5-20.4c19.2-0.2,38.4-0.2,57.6,0c12.1,0.1,20.4,8.5,20.6,20.7c0.1,7.5,0.1,15,0,22.5
		c-0.2,11.9-8.5,20.1-20.4,20.3C112.9,365.4,103.3,365.3,93.7,365.3z M93.6,318.1c-8.9,0-17.9,0.1-26.8-0.1
		c-4.5-0.1-6.6,1.4-6.4,6.2c0.2,6.3,0.2,12.7,0,19c-0.1,4.5,1.8,6.1,6.1,6.1c18.1-0.1,36.1-0.1,54.2,0c4.6,0,6.4-2,6.3-6.5
		c-0.2-5.9,0-11.7-0.1-17.6c0-6.4-0.7-7.1-6.9-7.1C111.2,318.1,102.4,318.1,93.6,318.1z"/>
	<path class="st0" d="M254.8,407.2c-7.3,0-14.7,0.1-22,0c-5.5-0.1-9.1-3.4-9-8.1c0.1-4.5,3.4-7.8,8.8-7.9c15-0.1,30-0.1,44.9,0
		c5.3,0,8.7,3.3,8.8,7.9c0.1,4.7-3.5,8.1-9,8.1C269.8,407.3,262.3,407.2,254.8,407.2z"/>
	<path class="st0" d="M343.2,407.2c-7.3,0-14.6,0.1-22,0c-5.5-0.1-9.2-3.3-9.3-7.9c-0.1-4.7,3.5-8,9.1-8.1c14.8-0.1,29.6-0.1,44.5,0
		c5.7,0,9,3.2,8.9,8.1c-0.1,4.9-3.5,7.8-9.2,7.9C357.8,407.3,350.5,407.2,343.2,407.2z"/>
	<path class="st0" d="M167.1,407.2c-7.3,0-14.6,0-22,0c-6-0.1-9.4-3.2-9.3-8.3c0.1-4.8,3.4-7.8,9.3-7.8c14.5-0.1,29-0.1,43.5,0
		c6,0,9.7,3.1,9.7,8c0,4.8-3.8,8-9.6,8.1C181.4,407.3,174.2,407.2,167.1,407.2z"/>
	<path class="st0" d="M78.8,407.2c-7.3,0-14.7,0.1-22,0c-5.7-0.1-9.1-3-9.1-7.9c-0.1-4.9,3.2-8.1,8.9-8.1c14.8-0.1,29.6-0.1,44.4,0
		c5.6,0,9.1,3.4,9,8.1c-0.1,4.7-3.7,7.9-9.2,7.9C93.4,407.3,86.1,407.2,78.8,407.2z"/>
</g>
</svg>
