<?xml version="1.0" encoding="utf-8"?>
<!-- Generator: Adobe Illustrator 23.0.3, SVG Export Plug-In . SVG Version: 6.00 Build 0)  -->
<svg version="1.1" id="Layer_1" xmlns="http://www.w3.org/2000/svg" xmlns:xlink="http://www.w3.org/1999/xlink" x="0px" y="0px"
	 viewBox="0 0 500 500" style="enable-background:new 0 0 500 500;" xml:space="preserve">
<style type="text/css">
	.st0{fill:#BDD29A;}
	.st1{fill:#83951D;}
	.st2{fill:#465E14;}
</style>
<g>
	<path class="st0" d="M0.5,359.2c3-6.1,7.9-8.2,14.6-8.1c16.4,0.3,32.8,0.1,49.2,0.1c1.8,0,3.5,0,6.1,0c0-2.4,0-4.4,0-6.5
		c0.6-90.4,1.3-180.8,1.8-271.2c0.1-17.8,6.6-32.2,20.7-42.9c10-7.6,21.5-10.1,33.8-10.1c76.6,0.1,153.2,0,229.9,0
		c29.1,0,58.1-0.8,87.2,0.2c30.8,1.1,55.1,21.4,55.4,54.1c0.5,53.4,0.2,106.8,0.1,160.2c0,8.4-4.3,12.4-13.3,12.5
		c-21.8,0.1-43.5,0-65.3,0c-1.9,0-3.8,0-6.1,0c0,2.6,0,4.5,0,6.4c0,52.1,0.1,104.2,0,156.3c-0.1,30.8-17.8,56.2-46.3,65.7
		c-7.1,2.4-14.9,3.7-22.4,3.7c-90.9,0.2-181.8-0.2-272.7,0.1c-27.7,0.1-49.4-9.9-63.4-33.9c-4.5-7.6-6.2-16.8-9.2-25.3
		C0.5,400.1,0.5,379.6,0.5,359.2z M92.2,351.2c2.7,0,4.7,0,6.6,0c56.2,0,112.3,0,168.5,0c7,0,14-0.1,20.9,0
		c7.2,0.1,11.1,3.7,11.9,10.8c0.2,1.8,0.1,3.6,0.1,5.4c0.1,16.2-0.5,32.5,0.6,48.7c1.2,17.4,10.9,30.1,26.6,37.3
		c16.8,7.6,33,5.6,47.6-5.8c13-10.2,17.9-24.1,17.9-40.2c0-109.7,0-219.5-0.1-329.2c0-9.7,1.3-19.1,5.9-27.8
		c1.3-2.5,2.8-4.9,4.5-7.7c-1.9-0.1-3-0.2-4.1-0.2c-91.6,0-183.1,0-274.7,0c-18.4,0-30.3,12.1-30.4,30.6
		c-0.6,90.4-1.3,180.8-1.9,271.3C92.2,346.5,92.2,348.6,92.2,351.2z M22.9,373.2c-0.2,1.1-0.5,2-0.5,3c0.1,13.8-0.1,27.6,0.6,41.4
		c1.2,21.4,21.4,40.1,42.8,40.1c75.3,0,150.6,0,225.9,0c1.2,0,2.4-0.2,4-0.3c-0.8-1.1-1.2-1.8-1.7-2.4c-8.6-10.4-14.2-22.3-15-35.7
		c-0.9-13.4-0.5-26.9-0.7-40.4c0-1.9,0-3.7,0-5.6C192.6,373.2,107.8,373.2,22.9,373.2z M477,225.6c0.2-0.9,0.4-1.4,0.4-1.9
		c0-49.5,0.2-99-0.1-148.5c-0.1-14.5-8.5-25.7-20.9-29.8c-21.5-7.2-41.8,7.9-41.9,31.4c-0.1,48,0,96.1,0,144.1c0,1.5,0,3.1,0,4.7
		C435.9,225.6,456.3,225.6,477,225.6z"/>
	<path class="st1" d="M92.2,351.2c0-2.7,0-4.7,0-6.8c0.6-90.4,1.3-180.8,1.9-271.3c0.1-18.5,12-30.6,30.4-30.6
		c91.6-0.1,183.1,0,274.7,0c1.1,0,2.2,0.1,4.1,0.2c-1.6,2.8-3.2,5.2-4.5,7.7c-4.6,8.7-5.9,18-5.9,27.8c0.1,109.7,0,219.5,0.1,329.2
		c0,16.1-4.9,30.1-17.9,40.2c-14.6,11.4-30.8,13.5-47.6,5.8c-15.8-7.2-25.4-19.9-26.6-37.3c-1.1-16.2-0.5-32.4-0.6-48.7
		c0-1.8,0.1-3.6-0.1-5.4c-0.8-7.1-4.7-10.7-11.9-10.8c-7-0.1-14,0-20.9,0c-56.2,0-112.3,0-168.5,0C96.8,351.2,94.9,351.2,92.2,351.2
		z M237.3,295.4c30.7,0,61.3,0,92,0c2.4,0,4.9,0,7.3-0.5c4.5-1,7.3-3.9,8.1-8.6c1.3-7.8-4-12.8-13.6-12.8c-62.3,0-124.6,0-186.9,0
		c-1.8,0-3.6,0.1-5.3,0.5c-5.4,1.2-8.8,5.6-8.6,10.8c0.2,5.2,3.9,9.4,9.3,10.2c2.1,0.3,4.2,0.4,6.3,0.4
		C176.3,295.4,206.8,295.4,237.3,295.4z M237.2,217.1c31.6,0,63.3,0,94.9,0c8,0,12.8-4.3,12.7-10.9c-0.1-6.5-4.8-10.7-12.4-10.7
		c-63.3,0-126.5,0-189.8,0c-7.6,0-12.4,4.3-12.5,10.7c-0.1,6.4,4.7,10.8,12.2,11c1.3,0,2.6,0,3.9,0
		C176.6,217.1,206.9,217.1,237.2,217.1z M192.6,139c16.7,0,33.4,0.1,50.1,0c8.9-0.1,14.2-6.4,12-14.1c-1.4-5-5.8-7.7-13.1-7.7
		c-32.6,0-65.2,0-97.8,0c-1.8,0-3.6,0.1-5.3,0.4c-4.6,1-7.4,4.1-8.2,8.6c-0.8,4.4,0.6,8.3,4.5,10.5c2.6,1.4,5.8,2.1,8.7,2.2
		C159.9,139.1,176.3,139,192.6,139z"/>
	<path class="st2" d="M22.9,373.2c85,0,169.8,0,255.4,0c0,1.9,0,3.8,0,5.6c0.2,13.5-0.1,27,0.7,40.4c0.9,13.5,6.5,25.3,15,35.7
		c0.5,0.6,0.9,1.3,1.7,2.4c-1.7,0.1-2.9,0.3-4,0.3c-75.3,0-150.6,0.1-225.9,0c-21.5,0-41.7-18.7-42.8-40.1
		c-0.8-13.8-0.5-27.6-0.6-41.4C22.4,375.2,22.7,374.3,22.9,373.2z"/>
	<path class="st2" d="M477,225.6c-20.7,0-41.1,0-62.4,0c0-1.6,0-3.1,0-4.7c0-48,0-96.1,0-144.1c0-23.5,20.3-38.7,41.9-31.4
		c12.4,4.2,20.8,15.3,20.9,29.8c0.3,49.5,0.1,99,0.1,148.5C477.5,224.2,477.3,224.6,477,225.6z"/>
	<path class="st0" d="M237.3,295.4c-30.5,0-61,0-91.5,0c-2.1,0-4.2-0.1-6.3-0.4c-5.4-0.8-9.1-5-9.3-10.2c-0.2-5.2,3.3-9.6,8.6-10.8
		c1.7-0.4,3.5-0.5,5.3-0.5c62.3,0,124.6,0,186.9,0c9.6,0,14.9,4.9,13.6,12.8c-0.8,4.7-3.5,7.6-8.1,8.6c-2.4,0.5-4.8,0.5-7.3,0.5
		C298.6,295.4,267.9,295.4,237.3,295.4z"/>
	<path class="st0" d="M237.2,217.1c-30.3,0-60.7,0-91,0c-1.3,0-2.6,0-3.9,0c-7.5-0.2-12.3-4.6-12.2-11c0.1-6.4,4.9-10.7,12.5-10.7
		c63.3,0,126.5,0,189.8,0c7.6,0,12.3,4.2,12.4,10.7c0.1,6.7-4.7,10.9-12.7,10.9C300.5,217.2,268.9,217.1,237.2,217.1z"/>
	<path class="st0" d="M192.6,139c-16.4,0-32.8,0.1-49.1-0.1c-2.9,0-6.2-0.8-8.7-2.2c-3.9-2.1-5.3-6.1-4.5-10.5
		c0.8-4.5,3.6-7.6,8.2-8.6c1.7-0.4,3.5-0.4,5.3-0.4c32.6,0,65.2,0,97.8,0c7.3,0,11.7,2.7,13.1,7.7c2.2,7.7-3.1,14.1-12,14.1
		C226.1,139.1,209.4,139,192.6,139z"/>
</g>
</svg>
