<?xml version="1.0" encoding="utf-8"?>
<!-- Generator: Adobe Illustrator 23.0.3, SVG Export Plug-In . SVG Version: 6.00 Build 0)  -->
<svg version="1.1" id="Layer_1" xmlns="http://www.w3.org/2000/svg" xmlns:xlink="http://www.w3.org/1999/xlink" x="0px" y="0px"
	 viewBox="0 0 500 500" style="enable-background:new 0 0 500 500;" xml:space="preserve">
<style type="text/css">
	.st0{fill:#BDD29A;}
	.st1{fill:#83951D;}
	.st2{fill:#465E14;}
</style>
<path id="path4056" class="st0" d="M248.8,89.5c-2.3,0.3-4.5,1.3-6.2,3L57.5,277.8c-1.9,1.9-3,4.5-3,7.2l-0.1,191.4
	c0,5.7,4.6,10.3,10.3,10.3c0,0,0.1,0,0.1,0h370.6c5.7,0,10.3-4.6,10.3-10.3c0,0,0,0,0-0.1V285.1c0-2.7-1.1-5.3-3-7.2L257.3,92.5
	C255.1,90.3,251.9,89.2,248.8,89.5L248.8,89.5z"/>
<path id="path4054" class="st1" d="M248.9,27.3c-2.3,0.3-4.5,1.3-6.2,3L20.5,252.6c-4,4-4,10.5,0,14.5l16.3,16.3c4,4,10.5,4,14.6,0
	c0,0,0,0,0,0L250,84.8l198.7,198.7c4,4,10.5,4,14.5,0l16.3-16.3c4-4,4-10.5,0-14.5c-74.1-74.1-148.2-148.2-222.2-222.3
	C255.1,28.1,252,27,248.9,27.3z"/>
<path id="path4052" class="st0" d="M394.2,11.1c-5.7,0-10.3,4.6-10.3,10.3c0,0,0,0,0,0.1v129.6c0,2.7,1.1,5.4,3,7.3l41.2,41.2
	c4,4,10.5,4,14.6,0c1.9-1.9,3-4.5,3-7.3V21.5c0-5.7-4.6-10.3-10.3-10.3c0,0,0,0-0.1,0C435.3,11.1,394.2,11.1,394.2,11.1z"/>
<path class="st2" d="M496.1,250.9l-37.3-37.3V13.2c0-7.3-5.9-13.2-13.2-13.2h-61.8c-7.3,0-13.2,5.9-13.2,13.2v112.3L259.3,14.2
	c-2.5-2.6-5.8-3.9-9.4-3.9c-3.5,0.1-6.9,1.5-9.3,3.9L3.9,250.9c-2.5,2.5-3.9,5.8-3.9,9.4c0,3.5,1.4,6.9,3.9,9.4l30.8,30.8
	c1.8,1.8,4,3,6.5,3.6v182.8c0,7.3,5.9,13.2,13.2,13.2h391.2c7.3,0,13.2-5.9,13.2-13.2V304.1c2.4-0.5,4.6-1.7,6.4-3.5l30.9-30.9
	c2.5-2.5,3.9-5.8,3.9-9.4C500,256.8,498.6,253.4,496.1,250.9z M432.5,187.3L397,151.8l0-125.4h35.4L432.5,187.3z M432.4,286.4v187.3
	H67.6l0-187.3L250,103.9L432.4,286.4z M468.1,260.3l-12.2,12.2L259.4,76c-5-5-13.7-5-18.7,0L44.1,272.5l-12.2-12.2L250,42.2
	L468.1,260.3z"/>
<rect x="198.6" y="286.5" class="st1" width="102.8" height="102.8"/>
<path class="st2" d="M177.4,282.2v121.5c0,6.6,5.3,11.9,11.9,11.9h121.5c6.6,0,11.9-5.3,11.9-11.9V282.2c0-6.6-5.3-11.9-11.9-11.9
	H189.3C182.7,270.3,177.4,275.7,177.4,282.2z M203.8,383.1v-80.3c0-3.4,2.7-6.1,6.1-6.1h80.3c3.4,0,6.1,2.7,6.1,6.1v80.3
	c0,3.4-2.7,6.1-6.1,6.1h-80.3C206.5,389.2,203.8,386.5,203.8,383.1z"/>
</svg>
