<?xml version="1.0" encoding="utf-8"?>
<!-- Generator: Adobe Illustrator 23.0.3, SVG Export Plug-In . SVG Version: 6.00 Build 0)  -->
<svg version="1.1" id="Layer_1" xmlns="http://www.w3.org/2000/svg" xmlns:xlink="http://www.w3.org/1999/xlink" x="0px" y="0px"
	 viewBox="0 0 500 500" style="enable-background:new 0 0 500 500;" xml:space="preserve">
<style type="text/css">
	.st0{fill:#ED1C24;}
	.st1{fill:#008A37;}
	.st2{fill:#043A16;}
	.st3{fill:#25D865;}
</style>
<g>
	<path class="st0" d="M250,246.3v7.4C250,251.2,250,248.8,250,246.3z"/>
	<path class="st0" d="M250,243.4L250,243.4c0,4.4,0,8.8,0,13.1V243.4z"/>
	<path class="st1" d="M353.5,389c-9.7,0.1-16.6,7.9-16.7,17.7c-0.1,19.9,0,39.8,0,59.6c0,1,0.3,2,0.7,4.3
		c29-27.3,57.2-53.9,85.4-80.4c-0.3-0.5-0.6-1-0.9-1.4C399.2,388.9,376.4,388.7,353.5,389z"/>
	<path class="st2" d="M76.9,0C57.6-0.1,45,13.6,45.1,31.7c0.2,55.8,0.2,111.6,0.3,167.5h0v13.1c0,2.4,0,4.9,0,7.4v249.2
		c0.5,17.6,5.3,24,22.5,31.2c82.9,0,165.8,0,248.7,0c6.9-2.2,14.2-3.7,20.5-6.9c7.9-4,15.9-8.7,22.4-14.6
		c24.7-22.5,48.8-45.5,73-68.5c14.7-14,22.3-31.4,22.4-51.6c0.1-109.1,0.1-218.2,0.1-327.3c0-19.3-11-30.5-30.1-30.7H280.2
		C212.4,0.3,144.7,0.4,76.9,0z M337.5,470.7c-0.4-2.4-0.7-3.4-0.7-4.3c0-19.9-0.1-39.8,0-59.6c0.1-9.9,7-17.6,16.7-17.7
		c22.8-0.3,45.7-0.1,68.5-0.1c0.3,0.5,0.6,1,0.9,1.4C394.8,416.9,366.6,443.4,337.5,470.7z M434,32.2c0,108.4,0,216.8,0,325.1
		c0,10.9,0,10.9-10.8,10.9c-22.3,0-44.6,0-66.9,0c-23.9,0.1-39.9,15.8-40.1,39.7c-0.2,21.2,0,42.4,0,63.6c0,2.2,0,4.4,0,7
		c-4,0.2-7.4,0.6-10.7,0.6c-75.9,0-151.9,0-227.8,0c-10,0-11.4-1.5-11.4-11.4c0-145.1,0-290.3,0-435.4c0-9.7,1.8-11.5,11.5-11.5
		c114.9,0,229.9,0,344.8,0C432.3,20.9,434,22.5,434,32.2z"/>
	<path class="st3" d="M422.4,20.9c-114.9,0-229.9,0-344.8,0c-9.7,0-11.5,1.8-11.5,11.5c0,145.1,0,290.3,0,435.4
		c0,9.9,1.5,11.4,11.4,11.4c75.9,0,151.9,0,227.8,0c3.3,0,6.7-0.4,10.7-0.6c0-2.6,0-4.8,0-7c0-21.2-0.1-42.4,0-63.6
		c0.2-23.9,16.2-39.7,40.1-39.7c22.3-0.1,44.6,0,66.9,0c10.8,0,10.8,0,10.8-10.9c0-108.4,0-216.8,0-325.1
		C434,22.5,432.3,20.9,422.4,20.9z"/>
	<path class="st1" d="M250,127.6c-45.2,0-82,36.8-82,82s36.8,82,82,82s82-36.8,82-82S295.2,127.6,250,127.6z"/>
	<path class="st2" d="M250,107.1c-56.5,0-102.5,46-102.5,102.5s46,102.5,102.5,102.5s102.5-46,102.5-102.5S306.5,107.1,250,107.1z
		 M250,291.6c-45.2,0-82-36.8-82-82s36.8-82,82-82s82,36.8,82,82S295.2,291.6,250,291.6z"/>
	<path class="st3" d="M264.8,209.6l28.3-28.3c4.1-4.1,4.1-10.7,0-14.8c-4.1-4.1-10.7-4.1-14.8,0L250,194.8l-28.3-28.3
		c-4.1-4.1-10.7-4.1-14.8,0c-4.1,4.1-4.1,10.7,0,14.8l28.3,28.3l-28.3,28.3c-4.1,4.1-4.1,10.7,0,14.8c4.1,4.1,10.7,4.1,14.8,0
		l28.3-28.3l28.3,28.3c4.1,4.1,10.7,4.1,14.8,0c4.1-4.1,4.1-10.7,0-14.8L264.8,209.6z"/>
</g>
</svg>
