<?xml version="1.0" encoding="utf-8"?>
<!-- Generator: Adobe Illustrator 23.0.3, SVG Export Plug-In . SVG Version: 6.00 Build 0)  -->
<svg version="1.1" id="Layer_1" xmlns="http://www.w3.org/2000/svg" xmlns:xlink="http://www.w3.org/1999/xlink" x="0px" y="0px"
	 viewBox="0 0 500 500" style="enable-background:new 0 0 500 500;" xml:space="preserve">
<style type="text/css">
	.st0{fill:#BDD29A;}
	.st1{fill:#83951D;}
	.st2{fill:#465E14;}
</style>
<path class="st0" d="M286.2,0c9,3.2,18.1,6.1,26.8,9.9c4.2,1.8,8,5,11.4,8.2c22.9,21.3,45.7,42.6,68.2,64.2
	c12.8,12.2,19.4,27.6,19.5,45.3c0.2,31.7,0.1,63.4,0,95.2c0,3.4,1.1,4.9,4,7c6.4,4.8,12.5,10.4,17.5,16.7c4,5,3.5,11.5,1.2,17.7
	c-6.1,16.2,1.4,29.9,18,33.8c8.6,2,14,7.2,15.7,16c0.9,4.5,1.5,9,2.4,13.4c1.5,8.5-1.2,15.6-8.4,19.8c-13.6,7.9-17.9,26.3-5.1,39.5
	c5.6,5.8,6.3,13.3,2.8,20.9c-1.9,4.1-3.9,8.2-5.9,12.3c-3.9,8-10.8,12-19.7,11.5c-16.1-0.9-27.3,10-26.2,26.1
	c0.8,10.7-3.1,18.3-12.9,22.8c-3.2,1.5-6.3,3.4-9.5,5.1c-7.7,4-15.1,3.2-21.9-2.1c-14-10.9-28.6-8.1-38.3,6.5
	c-2.8,4.3-8.1,6.9-12.3,10.3c-2.9,0-5.9,0-8.8,0c-3.6-0.7-7.2-1.5-10.9-2c-9.2-1.2-15.2-6.1-17.8-15c-4.9-17-18.6-23.5-34.9-16.6
	c-5.2,2.2-10.4,2.1-15.7,0.5c-3.1-0.9-6.3-1.6-9.4-1.6c-53.4-0.1-106.7-0.1-160.1,0c-11.8,0-20.6-4.6-25.2-15.5
	c-1.7-4-2.1-8.9-2.1-13.3c-0.1-100.5-0.1-201.1-0.1-301.6c0-35.8,0-71.6,0-107.4c0-13.9,6.1-22.2,19.1-26.7c0.4-0.2,0.8-0.5,1.2-0.8
	C128,0,207.1,0,286.2,0z M393.3,128.9c-26.8,0-53,0-79.2,0c-22.5,0-36.9-14.4-36.9-36.9c-0.1-22.5,0-44.9,0-67.4c0-1.7,0-3.5,0-5.8
	c-2.5,0-4.5,0-6.4,0c-70.8,0-141.6,0-212.4,0c-9.5,0-10.8,1.3-10.8,10.6c0,135.6,0,271.1,0,406.7c0,9,1.2,10.3,10,10.3
	c47,0,94.1,0,141.1,0c1.8,0,3.5,0,4.3,0c0.7-5.4,0.5-10.4,2-14.8c5.8-16.5-1.5-30.1-18.5-34.1c-8.4-2-13.6-7.3-15.3-15.8
	c-0.9-4.6-1.6-9.3-2.4-13.9c-1.5-8.1,1.2-15.2,8-19c14.1-7.9,18.3-26.7,5.6-39.8c-5.7-5.8-6.3-13.4-2.8-20.9c1.6-3.5,3.5-7,5.1-10.5
	c4.1-9.6,11.3-13.7,21.6-13.1c8.7,0.5,15.9-2.9,21.1-10.1c3.9-5.4,4.6-11.6,4.1-18.1c-0.7-8.8,2.8-15.4,10.8-19.6
	c3.5-1.8,6.9-3.7,10.3-5.6c8.8-4.8,16.2-4.1,23.9,2.1c12.5,10.1,28.6,7.2,36.8-6.6c4.8-8.1,11.6-12,21.1-10.4
	c2.7,0.4,5.5,0.9,8.2,1.1c11.7,0.6,18.8,6.2,21.9,17.8c3.4,12.8,16.3,19.5,28.8,15.8C393.3,197.1,393.3,163.3,393.3,128.9z M443,399
	c-18.9-24.8-16.4-45.9,7.7-66.5c0.9-0.8,1.4-2.4,1.4-3.6c0-2.1-0.9-4.1-1-6.2c-0.3-4.2-2.1-6.1-6.5-7.4
	c-23.4-6.6-36.1-30.7-28.6-53.9c1.4-4.2,1.2-7.1-2.4-9.6c-1-0.7-2-1.7-2.8-2.7c-2.2-2.7-4.3-2.7-7.5-1.4c-22,8.7-46.5-1.1-55-22.9
	c-2.6-6.7-5.8-9.3-12.6-9.7c-3.7-0.2-5.7,0.4-7.8,3.6c-12.5,19.3-38.2,25.4-57.4,12.8c-6.4-4.2-10.5-3.7-16.2-0.2
	c-3,1.9-4.1,3.5-3.8,7.2c1.6,23.7-17.4,44.4-41.1,44.5c-5.1,0-7.8,1.4-9.2,6.1c-0.3,1.1-0.9,2.1-1.5,3c-2.3,3-1.3,5.2,0.9,8
	c14.8,18.6,12.6,44.5-5.9,59.2c-5.6,4.5-6.4,8.4-4.6,14.2c0.1,0.5,0.4,1,0.3,1.4c-0.1,3,1.5,4,4.3,4.8c23.7,6.1,37.5,29.3,30.7,52.7
	c-1.8,6.1-0.6,9.4,3.9,13.2c3,2.6,5.1,3.6,9.2,1.9c21.9-8.6,46.3,1.9,54.5,23.9c2.3,6.2,5.5,8.8,11.6,8.7c0.3,0,0.7,0,1,0.1
	c3.4,0.9,5.4-0.3,7.5-3.4c7.7-11.7,18.7-18.2,32.8-19.2c12.2-0.9,22.6,3.3,31.9,11c3.6-1.9,7.1-3.6,10.4-5.7c1.2-0.8,2.4-3,2.3-4.4
	c-1.5-23.5,13.9-43.7,37.7-45.6c10.2-0.8,13-5.9,15.9-13.1C443,399.6,443,399.3,443,399z M296,21.4c0,3.3,0,4.9,0,6.5
	c0,21.3,0,42.6,0,63.9c0,12.2,6,18.3,18.2,18.3c23.3,0,46.5,0,69.7,0c1.5,0,3.1-0.2,6.3-0.4c-4.1-5.3-6.9-10.2-10.7-13.8
	c-22.4-21.5-45-42.8-67.8-63.8C307.4,28.1,302,25.4,296,21.4z"/>
<path class="st1" d="M393.3,128.9c0,34.4,0,68.1,0,101.9c-12.5,3.8-25.4-3-28.8-15.8c-3.1-11.6-10.2-17.2-21.9-17.8
	c-2.8-0.1-5.5-0.6-8.2-1.1c-9.5-1.6-16.3,2.3-21.1,10.4c-8.2,13.8-24.4,16.7-36.8,6.6c-7.7-6.2-15.1-6.9-23.9-2.1
	c-3.4,1.9-6.8,3.8-10.3,5.6c-7.9,4.2-11.5,10.8-10.8,19.6c0.5,6.5-0.2,12.7-4.1,18.1c-5.2,7.1-12.3,10.6-21.1,10.1
	c-10.4-0.6-17.5,3.5-21.6,13.1c-1.5,3.6-3.4,7-5.1,10.5c-3.5,7.5-2.9,15.1,2.8,20.9c12.7,13.1,8.5,31.9-5.6,39.8
	c-6.8,3.8-9.5,10.9-8,19c0.8,4.6,1.5,9.3,2.4,13.9c1.7,8.5,6.9,13.8,15.3,15.8c17.1,4,24.3,17.6,18.5,34.1c-1.5,4.4-1.3,9.4-2,14.8
	c-0.8,0-2.5,0-4.3,0c-47,0-94.1,0-141.1,0c-8.8,0-10-1.3-10-10.3c0-135.6,0-271.1,0-406.7c0-9.4,1.3-10.6,10.8-10.6
	c70.8,0,141.6,0,212.4,0c1.9,0,3.8,0,6.4,0c0,2.3,0,4,0,5.8c0,22.5,0,44.9,0,67.4c0.1,22.5,14.4,36.9,36.9,36.9
	C340.3,128.9,366.5,128.9,393.3,128.9z M173.8,154.1c-18.1,0-36.1,0-54.2,0c-5.4,0-10.7-0.1-16.1,0.1c-5.2,0.3-8.8,4.3-8.7,9.3
	c0,5,3.7,8.9,8.8,9.3c1.4,0.1,2.9,0.1,4.4,0.1c37.1,0,74.2,0,111.2,0c7.5,0,15,0.4,22.4-0.2c3-0.3,6.8-2,8.4-4.4
	c1.5-2.1,1.4-6.3,0.6-9c-1.2-3.9-5-5.2-9.1-5.2C219,154.1,196.4,154.1,173.8,154.1z M160.7,110.1c17.7,0,35.4,0,53.2,0
	c1.9,0,3.9,0,5.8-0.5c4.4-1.1,6.9-4.2,7-8.8c0.2-4.5-2.6-8.2-7.1-9.2c-1.9-0.4-3.9-0.5-5.8-0.5c-35.3,0-70.6,0-105.8,0
	c-1.9,0-3.9,0.1-5.8,0.5c-4.5,1-7.3,4.7-7.3,9.1c0,4.4,2.9,8.1,7.4,9.1c1.7,0.4,3.6,0.4,5.3,0.4C125.3,110.1,143,110.1,160.7,110.1z
	"/>
<path class="st2" d="M443,399c0,0.3-0.1,0.6-0.2,0.9c-2.9,7.2-5.6,12.3-15.9,13.1c-23.8,1.9-39.2,22.1-37.7,45.6
	c0.1,1.5-1.1,3.6-2.3,4.4c-3.2,2.2-6.8,3.8-10.4,5.7c-9.3-7.7-19.7-11.9-31.9-11c-14.1,1-25.1,7.6-32.8,19.2c-2.1,3.1-4,4.3-7.5,3.4
	c-0.3-0.1-0.6-0.1-1-0.1c-6.1,0.1-9.2-2.5-11.6-8.7c-8.2-22-32.6-32.5-54.5-23.9c-4.1,1.6-6.2,0.6-9.2-1.9
	c-4.4-3.8-5.6-7.1-3.9-13.2c6.9-23.4-6.9-46.6-30.7-52.7c-2.8-0.7-4.4-1.8-4.3-4.8c0-0.5-0.2-1-0.3-1.4c-1.8-5.8-1-9.8,4.6-14.2
	c18.5-14.7,20.7-40.6,5.9-59.2c-2.2-2.8-3.2-5-0.9-8c0.7-0.9,1.2-2,1.5-3c1.4-4.6,4.2-6,9.2-6.1c23.7-0.1,42.7-20.9,41.1-44.5
	c-0.3-3.7,0.8-5.3,3.8-7.2c5.7-3.5,9.8-4,16.2,0.2c19.2,12.6,44.9,6.4,57.4-12.8c2.1-3.3,4.1-3.8,7.8-3.6c6.8,0.3,10,3,12.6,9.7
	c8.5,21.8,33,31.7,55,22.9c3.3-1.3,5.4-1.3,7.5,1.4c0.8,1,1.8,1.9,2.8,2.7c3.6,2.5,3.8,5.4,2.4,9.6c-7.6,23.1,5.2,47.3,28.6,53.9
	c4.4,1.2,6.2,3.1,6.5,7.4c0.1,2.1,1,4.2,1,6.2c0,1.2-0.5,2.9-1.4,3.6C426.6,353.1,424.2,374.2,443,399z M320.2,276.8
	c-39.4,0-71.1,31.6-71.2,70.9c0,39.4,31.7,71.2,70.9,71.2c39.3,0,71-31.8,70.9-71.2C390.8,308.6,359.2,276.8,320.2,276.8z"/>
<path class="st2" d="M296,21.4c6,4,11.5,6.7,15.7,10.6c22.8,21.1,45.4,42.4,67.8,63.8c3.9,3.7,6.6,8.5,10.7,13.8
	c-3.2,0.2-4.8,0.4-6.3,0.4c-23.3,0-46.5,0-69.7,0c-12.2,0-18.2-6.1-18.2-18.3c0-21.3,0-42.6,0-63.9C296,26.3,296,24.7,296,21.4z"/>
<path class="st0" d="M173.8,154.1c22.6,0,45.2,0,67.8,0c4.1,0,7.9,1.3,9.1,5.2c0.9,2.8,0.9,6.9-0.6,9c-1.6,2.3-5.4,4.1-8.4,4.4
	c-7.4,0.6-14.9,0.2-22.4,0.2c-37.1,0-74.2,0-111.2,0c-1.5,0-2.9,0.1-4.4-0.1c-5.1-0.4-8.8-4.3-8.8-9.3c0-5,3.6-9,8.7-9.3
	c5.3-0.3,10.7-0.1,16.1-0.1C137.7,154.1,155.8,154.1,173.8,154.1z"/>
<path class="st0" d="M160.7,110.1c-17.7,0-35.4,0-53.2,0c-1.8,0-3.6,0-5.3-0.4c-4.5-1-7.4-4.6-7.4-9.1c0-4.4,2.8-8.1,7.3-9.1
	c1.9-0.4,3.9-0.5,5.8-0.5c35.3,0,70.6,0,105.8,0c1.9,0,3.9,0.1,5.8,0.5c4.5,1.1,7.3,4.7,7.1,9.2c-0.2,4.6-2.6,7.7-7,8.8
	c-1.9,0.5-3.9,0.5-5.8,0.5C196.1,110.1,178.4,110.1,160.7,110.1z"/>
<path class="st0" d="M320.2,276.8c39,0,70.7,31.8,70.7,70.9c0,39.4-31.6,71.1-70.9,71.2c-39.2,0-70.9-31.8-70.9-71.2
	C249,308.4,280.8,276.8,320.2,276.8z M320.1,295.8c-28.9-0.1-52.2,23.1-52.4,51.9c-0.1,28.7,23.2,52.2,52,52.4
	c28.6,0.2,52.2-23.2,52.4-52C372.3,319.4,348.9,295.8,320.1,295.8z"/>
<path class="st1" d="M320.1,295.8c28.8,0.1,52.2,23.6,52,52.3c-0.2,28.8-23.7,52.1-52.4,52c-28.8-0.2-52.1-23.6-52-52.4
	C267.9,318.8,291.3,295.7,320.1,295.8z"/>
</svg>
