<?xml version="1.0" encoding="utf-8"?>
<!-- Generator: Adobe Illustrator 23.0.3, SVG Export Plug-In . SVG Version: 6.00 Build 0)  -->
<svg version="1.1" id="Layer_1" xmlns="http://www.w3.org/2000/svg" xmlns:xlink="http://www.w3.org/1999/xlink" x="0px" y="0px"
	 viewBox="0 0 500 500" style="enable-background:new 0 0 500 500;" xml:space="preserve">
<style type="text/css">
	.st0{fill:#BDD29A;}
	.st1{fill:#83951D;}
	.st2{fill:#465E14;}
</style>
<g>
	<path class="st0" d="M89.17,29.52c87.84,0,175.33,0,263.08,0c0,127.42,0,254.62,0,382.2c-87.53,0-175.13,0-263.08,0
		C89.17,284.53,89.17,157.21,89.17,29.52z M220.63,147.46c-28.78,0-57.56,0.04-86.34-0.03c-6.86-0.02-12.08,2.63-14.91,8.91
		c-4.52,10,3,20.38,14.73,20.39c34.8,0.05,69.59,0.02,104.39,0.02c22.93,0,45.85-0.03,68.78,0.01c6.64,0.01,11.72-2.61,14.55-8.69
		c4.65-10-2.72-20.57-14.37-20.6C278.52,147.42,249.57,147.46,220.63,147.46z M220.74,235.35c28.78,0,57.56-0.03,86.34,0.02
		c6.85,0.01,12.07-2.65,14.88-8.96c4.39-9.86-2.95-20.31-14.3-20.33c-34.96-0.07-69.92-0.03-104.88-0.03
		c-22.93,0-45.85,0.03-68.78-0.02c-6.66-0.01-11.71,2.66-14.53,8.73c-4.63,9.97,2.79,20.53,14.44,20.56
		C162.85,235.39,191.8,235.35,220.74,235.35z M220.72,264.65c-28.78,0-57.56,0.04-86.34-0.03c-6.85-0.02-12.08,2.56-14.96,8.84
		c-4.49,9.8,2.81,20.42,14.12,20.45c28.29,0.09,56.58,0.03,84.88,0.03c29.59,0,59.19-0.02,88.78,0.02
		c6.63,0.01,11.74-2.54,14.6-8.62c4.7-9.98-2.62-20.64-14.24-20.67C278.6,264.6,249.66,264.65,220.72,264.65z M176.7,118.16
		c14.3,0,28.6,0.05,42.9-0.02c9.1-0.04,15.61-6.13,15.7-14.49c0.09-8.54-6.52-14.76-15.9-14.77c-28.44-0.04-56.87-0.04-85.31,0
		c-9.38,0.01-16,6.21-15.94,14.73c0.06,8.51,6.67,14.51,16.14,14.54C148.42,118.19,162.56,118.16,176.7,118.16z M279.75,323.24
		c-9.58,0-19.17-0.05-28.75,0.01c-9.06,0.06-15.6,6.17-15.68,14.5c-0.07,8.35,6.45,14.72,15.41,14.76c19,0.08,38.01,0.08,57.01,0
		c8.99-0.04,15.5-6.37,15.43-14.74c-0.06-8.35-6.59-14.46-15.65-14.52C298.27,323.19,289.01,323.24,279.75,323.24z"/>
	<path class="st1" d="M381.8,89.08c10.02,0,19.39,0,29.03,0c0,127.19,0,254.16,0,381.38c-87.68,0-175.16,0-263.02,0
		c0-9.42,0-18.91,0-29.05c1.8,0,3.68,0,5.57,0c70.13,0,140.26,0,210.38,0c12.73,0,18.04-5.32,18.04-18.08
		c0-109.18,0-218.36,0-327.53C381.8,93.7,381.8,91.61,381.8,89.08z"/>
	<g>
		<path class="st2" d="M128.87,500c-8.46-3.89-11.23-10.58-10.87-19.68c0.5-12.79,0.13-25.62,0.13-38.91
			c-14.08,0-27.71,0.03-41.33-0.03c-2.25-0.01-4.58-0.13-6.73-0.74c-6.15-1.75-10.09-6.86-10.5-13.2c-0.09-1.46-0.04-2.93-0.04-4.39
			c0-134.92,0-269.84,0-404.76C59.53,5.19,64.74,0,77.85,0c95.37,0,190.74,0,286.11,0c12.43,0,17.83,5.38,17.83,17.79
			c0.01,13.67,0,27.33,0,41.78c1.71,0,3.25,0,4.79,0c12.21,0,24.41-0.01,36.62,0c11.49,0.01,17.18,5.61,17.18,16.97
			c0.01,135.41-0.03,270.81,0.1,406.22c0.01,8.44-3.73,13.69-10.84,17.23C329.39,500,229.13,500,128.87,500z M89.17,29.52
			c0,127.69,0,255.01,0,382.2c87.95,0,175.55,0,263.08,0c0-127.59,0-254.78,0-382.2C264.5,29.52,177.01,29.52,89.17,29.52z
			 M381.8,89.08c0,2.53,0,4.62,0,6.72c0,109.18,0,218.36,0,327.53c0,12.76-5.31,18.08-18.04,18.08c-70.13,0-140.26,0-210.38,0
			c-1.88,0-3.77,0-5.57,0c0,10.14,0,19.63,0,29.05c87.86,0,175.35,0,263.02,0c0-127.22,0-254.2,0-381.38
			C401.19,89.08,391.82,89.08,381.8,89.08z"/>
		<path class="st2" d="M220.63,147.46c28.94,0,57.89-0.04,86.83,0.02c11.65,0.03,19.02,10.6,14.37,20.6
			c-2.83,6.08-7.91,8.71-14.55,8.69c-22.93-0.04-45.85-0.01-68.78-0.01c-34.8,0-69.59,0.03-104.39-0.02
			c-11.73-0.02-19.25-10.39-14.73-20.39c2.84-6.29,8.05-8.93,14.91-8.91C163.07,147.5,191.85,147.46,220.63,147.46z"/>
		<path class="st2" d="M220.74,235.35c-28.94,0-57.89,0.04-86.83-0.02c-11.66-0.03-19.08-10.59-14.44-20.56
			c2.82-6.07,7.87-8.74,14.53-8.73c22.93,0.04,45.85,0.02,68.78,0.02c34.96,0,69.92-0.04,104.88,0.03
			c11.35,0.02,18.69,10.47,14.3,20.33c-2.81,6.31-8.02,8.98-14.88,8.96C278.3,235.32,249.52,235.35,220.74,235.35z"/>
		<path class="st2" d="M220.72,264.65c28.94,0,57.89-0.05,86.83,0.02c11.62,0.03,18.95,10.69,14.24,20.67
			c-2.86,6.08-7.96,8.63-14.6,8.62c-29.59-0.04-59.19-0.02-88.78-0.02c-28.29,0-56.58,0.06-84.88-0.03
			c-11.31-0.04-18.6-10.65-14.12-20.45c2.88-6.28,8.11-8.86,14.96-8.84C163.16,264.69,191.94,264.65,220.72,264.65z"/>
		<path class="st2" d="M176.7,118.16c-14.14,0-28.27,0.03-42.41-0.01c-9.47-0.03-16.08-6.03-16.14-14.54
			c-0.06-8.52,6.56-14.72,15.94-14.73c28.44-0.04,56.87-0.04,85.31,0c9.38,0.01,15.99,6.23,15.9,14.77
			c-0.09,8.36-6.6,14.45-15.7,14.49C205.3,118.21,191,118.16,176.7,118.16z"/>
		<path class="st2" d="M279.75,323.24c9.26,0,18.52-0.05,27.77,0.01c9.07,0.06,15.59,6.17,15.65,14.52
			c0.06,8.37-6.44,14.7-15.43,14.74c-19,0.08-38.01,0.08-57.01,0c-8.96-0.04-15.48-6.41-15.41-14.76
			c0.07-8.32,6.62-14.44,15.68-14.5C260.59,323.19,270.17,323.24,279.75,323.24z"/>
	</g>
</g>
<path class="st2" d="M-682.84,579.84c-89.07,0-178.13,0-267.2,0c-7.14-2.86-9.84-8.25-9.51-15.75c0.29-6.52,0.06-13.06,0.06-19.6
	c0-2.2,0-4.4,0-6.87c-10.79,0-20.9,0.01-31.01,0c-10.49-0.02-14.85-4.34-14.85-14.74c-0.01-112.65-0.01-225.31,0-337.96
	c0-10.16,4.49-14.67,14.57-14.67c31.6-0.01,63.19,0,94.79,0c53.99,0,107.99-0.01,161.98,0.01c9.28,0,14.08,4.75,14.2,13.96
	c0.04,3.07,0.01,6.13,0.01,9.2c0,6.22,0,12.44,0,19.05c1.96,0,3.4,0,4.83,0c9.47,0,18.93-0.09,28.4,0.04
	c7.68,0.11,12.4,4.92,12.62,12.52c0.03,1.07,0.02,2.13,0.02,3.2c0,111.85-0.05,223.71,0.11,335.56
	C-673.8,571.28-675.96,576.66-682.84,579.84z M-698.57,555.11c0-106.1,0-212.01,0-318.04c-78.86,0-157.44,0-236.03,0
	c0,106.19,0,212.1,0,318.04C-855.8,555.11-777.31,555.11-698.57,555.11z M-959.49,513.08c0-2.21,0-3.93,0-5.66
	c0-92.93,0.07-185.85-0.1-278.78c-0.02-9.35,3.45-16.39,16.44-16.33c64.53,0.31,129.06,0.14,193.58,0.14c1.66,0,3.31,0,4.93,0
	c0-6.24,0-11.79,0-17.39c-78.82,0-157.39,0-236.01,0c0,106.19,0,212.09,0,318.01C-973.52,513.08-966.76,513.08-959.49,513.08z"/>
<path class="st0" d="M-698.57,555.11c-78.74,0-157.24,0-236.03,0c0-105.94,0-211.85,0-318.04c78.59,0,157.17,0,236.03,0
	C-698.57,343.11-698.57,449.01-698.57,555.11z M-821.27,345.75c0-1.69,0-2.74,0-3.79c0-13.73,0.04-27.47-0.02-41.2
	c-0.04-8.91-5.68-14.04-14.6-13.45c-1.73,0.11-3.46,0.26-5.18,0.42c-36.05,3.22-64.82,36.45-63.26,72.63
	c1.85,42.86,40.05,73.88,81.82,67.63c33.37-4.99,60.33-35.97,59.7-69.76c-0.12-6.76-4.41-11.65-11.23-12.25
	c-4.37-0.38-8.79-0.21-13.19-0.22C-798.4,345.74-809.58,345.75-821.27,345.75z M-811.94,294.8c0,9.59-0.12,19.19,0.04,28.78
	c0.13,8.07,5.03,12.92,13.08,12.96c18.92,0.09,37.85,0.1,56.77,0c8.2-0.04,13.12-5.31,12.98-13.43
	c-0.66-37.67-30.47-68.09-68.16-69.56c-9.68-0.38-14.65,4.32-14.71,14.07C-812,276.67-811.95,285.73-811.94,294.8z M-818.28,480.53
	c27.31,0,54.62,0.01,81.93-0.03c2.11,0,4.29-0.13,6.32-0.65c5.26-1.36,8.77-6.08,8.83-11.46c0.06-5.41-3.3-10.24-8.5-11.71
	c-2.14-0.6-4.46-0.73-6.7-0.74c-54.49-0.04-108.98-0.03-163.46-0.02c-1.46,0-2.95-0.05-4.39,0.16c-6.47,0.93-10.81,5.98-10.72,12.36
	c0.1,7.29,5.54,12.07,13.96,12.08C-873.43,480.55-845.86,480.53-818.28,480.53z M-818.39,527.23c27.17,0,54.35,0,81.52,0
	c1.6,0,3.2,0.02,4.79-0.13c5.84-0.54,10.39-5.18,10.84-10.96c0.46-6.02-3.36-11.58-9.1-12.87c-1.92-0.43-3.97-0.36-5.96-0.36
	c-54.48-0.02-108.96-0.01-163.45-0.01c-1.46,0-2.94-0.02-4.39,0.12c-6,0.55-10.56,5.38-10.81,11.37
	c-0.32,7.71,4.91,12.81,13.44,12.83C-873.8,527.26-846.1,527.23-818.39,527.23z"/>
<path class="st1" d="M-959.49,513.08c-7.28,0-14.03,0-21.15,0c0-105.92,0-211.81,0-318.01c78.61,0,157.19,0,236.01,0
	c0,5.6,0,11.14,0,17.39c-1.62,0-3.28,0-4.93,0c-64.53,0-129.06,0.17-193.58-0.14c-12.99-0.06-16.46,6.98-16.44,16.33
	c0.17,92.93,0.1,185.85,0.1,278.78C-959.49,509.15-959.49,510.87-959.49,513.08z"/>
<path class="st2" d="M-821.27,345.75c11.68,0,22.86-0.02,34.04,0.01c4.4,0.01,8.82-0.16,13.19,0.22c6.82,0.6,11.1,5.49,11.23,12.25
	c0.62,33.79-26.34,64.77-59.7,69.76c-41.76,6.25-79.97-24.77-81.82-67.63c-1.56-36.18,27.21-69.41,63.26-72.63
	c1.73-0.15,3.45-0.3,5.18-0.42c8.92-0.59,14.56,4.54,14.6,13.45c0.06,13.73,0.02,27.47,0.02,41.2
	C-821.27,343.02-821.27,344.07-821.27,345.75z M-845.83,313.89c-20.4,3.89-35.5,25.84-33.79,48.67c1.7,22.62,21.47,41,44.95,41.79
	c20.65,0.69,42.51-15.65,45.24-34.09c-1.48,0-2.92,0-4.36,0c-12.65,0-25.3,0.02-37.95-0.01c-9.24-0.02-14.01-4.75-14.07-14.03
	c-0.06-9.32-0.02-18.64-0.02-27.96C-845.83,323.5-845.83,318.73-845.83,313.89z"/>
<path class="st2" d="M-811.95,294.8c-0.01-9.06-0.05-18.12,0.01-27.18c0.06-9.75,5.02-14.45,14.71-14.07
	c37.69,1.47,67.5,31.89,68.16,69.56c0.14,8.13-4.77,13.39-12.98,13.43c-18.92,0.1-37.85,0.1-56.77,0
	c-8.05-0.04-12.95-4.89-13.08-12.96C-812.06,313.99-811.94,304.39-811.95,294.8z M-755.8,311.71c-1.25-12.95-17.44-29.18-31.57-31.6
	c0,10.47,0,20.91,0,31.6C-776.72,311.71-766.26,311.71-755.8,311.71z"/>
<path class="st2" d="M-818.28,480.53c-27.58,0-55.15,0.02-82.73-0.01c-8.43-0.01-13.86-4.78-13.96-12.08
	c-0.09-6.38,4.24-11.43,10.72-12.36c1.44-0.21,2.92-0.16,4.39-0.16c54.49-0.01,108.98-0.01,163.46,0.02c2.24,0,4.56,0.13,6.7,0.74
	c5.21,1.47,8.57,6.3,8.5,11.71c-0.06,5.38-3.57,10.1-8.83,11.46c-2.03,0.53-4.21,0.65-6.32,0.65
	C-763.66,480.55-790.97,480.53-818.28,480.53z"/>
<path class="st2" d="M-818.39,527.23c-27.71,0-55.41,0.03-83.12-0.02c-8.53-0.02-13.76-5.12-13.44-12.83
	c0.25-5.99,4.81-10.82,10.81-11.37c1.46-0.13,2.93-0.12,4.39-0.12c54.48-0.01,108.96-0.01,163.45,0.01c1.99,0,4.04-0.07,5.96,0.36
	c5.73,1.29,9.56,6.85,9.1,12.87c-0.44,5.78-5,10.42-10.84,10.96c-1.59,0.15-3.19,0.13-4.79,0.13
	C-764.04,527.23-791.22,527.23-818.39,527.23z"/>
<path class="st1" d="M-845.83,313.89c0,4.84,0,9.61,0,14.38c0,9.32-0.05,18.64,0.02,27.96c0.06,9.28,4.83,14.01,14.07,14.03
	c12.65,0.03,25.3,0.01,37.95,0.01c1.44,0,2.88,0,4.36,0c-2.73,18.44-24.59,34.78-45.24,34.09c-23.49-0.79-43.26-19.17-44.95-41.79
	C-881.33,339.74-866.24,317.78-845.83,313.89z"/>
<path class="st1" d="M-755.8,311.71c-10.47,0-20.92,0-31.57,0c0-10.68,0-21.13,0-31.6C-773.23,282.53-757.04,298.77-755.8,311.71z"
	/>
</svg>
