<?xml version="1.0" encoding="utf-8"?>
<!-- Generator: Adobe Illustrator 23.0.3, SVG Export Plug-In . SVG Version: 6.00 Build 0)  -->
<svg version="1.1" id="Layer_1" xmlns="http://www.w3.org/2000/svg" xmlns:xlink="http://www.w3.org/1999/xlink" x="0px" y="0px"
	 viewBox="0 0 500 500" style="enable-background:new 0 0 500 500;" xml:space="preserve">
<style type="text/css">
	.st0{fill:#BDD29A;}
	.st1{fill:#83951D;}
	.st2{fill:#465E14;}
</style>
<g>
	<path class="st0" d="M89.9,500c-5-1.8-10.4-2.9-15-5.5c-15.2-8.5-23-21.8-23-39.1c-0.2-38.4,0-76.8,0-115.2c0-89,0-178,0-267
		c0-24,15.1-42,38.5-45.3c6.9-1,14-0.4,20.9-0.5c11.9-0.1,23.8,0.1,35.6-0.1c2.1,0,4.7-1.1,6.2-2.6c16-16.3,35.3-24.6,58.1-24.6
		C237.1,0,262.9,0,288.8,0c22.8,0,42.1,8.4,58.1,24.6c1.5,1.5,4.1,2.6,6.2,2.6c16.3,0.2,32.5,0.1,48.8,0.1
		c27.5,0,46.3,18.8,46.3,46.3c0,126.6,0,253.2,0,379.8c0,24.2-13.1,40.5-36.8,45.9c-0.5,0.1-0.9,0.4-1.3,0.7
		C303.4,500,196.6,500,89.9,500z M133.8,57c-0.4-0.1-0.7-0.2-1-0.2c-11.2,0-22.4,0-33.7,0c-12.7,0-18.1,5.3-18.1,18
		c0,125.9,0,251.9,0,377.8c0,12.7,5.4,18.1,18.1,18.1c100.4,0,200.8,0,301.2,0c13.4,0,18.6-5.2,18.6-18.5c0-125.6,0-251.2,0-376.9
		c0-1.1,0-2.3,0-3.4c-0.2-8.8-6.3-15-15.1-15.1c-8.1-0.1-16.3,0-24.4,0c-4.5,0-9,0-13.2,0c0.8,7.3,1.9,14.1,2.3,20.8
		c0.6,10.1-5.5,16.3-15.7,16.3c-68.5,0-137,0-205.5,0c-10.3,0-16.3-6.3-15.7-16.8C132,70.5,133,63.9,133.8,57z M337,64.3
		c-0.6-1.7-1-3.2-1.7-4.7c-9-19.2-24-29.7-45.2-30.2c-26.7-0.5-53.3-0.2-80-0.1c-3.1,0-6.2,0.4-9.2,1c-17.4,3.1-34,18-37.4,34
		C221.2,64.3,278.8,64.3,337,64.3z"/>
	<path class="st1" d="M133.8,57c-0.8,6.9-1.9,13.5-2.3,20.1c-0.6,10.4,5.4,16.8,15.7,16.8c68.5,0,137,0,205.5,0
		c10.1,0,16.2-6.3,15.7-16.3c-0.4-6.8-1.5-13.5-2.3-20.8c4.2,0,8.7,0,13.2,0c8.1,0,16.3-0.1,24.4,0c8.9,0.1,14.9,6.3,15.1,15.1
		c0,1.1,0,2.3,0,3.4c0,125.6,0,251.2,0,376.9c0,13.4-5.2,18.5-18.6,18.5c-100.4,0-200.8,0-301.2,0c-12.7,0-18.1-5.4-18.1-18.1
		c0-125.9,0-251.9,0-377.8c0-12.7,5.4-18,18.1-18c11.2,0,22.4,0,33.7,0C133.2,56.8,133.5,56.9,133.8,57z M266.9,203.8
		c-1.7-1.8-3.5-3.7-5.3-5.5c-12.5-12.6-25-25.1-37.6-37.6c-6.6-6.5-15-6.9-21.3-0.7c-17.8,17.6-35.5,35.4-53.1,53.2
		c-3.7,3.7-4.9,8.4-3.5,13.5c3,11.4,16.4,14.8,25.1,6.2c12.7-12.6,25.3-25.3,37.9-38c1.2-1.2,2.5-2.4,3.9-3.6
		c14.5,14.4,28.6,28.6,42.8,42.7c7.9,7.9,15.9,7.9,23.8-0.1c13.1-13.1,26.2-26.3,39.3-39.4c1.2-1.2,2.5-2.4,4-3.7
		c2,11.1,7.9,16.4,16.8,15.5c8.3-0.9,13-7.1,13-17.6c0-10.7,0-21.5,0-32.2c0-10.7-5.8-16.5-16.7-16.6c-9.1-0.1-18.2-0.1-27.3,0
		c-3.6,0-7.2-0.1-10.7,0.6c-7.2,1.4-12,7.6-11.7,14.7c0.2,6.9,5.2,12.6,12.2,13.9c1,0.2,2,0.4,3.1,0.6
		C289.9,181,278.6,192.2,266.9,203.8z M299.8,303.4c-19.3,0-38.7,0-58,0c-9.6,0-16.1,6-16.2,14.5c-0.1,8.6,6.6,14.8,16.4,14.9
		c5.2,0.1,10.4,0,15.6,0c32.8,0,65.7,0,98.5,0c6.5,0,11.9-1.9,15.1-7.9c5.4-10-1.5-21.3-13.3-21.4
		C338.5,303.3,319.2,303.4,299.8,303.4z M299.6,387.6c-19.4,0-38.7,0-58,0c-9.5,0-16,6.1-15.9,14.7c0.1,8.5,6.7,14.6,16.1,14.6
		c38.4,0,76.7,0,115.1,0c9.5,0,16.1-6,16.2-14.5c0.1-8.8-6.5-14.7-16.4-14.7C337.6,387.6,318.6,387.6,299.6,387.6z M155.7,313.8
		c-1.6-2.1-2.7-3.8-4-5.1c-6.5-6.4-15.4-6.6-21.3-0.7c-5.9,5.9-5.8,14.8,0.5,21.4c4.4,4.6,8.9,9,13.4,13.5c7.9,7.9,16,8,23.8,0.2
		c9.7-9.6,19.3-19.3,28.9-29c7.2-7.3,7.7-16.2,1.3-22.4c-6.3-6.1-14.9-5.5-22,1.6C169.8,299.7,163.3,306.3,155.7,313.8z
		 M155.7,398.1c-1.7-2.2-2.7-3.9-4.1-5.3c-6.6-6.4-15.3-6.7-21.3-0.7c-5.9,5.9-5.8,14.8,0.5,21.3c4.5,4.7,9.1,9.2,13.8,13.8
		c7.5,7.4,15.7,7.5,23.1,0.2c9.8-9.7,19.6-19.5,29.3-29.3c7.2-7.3,7.7-16.3,1.3-22.4c-6.2-6-15-5.4-22,1.6
		C169.8,383.8,163.3,390.4,155.7,398.1z"/>
	<path class="st2" d="M337,64.3c-58.1,0-115.8,0-173.5,0c3.5-15.9,20-30.9,37.4-34c3-0.5,6.1-0.9,9.2-1c26.7-0.1,53.3-0.5,80,0.1
		c21.1,0.4,36.2,11,45.2,30.2C335.9,61.1,336.4,62.6,337,64.3z"/>
	<path class="st0" d="M266.9,203.8c11.7-11.6,23-22.8,34.5-34.2c-1-0.2-2.1-0.4-3.1-0.6c-7-1.3-11.9-7-12.2-13.9
		c-0.2-7.1,4.5-13.3,11.7-14.7c3.5-0.7,7.1-0.5,10.7-0.6c9.1-0.1,18.2-0.1,27.3,0c10.8,0.1,16.6,5.9,16.7,16.6c0,10.7,0,21.5,0,32.2
		c0,10.4-4.6,16.7-13,17.6c-8.8,0.9-14.8-4.4-16.8-15.5c-1.4,1.4-2.7,2.5-4,3.7c-13.1,13.1-26.2,26.3-39.3,39.4
		c-7.9,7.9-15.9,7.9-23.8,0.1c-14.2-14.1-28.3-28.2-42.8-42.7c-1.3,1.3-2.6,2.4-3.9,3.6c-12.6,12.7-25.2,25.4-37.9,38
		c-8.7,8.6-22.1,5.3-25.1-6.2c-1.4-5.1-0.1-9.8,3.5-13.5c17.6-17.8,35.3-35.6,53.1-53.2c6.3-6.2,14.7-5.8,21.3,0.7
		c12.6,12.5,25.1,25.1,37.6,37.6C263.4,200.1,265.2,202,266.9,203.8z"/>
	<path class="st0" d="M299.8,303.4c19.3,0,38.7-0.1,58,0.1c11.8,0.1,18.7,11.5,13.3,21.4c-3.2,6-8.6,7.9-15.1,7.9
		c-32.8,0-65.7,0-98.5,0c-5.2,0-10.4,0-15.6,0c-9.7-0.1-16.5-6.3-16.4-14.9c0.1-8.5,6.6-14.4,16.2-14.5
		C261.1,303.4,280.5,303.4,299.8,303.4z"/>
	<path class="st0" d="M299.6,387.6c19,0,38,0,57.1,0c9.9,0,16.5,6,16.4,14.7c-0.1,8.5-6.7,14.5-16.2,14.5c-38.4,0-76.7,0-115.1,0
		c-9.4,0-16.1-6.1-16.1-14.6c-0.1-8.6,6.5-14.6,15.9-14.7C260.9,387.5,280.3,387.6,299.6,387.6z"/>
	<path class="st0" d="M155.7,313.8c7.5-7.6,14-14.1,20.6-20.7c7.2-7.1,15.7-7.8,22-1.6c6.4,6.2,5.9,15.1-1.3,22.4
		c-9.6,9.7-19.2,19.4-28.9,29c-7.8,7.8-15.9,7.7-23.8-0.2c-4.5-4.5-9-8.9-13.4-13.5c-6.3-6.5-6.5-15.5-0.5-21.4
		c5.9-5.9,14.8-5.6,21.3,0.7C153.1,310,154.1,311.7,155.7,313.8z"/>
	<path class="st0" d="M155.7,398.1c7.6-7.6,14.1-14.2,20.6-20.7c7.1-7.1,15.8-7.7,22-1.6c6.4,6.2,5.9,15.2-1.3,22.4
		c-9.7,9.8-19.5,19.6-29.3,29.3c-7.4,7.3-15.6,7.2-23.1-0.2c-4.6-4.6-9.2-9.1-13.8-13.8c-6.3-6.5-6.5-15.4-0.5-21.3
		c6-6,14.7-5.7,21.3,0.7C153,394.2,154.1,395.9,155.7,398.1z"/>
</g>
</svg>
