<?xml version="1.0" encoding="utf-8"?>
<!-- Generator: Adobe Illustrator 23.0.3, SVG Export Plug-In . SVG Version: 6.00 Build 0)  -->
<svg version="1.1" id="Layer_1" xmlns="http://www.w3.org/2000/svg" xmlns:xlink="http://www.w3.org/1999/xlink" x="0px" y="0px"
	 viewBox="0 0 500 500" style="enable-background:new 0 0 500 500;" xml:space="preserve">
<style type="text/css">
	.st0{fill:#BDD29A;}
	.st1{fill:#83951D;}
	.st2{fill:#465E14;}
</style>
<g>
	<path class="st0" d="M441.34,500c-108.72,0-217.45,0-326.17,0c-8.72-3.49-12.01-10.07-11.6-19.23c0.35-7.96,0.07-15.95,0.07-23.92
		c0-2.68,0-5.37,0-8.38c-13.17,0-25.51,0.02-37.86,0c-12.8-0.02-18.13-5.29-18.13-17.99c-0.01-137.52-0.01-275.03,0-412.55
		c0-12.4,5.48-17.91,17.79-17.91c38.57-0.01,77.14,0,115.71,0c65.91,0,131.82-0.01,197.73,0.01c11.33,0,17.19,5.8,17.33,17.04
		c0.05,3.74,0.01,7.49,0.01,11.23c0,7.59,0,15.18,0,23.26c2.39,0,4.15,0,5.9,0c11.55,0,23.11-0.11,34.66,0.05
		c9.37,0.13,15.13,6,15.41,15.28c0.04,1.3,0.02,2.6,0.02,3.91c0,136.54-0.06,273.08,0.14,409.62
		C452.37,489.55,449.73,496.11,441.34,500z M422.14,469.81c0-129.52,0-258.79,0-388.23c-96.27,0-192.18,0-288.12,0
		c0,129.62,0,258.91,0,388.23C230.2,469.81,326.02,469.81,422.14,469.81z M103.64,418.5c0-2.7,0-4.8,0-6.9
		c0-113.43,0.08-226.87-0.13-340.3c-0.02-11.42,4.22-20.01,20.07-19.93c78.77,0.38,157.54,0.17,236.31,0.17c2.02,0,4.04,0,6.02,0
		c0-7.62,0-14.39,0-21.22c-96.22,0-192.13,0-288.09,0c0,129.63,0,258.89,0,388.19C86.51,418.5,94.75,418.5,103.64,418.5z"/>
	<path class="st1" d="M422.14,469.81c-96.12,0-191.94,0-288.12,0c0-129.32,0-258.61,0-388.23c95.94,0,191.86,0,288.12,0
		C422.14,211.01,422.14,340.29,422.14,469.81z M272.36,214.24c0-2.06,0-3.34,0-4.62c0-16.76,0.05-33.53-0.02-50.29
		c-0.05-10.88-6.94-17.14-17.82-16.41c-2.11,0.14-4.22,0.32-6.33,0.51c-44,3.93-79.13,44.49-77.22,88.66
		c2.26,52.32,48.89,90.18,99.87,82.55c40.73-6.1,73.64-43.91,72.88-85.16c-0.15-8.25-5.39-14.22-13.71-14.95
		c-5.33-0.47-10.73-0.26-16.1-0.27C300.27,214.22,286.62,214.24,272.36,214.24z M283.75,152.04c0,11.71-0.15,23.43,0.04,35.14
		c0.16,9.85,6.14,15.77,15.97,15.82c23.1,0.11,46.2,0.12,69.3,0c10.01-0.05,16.02-6.48,15.84-16.4
		c-0.81-45.98-37.19-83.12-83.2-84.91c-11.82-0.46-17.88,5.27-17.96,17.17C283.67,129.92,283.73,140.98,283.75,152.04z
		 M276.01,378.77c33.34,0,66.68,0.02,100.01-0.03c2.58,0,5.24-0.16,7.71-0.8c6.42-1.66,10.7-7.43,10.78-14
		c0.07-6.6-4.02-12.5-10.38-14.29c-2.61-0.74-5.45-0.9-8.18-0.9c-66.51-0.05-133.03-0.04-199.54-0.03c-1.79,0-3.6-0.06-5.36,0.2
		c-7.9,1.14-13.19,7.29-13.08,15.09c0.13,8.9,6.76,14.73,17.04,14.74C208.68,378.8,242.34,378.77,276.01,378.77z M275.87,435.77
		c33.17,0,66.34,0,99.51-0.01c1.95,0,3.91,0.03,5.85-0.15c7.13-0.66,12.69-6.32,13.23-13.38c0.56-7.35-4.11-14.14-11.11-15.72
		c-2.34-0.53-4.85-0.44-7.28-0.44c-66.51-0.02-133.01-0.02-199.52-0.01c-1.79,0-3.58-0.02-5.36,0.14
		c-7.32,0.68-12.89,6.57-13.2,13.88c-0.4,9.41,5.99,15.64,16.4,15.66C208.23,435.81,242.05,435.77,275.87,435.77z"/>
	<path class="st2" d="M103.64,418.5c-8.88,0-17.13,0-25.82,0c0-129.3,0-258.56,0-388.19c95.96,0,191.88,0,288.09,0
		c0,6.83,0,13.6,0,21.22c-1.98,0-4,0-6.02,0c-78.77,0-157.54,0.21-236.31-0.17c-15.85-0.08-20.09,8.52-20.07,19.93
		c0.21,113.43,0.13,226.87,0.13,340.3C103.64,413.7,103.64,415.81,103.64,418.5z"/>
	<path class="st0" d="M272.36,214.24c14.26,0,27.91-0.02,41.56,0.01c5.37,0.01,10.76-0.19,16.1,0.27
		c8.32,0.73,13.56,6.7,13.71,14.95c0.76,41.25-32.15,79.06-72.88,85.16c-50.98,7.63-97.62-30.23-99.87-82.55
		c-1.9-44.16,33.22-84.73,77.22-88.66c2.11-0.19,4.22-0.37,6.33-0.51c10.89-0.72,17.77,5.54,17.82,16.41
		c0.08,16.76,0.02,33.53,0.02,50.29C272.36,210.9,272.36,212.19,272.36,214.24z M242.37,175.35c-24.91,4.75-43.33,31.55-41.24,59.42
		c2.07,27.62,26.2,50.05,54.87,51.02c25.21,0.85,51.89-19.1,55.22-41.61c-1.81,0-3.57,0-5.33,0c-15.44,0-30.88,0.03-46.33-0.01
		c-11.28-0.02-17.1-5.8-17.18-17.12c-0.08-11.38-0.02-22.76-0.02-34.13C242.37,187.08,242.37,181.26,242.37,175.35z"/>
	<path class="st0" d="M283.74,152.04c-0.01-11.06-0.06-22.12,0.01-33.18c0.08-11.9,6.13-17.63,17.96-17.17
		c46.01,1.8,82.39,38.93,83.2,84.91c0.17,9.92-5.83,16.34-15.84,16.4c-23.1,0.12-46.2,0.12-69.3,0
		c-9.83-0.05-15.81-5.97-15.97-15.82C283.6,175.47,283.75,163.75,283.74,152.04z M352.28,172.69c-1.52-15.8-21.28-35.62-38.54-38.57
		c0,12.78,0,25.53,0,38.57C326.74,172.69,339.5,172.69,352.28,172.69z"/>
	<path class="st0" d="M276.01,378.77c-33.66,0-67.33,0.03-100.99-0.02c-10.29-0.01-16.92-5.84-17.04-14.74
		c-0.11-7.79,5.18-13.95,13.08-15.09c1.76-0.25,3.57-0.2,5.36-0.2c66.51-0.01,133.03-0.02,199.54,0.03c2.73,0,5.57,0.16,8.18,0.9
		c6.36,1.79,10.46,7.69,10.38,14.29c-0.07,6.57-4.36,12.33-10.78,14c-2.48,0.64-5.14,0.79-7.71,0.8
		C342.68,378.79,309.35,378.77,276.01,378.77z"/>
	<path class="st0" d="M275.87,435.77c-33.82,0-67.64,0.04-101.47-0.02c-10.41-0.02-16.8-6.25-16.4-15.66
		c0.31-7.31,5.88-13.2,13.2-13.88c1.78-0.16,3.57-0.14,5.36-0.14c66.51-0.01,133.01-0.01,199.52,0.01c2.43,0,4.94-0.08,7.28,0.44
		c7,1.57,11.67,8.36,11.11,15.72c-0.54,7.05-6.1,12.72-13.23,13.38c-1.94,0.18-3.9,0.15-5.85,0.15
		C342.22,435.77,309.04,435.77,275.87,435.77z"/>
	<path class="st2" d="M242.37,175.35c0,5.9,0,11.73,0,17.55c0,11.38-0.06,22.76,0.02,34.13c0.08,11.33,5.9,17.1,17.18,17.12
		c15.44,0.03,30.88,0.01,46.33,0.01c1.76,0,3.52,0,5.33,0c-3.33,22.51-30.01,42.46-55.22,41.61c-28.67-0.96-52.8-23.4-54.87-51.02
		C199.04,206.9,217.46,180.1,242.37,175.35z"/>
	<path class="st2" d="M352.28,172.69c-12.78,0-25.54,0-38.54,0c0-13.04,0-25.79,0-38.57C331,137.07,350.76,156.89,352.28,172.69z"/>
</g>
</svg>
