<?xml version="1.0" encoding="utf-8"?>
<!-- Generator: Adobe Illustrator 23.0.3, SVG Export Plug-In . SVG Version: 6.00 Build 0)  -->
<svg version="1.1" id="Layer_1" xmlns="http://www.w3.org/2000/svg" xmlns:xlink="http://www.w3.org/1999/xlink" x="0px" y="0px"
	 viewBox="0 0 500 500" style="enable-background:new 0 0 500 500;" xml:space="preserve">
<style type="text/css">
	.st0{fill:#043A16;}
</style>
<path class="st0" d="M489.1,217.9c-8.5-4.9-10.3-12.4-11.5-20.8c-0.1-0.8-0.3-1.6-0.5-2.4c-21.9-89.5-93.8-157.5-184.2-174.3
	c-3-0.6-5.1-1.8-6.8-4.6c-4.9-8.2-12.3-13.6-21.8-14.9C257-0.1,249.4,0,242,0.1c-12.1,0.2-21.6,5.5-28.1,15.7
	c-1.7,2.8-3.7,4-6.8,4.6C161.8,28.8,122.4,49,89.1,80.7c-36.5,34.8-59.5,77.1-68.9,126.8c-0.4,2.2-2.2,4.6-4,5.9
	c-10.2,6.9-15.7,16.2-16,28.5C0,247.3,0,252.7,0.1,258c0.3,12.1,5.5,21.7,15.7,28.1c3,1.9,4.1,4.1,4.7,7.3
	c8.4,45.2,28.6,84.4,60.3,117.6c34.8,36.5,77.1,59.5,126.8,68.8c1.6,0.3,4,0.9,4.6,2c5.3,9.8,13.9,15.1,24.2,18.2
	c9.1,0,18.2,0,27.3,0c10.3-3.1,18.9-8.3,24.2-18.2c0.6-1.2,3-1.7,4.6-2c37.3-6.8,71-21.8,100.8-45.2c46.1-36.4,75.1-83.3,86.3-141.1
	c0.6-3.1,1.5-5.5,4.7-7.3c8.7-4.9,13-13.3,15.8-22.5c0-9.1,0-18.2,0-27.3C497.7,229.4,495.6,221.6,489.1,217.9z M291.3,35
	c35.9,6.8,67.5,21.4,95.3,43.9c41.5,33.5,67.6,76.6,78.6,129.7c-23.9,0-47.2,0-71.3,0c-0.3-0.8-0.8-2.5-1.3-4.1
	c-8.4-25.8-22.6-47.8-42.8-65.9c-1.3-1.2-2.6-2.5-4.2-3.3c0,0,0,0,0,0c-8.4-7-17.6-13.1-27.5-18.1c-0.8-0.6-1.7-1.2-2.8-1.6
	c-7.9-3.4-15.9-6.5-24-9.8C291.3,82.3,291.3,59.1,291.3,35z M369,258.7c0.1,8.7,3.5,16,9.2,22.5c1.2,1.4,2,4.1,1.5,5.8
	c-3.1,10-7,19.2-11.5,27.7c-17.7,31.7-47.8,55.5-83.7,64.9c-1.2-0.3-2.5-0.9-3.3-1.6c-6.5-5.7-13.8-9-22.5-9.1c-5.7,0-11.4,0-17.1,0
	c-8.7,0.1-16.3,3.2-22.4,9.3c-0.7,0.7-1.3,1.1-2,1.5c-47.3-12.2-84.5-49.5-96.6-96.9c0.3-0.7,0.9-1.4,1.6-2.1
	c5.8-5.9,8.9-13.1,9-21.5c0.1-6,0.1-12,0-18.1c-0.1-8.5-3.2-15.9-9.1-22c-0.7-0.8-1.3-1.5-1.6-2.2c11.8-47.1,48.4-84.4,95.1-97.1
	c1.3,0.1,2.5,0.8,3.7,2c6.1,5.9,13.4,9,21.9,9.1c5.4,0.1,10.7,0,16.1,0.1c9.4,0.1,17.4-3.3,24.3-9.6c1.2-1.1,3.9-1.7,5.4-1.2
	c7.4,2.5,14.6,5.3,21.8,8.3c0.5,0.2,1,0.4,1.5,0.5c9.6,4.8,18.6,10.7,26.7,17.5c1.3,1.4,2.9,2.6,4.3,3.9c18.3,17,31,37.4,38.3,61.3
	c0.9,3.1,0.7,5.2-1.8,7.7c-5.7,5.7-8.6,12.9-8.8,21.1C368.9,246.7,368.9,252.7,369,258.7z M223.5,32.7c0.1-10.1,8.1-17.6,18.2-18
	c5.4-0.2,10.7-0.1,16.1,0c10.6,0.2,18.3,7.8,18.9,18.4c0,0.5,0,1,0,1.5c0,10.4,0,20.8,0,31.2c0,10.1,0.1,20.2,0,30.3
	c0,2.5-0.3,4.8-0.9,6.9c-1.8,6.7-6.4,11.1-13.2,12.7c-1.9,0.5-4,0.7-6.3,0.7c-4.9,0-9.8,0.1-14.6-0.1c-1.5-0.1-2.9-0.3-4.3-0.6
	c-6.6-1.6-11.6-6.2-13.3-12.6c-0.4-1.5-0.6-3-0.7-4.7C223.2,76.6,223.2,54.7,223.5,32.7z M90.6,100c32.2-34.1,71.3-55.7,118.1-65.1
	c0,23.9,0,47.3,0,71.1c-51.3,16.5-85.8,50.8-102.6,102.7c-23.7,0-47,0-71,0C43.2,166.7,61.7,130.6,90.6,100z M14.8,257.5
	c-0.1-5.2-0.1-10.4,0-15.6c0.3-10.4,7.9-18.4,18.2-18.5c21.8-0.3,43.6-0.3,65.4,0c2.1,0,4,0.4,5.8,1c7.2,2.4,12,8.9,12.3,17.1
	c0,0.6,0,1.2,0.1,1.8c-0.1,2.1-0.2,4.2-0.2,6.3c0,2.2,0.1,4.5,0.2,6.7c0,0.8,0,1.5-0.1,2.3c-0.3,8.1-5.1,14.4-12.2,16.9
	c-1.8,0.6-3.8,1-5.9,1.1c-1.1,0-2.2,0.1-3.3,0.1h-8.5c-0.2,0-0.3,0-0.5,0H43.5c-3.3,0-6.7,0.1-10,0C22.5,276.2,15,268.5,14.8,257.5z
	 M208.6,465.1c-46.2-9.3-85-30.6-117.1-64C63,371.3,35.7,318,35.6,291.3c0.9,0,1.7,0,2.6,0v0h1.5c1.4,0,2.8,0,4.2,0h43.9
	c2.8,0,5.5,0,8.3,0h0.3l0,0c3.1,0,6.3,0,9.6,0c16.8,51.7,51,85.9,102.7,102.7C208.6,417.5,208.6,441,208.6,465.1z M276.7,434
	c0,10.3,0.1,20.5,0,30.7c-0.1,13-7.7,20.5-20.8,20.5c-4.7,0-9.4,0.1-14.1,0c-10.1-0.4-18.2-7.8-18.3-17.9c-0.3-22-0.3-43.9,0-65.9
	c0-2,0.4-3.9,0.9-5.6c2.3-7.2,9-12,17.2-12.3c3,0.2,6,0.3,9.1,0.3c2.8,0,5.6-0.1,8.4-0.3c8,0.5,14.3,5.3,16.6,12.5
	c0.6,1.8,0.9,3.7,1,5.7C276.9,412.6,276.7,423.3,276.7,434C276.7,434,276.7,434,276.7,434z M291.3,464.6c0-23.6,0-46.9,0-70.6
	c51.4-16.5,85.9-50.8,102.8-102.8c23.4,0,46.9,0,70.4,0C452.1,372.5,380.3,449.9,291.3,464.6z M485.3,257.7
	c-0.3,10.7-7.8,18.7-18.4,18.8c-21.6,0.3-43.3,0.2-64.9,0c-1.8,0-3.4-0.3-5-0.7c-6.3-1.7-10.9-6.4-12.7-12.8
	c-0.5-1.6-0.7-3.4-0.8-5.2c-0.1-5.4-0.1-10.7,0-16.1c0.1-1.8,0.3-3.5,0.8-5.2c1.8-6.3,6.5-10.9,12.8-12.5c1.5-0.4,3.1-0.6,4.7-0.7
	c11-0.3,22.1-0.1,33.2-0.1c0,0,0,0,0,0c10.1,0,20.2-0.1,30.3,0c12.4,0.1,19.9,7.8,20,20.2C485.4,248.3,485.4,253,485.3,257.7z"/>
</svg>
