<?xml version="1.0" encoding="utf-8"?>
<!-- Generator: Adobe Illustrator 23.0.3, SVG Export Plug-In . SVG Version: 6.00 Build 0)  -->
<svg version="1.1" id="Layer_1" xmlns="http://www.w3.org/2000/svg" xmlns:xlink="http://www.w3.org/1999/xlink" x="0px" y="0px"
	 viewBox="0 0 500 500" style="enable-background:new 0 0 500 500;" xml:space="preserve">
<style type="text/css">
	.st0{fill:#043A16;}
</style>
<g>
	<path class="st0" d="M39,0c122.7,0,245.4,0,368.1,0c0.5,0.3,1,0.7,1.6,0.9c13.1,4.3,19.9,13.4,20.1,27.2c0.1,7,0,14,0,21
		c0,6,0,12,0,18.4c8.5,0,16.5,0,24.4,0c18.5,0,29.8,11.2,29.8,29.8c0,25.2,0.3,50.4-0.2,75.7c-0.1,5.8-2.9,11.4-4.2,17.2
		c-0.4,1.6-0.2,3.5,0.2,5.1c1.3,5.1,4,10.2,4,15.3c0.4,26.4,0.4,52.7,0,79.1c-0.1,5-2.2,10.1-4.1,14.8c-1,2.4-0.9,3.8,0.1,6.1
		c1.9,4.6,4,9.5,4,14.3c0.4,26.7,0.2,53.4,0.1,80.1c0,8.4-3.2,15.5-9.6,21.1c-5.3,4.5-11.5,6.5-18.4,6.6c-8.6,0-17.1,0-26.1,0
		c0,12.8,0,25,0,37.2c0,3.2,0,6.6-0.8,9.7c-3.1,12.9-13.9,20.6-28.3,20.6c-92.9,0-185.8,0-278.7,0c-25.4,0-50.8,0-76.2,0
		c-7.9,0-14.7-2.5-20.3-8.1c-6.2-6.1-8-13.8-8-22.3c0.1-118,0-235.9,0-353.9c0-28.8,0-57.6,0-86.4c0-8,1.7-15.5,7.8-20.8
		C28.7,4.9,34.2,2.8,39,0z M88,479.6c1.9,0,3.3,0,4.8,0c102,0,204.1,0,306.1,0c8.1,0,9.9-1.9,9.9-10.2c0-146.3,0-292.6,0-438.9
		c0-8.4-1.8-10.2-10.4-10.2c-101.7,0-203.4,0-305.1,0c-1.7,0-3.4,0-5.3,0C88,173.7,88,326.3,88,479.6z M67.2,20.7
		c-0.9-0.2-1.2-0.3-1.5-0.3c-5.9,0-11.7,0-17.6,0c-9.5,0-11,1.5-11,11c0,145.8,0,291.6,0,437.4c0,1.6-0.5,3.6,0.2,4.8
		c1.5,2.3,3.5,5.6,5.5,5.7c8,0.7,16.1,0.3,24.4,0.3C67.2,326.3,67.2,173.6,67.2,20.7z M429.2,182.5c9.2,0,17.8,0.1,26.4-0.1
		c4.6-0.1,7-2.8,7.2-7.5c0.1-5.7,0-11.4,0-17.1c0-20.5,0-41,0-61.5c0-4.2-1.4-8-5.8-8.2c-9.2-0.5-18.4-0.2-27.9-0.2
		C429.2,119.6,429.2,150.7,429.2,182.5z M429.2,412.1c9.2,0,18,0.1,26.7,0c4.2-0.1,6.8-2.7,6.8-6.8c0.1-26.8,0.1-53.7,0-80.5
		c0-4-2.2-6.9-6.1-7c-9-0.4-18.1-0.1-27.5-0.1C429.2,349.2,429.2,380.3,429.2,412.1z M429.2,202.9c0,31.5,0,62.7,0,94.2
		c9.4,0,18.5,0.2,27.5-0.1c4-0.1,6-3.1,6-7c0.1-26.7,0.1-53.4,0-80.1c0-3.9-2-6.9-6-7C447.7,202.7,438.6,202.9,429.2,202.9z"/>
	<path class="st0" d="M285.6,237.2c5.4,2.9,11,5.5,16.1,8.8c30.9,19.9,47.3,48.3,49.6,85c0.6,10.1-3.1,13.9-13.4,13.9
		c-60.7,0-121.4,0-182.1,0c-11,0-14.7-3.9-13.8-14.9c3.4-42.5,24.4-72.8,62.8-91.1c1-0.5,1.9-1,3-1.6c-32.8-27.8-29.2-71-5.2-94.3
		c24.8-24.2,63.5-24.1,88.3,0.4C314.3,166.5,318.2,209.1,285.6,237.2z M329.6,324.3c2.6-35.3-40.3-73.6-82.5-74
		c-42.2-0.4-85.6,37.9-83.6,74C218.9,324.3,274.3,324.3,329.6,324.3z M246.7,145.4c-23.4-0.1-42.4,18.7-42.6,41.9
		c-0.2,23.4,18.9,42.7,42.3,42.8c23.3,0.1,42.6-19.1,42.5-42.5C289,164.3,270.1,145.4,246.7,145.4z"/>
</g>
</svg>
