<?xml version="1.0" encoding="utf-8"?>
<!-- Generator: Adobe Illustrator 23.0.3, SVG Export Plug-In . SVG Version: 6.00 Build 0)  -->
<svg version="1.1" id="Layer_1" xmlns="http://www.w3.org/2000/svg" xmlns:xlink="http://www.w3.org/1999/xlink" x="0px" y="0px"
	 viewBox="0 0 500 500" style="enable-background:new 0 0 500 500;" xml:space="preserve">
<style type="text/css">
	.st0{fill:#25D865;}
	.st1{fill:#008A37;}
	.st2{fill:#043A16;}
</style>
<path class="st0" d="M-1072.59-370.45c67.46,0,134.66,0,202.04,0c0,97.86,0,195.55,0,293.53c-67.22,0-134.5,0-202.04,0
	C-1072.59-174.6-1072.59-272.38-1072.59-370.45z M-971.63-279.87c-22.1,0-44.21,0.03-66.31-0.02c-5.27-0.01-9.27,2.02-11.45,6.85
	c-3.47,7.68,2.3,15.65,11.31,15.66c26.72,0.04,53.45,0.01,80.17,0.01c17.61,0,35.22-0.02,52.82,0.01c5.1,0.01,9-2.01,11.18-6.68
	c3.57-7.68-2.09-15.8-11.04-15.82C-927.17-279.9-949.4-279.87-971.63-279.87z M-971.54-212.37c22.1,0,44.21-0.02,66.31,0.02
	c5.26,0.01,9.27-2.04,11.43-6.88c3.37-7.57-2.27-15.6-10.98-15.61c-26.85-0.05-53.7-0.02-80.55-0.02c-17.61,0-35.22,0.02-52.82-0.01
	c-5.12-0.01-9,2.05-11.16,6.7c-3.56,7.66,2.14,15.77,11.09,15.79C-1016-212.33-993.77-212.37-971.54-212.37z M-971.56-189.87
	c-22.1,0-44.21,0.03-66.31-0.02c-5.26-0.01-9.28,1.97-11.49,6.79c-3.45,7.53,2.16,15.68,10.84,15.71
	c21.73,0.07,43.46,0.03,65.19,0.03c22.73,0,45.46-0.02,68.18,0.01c5.1,0.01,9.01-1.95,11.21-6.62c3.61-7.67-2.01-15.85-10.94-15.87
	C-927.11-189.9-949.33-189.87-971.56-189.87z M-1005.37-302.37c10.98,0,21.96,0.04,32.95-0.01c6.99-0.03,11.99-4.71,12.06-11.13
	c0.07-6.56-5.01-11.33-12.21-11.34c-21.84-0.03-43.68-0.03-65.52,0c-7.2,0.01-12.29,4.77-12.24,11.31
	c0.05,6.54,5.12,11.14,12.4,11.17C-1027.08-302.34-1016.23-302.37-1005.37-302.37z M-926.22-144.87c-7.36,0-14.72-0.04-22.08,0.01
	c-6.95,0.05-11.98,4.74-12.04,11.13c-0.06,6.41,4.95,11.31,11.83,11.34c14.59,0.06,29.19,0.06,43.78,0
	c6.91-0.03,11.9-4.89,11.85-11.32c-0.05-6.41-5.06-11.1-12.02-11.15C-912-144.91-919.11-144.87-926.22-144.87z"/>
<path class="st1" d="M-847.85-324.71c7.7,0,14.89,0,22.3,0c0,97.68,0,195.2,0,292.9c-67.34,0-134.52,0-202,0c0-7.23,0-14.52,0-22.31
	c1.38,0,2.83,0,4.28,0c53.86,0,107.72,0,161.57,0c9.78,0,13.85-4.08,13.85-13.88c0-83.85,0-167.7,0-251.55
	C-847.85-321.15-847.85-322.76-847.85-324.71z"/>
<g>
	<path class="st2" d="M-1042.1-9.12c-6.5-2.99-8.62-8.13-8.35-15.11c0.39-9.82,0.1-19.68,0.1-29.89c-10.82,0-21.28,0.02-31.74-0.02
		c-1.73-0.01-3.52-0.1-5.17-0.57c-4.72-1.35-7.75-5.27-8.06-10.14c-0.07-1.12-0.03-2.25-0.03-3.37c0-103.62,0-207.24,0-310.85
		c0-10.05,4-14.04,14.07-14.04c73.24,0,146.49,0,219.73,0c9.55,0,13.69,4.13,13.7,13.66c0.01,10.5,0,20.99,0,32.08
		c1.31,0,2.49,0,3.68,0c9.37,0,18.75-0.01,28.12,0c8.83,0.01,13.2,4.31,13.2,13.03c0.01,103.99-0.03,207.99,0.08,311.98
		c0.01,6.48-2.86,10.51-8.32,13.24C-888.1-9.12-965.1-9.12-1042.1-9.12z M-1072.59-370.45c0,98.07,0,195.84,0,293.53
		c67.54,0,134.82,0,202.04,0c0-97.99,0-195.67,0-293.53C-937.93-370.45-1005.13-370.45-1072.59-370.45z M-847.85-324.71
		c0,1.94,0,3.55,0,5.16c0,83.85,0,167.7,0,251.55c0,9.8-4.08,13.88-13.85,13.88c-53.86,0-107.72,0-161.57,0c-1.45,0-2.9,0-4.28,0
		c0,7.79,0,15.08,0,22.31c67.48,0,134.67,0,202,0c0-97.7,0-195.22,0-292.9C-832.96-324.71-840.16-324.71-847.85-324.71z"/>
	<path class="st2" d="M-971.63-279.87c22.23,0,44.46-0.03,66.68,0.02c8.95,0.02,14.61,8.14,11.04,15.82
		c-2.17,4.67-6.07,6.69-11.18,6.68c-17.61-0.03-35.22-0.01-52.82-0.01c-26.72,0-53.45,0.02-80.17-0.01
		c-9.01-0.01-14.78-7.98-11.31-15.66c2.18-4.83,6.18-6.86,11.45-6.85C-1015.83-279.84-993.73-279.87-971.63-279.87z"/>
	<path class="st2" d="M-971.54-212.37c-22.23,0-44.46,0.03-66.68-0.02c-8.95-0.02-14.65-8.13-11.09-15.79
		c2.16-4.66,6.04-6.71,11.16-6.7c17.61,0.03,35.22,0.01,52.82,0.01c26.85,0,53.7-0.03,80.55,0.02c8.72,0.02,14.36,8.04,10.98,15.61
		c-2.16,4.85-6.16,6.89-11.43,6.88C-927.34-212.39-949.44-212.37-971.54-212.37z"/>
	<path class="st2" d="M-971.56-189.87c22.23,0,44.46-0.04,66.68,0.02c8.93,0.02,14.55,8.21,10.94,15.87
		c-2.2,4.67-6.12,6.63-11.21,6.62c-22.73-0.03-45.46-0.01-68.18-0.01c-21.73,0-43.46,0.05-65.19-0.03
		c-8.69-0.03-14.29-8.18-10.84-15.71c2.21-4.82,6.23-6.8,11.49-6.79C-1015.77-189.84-993.66-189.87-971.56-189.87z"/>
	<path class="st2" d="M-1005.37-302.37c-10.86,0-21.71,0.02-32.57-0.01c-7.28-0.02-12.35-4.63-12.4-11.17
		c-0.05-6.54,5.04-11.31,12.24-11.31c21.84-0.03,43.68-0.03,65.52,0c7.2,0.01,12.28,4.79,12.21,11.34
		c-0.07,6.42-5.07,11.1-12.06,11.13C-983.41-302.33-994.39-302.37-1005.37-302.37z"/>
	<path class="st2" d="M-926.22-144.87c7.11,0,14.22-0.04,21.33,0.01c6.97,0.05,11.98,4.74,12.02,11.15
		c0.05,6.43-4.95,11.29-11.85,11.32c-14.59,0.06-29.19,0.06-43.78,0c-6.88-0.03-11.89-4.92-11.83-11.34
		c0.06-6.39,5.09-11.09,12.04-11.13C-940.94-144.9-933.58-144.87-926.22-144.87z"/>
</g>
<path class="st2" d="M-682.84,579.84c-89.07,0-178.13,0-267.2,0c-7.14-2.86-9.84-8.25-9.51-15.75c0.29-6.52,0.06-13.06,0.06-19.6
	c0-2.2,0-4.4,0-6.87c-10.79,0-20.9,0.01-31.01,0c-10.49-0.02-14.85-4.34-14.85-14.74c-0.01-112.65-0.01-225.31,0-337.96
	c0-10.16,4.49-14.67,14.57-14.67c31.6-0.01,63.19,0,94.79,0c53.99,0,107.99-0.01,161.98,0.01c9.28,0,14.08,4.75,14.2,13.96
	c0.04,3.07,0.01,6.13,0.01,9.2c0,6.22,0,12.44,0,19.05c1.96,0,3.4,0,4.83,0c9.47,0,18.93-0.09,28.4,0.04
	c7.68,0.11,12.4,4.92,12.62,12.52c0.03,1.07,0.02,2.13,0.02,3.2c0,111.85-0.05,223.71,0.11,335.56
	C-673.8,571.28-675.96,576.66-682.84,579.84z M-698.57,555.11c0-106.1,0-212.01,0-318.04c-78.86,0-157.44,0-236.03,0
	c0,106.19,0,212.1,0,318.04C-855.8,555.11-777.31,555.11-698.57,555.11z M-959.49,513.08c0-2.21,0-3.93,0-5.66
	c0-92.93,0.07-185.85-0.1-278.78c-0.02-9.35,3.45-16.39,16.44-16.33c64.53,0.31,129.06,0.14,193.58,0.14c1.66,0,3.31,0,4.93,0
	c0-6.24,0-11.79,0-17.39c-78.82,0-157.39,0-236.01,0c0,106.19,0,212.09,0,318.01C-973.52,513.08-966.76,513.08-959.49,513.08z"/>
<path class="st0" d="M-698.57,555.11c-78.74,0-157.24,0-236.03,0c0-105.94,0-211.85,0-318.04c78.59,0,157.17,0,236.03,0
	C-698.57,343.11-698.57,449.01-698.57,555.11z M-821.27,345.75c0-1.69,0-2.74,0-3.79c0-13.73,0.04-27.47-0.02-41.2
	c-0.04-8.91-5.68-14.04-14.6-13.45c-1.73,0.11-3.46,0.26-5.18,0.42c-36.05,3.22-64.82,36.45-63.26,72.63
	c1.85,42.86,40.05,73.88,81.82,67.63c33.37-4.99,60.33-35.97,59.7-69.76c-0.12-6.76-4.41-11.65-11.23-12.25
	c-4.37-0.38-8.79-0.21-13.19-0.22C-798.4,345.74-809.58,345.75-821.27,345.75z M-811.94,294.8c0,9.59-0.12,19.19,0.04,28.78
	c0.13,8.07,5.03,12.92,13.08,12.96c18.92,0.09,37.85,0.1,56.77,0c8.2-0.04,13.12-5.31,12.98-13.43
	c-0.66-37.67-30.47-68.09-68.16-69.56c-9.68-0.38-14.65,4.32-14.71,14.07C-812,276.67-811.95,285.73-811.94,294.8z M-818.28,480.53
	c27.31,0,54.62,0.01,81.93-0.03c2.11,0,4.29-0.13,6.32-0.65c5.26-1.36,8.77-6.08,8.83-11.46c0.06-5.41-3.3-10.24-8.5-11.71
	c-2.14-0.6-4.46-0.73-6.7-0.74c-54.49-0.04-108.98-0.03-163.46-0.02c-1.46,0-2.95-0.05-4.39,0.16c-6.47,0.93-10.81,5.98-10.72,12.36
	c0.1,7.29,5.54,12.07,13.96,12.08C-873.43,480.55-845.86,480.53-818.28,480.53z M-818.39,527.23c27.17,0,54.35,0,81.52,0
	c1.6,0,3.2,0.02,4.79-0.13c5.84-0.54,10.39-5.18,10.84-10.96c0.46-6.02-3.36-11.58-9.1-12.87c-1.92-0.43-3.97-0.36-5.96-0.36
	c-54.48-0.02-108.96-0.01-163.45-0.01c-1.46,0-2.94-0.02-4.39,0.12c-6,0.55-10.56,5.38-10.81,11.37
	c-0.32,7.71,4.91,12.81,13.44,12.83C-873.8,527.26-846.1,527.23-818.39,527.23z"/>
<path class="st1" d="M-959.49,513.08c-7.28,0-14.03,0-21.15,0c0-105.92,0-211.81,0-318.01c78.61,0,157.19,0,236.01,0
	c0,5.6,0,11.14,0,17.39c-1.62,0-3.28,0-4.93,0c-64.53,0-129.06,0.17-193.58-0.14c-12.99-0.06-16.46,6.98-16.44,16.33
	c0.17,92.93,0.1,185.85,0.1,278.78C-959.49,509.15-959.49,510.87-959.49,513.08z"/>
<path class="st2" d="M-821.27,345.75c11.68,0,22.86-0.02,34.04,0.01c4.4,0.01,8.82-0.16,13.19,0.22c6.82,0.6,11.1,5.49,11.23,12.25
	c0.62,33.79-26.34,64.77-59.7,69.76c-41.76,6.25-79.97-24.77-81.82-67.63c-1.56-36.18,27.21-69.41,63.26-72.63
	c1.73-0.15,3.45-0.3,5.18-0.42c8.92-0.59,14.56,4.54,14.6,13.45c0.06,13.73,0.02,27.47,0.02,41.2
	C-821.27,343.02-821.27,344.07-821.27,345.75z M-845.83,313.89c-20.4,3.89-35.5,25.84-33.79,48.67c1.7,22.62,21.47,41,44.95,41.79
	c20.65,0.69,42.51-15.65,45.24-34.09c-1.48,0-2.92,0-4.36,0c-12.65,0-25.3,0.02-37.95-0.01c-9.24-0.02-14.01-4.75-14.07-14.03
	c-0.06-9.32-0.02-18.64-0.02-27.96C-845.83,323.5-845.83,318.73-845.83,313.89z"/>
<path class="st2" d="M-811.95,294.8c-0.01-9.06-0.05-18.12,0.01-27.18c0.06-9.75,5.02-14.45,14.71-14.07
	c37.69,1.47,67.5,31.89,68.16,69.56c0.14,8.13-4.77,13.39-12.98,13.43c-18.92,0.1-37.85,0.1-56.77,0
	c-8.05-0.04-12.95-4.89-13.08-12.96C-812.06,313.99-811.94,304.39-811.95,294.8z M-755.8,311.71c-1.25-12.95-17.44-29.18-31.57-31.6
	c0,10.47,0,20.91,0,31.6C-776.72,311.71-766.26,311.71-755.8,311.71z"/>
<path class="st2" d="M-818.28,480.53c-27.58,0-55.15,0.02-82.73-0.01c-8.43-0.01-13.86-4.78-13.96-12.08
	c-0.09-6.38,4.24-11.43,10.72-12.36c1.44-0.21,2.92-0.16,4.39-0.16c54.49-0.01,108.98-0.01,163.46,0.02c2.24,0,4.56,0.13,6.7,0.74
	c5.21,1.47,8.57,6.3,8.5,11.71c-0.06,5.38-3.57,10.1-8.83,11.46c-2.03,0.53-4.21,0.65-6.32,0.65
	C-763.66,480.55-790.97,480.53-818.28,480.53z"/>
<path class="st2" d="M-818.39,527.23c-27.71,0-55.41,0.03-83.12-0.02c-8.53-0.02-13.76-5.12-13.44-12.83
	c0.25-5.99,4.81-10.82,10.81-11.37c1.46-0.13,2.93-0.12,4.39-0.12c54.48-0.01,108.96-0.01,163.45,0.01c1.99,0,4.04-0.07,5.96,0.36
	c5.73,1.29,9.56,6.85,9.1,12.87c-0.44,5.78-5,10.42-10.84,10.96c-1.59,0.15-3.19,0.13-4.79,0.13
	C-764.04,527.23-791.22,527.23-818.39,527.23z"/>
<path class="st1" d="M-845.83,313.89c0,4.84,0,9.61,0,14.38c0,9.32-0.05,18.64,0.02,27.96c0.06,9.28,4.83,14.01,14.07,14.03
	c12.65,0.03,25.3,0.01,37.95,0.01c1.44,0,2.88,0,4.36,0c-2.73,18.44-24.59,34.78-45.24,34.09c-23.49-0.79-43.26-19.17-44.95-41.79
	C-881.33,339.74-866.24,317.78-845.83,313.89z"/>
<path class="st1" d="M-755.8,311.71c-10.47,0-20.92,0-31.57,0c0-10.68,0-21.13,0-31.6C-773.23,282.53-757.04,298.77-755.8,311.71z"
	/>
<path class="st2" d="M500,418.95c-2.44,4.83-6.45,6.09-11.67,6.05c-24.73-0.18-49.47-0.08-74.2-0.08c-1.75,0-3.5,0-5.85,0
	c0,2.2,0,3.94,0,5.67c0,19.36,0.01,38.73-0.01,58.09c-0.01,8.62-2.72,11.3-11.43,11.31c-97.8,0.01-195.6,0.01-293.39,0
	c-9.05,0-11.67-2.59-11.67-11.55c-0.02-19.2,0-38.4,0-57.6c0-1.76,0-3.51,0-5.91c-2.15,0-3.88,0-5.61,0
	c-24.9,0-49.79,0.01-74.69-0.01c-8.74-0.01-11.4-2.65-11.41-11.31c-0.02-14.48-0.13-28.97,0.02-43.45
	c0.54-51.94,23.4-90.51,69.27-115.22c0.86-0.46,1.7-0.94,2.04-1.13c-4.74-7.39-10.23-14.34-14.02-22.13
	c-21.88-44.89,7.64-99.14,57.19-105.81c17.09-2.3,32.97,1.02,47.93,9.3c4.93,2.72,6.57,7.05,4.52,11.35
	c-2.12,4.43-6.96,6.1-12.01,3.4c-12.43-6.64-25.37-9.52-39.49-7.41c-26.81,4.01-47.78,27.88-48.8,56
	c-0.98,27.19,19.05,52.92,45.38,58.31c9.22,1.89,18.39,1.83,27.57-0.33c6.12-1.44,10.55,0.74,11.7,5.55
	c1.24,5.18-1.78,9.04-8.06,10.55c-17.92,4.32-35.09,2.48-51.68-5.69c-1.98-0.97-5.15-1.05-7.18-0.17
	c-41.78,18.18-64.43,50.2-67.45,95.57c-1,15.04-0.16,30.2-0.16,45.64c25.3,0,50.41,0,75.61,0c8.22-58.49,38.91-100.63,91.9-127.15
	c-21.46-23.64-30.23-51.18-23.99-82.65c4.29-21.66,15.39-39.68,32.92-53.2c37.61-28.99,88.36-25.9,121.44,6.93
	c32.58,32.34,38.54,88.73,1.06,128.87c52.74,26.35,83.31,68.72,91.81,127.27c24.95,0,49.96,0,75.05,0c0.15-0.17,0.56-0.42,0.55-0.65
	c-0.45-23.98,2.85-48.23-4.51-71.74c-10.29-32.88-31.41-55.98-63.29-69.08c-1.92-0.79-4.88-0.66-6.75,0.26
	c-16.73,8.27-34.06,10.14-52.15,5.75c-5.98-1.45-8.91-5.2-7.86-10.27c1.01-4.87,5.47-7.15,11.51-5.89
	c32.78,6.87,61.54-9.5,70.84-40.31c6.54-21.69-0.69-46.28-18.71-60.74c-19.12-15.35-40.23-17.7-62.65-7.69
	c-2.07,0.93-4.05,2.1-6.17,2.89c-4.25,1.59-8.41-0.02-10.35-3.81c-1.95-3.8-1.06-8.49,3.05-10.58c6.48-3.29,13.14-6.65,20.11-8.46
	c33.06-8.58,65.65,5.14,83.4,34.56c16.73,27.73,12.9,63.3-9.5,88.22c-0.75,0.83-1.43,1.72-1.87,2.25
	c8.58,5.74,17.5,10.78,25.36,17.15c26.36,21.35,41.41,49.15,45.45,82.87c0.15,1.26,0.58,2.48,0.88,3.72
	C500,377.29,500,398.12,500,418.95z M391.46,483.13c0.07-1.37,0.18-2.47,0.18-3.57c0-18.54,0.63-37.11-0.13-55.62
	c-2.47-60.6-31.47-103.71-86.51-129.31c-2.98-1.39-5.27-1.36-8.03,0.41c-10.98,7.06-23.09,11.08-36.02,12.58
	c-20.73,2.4-40.06-1.68-57.98-12.48c-1.58-0.95-4.12-1.74-5.64-1.14c-18.7,7.36-35.23,18.15-49.11,32.7
	c-27.12,28.43-40.03,62.51-39.82,101.7c0.09,16.43,0.01,32.86,0.01,49.28c0,1.74,0,3.48,0,5.44
	C202.9,483.13,296.86,483.13,391.46,483.13z M249.41,291.7c40.5,0.87,74.79-32.73,75.65-74.14c0.85-40.68-32.64-75.04-73.92-75.85
	c-41.09-0.8-75.22,32.42-76.14,74.12C174.1,256.66,207.58,290.8,249.41,291.7z"/>
<g>
	<path class="st2" d="M1252.81,111.91c-0.02-29.66-21.09-50.58-50.84-50.64c-19.53-0.04-39.06-0.01-58.59-0.01
		c-1.75,0-3.51,0-5.79,0c0-7.19,0.08-13.97-0.02-20.76c-0.17-11.86,0.67-23.88-0.92-35.56c-3.33-24.5-23.56-41.24-48.56-41.31
		c-41.66-0.11-83.33-0.03-124.99-0.03c-14.65,0-29.3-0.02-43.94,0c-30.04,0.05-51.03,20.94-51.09,50.88
		c-0.03,14.32-0.01,28.64-0.01,42.97c0,1.1,0,2.2,0,3.81c-4.44,0-8.46,0-12.48,0c-17.09,0-34.18-0.01-51.27,0
		c-26.59,0.02-44.86,14.72-50.74,40.78c-0.1,0.44-0.48,0.81-0.74,1.21c0,93.1,0,186.19,0,279.29c0.3,0.72,0.73,1.42,0.89,2.17
		c4.93,23.77,24.24,39.73,48.65,39.79c41.34,0.11,82.68,0.03,124.02,0.03c91.95,0,183.91,0.02,275.86-0.01
		c24.27-0.01,43.61-14.7,49.09-37.39c1.02-4.22,1.42-8.69,1.42-13.04C1252.84,286.71,1252.85,199.31,1252.81,111.91z M916.16-16.79
		c14.31-0.21,28.62-0.06,42.92-0.06c42.92,0,85.85-0.03,128.77,0.01c13.76,0.01,24.95,8.06,28.85,20.54
		c0.23,0.74,0.26,1.55,0.43,2.62c-76.27,0-152.28,0-228.3,0C889.84-5.81,902.4-16.59,916.16-16.79z M887.82,26.37
		c76.65,0,153.07,0,229.87,0c0,11.39,0,22.83,0,34.9c-1.68,0-3.4,0-5.13,0c-21.48,0-42.96-0.05-64.44,0.03
		c-0.06,0-0.12,0.01-0.18,0.01h-90c-9.27-0.12-18.54-0.04-27.8-0.04c-13.97,0-27.94,0-42.31,0
		C887.82,49.27,887.82,37.95,887.82,26.37z M1233.29,212.03c0,53.54,0.01,107.08,0,160.62c0,20.48-11.93,32.36-32.46,32.36
		c-131.98,0-263.96,0-395.94,0c-20.57,0-32.52-11.87-32.52-32.29c-0.01-53.54,0-107.08,0-160.62c0-1.62,0-3.23,0-5.51
		c2.2,0.58,4.01,0.99,5.78,1.53c73.22,22.19,146.42,44.43,219.69,66.44c3.31,1,7.48,0.77,10.84-0.24
		c73.27-22.02,146.48-44.23,219.71-66.39c1.38-0.42,2.79-0.75,4.92-1.32C1233.29,208.8,1233.29,210.41,1233.29,212.03z
		 M1233.29,186.01c-14.11,4.3-28.06,8.57-42.01,12.8c-61.1,18.51-122.19,37.04-183.32,55.43c-2.76,0.83-6.18,1.1-8.89,0.28
		c-74.2-22.31-148.35-44.8-222.51-67.26c-1.24-0.38-2.47-0.81-3.76-1.24c-0.13-0.45-0.37-0.9-0.37-1.35
		c-0.02-25.22-0.25-50.45,0.05-75.67c0.19-16.07,13.39-28.17,30.15-28.18c50.45-0.05,100.9-0.02,151.35-0.02
		c1.46,0,2.93,0.04,4.39-0.01c0.09,0,0.17-0.01,0.26-0.02h89c3.49,0.08,6.99,0.03,10.48,0.03c47.68,0,95.36-0.01,143.05,0
		c20.18,0,32.13,11.97,32.14,32.18c0.01,22.62,0,45.24,0,67.86C1233.29,182.46,1233.29,184.08,1233.29,186.01z"/>
	<path class="st2" d="M1047.44,129.64c-14.79-0.03-29.58-0.01-44.37-0.01c-14.95,0-29.91-0.02-44.86,0.01
		c-8.44,0.02-11.98,3.46-12,11.74c-0.04,14.3-0.04,28.61,0,42.91c0.02,8.26,3.57,11.73,12.01,11.73c29.75,0.02,59.49,0.02,89.24,0
		c8.42-0.01,11.98-3.49,12.01-11.75c0.04-14.3,0.04-28.61,0-42.91C1059.44,133.1,1055.89,129.65,1047.44,129.64z M1039.85,176.12
		c-24.53,0-48.98,0-73.77,0c0-8.69,0-17.52,0-26.66c24.45,0,48.89,0,73.77,0C1039.85,158.53,1039.85,167.13,1039.85,176.12z"/>
</g>
<path class="st2" d="M921.06,993.26c-0.83-18.53-9.22-32.78-24.72-42.78c-2.58-1.66-3.49-3.34-3.48-6.38
	c0.11-40.26,0.23-80.52-0.05-120.78c-0.07-9.81-0.55-19.83-2.63-29.37c-11.53-53.1-43.23-88.77-94.38-107.1
	c-6.35-2.27-6.45-2.09-6.47-8.86c-0.04-12.59-4.07-23.55-14.72-30.72c-5.02-3.38-11.3-4.9-17.01-7.26c-2.67,0-5.33,0-8,0
	c-6.26,1.36-12.35,3.09-17.57,7.1c-10.72,8.25-15.04,19.36-14.39,32.55c0.17,3.42-0.96,4.81-4.25,5.7
	c-17.86,4.8-34.09,13.09-48.39,24.72c-35.82,29.14-53.72,67-53.79,113.19c-0.07,40.93-0.04,81.86,0.05,122.79
	c0.01,2.71-0.84,4.3-3.04,5.85c-13.3,9.36-20.71,22.27-22.38,38.41c-0.94,9.12,1.96,12.19,11.11,12.19c36.4,0,72.79,0,109.19,0
	c1.55,0,3.09,0,5.07,0c-0.89,12.66,2.44,23.47,10.57,32.58c8.22,9.21,18.5,14.19,30.89,14.46c11.02,0.24,20.64-3.56,28.81-10.87
	c10.63-9.5,14.9-21.71,14.35-36.18c1.96,0,3.52,0,5.09,0c36.8,0,73.59,0.01,110.39-0.01C918.09,1002.5,921.33,999.42,921.06,993.26z
	 M743.01,659c7.13-4.34,14.55-4.15,21.5,0.42c7.02,4.62,9.25,11.6,8.65,20.05c-13.13,0-26.1,0-39.42,0
	C732.94,670.65,735.51,663.57,743.01,659z M627.23,823.08c0.18-44.29,18.13-79.81,54.37-105.26c26.74-18.77,56.9-25.68,89.25-20.39
	c45.14,7.39,76.94,32.73,95.93,74.06c7.44,16.18,10.21,33.52,10.18,51.34c-0.09,41.23,0.05,82.47-0.12,123.7H769.16
	c-0.65-0.05-1.32-0.08-2.03-0.08c-44.92,0-89.85,0-134.77,0c-1.57,0-3.14,0-5.16,0c0-1.75,0-3.18,0-4.6
	C627.2,902.26,627.07,862.67,627.23,823.08z M768.11,1028.96c-9.27,6.17-19.15,6.41-28.62,0.49c-9.63-6.02-13.17-15.23-12.22-26.65
	c17.36,0,34.62,0,52.43,0C780.36,1013.73,777.27,1022.86,768.11,1028.96z M602.69,986.26c2.81-10.56,8.71-18.24,17.93-23.27
	c1.27-0.69,3.1-0.51,4.66-0.52c47.32-0.02,94.65-0.02,141.97-0.02c0.62,0,1.21-0.02,1.77-0.06h115.95
	c9.97,4.67,16.15,12.85,19.16,23.87C803.62,986.26,703.45,986.26,602.69,986.26z"/>
</svg>
