<?xml version="1.0" encoding="iso-8859-1"?>
<!-- Generator: Adobe Illustrator 19.0.0, SVG Export Plug-In . SVG Version: 6.00 Build 0)  -->
<svg version="1.1" id="Layer_1" xmlns="http://www.w3.org/2000/svg" xmlns:xlink="http://www.w3.org/1999/xlink" x="0px" y="0px"
	 viewBox="0 0 512 512" style="enable-background:new 0 0 512 512;" xml:space="preserve">
	 <style type="text/css">
	.st0{fill:#BDD29A;}
	.st1{fill:#83951D;}
</style>
<g>
	<path style="fill:#11544F;" d="M296.745,512H148.68c-30.308,0-54.965-24.657-54.965-54.964v-34.814
		c0-7.949,6.445-14.393,14.393-14.393s14.393,6.444,14.393,14.393v34.814c0,14.435,11.743,26.178,26.178,26.178h148.065
		c7.948,0,14.393,6.444,14.393,14.393S304.693,512,296.745,512z"/>
	<path style="fill:#11544F;" d="M363.32,512h-11.625c-7.948,0-14.393-6.444-14.393-14.393s6.445-14.393,14.393-14.393h11.625
		c14.433,0,26.178-11.743,26.178-26.178v-34.814c0-7.949,6.445-14.393,14.393-14.393c7.948,0,14.393,6.444,14.393,14.393v34.814
		C418.283,487.343,393.626,512,363.32,512z"/>
	<path style="fill:#11544F;" d="M323.06,333.741c-23.936-26.017-35.085-54.431-35.085-89.42c0-47.651,27.017-102.447,29.024-106.446
		l0.052-0.115c0.209-0.461,0.44-0.91,0.694-1.347c6.428-10.982,9.825-23.448,9.825-36.05c0-39.467-32.107-71.576-71.57-71.576
		c-39.465,0-71.573,32.105-71.573,71.57c0,12.606,3.395,25.07,9.82,36.046c0.21,0.358,0.403,0.724,0.58,1.1l0.115,0.236
		c0.248,0.486,29.08,57.76,29.08,106.583c0,34.988-11.147,63.402-35.083,89.42l-21.185-19.49
		c19.006-20.66,27.482-42.227,27.482-69.931c0-41.498-25.754-93.135-26.013-93.652c-0.037-0.076-0.075-0.151-0.111-0.222
		c-8.816-15.262-13.472-32.569-13.472-50.09C155.643,45.019,200.663,0,256.001,0c55.336,0,100.356,45.022,100.356,100.362
		c0,17.466-4.63,34.723-13.4,49.959c-0.069,0.142-0.137,0.281-0.206,0.416c-0.596,1.19-25.991,52.303-25.991,93.584
		c0,27.704,8.476,49.271,27.484,69.931L323.06,333.741z"/>
</g>
<path style="fill:#ffffff;" d="M414.381,430.762H97.619c-12.289,0-22.252-9.963-22.252-22.252v-34.69
	c0-29.09,23.582-52.672,52.672-52.672h255.923c29.09,0,52.672,23.582,52.672,52.672v34.69
	C436.633,420.799,426.67,430.762,414.381,430.762z"/>
<path style="fill:#11544F;" d="M414.38,445.155H97.619c-20.207,0-36.645-16.438-36.645-36.645v-34.69
	c0-36.979,30.085-67.065,67.065-67.065h255.923c36.979,0,67.065,30.085,67.065,67.065v34.69
	C451.025,428.715,434.586,445.155,414.38,445.155z M128.038,335.542c-21.106,0-38.279,17.171-38.279,38.279v34.69
	c0,4.334,3.525,7.859,7.859,7.859H414.38c4.334,0,7.859-3.525,7.859-7.859v-34.69c0-21.108-17.172-38.279-38.279-38.279H128.038z"/>
<g>
</g>
<g>
</g>
<g>
</g>
<g>
</g>
<g>
</g>
<g>
</g>
<g>
</g>
<g>
</g>
<g>
</g>
<g>
</g>
<g>
</g>
<g>
</g>
<g>
</g>
<g>
</g>
<g>
</g>
</svg>
