<?xml version="1.0" encoding="utf-8"?>
<!-- Generator: Adobe Illustrator 23.0.3, SVG Export Plug-In . SVG Version: 6.00 Build 0)  -->
<svg version="1.1" id="Layer_1" xmlns="http://www.w3.org/2000/svg" xmlns:xlink="http://www.w3.org/1999/xlink" x="0px" y="0px"
	 viewBox="0 0 500 500" style="enable-background:new 0 0 500 500;" xml:space="preserve">
<style type="text/css">
	.st0{fill:#043A16;}
</style>
<g>
	<g>
		<path class="st0" d="M58.6,0C164.1,0,269.5,0,375,0c15.7,6.5,19.5,12.4,19.6,29.7c0,10.3,0,20.5,0,30.8c0,1.9,0,3.8,0,5.4
			c1,0.3,1.3,0.4,1.6,0.4c12.7,0,25.4,0,38.1,0.1c16.9,0,26.6,9.8,26.6,26.7c0,94.7,0.1,189.4,0,284c0,17.6-6.7,32.7-19.4,44.8
			c-21,20-42,39.9-63.4,59.4c-5.7,5.2-12.6,9.2-19.4,12.7c-5.5,2.8-11.9,4.1-17.8,6c-71.9,0-143.9,0-215.8,0
			c-15.7-6.6-19.6-12.4-19.6-29.7c0-10.3,0-20.5,0-30.7c0-1.9,0-3.8,0-5.9c-13.7,0-26.7,0-39.7,0c-16.9,0-26.6-9.8-26.6-26.7
			c0-126.7,0-253.4,0-380.2c0-2.3,0-4.6,0.4-6.8C41.5,9.3,48.7,3.3,58.6,0z M340.4,481.4c0-2.3,0-4.2,0-6.1c0-18.4-0.1-36.8,0-55.2
			c0.2-20.8,14.1-34.4,34.8-34.5c19.4,0,38.7,0,58.1,0c9.4,0,9.4,0,9.4-9.5c0-94,0-188.1,0-282.1c0-8.4-1.5-9.8-10-9.8
			c-99.7,0-199.5,0-299.2,0c-8.4,0-10,1.6-10,10c0,125.9,0,251.9,0,377.8c0,8.6,1.3,9.9,9.9,9.9c65.9,0,131.8,0,197.7,0
			C334,481.9,336.9,481.5,340.4,481.4z M105.4,415.4c0-2.3,0-4.3,0-6.4c0-105.1,0.2-210.2-0.2-315.4c-0.1-15.7,10.9-27.6,27.6-27.5
			c79.1,0.5,158.2,0.2,237.2,0.2c1.9,0,3.9,0,6.4,0c0-2.1,0-3.9,0-5.6c0-10.6,0-21.1,0-31.7c0-9.9-0.9-10.9-10.9-10.9
			c-99.1,0-198.2,0-297.3,0c-1.9,0-4.2-0.5-5.8,0.3c-2,1.1-3.9,3-5,5.1c-0.8,1.4-0.3,3.5-0.3,5.3c0,125.3,0,250.6,0,375.9
			c0,1.1,0,2.3,0,3.4c0.2,5.5,2.1,7.6,7.8,7.6c12.5,0.1,25.1,0,37.6,0C103.4,415.8,104.2,415.5,105.4,415.4z M433.1,404.8
			c-0.3-0.4-0.5-0.8-0.7-1.3c-19.8,0-39.6-0.2-59.5,0.1c-8.4,0.1-14.4,6.8-14.5,15.4c-0.1,17.3,0,34.5,0,51.8c0,0.9,0.3,1.7,0.6,3.8
			C384.2,450.9,408.7,427.9,433.1,404.8z"/>
		<path class="st0" d="M283.7,150.5c27.8,0,55.6,0,83.4,0c2.1,0,4.3,0.1,6.2,0.7c4.1,1.2,6.1,4.4,6.1,8.5c0,4.1-2.1,7.2-6.2,8.4
			c-2,0.6-4.2,0.7-6.3,0.7c-55.9,0-111.9,0-167.8,0c-1.6,0-3.3,0-4.9-0.3c-4.5-0.9-7.6-4.7-7.6-8.9c0.1-4.3,3.2-8,7.7-8.8
			c1.7-0.3,3.6-0.2,5.4-0.2C227.8,150.5,255.7,150.5,283.7,150.5z"/>
		<path class="st0" d="M283,289.1c-28.6,0-57.2,0-85.9,0c-7.6,0-12.5-5.8-9.6-11.8c1.2-2.5,4.4-4.2,7-5.8c1.2-0.7,3.2-0.3,4.8-0.3
			c55.8,0,111.5,0,167.3,0c8.6,0,12.9,3.1,12.8,9.1c-0.1,5.9-4.3,8.8-12.6,8.8C338.9,289.1,311,289.1,283,289.1z"/>
		<path class="st0" d="M283.2,228.8c-27.6,0-55.3,0-82.9,0c-1.6,0-3.3,0.1-4.9-0.1c-5-0.4-8.6-4.1-8.6-8.8c0-4.9,3.8-8.7,9-9
			c1-0.1,1.9,0,2.9,0c56.3,0,112.5,0,168.8,0c1.5,0,3-0.1,4.4,0.1c4.4,0.6,7.6,4.4,7.6,8.8c0,4.4-3.1,8.2-7.5,8.8
			c-1.8,0.3-3.6,0.2-5.4,0.2C338.8,228.8,311,228.8,283.2,228.8z"/>
		<path class="st0" d="M244.1,349.5c-15,0-29.9,0-44.9,0c-1.6,0-3.3,0-4.9-0.3c-4.5-0.8-7.7-4.5-7.7-8.8c0-4.3,3.1-8,7.6-8.9
			c1.6-0.3,3.2-0.3,4.9-0.3c29.9,0,59.8,0,89.7,0c1.9,0,3.9,0.1,5.8,0.6c4.1,1.1,6.3,4,6.4,8.2c0.1,4.4-2,7.5-6.2,8.8
			c-1.8,0.5-3.8,0.6-5.8,0.6C274,349.5,259.1,349.5,244.1,349.5z"/>
	</g>
</g>
</svg>
