<?xml version="1.0" encoding="utf-8"?>
<!-- Generator: Adobe Illustrator 23.0.3, SVG Export Plug-In . SVG Version: 6.00 Build 0)  -->
<svg version="1.1" id="Layer_1" xmlns="http://www.w3.org/2000/svg" xmlns:xlink="http://www.w3.org/1999/xlink" x="0px" y="0px"
	 viewBox="0 0 500 500" style="enable-background:new 0 0 500 500;" xml:space="preserve">
<style type="text/css">
	.st0{fill:#BDD29A;}
	.st1{fill:#83951D;}
	.st2{fill:#465E14;}
</style>
<g>
	<path class="st0" d="M465.5,306l0-59.6c0-9.6,0-19.2,0-28.8c-0.1-18.3-11.6-29.7-30-29.7c-7.9,0-15.9,0-24,0h-8.8
		c0-1.3,0-2.6,0-3.8c-0.1-5.1-0.1-10.3-0.2-15.5c0-11.3-0.1-23-1.3-34.4C395,72.5,345.8,17.7,284.4,4c-5.1-1.1-10.3-2-15.3-2.8
		c-2.3-0.4-4.7-0.8-7.5-1.2h-23.2L237.9,0c-3.4,0.7-6.8,1.3-10.3,1.9c-7.5,1.3-15.2,2.6-22.5,5.1c-60.5,20.6-96.3,63.1-106.5,126.1
		c-1.2,7.5-1.3,15.1-1.5,22.6l-0.1,5.2c-0.2,6.6-0.1,13.2-0.1,20c0,2.2,0,4.5,0,6.8c-0.9,0.1-1.9,0.1-2.8,0.1H82.5
		c-6.4,0-12.8,0-19.3,0c-17.2,0.1-28.7,11.6-28.7,28.6c-0.1,84.9-0.1,169.8,0,254.7c0,14.3,6.2,22.3,22.2,28.6l386.1,0.2l0.4-0.1
		c5.9-2.1,12-4.8,16.4-10.4c4.1-5.3,6-11.5,5.9-20.1C465.5,414.9,465.5,360.4,465.5,306z M441.8,219.2v249.4c0,7-0.4,7.4-7.3,7.4
		H65.3c-6.6,0-7.1-0.5-7.1-7.1V219.1c0-6.7,0.6-7.2,7.5-7.2h184.1h184.6C441.2,211.9,441.8,212.4,441.8,219.2z M120.9,187.6v-35.3
		c0-16.1,3.3-32.2,9.7-47.9c21.5-52.6,75.8-85.5,132.1-79.9c61.5,6.1,110,54.9,115.3,115.9c1,11.1,0.7,22.1,0.4,33.7
		c-0.1,4.5-0.2,9-0.2,13.5H120.9z"/>
	<path class="st1" d="M249.8,209.4c61.5,0,123.1,0,184.6,0c8.2,0,9.9,1.7,9.9,9.9c0,83.1,0,166.2,0,249.4c0,8.4-1.5,9.9-9.8,9.9
		c-123.1,0-246.1,0-369.2,0c-8,0-9.6-1.6-9.6-9.6c0-83.3,0-166.6,0-249.8c0-8.1,1.7-9.7,10-9.7C127.1,209.4,188.4,209.4,249.8,209.4
		z M240.5,400.1C240.5,400.1,240.5,400.1,240.5,400.1c0,7.1-0.2,14.2,0.1,21.3c0.3,7.2,6.3,11.5,12.6,9.2c4.7-1.7,6.3-5.6,6.3-10.4
		c0-12.9,0.1-25.8-0.1-38.6c-0.1-3.6,0.8-5.2,4.5-6.4c21.6-7.1,33.9-29.6,28.7-51.9c-5.1-22-26.2-36.5-48.5-33.6
		c-19.6,2.6-35.9,19.3-37.6,38.5c-2,21.9,10,40.8,30.3,47.2c3.2,1,3.9,2.4,3.8,5.4C240.4,387.3,240.5,393.7,240.5,400.1z"/>
	<path class="st0" d="M240.5,400.1c0-6.4-0.1-12.9,0.1-19.3c0.1-3-0.7-4.4-3.8-5.4c-20.3-6.4-32.2-25.3-30.3-47.2
		c1.7-19.2,18.1-35.9,37.6-38.5c22.3-3,43.4,11.6,48.5,33.6c5.2,22.3-7.1,44.8-28.7,51.9c-3.7,1.2-4.6,2.8-4.5,6.4
		c0.2,12.9,0.1,25.8,0.1,38.6c0,4.7-1.6,8.6-6.3,10.4c-6.3,2.3-12.3-2-12.6-9.2C240.3,414.3,240.5,407.2,240.5,400.1
		C240.5,400.1,240.5,400.1,240.5,400.1z M275.1,333.7c0.1-13.8-11.3-25.4-25.1-25.4c-13.7,0-25.1,11.5-25.1,25.4
		c0.1,13.7,11.1,24.9,24.8,25.1C263.5,358.9,275,347.6,275.1,333.7z"/>
	<path class="st2" d="M275.1,333.7c-0.1,13.9-11.5,25.2-25.4,25c-13.7-0.2-24.8-11.4-24.8-25.1c-0.1-13.8,11.4-25.4,25.1-25.4
		C263.8,308.3,275.1,319.8,275.1,333.7z"/>
</g>
</svg>
