<?xml version="1.0" encoding="utf-8"?>
<!-- Generator: Adobe Illustrator 23.0.3, SVG Export Plug-In . SVG Version: 6.00 Build 0)  -->
<svg version="1.1" id="Layer_1" xmlns="http://www.w3.org/2000/svg" xmlns:xlink="http://www.w3.org/1999/xlink" x="0px" y="0px"
	 viewBox="0 0 500 500" style="enable-background:new 0 0 500 500;" xml:space="preserve">
<style type="text/css">
	.st0{fill:#BDD29A;}
	.st1{fill:#83951D;}
	.st2{fill:#465E14;}
	.st3{fill:#BDD29A;}
	.st4{fill:#FFFFFF;}
</style>
<g>
	<g>
		<g>
			<polygon class="st0" points="129.5,435.8 8.9,490.3 8.9,181.1 129.5,126.3 			"/>
		</g>
	</g>
</g>
<g>
	<g>
		<polygon class="st1" points="129.5,436.7 250,491.1 250,182 129.5,127.1 		"/>
	</g>
</g>
<g>
	<g>
		<polygon class="st1" points="370.5,436.7 250,491.1 250,182 370.5,127.1 		"/>
	</g>
</g>
<g>
	<g>
		<g>
			<polygon class="st0" points="370.5,435.8 250,490.3 250,181.1 370.5,126.3 			"/>
		</g>
	</g>
</g>
<g>
	<g>
		<polygon class="st1" points="370.5,436.7 491.1,491.1 491.1,182 370.5,127.1 		"/>
	</g>
</g>
<g>
	<g>
		<g>
			<polygon class="st0" points="129.5,435.8 250,490.3 250,181.1 129.5,126.3 			"/>
		</g>
	</g>
</g>
<g>
	<g>
		<g>
			<polygon class="st0" points="360.9,435.8 481.4,490.3 481.4,181.1 360.9,126.3 			"/>
		</g>
	</g>
</g>
<g>
	<g>
		<g>
			<path class="st2" d="M8.9,500c-1.9,0-3.3-0.5-4.7-1.4c-2.3-1.4-4.2-4.2-4.2-7.5V182c0-3.3,1.9-6.6,5.2-8l120.5-54.9
				c2.8-1.4,6.1-0.9,8.4,0.5c2.4,1.4,4.2,4.2,4.2,7.5v309.6c0,3.3-1.9,6.6-5.2,8L12.7,499.1C11.7,499.5,10.3,500,8.9,500z
				 M17.8,187.6v289.9L120.5,431V140.7L17.8,187.6z M129.5,436.7L129.5,436.7L129.5,436.7z"/>
		</g>
	</g>
</g>
<g>
	<g>
		<g>
			<path class="st2" d="M250,500c-1.4,0-2.4-0.5-3.8-0.9l-120.1-54.4c-3.3-1.4-5.2-4.7-5.2-8V127.1c0-2.8,1.4-5.6,4.2-7.5
				c2.3-1.4,5.6-1.9,8.4-0.5L254.2,174c3.3,1.4,5.2,4.7,5.2,8v309.1c0,2.8-1.4,5.6-4.2,7.5C253.3,499.5,251.9,500,250,500z
				 M138.4,431l102.7,46.4V187.6l-102.7-46.9C138.4,140.7,138.4,431,138.4,431z"/>
		</g>
	</g>
</g>
<g>
	<g>
		<g>
			<path class="st2" d="M250,500c-1.9,0-3.3-0.5-4.7-1.4c-2.4-1.4-4.2-4.2-4.2-7.5V182c0-3.3,1.9-6.6,5.2-8l120.5-54.9
				c2.8-1.4,6.1-0.9,8.4,0.5c2.4,1.4,4.2,4.2,4.2,7.5v309.6c0,3.3-1.9,6.6-5.2,8l-120.5,54.4C252.4,499.5,251.4,500,250,500z
				 M258.9,187.6v289.9L361.6,431V140.7L258.9,187.6z M370.5,436.7L370.5,436.7L370.5,436.7z"/>
		</g>
	</g>
</g>
<g>
	<g>
		<g>
			<path class="st2" d="M491.1,500c-1.4,0-2.4-0.5-3.8-0.9l-120.5-54.4c-3.3-1.4-5.2-4.7-5.2-8V127.1c0-2.8,1.4-5.6,4.2-7.5
				c2.4-1.4,5.6-1.9,8.4-0.5L494.8,174c3.3,1.4,5.2,4.7,5.2,8v309.1c0,2.8-1.4,5.6-4.2,7.5C494.4,499.5,493,500,491.1,500z
				 M379.5,431l102.7,46.4V187.6l-102.7-46.9V431z"/>
		</g>
	</g>
</g>
<g>
	<g>
		<g>
			<path class="st3" d="M250,105.2c-46,0-83.5,37.5-83.5,83.5s69.4,138.8,83.5,138.8s83.5-92.9,83.5-138.8
				C333.5,142.7,296,105.2,250,105.2z M250,229.9c-26.7,0-47.8-21.6-47.8-47.8c0-26.7,21.6-47.8,47.8-47.8s47.8,21.6,47.8,47.8
				S276.7,229.9,250,229.9z"/>
		</g>
	</g>
</g>
<g>
	<g>
		<ellipse class="st4" cx="250" cy="182.9" rx="47.8" ry="47.8"/>
	</g>
</g>
<g>
	<g>
		<g>
			<g>
				<path class="st2" d="M250,337.2c-23.4,0-92.4-102.7-92.4-147.8c0-24.4,9.4-47.8,27.2-65.2c17.4-17.3,40.3-27.2,65.2-27.2l0,0
					c50.7,0,92.4,41.3,92.4,92.4C342.4,234.5,273.5,337.2,250,337.2z M248.6,319.9L248.6,319.9L248.6,319.9z M251.4,319.9
					L251.4,319.9L251.4,319.9z M250,114.9c-19.7,0-38.5,8-52.5,22.1c-14.1,14.1-22.1,32.8-22.1,52.5c0,38.9,58.6,120.1,74.6,129.5
					c16-9.4,74.6-90.5,74.6-129.5C324.6,148.2,291.3,114.9,250,114.9L250,114.9L250,114.9z M250,239.7c-31.4,0-56.8-25.3-56.8-56.8
					s25.3-56.8,56.8-56.8s56.8,25.3,56.8,56.8S281.4,239.7,250,239.7z M250,143.5c-21.6,0-39.4,17.4-39.4,39.4
					c0,21.6,17.4,39.4,39.4,39.4c21.6,0,39.4-17.4,39.4-39.4C289.4,161.4,271.6,143.5,250,143.5z"/>
			</g>
		</g>
	</g>
</g>
</svg>
