<?xml version="1.0" encoding="utf-8"?>
<!-- Generator: Adobe Illustrator 23.0.3, SVG Export Plug-In . SVG Version: 6.00 Build 0)  -->
<svg version="1.1" id="Layer_1" xmlns="http://www.w3.org/2000/svg" xmlns:xlink="http://www.w3.org/1999/xlink" x="0px" y="0px"
	 viewBox="0 0 500 500" style="enable-background:new 0 0 500 500;" xml:space="preserve">
<style type="text/css">
	.st0{fill:#BDD29A;}
	.st1{fill:#83951D;}
	.st2{fill:#465E14;}
</style>
<path class="st0" d="M248.1,382.7L9.5,374.2V61.7h210.6c16.5,0,29.9,13.4,29.9,29.9L248.1,382.7z"/>
<path class="st0" d="M491.5,375.9L251,382.7v-293c0-15.4,12.5-28,28-28h212.5L491.5,375.9L491.5,375.9z"/>
<polygon class="st1" points="26.7,374.8 23.9,395.9 30.7,406.7 97.4,406.7 211.8,406.7 221,417.5 228.4,428.6 242.9,438.7 
	257.5,438.7 272,430.6 282.6,410.2 290.9,406.7 477.5,404.2 475.2,374.8 274.3,376.6 257.5,397.3 245.4,395.5 230.7,384.9 
	204.5,376.6 "/>
<g>
	<path class="st2" d="M500,63.9c0-6.5-2.6-9.1-9.3-9.1c-67.4,0-134.7-0.1-202.1,0.1c-14.5,0-26.4,6.2-35.7,17.3
		c-0.9,1.1-1.8,2.2-2.8,3.5c-1.1-1.3-2-2.5-2.9-3.6C237.9,61,226,54.8,211.6,54.8c-0.6,0-1.3,0-2,0c-1.3-0.1-2.6-0.1-4-0.1
		c-6,0-12.1,0-18.1,0.1c-59.4-0.1-118.7,0-178.1,0c-3.7,0-6.1,0.8-7.6,2.6C1.2,58,0.6,58.7,0,59.6C0,165.8,0,271.9,0,378
		c3.6,6,9.8,4.4,15.6,4.9c0,4.3,0,8.4,0,12.4c0,13.1,5.6,18.7,18.6,18.7c57.4,0,114.9,0,172.3-0.1c3.7,0,5.6,0.6,6.8,4.7
		c4.9,15.9,20,26.6,36.5,26.7c16.5,0,31.3-10.7,36.7-26.5c0.5-1.5,1-3,1.6-4.8c2.1,0,4,0,6,0c57.3,0,114.6,0,171.8,0
		c12.7,0,18.3-5.7,18.4-18.5c0-4.2,0-8.4,0-12.8c2.6,0,4.5,0,6.5,0c6.6-0.1,9.1-2.7,9.1-9.3C500,270.3,500,167.1,500,63.9z
		 M15.1,368c0-99.8,0-199,0-298.5c1.4,0,2.9,0,4.4,0c63.2,0,126.3,0,189.4,0c18.9,0,31.5,11.5,33.5,30.3c0,0.3,0.1,0.6,0.1,0.9
		c0,40.5,0.1,91.7,0.2,142.6c0,46.3,0,92.3,0,129.6c0,2.1,0,4.1,0,7.4c-10.3-8.5-20.8-12.6-32.8-12.5c-11.2,0.1-22.5,0-33.7,0
		c-29.6,0-59.2,0-88.8,0C69.2,367.9,21.9,368,15.1,368z M469.3,399.4c-1.9,0-3.8,0-5.7,0c-57,0-113.9,0-170.9,0
		c-12.7,0-16,2.4-19.9,14.2c-3.4,10.3-12.6,17.1-23.1,17.1c-10.5-0.1-19.6-7-22.9-17.4c-3.5-11.3-7.2-13.9-19.1-13.9
		c-57,0-113.9,0-170.9,0c-1.9,0-3.9,0-6.3,0c0-5.5,0-10.7,0-16.7c1.6,0,3.4,0,5.1,0c13.6,0,27.2,0,40.8,0v0c3.4,0,6.5,0,9.2,0
		c40.6,0,81.3,0,121.9,0c18.1,0,28.5,7.4,34.2,24.5c1.3,4,3.8,6.6,8,6.6c1.4,0,2.7-0.3,3.7-0.8c0.1,0,0.2-0.1,0.3-0.1
		c0.1-0.1,0.2-0.1,0.4-0.2c1.4-0.8,2.5-2,3.3-3.7v-0.3c0.3-0.5,0.5-1.1,0.7-1.7c5.5-16.8,16.1-24.4,33.8-24.4c38.9,0,77.8,0,116.7,0
		c11.5,0.4,58.1,0,60.6,0C469.3,388.2,469.3,393.4,469.3,399.4z M485,368.1c-6.7,0-54-0.1-72.4,0c-29.6,0-59.2,0-88.8,0
		c-11.2,0-22.5,0.1-33.7,0c-12-0.1-22.4,3.9-32.7,12.3V100.7v-2c3-18.8,15-29.2,34.5-29.2c62.5,0,125,0,187.5,0c1.8,0,3.5,0,5.6,0
		C485,169.1,485,268.2,485,368.1z"/>
	<path class="st2" d="M444.8,101.8c-1-0.1-2,0-2.9,0c-49.6,0-99.3,0-148.9,0c-1.8,0-3.6-0.1-5.3,0.3c-5.2,1.2-7.8,7.2-4.4,11
		c1.8,1.9,5.3,3.2,8,3.2c25.4,0.2,50.8,0.1,76.1,0.1c25.7,0,51.4,0,77.1,0c5.2,0,8.6-3,8.5-7.3C452.9,104.9,449.7,102,444.8,101.8z"
		/>
	<path class="st2" d="M444.8,133.1c-1-0.1-2,0-2.9,0c-49.6,0-99.3,0-148.9,0c-1.9,0-4,0-5.8,0.5c-4.9,1.4-7.3,7.1-3.9,10.8
		c1.8,1.9,5.3,3.2,8,3.2c25.4,0.2,50.8,0.1,76.1,0.1c25.7,0,51.4,0,77.1,0c5.2,0,8.6-3,8.5-7.3C453,136.2,449.8,133.4,444.8,133.1z"
		/>
	<path class="st2" d="M447.9,165c-1.8-0.5-3.8-0.6-5.8-0.6c-49.8,0-99.6,0-149.4,0c-1.9,0-3.9,0.1-5.8,0.6c-3.6,1-5.3,3.7-5,7.4
		c0.3,3.7,2.4,6,6.1,6.5c1.6,0.2,3.3,0.1,4.9,0.1c24.9,0,49.8,0,74.7,0c24.7,0,49.5,0,74.2,0c1.6,0,3.3,0.1,4.9-0.1
		c3.7-0.5,5.9-2.9,6.2-6.5C453.3,168.8,451.5,166,447.9,165z"/>
	<path class="st2" d="M213.6,327.1c3.3-1.1,4.7-3.8,4.4-7.3c-0.3-3.5-2.3-5.7-5.7-6.3c-1.6-0.3-3.2-0.2-4.9-0.2
		c-24.9,0-49.8,0-74.7,0s-49.8,0-74.7,0c-1.6,0-3.3-0.1-4.9,0.1c-3.8,0.5-6.3,3.1-5.9,6.5c0.3,2.6,2.5,5.4,4.6,7.1
		c1.5,1.2,4.4,0.8,6.6,0.8c49.5,0,98.9,0,148.4,0C209.1,327.9,211.5,327.8,213.6,327.1z"/>
	<path class="st2" d="M58.4,296.6c49.4,0,98.9,0,148.4,0c1.9,0,3.9,0,5.8-0.5c3.9-0.9,5.7-3.6,5.4-7.6c-0.3-3.7-2.4-6-6.1-6.5
		c-1.6-0.2-3.3-0.2-4.9-0.2c-24.9,0-49.8,0-74.7,0c-24.7,0-49.4,0-74.2,0c-7.6,0-11.1,2.3-11.1,7.1
		C46.9,294.2,50.6,296.6,58.4,296.6z"/>
</g>
</svg>
