<?xml version="1.0" encoding="utf-8"?>
<!-- Generator: Adobe Illustrator 23.0.3, SVG Export Plug-In . SVG Version: 6.00 Build 0)  -->
<svg version="1.1" id="Layer_1" xmlns="http://www.w3.org/2000/svg" xmlns:xlink="http://www.w3.org/1999/xlink" x="0px" y="0px"
	 viewBox="0 0 500 500" style="enable-background:new 0 0 500 500;" xml:space="preserve">
<style type="text/css">
	.st0{fill:#043A16;}
</style>
<g>
	<path class="st0" d="M500,156.3c-0.9,4.7-2,9.4-2.7,14.2c-0.7,4.4-3.1,7-7.1,8.4c-0.6,0.2-1.2,0.4-1.8,0.6
		c-16.7,5.7-22.4,14.9-19.2,32c1.1,5.8-0.5,9.7-5.2,12.9c-4,2.7-7.9,5.7-11.8,8.6c-3.5,2.6-7.1,2.9-11,0.9c-1.2-0.6-2.3-1.1-3.5-1.7
		c-14.3-6.5-24.5-4.2-33.6,8.6c-4.3,6-9,8.3-16.1,6.4c-4.1-1.1-8.3-1.4-12.5-1.9c-4.4-0.6-7-3.1-8.3-7.2c-0.2-0.6-0.4-1.2-0.6-1.8
		c-5.7-16.4-15-21.9-32.3-18.8c-5.4,1-9.5-0.3-12.7-4.9c-2.7-4-5.7-7.9-8.7-11.7c-2.8-3.6-3-7.4-1-11.4c0.4-0.9,0.9-1.7,1.3-2.6
		c6.9-14.4,4.6-24.8-8.4-34c-6.1-4.3-8.3-9-6.5-16.1c1-3.9,1.4-8,1.9-12c0.6-4.3,2.9-7.1,7-8.5c1.1-0.4,2.2-0.7,3.2-1.1
		c15.1-5.4,20.7-14.1,18.1-30c-1.2-7.3,0.6-12.4,7-15.9c0.6-0.3,1.1-0.7,1.6-1.2c7.9-7.4,15.6-10,26.5-4.3
		c11.6,6.1,21.4,2.1,29.9-9.6c4.3-5.9,8.9-8.5,16.1-6.6c4,1.1,8.3,1.4,12.5,2c4.4,0.5,7,3,8.5,7c0.4,1.1,0.7,2.2,1.1,3.2
		c5.6,15,15.1,20.8,30.7,17.8c6.5-1.2,11,0.2,14.6,5.8c2.5,3.8,5.4,7.4,8.1,11c2.6,3.5,2.9,7.1,1,11c-0.4,0.9-0.9,1.7-1.3,2.6
		c-7,14.7-4.6,24.6,8.4,34.5c2.6,2,4.9,4.6,7.3,6.9C500,151.8,500,154,500,156.3z M339.7,200.2c20.3-0.2,32.1,7.7,40.7,26.2
		c2.1,4.5,8.5,5.6,11.8,2c15.5-16.8,28.6-20,49.9-12.3c4.5,1.6,10-2.4,9.7-7.1c-1.5-21.5,6.3-34.6,25.9-43.3
		c5.4-2.4,6.2-8.6,1.7-12.6c-15.5-13.4-19.4-28.9-12.1-47.8c2.3-6-1.2-10.8-7.5-10.6c-22.1,0.8-33.9-6.4-43.1-26.4
		c-1.9-4.1-8.7-5.4-11.6-2c-13.8,16.3-30.5,20.5-50.3,12.5c-4.5-1.8-9.2,2.5-9.4,7.4c-0.3,6.6-0.5,13.4-2.3,19.7
		c-3.5,12.2-13.2,18.8-24.3,23.8c-4.2,1.9-5.3,8.5-2,11.4c17.1,15.2,20.2,28.1,12.5,50.2c-0.5,1.4,0.1,3.3,0.6,4.7
		C332.1,201.5,336.7,200.5,339.7,200.2z"/>
	<path class="st0" d="M298.8,376.9c-19.6-0.5-30.9,10.7-29.1,30.2c1,11-2.9,18.1-12.8,22.5c-4.9,2.2-9.5,5-14.2,7.5
		c-8.8,4.7-14.6,4.1-22.4-2.1c-7.5-6-15.7-9.9-25.7-7.3c-8.1,2.1-13.5,7.6-17.6,14.5c-5.6,9.3-10.6,11.7-21.4,10.2
		c-6-0.9-11.9-1.6-17.9-2.3c-9.1-1.1-14.3-5.6-16.6-14.7c-5.1-19.8-20.6-27.7-39.2-19.4c-8.9,4-16.7,3.2-23.8-3.5
		c-4.6-4.4-9.3-8.7-13.7-13.2c-6.1-6.1-7-13.2-4-21.1c1.3-3.6,2.4-7.5,2.8-11.3c1.1-10-2.7-18-11.4-23c-4.1-2.4-9-3.7-13.6-5
		C11,337,6,333,4.5,325.4c-1.5-7.8-3.2-15.6-4.3-23.5c-1-6.5,1.7-11.8,6.8-15.8c1.4-1.1,3-1.9,4.5-2.9c15.2-10.4,17.8-27,5.4-40.6
		c-7.7-8.5-9-16.6-3.3-26.4c3-5,5.2-10.5,7.8-15.7c3.4-6.9,9.1-9.8,16.6-9.9c4.1,0,8.2,0.3,12.2-0.4c14-2.7,22.1-14.3,20.7-29.1
		c-1.3-12.6,1-16.7,12.1-22.7c5.4-2.9,10.9-5.9,16.3-8.8c6.8-3.6,13.2-2.6,19.2,1.8c0.3,0.2,0.5,0.4,0.8,0.6
		c17.4,14.2,33.3,11.2,44.9-8.3c4.1-6.9,10.6-9.9,18.5-8.8c7.4,1.1,14.8,1.9,22.2,3.1c7.4,1.2,11.8,5.8,13.8,12.8
		c0.5,1.7,0.9,3.5,1.4,5.2c5.7,16.1,19.3,22.6,35.4,16.8c1.7-0.6,3.3-1.4,4.9-2.1c6.9-2.7,13.5-2.3,19.2,2.6c5.5,4.8,10.8,9.9,16,15
		c6.1,6,6.8,12.9,4.2,21.1c-1.9,6-3.4,12.9-2.5,18.9c1.8,12.2,11.4,17.5,22.5,20.1c10.4,2.4,14.2,6.1,16.2,16.7
		c1.2,6.1,2.3,12.1,3.4,18.2c1.6,9-1,14.9-8.9,19.9c-18,11.4-20.3,28.1-6,43.9c6.3,7,7.2,13.4,3.1,21.9c-2.4,5-4.9,9.9-7.3,14.9
		C315,375,311.4,377.3,298.8,376.9z M252.2,404.4c0.7-4.6,1.1-9.5,2.4-14.1c5.4-19.3,22-30.4,44.4-29.9c3.3,0.1,5.3-0.6,6.7-3.9
		c1.8-4.5,4-8.9,6.4-13.1c1.5-2.7,1.1-4.4-0.9-6.7c-7.1-8-11.8-17.2-12.2-28.1c-0.6-16.7,7.4-28.9,20.8-37.9c3.1-2.1,3.9-3.9,3-7.5
		c-1.2-4.4-1.8-8.9-2.4-13.4c-0.4-3-1.5-4.6-4.9-5.4c-29.3-7-42.1-31.3-31.5-59.8c0.9-2.5,0.9-4.2-1.1-6c-3.6-3.3-7.1-6.7-10.6-10.1
		c-2.4-2.4-4.5-2.8-7.8-1.3c-9.3,4.3-19.1,5.5-29.1,3.2c-17.1-3.9-26.9-15.6-31.7-31.8c-1-3.4-2.4-4.7-5.9-4.9
		c-4.7-0.3-9.4-0.9-14-1.9c-3.5-0.8-5.1,0.5-6.9,3.4c-13.2,21.3-35.8,28-57.3,17.1c-4.6-2.3-9.2-6.9-13.7-6.7
		c-5,0.2-9.8,4.7-14.6,7.3c-0.1,0.1-0.3,0.2-0.4,0.3c-3.2,1-3.8,2.9-3.4,6.3c2.7,24.5-13.3,44.9-37.1,47.7
		c-4.7,0.6-10.6-0.6-13.8,1.8c-3.6,2.7-4.8,8.6-7,13.1c-0.3,0.6-0.5,1.2-0.9,1.7c-2.2,3-1.4,5.2,1,7.9c16.5,19.1,15.6,43.2-2,59.9
		c-3.4,3.2-8.9,5.8-10,9.7c-1.3,4.3,1.2,9.8,2.1,14.7c0.1,0.5,0.3,1,0.3,1.4c0,3.9,1.9,5.3,5.7,6.2c25.6,6.1,39.9,27.8,32.5,52.4
		c-3,10.1-0.2,15.3,6.9,20.6c1.3,1,2.6,2,3.6,3.2c1.9,2.1,3.8,2.2,6.4,1c8.9-4.1,18.4-5.6,28.1-3.8c18.1,3.5,28.3,15.4,33.4,32.5
		c0.9,2.9,1.9,4.3,5.1,4.5c4.5,0.2,9.1,0.8,13.5,1.8c4.1,1,6.2-0.2,8.5-3.8c13.6-21.6,37.7-28.5,58.5-15.1c9.2,5.9,15.3,5.1,23.5,0
		C250.9,413.8,255,411.4,252.2,404.4z"/>
	<path class="st0" d="M398.8,186.8c-22,0.1-39.5-17.2-39.7-38.9c-0.2-22,17.4-39.6,39.6-39.5c21.9,0,39.5,17.5,39.6,39.2
		C438.3,169.1,420.6,186.7,398.8,186.8z M398.7,170.1c12.6-0.1,22.7-10.1,22.8-22.5c0.1-12.7-10.2-22.8-23-22.7
		c-12.7,0.1-22.6,9.9-22.6,22.5C375.8,160.2,385.8,170.2,398.7,170.1z"/>
	<path class="st0" d="M170,362.8c-43.9,0-79.3-35.2-79.4-78.9c0-43.7,35.3-78.8,79.4-78.9c44.1-0.1,79.9,35.4,79.8,79.1
		C249.6,327.6,213.9,362.8,170,362.8z M170.1,346.1c34.3,0.4,62.6-27.5,62.9-61.9c0.3-34.4-27.5-62.3-62.6-62.7
		c-34-0.4-62.6,27.1-63.1,60.6C106.9,317.9,134.2,345.7,170.1,346.1z"/>
</g>
</svg>
