<?xml version="1.0" encoding="utf-8"?>
<!-- Generator: Adobe Illustrator 23.0.3, SVG Export Plug-In . SVG Version: 6.00 Build 0)  -->
<svg version="1.1" id="Layer_1" xmlns="http://www.w3.org/2000/svg" xmlns:xlink="http://www.w3.org/1999/xlink" x="0px" y="0px"
	 viewBox="0 0 500 500" style="enable-background:new 0 0 500 500;" xml:space="preserve">
<style type="text/css">
	.st0{fill:#BDD29A;}
	.st1{fill:#83951D;}
	.st2{fill:#465E14;}
</style>
<g>
	<g>
		<g>
			<path class="st0" d="M24.4,494.6c-5.3-3-7-7.4-6.8-13.5c4.1-90.9,45.9-158.5,125.5-202.2c14.3-7.9,30.6-12.3,45.9-18.3
				c1-0.4,2-0.7,3.5-1.1c-6.2-3.8-12.3-6.9-17.7-10.8c-45-32.8-65.4-77.1-56.1-132c9.4-55.8,43.9-91.3,98.2-107.3
				c7.3-2.1,15-2.8,22.4-4.2c7,0,14,0,21,0c10.1,2.1,20.4,3.5,30.2,6.5c58,18.2,96.5,74.2,92.3,134.8
				c-3.5,49.8-28.2,86.4-71.7,110.5c-1.1,0.6-2.2,1.2-3.9,2.1c1.3,0.6,2.2,1,3.1,1.3c88.2,26.8,144.1,84.7,166.1,174.3
				c3.7,15,3.8,30.9,5.7,46.3c0.7,6-1.4,10.5-6.7,13.5C325.2,494.6,174.8,494.6,24.4,494.6z M250,25c-62.8,0-113.7,50.7-113.8,113.5
				c-0.1,62.9,50.9,114.1,113.7,114.1c62.6,0,113.7-50.9,113.8-113.6C363.9,76,313,25,250,25z M36.8,475.1c3.1,0,4.8,0,6.5,0
				c47.1,0,94.2-0.1,141.4,0.1c4.4,0,6-1.2,6.9-5.4c9.4-45.6,18.9-91.2,28.3-136.8c0.4-1.9-0.1-4.5-1-6.2
				c-7.2-13.3-14.6-26.5-21.9-39.7c-4.1-7.3-4.1-7.5-12.2-4.6C108.7,309.2,61,361.8,42.1,440.2C39.5,451.4,38.6,463,36.8,475.1z
				 M462.8,475.1c-1.2-9.4-1.8-18-3.5-26.4C443.1,367,395.5,312,317.6,283.1c-3.4-1.3-5.2-0.9-7.3,2.3c-8.9,13.8-18,27.4-27.2,40.9
				c-1.8,2.6-2.2,4.9-1.5,7.9c11.5,45.3,22.8,90.6,34.1,136c0.9,3.7,2.2,5,6.2,5c45-0.2,90.1-0.1,135.2-0.1
				C458.6,475.1,460.2,475.1,462.8,475.1z M210.4,474.8c29.2,0,57.5,0,86.3,0c-11.5-45.9-22.8-91.3-34.1-136.5c-8.2,0-16,0-23.7,0
				C229.3,383.9,219.9,429.1,210.4,474.8z M292.7,276.5c-26.9-5.4-52.9-5.9-79.8-1c7.9,14.2,15.4,27.8,23.1,41.3
				c0.5,0.9,2.4,1.4,3.6,1.5c7.5,0.1,14.9,0.2,22.4,0c1.4,0,3.3-0.8,4-1.8C274.8,303.5,283.5,290.4,292.7,276.5z"/>
			<path class="st0" d="M476.9,500H23l-1.2-0.7c-6.8-3.9-9.8-9.9-9.5-18.4c4.2-92.7,47.3-162.3,128.3-206.7
				c10.2-5.6,21.3-9.5,32.1-13.3c2.4-0.9,4.9-1.7,7.3-2.6c-2.8-1.7-5.6-3.4-8.2-5.3c-47.4-34.5-67.6-81.9-58.2-137.2
				c9.5-56.2,44.7-94.7,102-111.5c5.3-1.5,10.7-2.4,16-3.2c2.3-0.4,4.7-0.7,7-1.1l1-0.1l22.1,0.1c3.1,0.7,6.3,1.3,9.5,1.8
				c7,1.3,14.2,2.6,21.2,4.8c60,18.8,100.4,77.8,96,140.2c-3.4,48.3-26.3,85.7-68.1,111c85.5,28.5,139.9,87.6,161.5,175.6
				c2.6,10.5,3.5,21.4,4.4,31.9c0.4,5,0.8,10.1,1.4,15c1,8.3-2.3,14.8-9.4,18.8L476.9,500z M26,489.3h448c2.5-1.8,3.3-4,2.9-7.5
				c-0.6-5.1-1-10.4-1.5-15.4c-0.9-10.6-1.7-20.6-4.1-30.3c-21.4-86.9-76-144.2-162.5-170.5c-0.8-0.3-1.6-0.6-2.6-1l-1.1-0.5
				l-10-4.4l13.4-7.3c42.5-23.5,65.7-59.2,69-106.1c4-57.5-33.2-111.9-88.5-129.3c-6.4-2-13-3.2-20-4.5c-3.1-0.6-6.1-1.1-9.2-1.8
				h-20c-2.3,0.4-4.5,0.8-6.8,1.1c-5.1,0.8-10,1.5-14.6,2.9c-53.8,15.8-85.6,50.4-94.4,103c-8.7,51.7,9.4,94.4,54,126.8
				c3.4,2.5,7.3,4.7,11.3,7c2,1.1,4,2.3,6,3.5l10,6.1l-12.6,4c-0.7,0.2-1.2,0.4-1.8,0.6c-4.9,1.9-9.9,3.7-14.8,5.4
				c-10.8,3.8-21,7.4-30.5,12.6C68.3,326.1,27,392.7,23,481.4C22.8,485.8,24,487.8,26,489.3z M184.8,480.6
				C184.7,480.6,184.7,480.6,184.8,480.6c-37.1-0.1-74-0.1-111-0.1l-43.1,0l0.9-6.1c0.6-3.8,1-7.6,1.5-11.4c1-8.3,2-16.1,3.9-24
				c19.2-79.9,68.3-134.2,146-161.6c10.4-3.7,13.2-2.6,18.6,7l4.8,8.7c5.8,10.3,11.5,20.7,17.1,31.1c1.6,3,2.2,6.7,1.6,9.8
				c-4.5,21.9-9,43.7-13.6,65.6c-4.9,23.7-9.9,47.5-14.7,71.3C195.4,477.5,191.6,480.6,184.8,480.6z M104.1,469.8
				c26.9,0,53.7,0,80.6,0.1c0.6,0,1.1,0,1.3-0.1c0.1-0.2,0.2-0.6,0.3-1.1c4.9-23.8,9.8-47.5,14.7-71.3c4.5-21.9,9.1-43.7,13.6-65.6
				c0.1-0.6-0.1-1.8-0.5-2.6c-5.6-10.4-11.3-20.7-17.1-31l-4.8-8.6c-0.7-1.3-1.4-2.6-2-3.4c-1,0.3-2.5,0.8-3.8,1.2
				c-74,26.1-120.8,77.9-139.2,154c-1.8,7.3-2.7,14.8-3.7,22.8c-0.2,1.8-0.5,3.6-0.7,5.5l30.8,0C83.9,469.8,94,469.8,104.1,469.8z
				 M321.8,480.6c-8.1,0-10.3-4.9-11.4-9.1c-10-40.6-20.9-83.8-34-136c-1.1-4.5-0.4-8.3,2.2-12.2c11.1-16.4,19.5-29,27.2-40.8
				c3.3-5.1,7.8-6.6,13.6-4.4c79.9,29.6,128.7,86.7,145.2,169.6c1.2,5.9,1.8,11.8,2.5,17.9c0.3,2.9,0.6,5.8,1,8.8l0.8,6l-40.8,0
				C392.7,480.4,357.3,480.4,321.8,480.6C321.9,480.6,321.8,480.6,321.8,480.6z M321.1,469.9c0.2,0,0.4,0,0.8,0
				c35.4-0.1,70.9-0.1,106.3-0.1l28.7,0c-0.1-1-0.2-2-0.3-3c-0.6-6-1.3-11.6-2.4-17c-15.7-79-62.3-133.4-138.5-161.7
				c-0.3-0.1-0.5-0.2-0.6-0.2c-0.1,0.1-0.2,0.3-0.3,0.4c-7.7,12-16.1,24.6-27.3,41c-0.9,1.4-1.1,2.1-0.7,3.6
				c13.2,52.2,24,95.4,34.1,136C320.9,469.3,321,469.6,321.1,469.9z M303.5,480.1h-99.7L234.5,333h32.2L303.5,480.1z M217,469.4
				h72.8l-31.4-125.8h-15.2L217,469.4z M250.9,323.8c-3.6,0-7.4,0-11.4-0.1c-2.7,0-6.5-1.2-8.2-4.2c-6.2-11-12.4-22-18.7-33.4
				l-8-14.5l7.3-1.4c26.9-5,53.7-4.6,81.8,1l7.8,1.6l-10.2,15.3c-7.1,10.8-14,21.1-21,31.4c-1.9,2.8-5.5,4.1-8.3,4.1
				C258.6,323.7,254.9,323.8,250.9,323.8z M239.9,313c8.1,0.1,15.3,0.1,22,0c0,0,0,0,0.1,0c6.8-10.1,13.6-20.2,20.6-30.7l1.2-1.9
				c-21.4-3.5-41.9-3.7-62.5-0.7l0.7,1.3C228.1,291.9,233.9,302.5,239.9,313z M250,258C250,258,250,258,250,258
				c-31.9,0-61.8-12.4-84.3-35c-22.5-22.6-34.9-52.6-34.9-84.5C131,72.9,184.4,19.6,250,19.6c0,0,0,0,0,0
				c31.9,0,61.8,12.4,84.3,34.9c22.5,22.5,34.9,52.5,34.8,84.5C369,204.6,315.5,258,250,258z M250,30.3
				c-59.7,0-108.3,48.5-108.4,108.2c-0.1,29,11.2,56.4,31.7,76.9c20.5,20.5,47.7,31.8,76.7,31.9c0,0,0,0,0.1,0
				c59.7,0,108.3-48.6,108.4-108.3c0-29.1-11.2-56.4-31.7-76.9C306.3,41.6,279,30.3,250,30.3C250,30.3,250,30.3,250,30.3z"/>
		</g>
	</g>
	<path class="st1" d="M250,25c63,0,113.9,51,113.7,114c-0.1,62.7-51.1,113.6-113.8,113.6c-62.9,0-113.8-51.2-113.7-114.1
		C136.3,75.7,187.2,25,250,25z"/>
	<path class="st2" d="M36.8,475.1c1.8-12.1,2.6-23.7,5.3-34.9c18.8-78.4,66.5-131,142.6-157.8c8.1-2.8,8.1-2.7,12.2,4.6
		c7.3,13.2,14.7,26.4,21.9,39.7c0.9,1.8,1.4,4.3,1,6.2c-9.4,45.6-18.9,91.2-28.3,136.8c-0.9,4.2-2.5,5.5-6.9,5.4
		c-47.1-0.2-94.2-0.1-141.4-0.1C41.6,475.1,39.9,475.1,36.8,475.1z"/>
	<path class="st2" d="M462.8,475.1c-2.7,0-4.2,0-5.8,0c-45,0-90.1-0.1-135.2,0.1c-4,0-5.3-1.3-6.2-5c-11.2-45.4-22.6-90.7-34.1-136
		c-0.8-3.1-0.3-5.3,1.5-7.9c9.2-13.6,18.3-27.2,27.2-40.9c2.1-3.2,3.9-3.6,7.3-2.3c78,28.9,125.6,83.9,141.8,165.6
		C461.1,457.1,461.6,465.7,462.8,475.1z"/>
	<path class="st1" d="M210.4,474.8c9.5-45.7,18.9-90.9,28.4-136.5c7.8,0,15.5,0,23.7,0c11.3,45.2,22.6,90.6,34.1,136.5
		C267.9,474.8,239.6,474.8,210.4,474.8z"/>
	<path class="st1" d="M292.7,276.5c-9.2,13.9-17.9,27-26.7,40c-0.7,1-2.6,1.8-4,1.8c-7.5,0.2-14.9,0.1-22.4,0
		c-1.3,0-3.1-0.6-3.6-1.5c-7.7-13.5-15.2-27.1-23.1-41.3C239.8,270.6,265.8,271.2,292.7,276.5z"/>
</g>
</svg>
