<?xml version="1.0" encoding="utf-8"?>
<!-- Generator: Adobe Illustrator 23.0.3, SVG Export Plug-In . SVG Version: 6.00 Build 0)  -->
<svg version="1.1" id="Layer_1" xmlns="http://www.w3.org/2000/svg" xmlns:xlink="http://www.w3.org/1999/xlink" x="0px" y="0px"
	 viewBox="0 0 500 500" style="enable-background:new 0 0 500 500;" xml:space="preserve">
<style type="text/css">
	.st0{fill:#BDD29A;}
	.st1{fill:#83951D;}
	.st2{fill:#465E14;}
</style>
<g>
	<g>
		<g>
			<path class="st0" d="M495.6,196.2c-0.3,0.5-0.7,1-0.9,1.6c-4.2,12.4-12.8,18.7-25.8,18.7c-26.5,0-53.1-0.1-79.6,0
				c-2.4,0-5.3,1.1-7.1,2.7c-13.5,11.5-26.8,23.3-40,35c-3.2,2.9-6.6,4.6-10.8,2.7c-4.3-1.9-5-5.8-5-10c0-10,0-20.1,0-30.4
				c-8.3,0-16.1,0-24.1,0c-4.6,40.1-24.7,69.7-60.6,89.4c2.2,0.7,3.9,1.2,5.6,1.8c75,25.4,119.7,76.9,133.4,155
				c1.5,8.6,1.6,17.5,2,26.2c0.3,6.4-2.9,9.4-9.2,9.6c-1.3,0-2.6,0-3.8,0c-117.3,0-234.6,0-352,0c-2.4,0-4.9,0.2-7.1-0.5
				c-4.6-1.5-6-5.2-5.9-9.8c0.6-37.7,10.9-72.5,32-103.8c25.8-38.4,61-64.3,105.7-77.2c1-0.3,2-0.7,3.6-1.3
				c-33.2-18.1-53.8-45-59.6-82c-4.5-28.9,2-55.5,18.7-79.6c34.5-49.6,107.4-63.5,159-20.7c0.1-1.7,0.3-3,0.3-4.3
				c0-15,0-30.1,0-45.1c0.1-16.6,10.3-27.1,26.9-27.1c59.1-0.1,118.3,0,177.4-0.1c14.4,0,22.6,7.6,27.1,20.5
				C495.6,110.5,495.6,153.3,495.6,196.2z M343.1,230.6c11-9.6,21-18.3,30.9-27.2c3.3-3,6.8-4.3,11.3-4.2c27.5,0.2,55,0.3,82.5,0.3
				c7.9,0,10.8-2.8,10.8-10.6c0-38,0-76.1,0-114.1c0-7.8-2.9-10.7-10.7-10.7c-58.7,0-117.3,0-176,0c-8,0-10.9,3-10.9,11.1
				c0,37.7,0,75.4,0,113.1c0,8.3,2.9,11.2,11.4,11.2c13.6,0,27.2-0.2,40.8-0.2c6.9,0,10,3.1,10.1,9.9
				C343.2,215.9,343.1,222.6,343.1,230.6z M285.8,217c-16.7-6.1-21.6-13.1-21.6-29.2c0-11.7,0.1-23.3-0.1-35
				c-0.1-2.4-1.1-5.4-2.7-7.2c-15.6-17.4-35.1-27.6-58.3-29.8c-59.9-5.7-108.4,44.9-100.6,104.3c5.5,41.6,38.4,73.9,81,79.4
				c39.6,5.1,79.8-18.8,94.9-56.9C281.7,234.5,283.4,225.6,285.8,217z M147.2,323.9C71,343.5,22.2,417.5,22.3,481.3
				c0.4,0.1,0.9,0.3,1.4,0.3c39.3,0,78.6,0,118,0.1c2.8,0,3.4-1.4,3.9-3.7c7.6-36.9,15.3-73.8,22.9-110.7c0.3-1.6,0.7-3.7-0.1-5.1
				C161.4,349.4,154.2,336.6,147.2,323.9z M365.7,481.5c-0.9-7.1-1.3-13.7-2.5-20c-12.9-66.5-51.1-111.5-114.5-135.4
				c-2.9-1.1-4.5-0.5-6.2,2.1c-7,10.9-14.3,21.5-21.2,32.5c-1.2,1.9-1.7,4.8-1.2,6.9c6.8,28.1,13.8,56.1,20.7,84.1
				c2.5,10,5,20,7.5,29.9C287.5,481.5,326.1,481.5,365.7,481.5z M185,370.8c-7.7,37.1-15.3,73.7-22.9,110.6c23.3,0,45.7,0,68.7,0
				c-2.3-9.2-4.4-17.9-6.6-26.7c-6.7-26.8-13.4-53.5-19.9-80.3c-0.6-2.6-1.6-3.8-4.4-3.6C195,370.9,190.2,370.8,185,370.8z
				 M164.3,319.7c6.1,11,11.7,21.4,17.6,31.6c0.7,1.2,2.7,2.2,4.1,2.2c5.4,0.3,10.9,0.3,16.3,0c1.7-0.1,3.9-1.3,4.9-2.7
				c6.3-9,12.3-18.3,18.4-27.5c0.6-0.9,0.9-1.9,1.4-3C206,316.3,185.6,315.9,164.3,319.7z"/>
			<path class="st0" d="M371.4,503.1c-0.3,0-0.7,0-1,0h-1h-39.1c-104.3,0-208.6,0-312.9,0l-1.2,0c-2.2,0-4.8,0.1-7.3-0.7
				c-4.2-1.3-9.1-4.9-9-14.1c0.6-39.1,11.6-74.8,32.7-106.2c25.3-37.6,59.7-63.5,102.2-77.2c-30-19-47.9-45.9-53.2-80.2
				c-4.6-29.7,1.9-57.6,19.4-82.8c17.8-25.6,46.1-42.8,77.5-47.1c28.9-3.9,57.3,3.2,81.1,20.2c0-4.3,0-8.7,0-13c0-9.2,0-18.4,0-27.6
				c0.1-19.1,12.4-31.5,31.3-31.5c29.2,0,58.5,0,87.7,0c29.9,0,59.8,0,89.8,0c0,0,0,0,0.1,0c15.3,0,25.8,7.9,31.3,23.5l0.3,0.7
				v130.5l-0.6,1.1c-0.1,0.2-0.3,0.5-0.5,0.7l-0.2,0.3c-4.7,14-15.1,21.5-29.9,21.5h0c-8.8,0-17.5,0-26.3,0c-17.5,0-35.5-0.1-53.3,0
				c-1.3,0-3.2,0.7-4.3,1.7c-13.4,11.5-26.6,23.1-40,35c-1.9,1.7-7.8,6.9-15.6,3.5c-7.7-3.4-7.6-11.2-7.6-14.1c0-7.1,0-14.2,0-21.4
				V221h-15.7c-5.1,36.1-23.3,64.3-53.9,83.8C326.6,331.1,371.2,384,384.9,462c1.3,7.5,1.6,15.2,1.9,22.6l0.2,4.2
				c0.2,4.3-0.9,7.7-3.1,10.1c-2.3,2.5-5.8,3.9-10.3,4.1C372.8,503.1,372.1,503.1,371.4,503.1z M369.4,494.2h1c0.9,0,1.7,0,2.6,0
				c1.4-0.1,3.3-0.3,4.2-1.3c0.8-0.8,0.9-2.5,0.8-3.8l-0.2-4.2c-0.3-7.1-0.5-14.5-1.8-21.4c-13.3-75.8-57.1-126.8-130.4-151.6
				c-1.1-0.4-2.1-0.7-3.3-1.1l-12-3.8l9.1-5c34.8-19,53.9-47.2,58.4-86l0.5-3.9h32.4l0,13.3c0,7.2,0,14.4,0,21.5
				c0,4.5,1,5.3,2.4,5.9s2.8,0.9,6.1-2c13.4-11.9,26.6-23.6,40.1-35.1c2.7-2.3,6.6-3.8,10-3.8c17.8-0.1,35.9-0.1,53.4,0
				c8.8,0,17.5,0,26.3,0h0c11.1,0,18-5,21.6-15.7c0.2-0.6,0.4-1.1,0.7-1.5V68.4c-4.3-11.6-11.3-16.8-22.6-16.8c0,0,0,0,0,0
				c-29.9,0-59.9,0-89.8,0c-29.2,0-58.4,0-87.7,0c-14,0-22.4,8.5-22.4,22.7c0,9.2,0,18.4,0,27.6c0,5.8,0,11.7,0,17.5
				c0,1-0.1,2-0.2,3.2l-0.8,10l-6.6-5.4c-23.1-19.2-51.9-27.5-81.1-23.5c-29,3.9-55,19.8-71.4,43.3c-16.2,23.3-22.2,49-18,76.4
				c5.5,35,24.2,60.8,57.3,78.8l8.7,4.7l-10.7,3.9c-0.9,0.4-1.7,0.6-2.4,0.8C100.1,324,65.4,349.4,40.1,387
				C20,416.9,9.4,451,8.9,488.4c-0.1,4.6,1.6,5.1,2.8,5.5c1.1,0.4,2.8,0.3,4.4,0.3l1.4,0c104.3,0,208.6,0,312.9,0L369.4,494.2
				L369.4,494.2z M141.6,486.2C141.6,486.2,141.6,486.2,141.6,486.2c-27.6-0.1-55.2-0.1-82.8-0.1l-35.1,0c-1,0-1.8-0.3-2.2-0.4
				l-3.4-0.8l-0.1-3.5c-0.1-63.2,47.8-141,128.2-161.8l3.3-0.9l6.3,11.4c5.4,9.8,11.1,20,16.5,30.1c1.4,2.5,1,5.5,0.5,8
				c-3.9,19.1-7.9,38.1-11.8,57.2c-3.7,17.8-7.4,35.6-11.1,53.5C149.4,480.7,148.3,486.2,141.6,486.2z M26.8,477.2l32,0
				c27.4,0,54.9,0,82.3,0.1c0,0,0-0.1,0-0.2c3.7-17.8,7.4-35.6,11.1-53.5c3.9-19.1,7.9-38.1,11.8-57.2c0.3-1.4,0.3-2,0.3-2.3
				c-5.4-10-10.9-20.1-16.4-29.8l-3-5.4C72.5,349.5,28.7,419,26.8,477.2z M370.8,486H244.9l-3.1-12.5c-1.7-6.9-3.5-13.8-5.2-20.8
				l-2.7-11c-6-24-12.1-48.7-18-73.1c-0.8-3.3-0.1-7.4,1.8-10.4c3.8-6.1,7.9-12.1,11.8-18c3.2-4.8,6.4-9.6,9.5-14.5
				c2.8-4.4,6.6-5.7,11.5-3.9c64.7,24.4,104.2,71,117.3,138.7c0.9,4.5,1.3,9,1.8,13.7c0.2,2.2,0.5,4.4,0.7,6.7L370.8,486z
				 M251.8,477.1h109c-0.1-0.6-0.1-1.2-0.2-1.9c-0.5-4.5-0.9-8.8-1.7-12.9c-12.5-64.4-50.1-108.9-111.7-132.1
				c-0.2-0.1-0.4-0.1-0.5-0.2c-0.1,0.1-0.2,0.3-0.4,0.5c-3.1,4.9-6.4,9.7-9.6,14.6c-3.9,5.8-7.9,11.9-11.7,17.9
				c-0.6,0.9-0.9,2.6-0.6,3.5c5.9,24.4,12,49.1,18,73.1l2.7,11c1.7,6.9,3.5,13.9,5.2,20.7L251.8,477.1z M236.4,485.8h-79.8
				l24.7-119.5h3.6c1.6,0,3.2,0,4.7,0c3.4,0,6.7,0.1,9.9-0.1c7.2-0.3,8.5,5.2,8.9,7c4.9,20.1,9.9,40.2,14.9,60.3l5,20
				c1.5,6.1,3,12.2,4.6,18.5L236.4,485.8z M167.5,477h57.6l-0.7-2.8c-1.5-6.2-3-12.3-4.6-18.4l-5-20c-5-20.1-10-40.2-15-60.4
				c0-0.1-0.1-0.2-0.1-0.3c-3.4,0.1-6.7,0.1-10.3,0.1c-0.3,0-0.7,0-1,0L167.5,477z M200.5,375.1L200.5,375.1L200.5,375.1z
				 M194.4,358.2c-2.7,0-5.6-0.1-8.6-0.2c-2.6-0.1-6.1-1.7-7.7-4.5c-4.5-7.9-8.8-15.7-13.4-24l-7.2-13l6.1-1.1
				c21.2-3.8,42.2-3.6,64.2,0.6l5.5,1.1l-2.3,5.1c-0.1,0.3-0.3,0.6-0.4,0.9c-0.3,0.8-0.7,1.8-1.3,2.7l-2.9,4.4
				c-5,7.6-10.2,15.5-15.5,23.2c-1.7,2.5-5.2,4.4-8.2,4.6C199.9,358.1,197.2,358.2,194.4,358.2z M185.6,348.8
				c0.2,0.1,0.5,0.3,0.7,0.3c5.9,0.3,11,0.3,15.8,0c0.4,0,1.3-0.5,1.5-0.8c5.2-7.5,10.4-15.4,15.4-23l1.1-1.7
				c-16.6-2.6-32.7-2.8-48.8-0.5l1.2,2.1C176.9,333.4,181.1,341.1,185.6,348.8z M185.5,348.8L185.5,348.8L185.5,348.8z M194.2,304.6
				c-3.8,0-7.5-0.2-11.3-0.7c-44.3-5.7-79.2-39.9-84.9-83.2c-3.9-29.7,5.6-59,26.2-80.3c20.5-21.3,49.4-31.9,79.2-29.1
				c24.2,2.3,44.8,12.8,61.2,31.3c2.2,2.5,3.7,6.4,3.8,10c0.2,8.5,0.2,17.1,0.1,25.4c0,3.3,0,6.5,0,9.8c0,14.5,3.9,19.7,18.7,25.1
				l3.9,1.4l-1.1,3.9c-0.8,2.7-1.4,5.4-2.1,8.1c-1.5,5.9-3,12.1-5.4,18C268.1,280.6,232.1,304.6,194.2,304.6z M194,119.8
				c-24,0-46.8,9.5-63.4,26.8c-18.7,19.4-27.3,45.9-23.8,73c5.3,40,36.3,70.3,77.2,75.6c38,4.9,75.9-17.9,90.3-54.1
				c2.1-5.3,3.5-10.9,5-16.9c0.4-1.5,0.8-3,1.1-4.5c-15.4-6.5-20.7-15-20.8-31.9c0-3.3,0-6.5,0-9.8c0-8.2,0-16.8-0.1-25.1
				c0-1.5-0.7-3.4-1.6-4.3c-14.9-16.7-33.6-26.3-55.4-28.3C199.7,119.9,196.9,119.8,194,119.8z M338.7,240.4l0-17c0-5,0-9.5,0-14
				c0-4.4-1.2-5.5-5.6-5.5c0,0,0,0,0,0c-6.8,0-13.7,0.1-20.5,0.1c-6.7,0.1-13.5,0.1-20.2,0.1c0,0,0,0-0.1,0c-3.8,0-8.5-0.4-11.9-3.7
				c-3.4-3.4-3.8-8.4-3.8-11.9c0-37.7,0-75.4,0-113.2c0-10.6,4.9-15.5,15.4-15.5c58.7,0,117.3,0,176,0c10.3,0,15.1,4.8,15.1,15.2
				c0,38,0,76.1,0,114.1c0,3.3-0.4,8-3.7,11.3c-3.4,3.3-8.3,3.7-11.6,3.7c-24.9,0-53.9-0.1-82.5-0.3c0,0-0.1,0-0.1,0
				c-3.3,0-5.7,0.9-8.1,3.1c-7.1,6.4-14.2,12.6-21.8,19.2L338.7,240.4z M333.1,194.9c9.3,0,14.4,5.1,14.5,14.3c0,3.8,0,7.6,0,11.6
				l1.8-1.6c7.5-6.6,14.7-12.8,21.7-19.1c4.1-3.7,8.6-5.4,14.3-5.4c28.5,0.2,57.5,0.3,82.4,0.3c0,0,0,0,0,0c2.7,0,4.5-0.4,5.2-1.1
				c0.7-0.7,1.1-2.5,1.1-5c0-38,0-76.1,0-114.1c0-5.4-0.9-6.3-6.3-6.3c-58.6,0-117.3,0-176,0c-5.5,0-6.5,1-6.5,6.7
				c0,37.7,0,75.4,0,113.1c0,2.9,0.4,4.8,1.2,5.6c0.5,0.5,2,1.2,5.7,1.2c0,0,0,0,0,0c6.7,0,13.5-0.1,20.2-0.1
				C319.3,195,326.2,194.9,333.1,194.9C333,194.9,333.1,194.9,333.1,194.9z"/>
		</g>
	</g>
	<path class="st1" d="M343.1,230.6c0-8,0-14.7,0-21.3c-0.1-6.8-3.2-9.9-10.1-9.9c-13.6,0-27.2,0.2-40.8,0.2
		c-8.5,0-11.4-2.9-11.4-11.2c0-37.7,0-75.4,0-113.2c0-8.1,3-11.1,10.9-11.1c58.7,0,117.3,0,176,0c7.8,0,10.7,2.9,10.7,10.7
		c0,38,0,76.1,0,114.1c0,7.8-2.9,10.6-10.8,10.6c-27.5-0.1-55-0.1-82.5-0.3c-4.4,0-7.9,1.3-11.3,4.2
		C364.2,212.3,354.1,220.9,343.1,230.6z M407.3,157.1c0.1,6.5,5.5,11.9,12,11.9c6.4,0,11.9-5.5,11.9-12c0-6.7-5.5-12.1-12.3-12
		C412.3,145.2,407.2,150.5,407.3,157.1z M327.5,156.7c-0.1,6.6,5,12,11.5,12.2c6.6,0.2,12.3-5.4,12.3-12.1c0-6.5-5.3-11.8-11.9-11.9
		C332.8,145,327.6,150.1,327.5,156.7z M379.2,145.1c-6.5,0-11.9,5.3-11.9,11.9c0,6.4,5.4,12,11.8,12.1c6.7,0.1,12.1-5.4,12-12.2
		C391,150.1,385.9,145,379.2,145.1z"/>
	<path class="st2" d="M285.8,217c-2.4,8.7-4.1,17.5-7.4,25.7c-15.1,38.1-55.3,61.9-94.9,56.9c-42.6-5.5-75.6-37.8-81-79.4
		c-7.8-59.4,40.7-110,100.6-104.3c23.2,2.2,42.8,12.4,58.3,29.8c1.6,1.8,2.6,4.7,2.7,7.2c0.3,11.7,0.1,23.3,0.1,35
		C264.2,203.9,269.1,210.9,285.8,217z"/>
	<path class="st1" d="M147.2,323.9c7.1,12.8,14.2,25.5,21.1,38.5c0.7,1.3,0.4,3.4,0.1,5.1c-7.6,36.9-15.3,73.8-22.9,110.7
		c-0.5,2.3-1.1,3.7-3.9,3.7c-39.3-0.1-78.6-0.1-118-0.1c-0.5,0-0.9-0.2-1.4-0.3C22.2,417.5,71,343.5,147.2,323.9z"/>
	<path class="st1" d="M365.7,481.5c-39.6,0-78.2,0-117.4,0c-2.5-9.9-5-19.9-7.5-29.9c-7-28-13.9-56-20.7-84.1
		c-0.5-2.1,0-5.1,1.2-6.9c6.9-10.9,14.3-21.6,21.2-32.5c1.7-2.6,3.2-3.2,6.2-2.1c63.3,23.9,101.6,68.9,114.5,135.4
		C364.5,467.8,364.9,474.4,365.7,481.5z"/>
	<path class="st2" d="M185,370.8c5.3,0,10,0.2,14.8-0.1c2.8-0.1,3.8,1,4.4,3.6c6.6,26.8,13.3,53.6,19.9,80.3
		c2.2,8.8,4.3,17.6,6.6,26.7c-23,0-45.4,0-68.7,0C169.7,444.5,177.3,407.9,185,370.8z"/>
	<path class="st2" d="M164.3,319.7c21.3-3.8,41.8-3.4,62.6,0.6c-0.5,1.1-0.8,2.1-1.4,3c-6.1,9.2-12.1,18.4-18.4,27.5
		c-1,1.4-3.2,2.6-4.9,2.7c-5.4,0.3-10.9,0.3-16.3,0c-1.4-0.1-3.4-1.1-4.1-2.2C176,341.1,170.4,330.7,164.3,319.7z"/>
	<g>
		<g>
			<path class="st2" d="M407.3,157.1c-0.1-6.6,5-11.9,11.6-12.1c6.8-0.1,12.3,5.3,12.3,12c0,6.4-5.5,11.9-11.9,12
				C412.9,169.1,407.4,163.7,407.3,157.1z"/>
			<path class="st2" d="M419.2,173.4c-8.9,0-16.2-7.3-16.3-16.2c-0.1-9.1,6.9-16.4,16-16.6c4.5-0.1,8.8,1.6,12,4.8
				c3.1,3.1,4.9,7.3,4.8,11.7C435.6,165.9,428.1,173.4,419.2,173.4C419.3,173.4,419.2,173.4,419.2,173.4z M419.2,149.5
				c0,0-0.1,0-0.2,0c-4.1,0.1-7.3,3.4-7.3,7.6l0,0c0.1,4.1,3.5,7.5,7.5,7.5c0,0,0,0,0,0c4,0,7.5-3.6,7.5-7.6c0-2-0.8-3.9-2.2-5.3
				C423.1,150.3,421.2,149.5,419.2,149.5z"/>
		</g>
	</g>
	<g>
		<g>
			<path class="st2" d="M327.5,156.7c0.1-6.7,5.2-11.7,11.9-11.7c6.6,0.1,11.9,5.3,11.9,11.9c0,6.6-5.7,12.3-12.3,12.1
				C332.5,168.8,327.4,163.4,327.5,156.7z"/>
			<path class="st2" d="M339.4,173.4c-0.2,0-0.4,0-0.5,0c-9-0.3-15.9-7.7-15.8-16.7c0.1-9,7.3-16.1,16.3-16.1c0,0,0.1,0,0.1,0
				c9,0.1,16.3,7.4,16.3,16.3c0,4.4-1.9,8.7-5.1,11.9C347.6,171.8,343.5,173.4,339.4,173.4z M339.4,149.5c-4.3,0-7.4,3.1-7.4,7.3
				l0,0c0,4.2,3.1,7.6,7.2,7.8c1.9,0.1,3.8-0.7,5.3-2.1c1.5-1.5,2.4-3.5,2.4-5.5C346.9,152.9,343.6,149.5,339.4,149.5
				C339.4,149.5,339.4,149.5,339.4,149.5z"/>
		</g>
	</g>
	<g>
		<g>
			<path class="st2" d="M379.2,145.1c6.7,0,11.8,5,11.9,11.7c0.1,6.8-5.4,12.4-12,12.2c-6.4-0.1-11.8-5.7-11.8-12.1
				C367.4,150.4,372.7,145.1,379.2,145.1z"/>
			<path class="st2" d="M379.3,173.4c-0.1,0-0.2,0-0.3,0c-8.8-0.2-16.2-7.7-16.1-16.6c0-8.9,7.4-16.2,16.3-16.3l0,0c0,0,0,0,0.1,0
				c9,0,16.2,7.1,16.3,16.1c0,4.6-1.7,8.8-4.9,12C387.6,171.8,383.6,173.4,379.3,173.4z M379.2,149.5c-4.1,0-7.5,3.4-7.5,7.4
				c0,4,3.5,7.6,7.5,7.6c2,0.1,3.8-0.7,5.2-2.1c1.5-1.5,2.3-3.5,2.3-5.6C386.6,152.6,383.5,149.5,379.2,149.5
				C379.3,149.5,379.3,149.5,379.2,149.5L379.2,149.5z"/>
		</g>
	</g>
</g>
</svg>
