<svg id="Capa_1" enable-background="new 0 0 510 510" height="512" viewBox="0 0 510 510" width="512" xmlns="http://www.w3.org/2000/svg"><g><path d="m502.5 270c0-61.089-45.885-111.66-105-119.064v-150.936h-291.214l-98.786 98.787v411.213h390v-120.936c59.114-7.404 105-57.975 105-119.064zm-405-218.787v38.787h-38.787zm-60 428.787v-360h90v-90h240v120.936c-59.115 7.404-105 57.975-105 119.064s45.885 111.66 105 119.064v90.936zm345-120c-49.626 0-90-40.374-90-90s40.374-90 90-90 90 40.374 90 90-40.374 90-90 90z"/><path d="m367.5 210h30v60h-30z"/><path d="m367.5 300h30v30h-30z"/><path d="m67.5 420h240v30h-240z"/><path d="m67.5 360h180v30h-180z"/><path d="m67.5 300h150v30h-150z"/><path d="m67.5 240h150v30h-150z"/><path d="m67.5 180h180v30h-180z"/><path d="m172.5 60h30v30h-30z"/><path d="m232.5 60h30v30h-30z"/><path d="m292.5 60h30v30h-30z"/><path d="m172.5 120h90v30h-90z"/></g></svg>