<?xml version="1.0" encoding="utf-8"?>
<!-- Generator: Adobe Illustrator 23.0.3, SVG Export Plug-In . SVG Version: 6.00 Build 0)  -->
<svg version="1.1" id="Layer_1" xmlns="http://www.w3.org/2000/svg" xmlns:xlink="http://www.w3.org/1999/xlink" x="0px" y="0px"
	 viewBox="0 0 500 500" style="enable-background:new 0 0 500 500;" xml:space="preserve">
<style type="text/css">
	.st0{fill:#043A16;}
</style>
<path class="st0" d="M0,191.7c2.2-8.4,7.4-14.9,13.2-21.2c13.6-14.9,26.9-30.1,40.4-45.1c12.3-13.8,31-18,48-10.9
	c7.2,3,14.4,6.1,21.5,9.1c13.6,5.8,27.1,5.8,40.7,0.1c6.4-2.7,12.9-5.4,19.3-8.2c18.7-8.1,37.3-8.2,55.4,1.7
	c6.7,3.6,11.6,4.6,19.1,0.1c13.8-8.3,29.2-8.3,44-1.5c11.8,5.4,23.4,11.4,35.1,16.9c12,5.6,24,5.1,35.4-1.8
	c11.9-7.3,23.7-14.8,35.6-22.1c15.6-9.7,34.1-6.8,45.5,7.5c13.3,16.6,26.4,33.4,39.4,50.3c10.7,14,9.7,32.8-2.3,46.2
	c-20.7,23.1-41.6,46.1-62.5,69.2c-1.2,1.3-2.4,2.6-4,4.5c11.8,9.5,20.8,20.6,16.4,36.8c-4.1,14.8-14.3,23.9-29.7,28
	c2.3,12.3-2,22.3-10.7,31.1c-8.7,8.8-18.8,12.4-31.1,9.9c-4.3,14.9-12.8,26-28.2,30.1c-16.2,4.3-27.1-5.3-36.6-15.2
	c-4.4,5.7-8.1,11.5-12.8,16.3c-12,12.3-30.4,12.7-43.1,1.3c-8.4-7.5-16.5-15.2-23.9-22c-6.8,6.3-13.6,12.3-20.2,18.5
	c-11.5,10.9-28.7,12.1-41,2.5c-6.5-5-12.1-10.9-14.7-18.9c-21.7,12.1-43.5-0.5-52-22.5c-14.4,4.9-26.5,1-37-9.8
	c-10.7-11.1-12.9-23.5-7.2-36.3c-6.1-4.7-12.3-8.6-17.5-13.6c-12.3-12-12.4-30.4-0.8-43c6.7-7.3,13.7-14.4,20.8-21.8
	c-7.1-6.1-14-12-20.8-17.9c-5.4-4.6-10.8-9.5-16.4-13.9c-8-6.2-14.6-13.3-17.3-23.4C0,198.9,0,195.3,0,191.7z M200.3,338.9
	c20.9-0.9,44.8,24.5,34.1,47.1c-0.4,1,0.3,3.1,1.2,4c7.6,7.3,15.4,14.4,23.2,21.6c3.7,3.5,8.2,4.9,13.1,3.6
	c7.3-2,11.9-7.3,14.3-14.1c2.3-6.4-0.9-11.2-5.5-15.5c-9.2-8.4-18.3-16.9-27.7-25.6c4-4.3,7.8-8.3,11.5-12.4
	c1.7,1.5,2.9,2.6,4.1,3.7c18.2,16.8,36.3,33.6,54.5,50.3c7.5,6.9,15.6,5.7,23.3-2.8c6.9-7.7,6.9-15.5-0.3-22.3
	c-5.2-4.9-10.5-9.7-15.8-14.6c-14.1-13-28.1-26-42.5-39.3c3.9-4.2,7.6-8.2,11.5-12.3c1.7,1.5,3.1,2.7,4.4,3.9
	c20.3,18.8,40.6,37.6,60.9,56.3c8.2,7.5,15.8,7.1,23.6-1.3c7.8-8.4,7.7-16-0.5-23.6c-16-14.9-32-29.6-48-44.5
	c-7.2-6.7-14.5-13.4-21.9-20.3c4-4.3,7.8-8.3,11.6-12.3c21.5,19.9,42.5,39.3,63.5,58.7c10.4,9.6,17.5,9.3,26.8-1.2
	c6.1-6.9,5.8-14.9-0.8-21.2c-39.4-37.8-80.2-73.8-125.9-103.9c-10.2-6.7-20.6-7.1-31.2-1.2c-5,2.8-9.7,6-14.7,8.7
	c-22.8,12.7-52.8-4.9-53.1-31c-0.1-10.9,4.4-19.5,13.2-25.8c8.4-6,16.9-11.9,25.7-18.2c-13.3-7.9-26.6-8.8-40.3-3.6
	c-7.7,2.9-15.2,6.5-22.9,9.7c-13.6,5.8-27.9,7.3-42,3.3c-11.3-3.2-22.1-8.4-33.1-12.8c-9.8-3.9-20.8-1.9-27.8,5.8
	c-15.4,17-30.7,34.1-45.8,51.3c-6.2,7-5.6,14.8,1.5,20.9c10.6,9.2,21.3,18.2,31.9,27.3c3.8,3.2,7.6,6.5,11.8,10
	c10.5-12.4,21.6-23.9,39.4-19.2c16.3,4.4,26,15.8,28.7,32.6c26,1.9,38.3,17.2,36.6,45.2C187.6,309.4,195.2,320,200.3,338.9z
	 M411.5,274.8c0.9-1,1.6-1.9,2.4-2.8c20.9-23.2,41.9-46.3,62.8-69.5c7.9-8.7,8.2-18.3,0.9-27.7c-12.2-15.6-24.4-31.3-36.6-46.9
	c-6.7-8.6-15.6-10.2-24.9-4.5c-11.6,7.2-23.1,14.5-34.8,21.6c-16.8,10.2-34.3,11.1-52.1,2.8c-11.6-5.4-23-11.3-34.7-16.7
	c-10.5-4.9-21.2-4.4-30.8,1.8c-15.9,10.4-31.2,21.7-46.8,32.7c-4,2.8-6.1,6.8-5.9,11.7c0.6,14,16.7,22.9,28.7,15.9
	c5.1-2.9,9.9-6.3,15.1-9c15.3-7.9,31.2-8.4,45.4,1.4c26.9,18.4,54,36.8,78.3,58.9C389.5,254.4,400.4,264.5,411.5,274.8z M86.2,367.6
	c2.3-1.4,6.4-2.9,9.2-5.7c18.5-18.9,36.8-38.1,55-57.3c6.8-7.2,6.4-15.1-1-22.2c-8.7-8.3-16.3-8.8-23.7-1.1
	c-18.3,18.9-36.5,37.9-54.7,56.9c-5.1,5.3-6.7,11.5-3.6,16.8C71.1,361.6,76.3,366.6,86.2,367.6z M96.9,241.9
	c-2.2,1.3-6.3,2.8-9.1,5.6c-13.7,13.8-27.1,28-40.5,42.2c-1.9,2-3.6,4.7-4.5,7.4c-2.4,7.6,2,12.6,7.2,17.2c7.1,6.2,14.6,6,21.1-0.7
	c13.5-14,26.9-28.2,40.5-42.2c4.4-4.5,7.1-9.4,4.2-15.7C112.5,248.4,107.5,243,96.9,241.9z M183.6,339.2c-0.6-7-5-10.8-9.3-14.6
	c-6.4-5.6-14.2-5.5-20.1,0.6c-12.8,13.2-25.5,26.4-38.1,39.8c-5.3,5.6-5,13.3,0.2,19c1.4,1.5,3,3,4.6,4.4c6.3,5.5,14.4,5.4,20.1-0.5
	c12.6-12.9,25.1-25.9,37.4-39.1C180.8,346.2,181.9,342.4,183.6,339.2z M220.7,374.3c-0.7-7.4-5.5-11.3-10.2-15.1
	c-5.9-4.8-13.6-4.5-19,0.9c-8.1,8.2-16.1,16.5-24,25c-5.7,6.1-5.3,14.2,0.5,20.1c1.4,1.4,2.8,2.8,4.3,4c6.2,5.2,14,5.1,19.8-0.7
	c8-8.1,16-16.3,23.6-24.7C218,381.3,219.1,377.5,220.7,374.3z"/>
</svg>
