<?xml version="1.0" encoding="utf-8"?>
<!-- Generator: Adobe Illustrator 23.0.3, SVG Export Plug-In . SVG Version: 6.00 Build 0)  -->
<svg version="1.1" id="Layer_1" xmlns="http://www.w3.org/2000/svg" xmlns:xlink="http://www.w3.org/1999/xlink" x="0px" y="0px"
	 viewBox="0 0 500 500" style="enable-background:new 0 0 500 500;" xml:space="preserve">
<style type="text/css">
	.st0{fill:#043A16;}
</style>
<g>
	<path class="st0" d="M67.4,500c-3.8-2-8-3.5-11.5-6c-6.3-4.7-9.3-11.5-9.9-19.4c-0.1-1.1,0-2.3,0-3.4c0-147.4,0-294.9,0-442.4
		c0-15,8.1-25.7,21.6-28.3C69.8,0,72.1,0,74.4,0c117,0,234,0,351,0C443,0,454,11,454,28.7c0,112.5,0.1,224.9-0.1,337.4
		c0,18.9-7.2,35.2-21,48.3c-22.8,21.7-45.8,43-68.5,64.7c-11.1,10.6-24.3,16.6-39,19.9c-1.1,0.2-2.1,0.7-3.2,1
		C237.3,500,152.3,500,67.4,500z M434.3,368.3c0-2.2,0-3.6,0-5.1c0-111.3,0-222.6,0-333.9c0-7.7-2.1-9.7-10-9.7
		c-116.2,0-232.4,0-348.5,0c-8.1,0-10.1,2-10.1,10.1c0,146.8,0,293.5,0,440.3c0,8.4,1.9,10.3,10.4,10.3c77.9,0,155.9,0,233.8,0
		c1.7,0,3.5,0,5.8,0c0-2.5,0-4.4,0-6.3c0-22.3,0-44.6,0-66.9c0.1-23.5,15.4-38.8,38.8-38.8c24.6,0,49.1,0,73.7,0
		C430,368.3,431.8,368.3,434.3,368.3z M335.9,475.6c4.8-3.3,9.1-5.6,12.6-8.9c24.2-22.5,48.2-45.1,72.1-67.9
		c2.9-2.8,5.1-6.4,8.2-10.5c-2.8-0.2-4.2-0.3-5.6-0.3c-22.9,0-45.9,0-68.8,0c-12.6,0-18.8,6.4-18.8,19c0,20.8,0,41.6,0,62.5
		C335.6,471.2,335.7,472.7,335.9,475.6z"/>
	<path class="st0" d="M279.8,112c23.1,0,46.2-0.1,69.3,0.1c2.7,0,5.6,0.3,8,1.5c3.7,1.8,5.1,5.3,4.6,9.4c-0.5,3.9-2.5,6.7-6.3,7.9
		c-2.1,0.7-4.5,0.8-6.7,0.8c-46,0-92,0-138,0c-1,0-1.9,0-2.9,0c-6.1-0.4-10.4-4.6-10.3-10.1c0.1-5.4,4.2-9.5,10.3-9.5
		c16.7-0.1,33.5-0.1,50.2-0.1C265.1,112,272.5,112,279.8,112z"/>
	<path class="st0" d="M279.9,210.6c22.8,0,45.5,0,68.3,0c1.8,0,3.6,0,5.4,0.2c4.4,0.6,7.7,4,8.1,8.4c0.4,4.7-1.4,8.4-5.9,10.1
		c-2.2,0.8-4.8,1-7.2,1c-46,0.1-92,0-138,0c-0.8,0-1.6,0-2.4,0c-6.4-0.3-10.9-4.6-10.7-10.2c0.2-5.6,4.4-9.4,10.8-9.4
		C232.1,210.6,256,210.6,279.9,210.6z"/>
	<path class="st0" d="M132.7,132.3c1.6-2.5,2.7-4.3,3.8-6.1c9.5-15.9,19-31.8,28.6-47.6c3.7-6.1,9.1-7.8,14.3-4.8
		c5.1,3,6.2,8.8,2.6,14.9c-12.6,21-25.1,42.1-37.8,63.1c-4.5,7.4-11.1,8.2-17.3,2.1c-8.1-8-16.1-16-24.1-24.1c-5-5-5.3-10.8-1-15
		c4.1-4,10-3.7,14.7,1C121.7,120.9,126.9,126.3,132.7,132.3z"/>
	<path class="st0" d="M132.7,231c1.5-2.4,2.5-4.1,3.5-5.7c9.6-16,19.2-32,28.9-48c3.7-6.1,9.1-7.9,14.3-4.8c5.1,3,6.2,8.8,2.6,14.9
		c-12.6,21.1-25.1,42.1-37.8,63.1c-4.5,7.5-11.1,8.2-17.3,2.1c-8.1-8-16.1-16-24.1-24.1c-5-5-5.3-10.8-1-15
		c4.1-4.1,10.1-3.6,15.1,1.4C121.9,219.9,127,225.2,132.7,231z"/>
</g>
</svg>
